#N canvas 834 188 2180 1326 12;
#X obj 1097 19 loadbang;
#X msg 1097 57 \; pd dsp 1 \;, f 16;
#X obj 516 25 cnv 10 114 22 empty empty AIR 36 6 1 22 -66577 -262144
0;
#X text 516 50 Gregor Pirš 2022;
#N canvas 926 180 1971 1467 \$0-BUILD-MIXER 0;
#X obj 112 4 inlet;
#X obj 154 680 outlet;
#X text 204 677 to clone input directly;
#X obj 175 23 bng 15 250 50 0 empty empty empty 17 7 0 10 -262144 -1
-1;
#X msg 201 103 \; pd-CONSOLE clear \;;
#X obj 165 77 \$0;
#N canvas 370 180 1697 986 \$0-AIR-LABEL 0;
#X obj 23 26 inlet;
#X obj 25 204 pack f f;
#X obj 25 151 expr (\$1 / 2 * 100) + 220 - 58 \; (\$1 / 2 * 100) +
334 - 58 \;;
#X msg 24 267 \; pd-CONSOLE obj \$1 480 cnv 10 114 22 empty empty AIR
36 6 1 22 -66577 -262144 0 \; pd-CONSOLE obj \$2 480 cnv 10 1 1 empty
empty Console 8 12 2 15 -262144 -66577 0 \;, f 86;
#X connect 0 0 2 0;
#X connect 1 0 3 0;
#X connect 2 0 1 0;
#X connect 2 1 1 1;
#X restore 136 534 pd \$0-AIR-LABEL;
#N canvas 225 605 1517 1225 \$0-RIGHT-SIDE 0;
#X obj 30 17 inlet;
#X obj 29 44 t b b;
#X obj 50 141 expr 220 + (\$1 * 100) \; $f1 \;;
#N canvas 1037 583 1279 1064 \$0-SEND-AIRDIR 0;
#X obj 44 52 inlet;
#X obj 44 108 symbol;
#X obj 115 53 r \$0|airdir_path;
#X msg 44 274 label \$1;
#X symbolatom 132 100 10 0 0 0 - - -;
#X obj 13 63 bng 15 250 50 0 empty empty empty 17 7 0 10 -262144 -1
-1;
#X obj 44 302 s \$0|airdir_display;
#X connect 0 0 1 0;
#X connect 1 0 3 0;
#X connect 2 0 1 1;
#X connect 2 0 4 0;
#X connect 3 0 6 0;
#X connect 5 0 1 0;
#X restore 22 94 pd \$0-SEND-AIRDIR;
#X msg 50 203 \; pd-CONSOLE obj \$1 0 cnv 8 500 550 empty \\\$0|airdir_display
empty 6 12 0 6 -216697 -66577 0 \;, f 85;
#X connect 0 0 1 0;
#X connect 1 0 3 0;
#X connect 1 1 2 0;
#X connect 2 0 4 0;
#X restore 124 187 pd \$0-RIGHT-SIDE;
#N canvas 98 546 1780 1120 \$0-BACKCANVAS 0;
#X obj 47 25 inlet;
#X obj 48 68 expr (\$1 * 100) + 20;
#X msg 66 201 \; pd-CONSOLE obj 200 0 cnv 15 \$1 475 empty empty empty
20 12 0 14 -216697 -66577 0 \;, f 81;
#X msg 68 335 \; pd-CONSOLE obj 200 0 cnv 15 \$1 475 empty empty empty
20 12 0 14 -86277 -66577 0 \;, f 81;
#X msg 48 129 \; pd-CONSOLE obj 200 0 cnv 15 \$1 475 empty empty empty
20 12 0 14 -13330 -66577 0 \;, f 81;
#X connect 0 0 1 0;
#X connect 1 0 4 0;
#X restore 182 158 pd \$0-BACKCANVAS;
#X floatatom 14 42 5 0 0 0 - - -;
#X msg 154 649 all refreshmix;
#X obj 112 46 t b b b b b b;
#X obj 62 405 t b b b b b;
#N canvas 2340 336 1254 680 \$0-REFRESH 0;
#X obj 42 26 inlet;
#X text 104 20 prompt server for the init data \, such as CCH \, ADP
etc, f 30;
#X obj 101 250 netsend -u -b;
#X msg 101 224 connect localhost \$1;
#X obj 42 77 t b b;
#X obj 99 195 \$3;
#X obj 41 129 oscformat airmix crefresh;
#X connect 0 0 4 0;
#X connect 3 0 2 0;
#X connect 4 0 6 0;
#X connect 4 1 5 0;
#X connect 5 0 3 0;
#X connect 6 0 2 0;
#X restore 45 558 pd \$0-REFRESH;
#X msg 165 218 \; pd-CONSOLE obj 0 0 cnv 15 200 550 empty empty empty
20 12 0 14 -216697 -66577 0 \; pd-CONSOLE obj 109 97 vsl 15 320 0 1
0 0 empty \$1|master-fader-l empty 0 -9 0 10 -4032 -1 -1 0 1 \; pd-CONSOLE
obj 127 97 vsl 15 320 0 1 0 0 empty \$1|master-fader-r empty 0 -9 0
10 -4032 -1 -1 0 1 \; pd-CONSOLE obj 18 68 cnv 15 60 360 empty empty
empty 20 12 0 14 -16662 -66577 0 \; pd-CONSOLE obj 52 98 vu 24 320
\$1|master-vu-r empty -1 -8 0 4 -66577 -1 1 0 \; pd-CONSOLE obj 20
99 vu 24 320 \$1|master-vu-l empty -1 -8 0 4 -66577 -1 0 0 \; pd-CONSOLE
obj 10 9 cnv 15 1 1 empty empty MASTER 20 12 0 14 -245689 -66577 0
\; pd-CONSOLE obj 109 75 tgl 15 0 foo \$1|master-RF-l empty 17 7 0
10 -216697 -1 -1 1 1 \; pd-CONSOLE obj 128 75 tgl 15 0 foo \$1|master-RF-r
empty 17 7 0 10 -216697 -1 -1 1 1 \; pd-CONSOLE obj 106 426 tgl 19
0 foo \$1|master-mute-l M 5 10 0 7 10 -1 -1 0 1 \; pd-CONSOLE obj 126
426 tgl 19 0 foo \$1|master-mute-r M 5 10 0 7 10 -1 -1 0 1 \; pd-CONSOLE
floatatom 127 450 5 0 0 0 - \$1|master-fader-r foosnd \; pd-CONSOLE
floatatom 88 450 5 0 0 0 - \$1|master-fader-l foosnd \; pd-CONSOLE
obj 145 8 tgl 10 0 foosnd \$1|inboundMASTER_L empty 17 7 0 10 -233017
-1 -1 0 1 \; pd-CONSOLE obj 157 8 tgl 10 0 foosnd \$1|inboundMASTER_R
MST 14 5 0 5 -233017 -1 -1 0 1 \; pd-CONSOLE obj 145 22 tgl 10 0 foosnd
\$1|inboundPRELISTEN_L empty 17 7 0 10 -233017 -1 -1 0 1 \; pd-CONSOLE
obj 157 22 tgl 10 0 foosnd \$1|inboundPRELISTEN_R PRE 14 5 0 5 -233017
-1 -1 0 1 \;, f 108;
#X connect 0 0 9 0;
#X connect 0 0 11 0;
#X connect 3 0 11 0;
#X connect 5 0 14 0;
#X connect 10 0 1 0;
#X connect 11 0 12 0;
#X connect 11 1 7 0;
#X connect 11 2 10 0;
#X connect 11 3 5 0;
#X connect 11 4 8 0;
#X connect 11 5 4 0;
#X connect 12 1 13 0;
#X connect 12 4 6 0;
#X restore 759 345 pd \$0-BUILD-MIXER;
#X obj 716 202 bng 15 250 50 0 empty empty REBUILD_MIXER 17 7 0 6 -232576
-1 -1;
#X obj 855 192 loadbang;
#X text 640 21 gpp-air-console :: a core mixer console (monitor display)
;
#N canvas 1734 1033 2106 1127 CONSOLE 1;
#X obj 200 0 cnv 15 20 475 empty empty empty 20 12 0 14 -13330 -66577
0;
#X obj 0 0 cnv 15 200 550 empty empty empty 20 12 0 14 -216697 -66577
0;
#X obj 109 97 vsl 15 320 0 1 0 0 empty 6196|master-fader-l empty 0
-9 0 10 -4032 -1 -1 0 1;
#X obj 127 97 vsl 15 320 0 1 0 0 empty 6196|master-fader-r empty 0
-9 0 10 -4032 -1 -1 0 1;
#X obj 18 68 cnv 15 60 360 empty empty empty 20 12 0 14 -16662 -66577
0;
#X obj 52 98 vu 24 320 6196|master-vu-r empty -1 -8 0 4 -66577 -1 1
0;
#X obj 20 99 vu 24 320 6196|master-vu-l empty -1 -8 0 4 -66577 -1 0
0;
#X obj 10 9 cnv 15 1 1 empty empty MASTER 20 12 0 14 -245689 -66577
0;
#X obj 109 75 tgl 15 0 foo 6196|master-RF-l empty 17 7 0 10 -216697
-1 -1 0 1;
#X obj 128 75 tgl 15 0 foo 6196|master-RF-r empty 17 7 0 10 -216697
-1 -1 0 1;
#X obj 106 426 tgl 19 0 foo 6196|master-mute-l M 5 10 0 7 -233017 -1
-1 0 1;
#X obj 126 426 tgl 19 0 foo 6196|master-mute-r M 5 10 0 7 -233017 -1
-1 0 1;
#X floatatom 127 450 5 0 0 0 - 6196|master-fader-r foosnd;
#X floatatom 88 450 5 0 0 0 - 6196|master-fader-l foosnd;
#X obj 145 8 tgl 10 0 foosnd 6196|inboundMASTER_L empty 17 7 0 10 -233017
-1 -1 0 1;
#X obj 157 8 tgl 10 0 foosnd 6196|inboundMASTER_R MST 14 5 0 5 -233017
-1 -1 0 1;
#X obj 145 22 tgl 10 0 foosnd 6196|inboundPRELISTEN_L empty 17 7 0
10 -233017 -1 -1 0 1;
#X obj 157 22 tgl 10 0 foosnd 6196|inboundPRELISTEN_R PRE 14 5 0 5
-233017 -1 -1 0 1;
#X obj 214 8 cnv 15 100 400 empty empty 1 37 12 0 14 -203904 -83269
0;
#X obj 220 301 tgl 15 0 foosnd 6225|1-fader-rf empty 17 7 0 10 -203904
-1 -1 1 1;
#X obj 279 222 tgl 15 0 foosnd 6225|1-pan-rf empty 17 7 0 10 -203904
-1 -1 1 1;
#X obj 237 202 hsl 64 15 0 1 0 0 empty 6225|1-pan-state empty -2 -8
0 10 -262144 -1 -1 0 1;
#X floatatom 241 382 5 0 0 0 - 6225|1-fader-state foosnd;
#X floatatom 234 221 5 0 0 0 - 6225|1-pan-state foosnd;
#X obj 241 255 vsl 18 120 0 1 0 0 empty 6225|1-fader-state empty 0
-9 0 10 -262144 -1 -1 0 1;
#X obj 214 445 cnv 15 100 30 empty 6225|1-time-remaining empty 12 15
0 7 -480 -262130 0;
#X obj 263 255 vu 10 120 6225|1-vu-l empty -1 -8 0 10 -66577 -1 0 0
;
#X obj 276 255 vu 10 120 6225|1-vu-r empty -1 -8 0 4 -66577 -1 1 0
;
#X obj 245 62 vu 8 80 6225|1-svu-l empty -1 -8 0 4 -159808 -1 0 0;
#X obj 256 62 vu 8 80 6225|1-svu-r empty -1 -8 0 4 -159808 -1 1 0;
#X obj 214 412 cnv 15 100 30 empty 6225|1-filename ------IN------ 2
15 0 6 -203904 -83269 0;
#X obj 228 168 tgl 18 0 foosnd 6225|1-loop-active L 4 9 0 6 -233017
-1 -1 0 1;
#X obj 255 170 hradio 15 1 0 3 foosnd 6225|1-input-track IN_MP_SP 0
-6 0 5 -203904 -83269 -1 0;
#X obj 290 383 tgl 19 0 foosnd 6225|1-mute-track M 5 10 0 7 -233017
-1 -1 0 1;
#X obj 290 0 tgl 20 0 foosnd 6225|1-prelisten-track ~ 4 9 0 8 -233017
-1 -1 0 1;
#X floatatom 283 20 4 0 0 0 - 6225|1-prelisten-level foosnd;
#X obj 218 202 tgl 14 0 foosnd 6225|1-pan-enabled-diode P 3 7 0 6 -233017
-1 -1 0 1;
#X obj 239 48 tgl 8 0 foosnd 6225|1-inbound-diodes-S empty 17 7 0 8
-233017 -1 -1 0 1;
#X obj 262 48 tgl 8 0 foosnd 6225|1-inbound-diodes-S empty 14 5 0 8
-233017 -1 -1 0 1;
#X obj 249 44 tgl 11 0 foosnd 6225|1-inbound-diode-M empty 17 7 0 8
-233017 -1 -1 0 1;
#X obj 220 0 cnv 8 500 550 empty \$0|airdir_display empty 6 12 0 6
-216697 -66577 0;
#X obj 162 480 cnv 10 114 22 empty empty AIR 36 6 1 22 -66577 -262144
0;
#X obj 276 480 cnv 10 1 1 empty empty Console 8 12 2 15 -262144 -66577
0;
#X restore 641 47 pd CONSOLE;
#X obj 448 25 inlet;
#X obj 759 295 r \$0|REBUILD_MIXER;
#X obj 108 221 list split 1;
#X obj 129 334 float;
#X obj 128 402 list trim;
#X obj 128 365 list append;
#N canvas 2484 303 922 1103 \$0-MAIN-ROUTER 0;
#X obj 38 7 inlet;
#X obj 361 40 outlet;
#X text 359 59 pass args;
#N canvas 344 782 1438 1204 \$0-HANDLE_REQUEST 0;
#X obj 44 13 inlet;
#X obj 146 34 print >=>REQUEST;
#X obj 44 375 s \$0|HANDLE_SYSCORE;
#X msg 44 337 SHOW 1;
#X msg 102 337 SHOW 0;
#X text 44 398 note: SHOW 1 request WILL REBUILD MIXER, f 17;
#X obj 43 303 bang;
#X obj 101 304 bang;
#X obj 651 354 outlet;
#N canvas 249 180 1439 1453 \$0-HANDLE-MASTER-REQUEST 0;
#X obj 33 27 inlet;
#X obj 333 50 print ||>>>||REQUEST|MASTER;
#X text 49 114 request tactic switch;
#X obj 33 138 route lfader rfader fader;
#X obj 33 405 s \$0|master-fader-l;
#X obj 179 405 s \$0|master-fader-r;
#X obj 33 349 change;
#X obj 179 354 change;
#X obj 33 276 gpp-airliner~;
#X obj 180 276 gpp-airliner~;
#X obj 33 316 gpp-snapshot~ 100;
#X obj 180 318 gpp-snapshot~ 100;
#X text 247 121 NOTE: hardcoded master channel aliases \, such as 'level'
'left' or 'right' won't matter here \; they are a part of airmix protocol
\, gathered exclusively from the user input. On the other hand \, airmon
protocol will default to basics \, so only lfader rfader and fader
(both channels) remains;
#X connect 0 0 3 0;
#X connect 3 0 8 0;
#X connect 3 1 9 0;
#X connect 3 2 9 0;
#X connect 3 2 8 0;
#X connect 6 0 4 0;
#X connect 7 0 5 0;
#X connect 8 0 10 0;
#X connect 9 0 11 0;
#X connect 10 0 6 0;
#X connect 11 0 7 0;
#X restore 44 178 pd \$0-HANDLE-MASTER-REQUEST;
#X text 652 378 towards track request, f 12;
#X text 349 70 excluder (of commands that do not affect console but
are still dispatched, f 29;
#X obj 563 351 outlet;
#X obj 603 174 route all;
#X obj 44 134 route master m;
#X obj 195 96 route refreshcon;
#X obj 194 123 bang;
#X obj 375 129 route ls con noc xim mix mono stereo;
#X connect 0 0 14 0;
#X connect 3 0 2 0;
#X connect 4 0 2 0;
#X connect 6 0 3 0;
#X connect 7 0 4 0;
#X connect 13 0 12 0;
#X connect 13 1 8 0;
#X connect 14 0 9 0;
#X connect 14 1 9 0;
#X connect 14 2 15 0;
#X connect 15 0 16 0;
#X connect 15 1 17 0;
#X connect 17 7 13 0;
#X restore 38 134 pd \$0-HANDLE_REQUEST;
#N canvas 835 180 909 936 \$0-HANDLE_SNAPSHOT 0;
#X obj 61 25 inlet;
#X obj 119 44 print >=>SNAPSHOT;
#X obj 125 305 outlet;
#X obj 44 134 route master;
#N canvas 67 576 1558 1481 \$0-HANDLE-MASTER-SNAPSHOT 0;
#X obj 33 29 inlet;
#X obj 32 198 s \$0|master-fader-l;
#X obj 85 261 s \$0|master-fader-r;
#X text 33 134 binding this via gpp-airliner~ \, the console would
become autonomous. then \, it's neccessary to switch off *snapshot
and *contour control;
#X obj 332 48 print ||>>>||SNAPSHOT|MASTER;
#X obj 32 65 route lfader rfader fader;
#X connect 0 0 5 0;
#X connect 5 0 1 0;
#X connect 5 1 2 0;
#X connect 5 2 1 0;
#X connect 5 2 2 0;
#X restore 44 191 pd \$0-HANDLE-MASTER-SNAPSHOT;
#X text 256 138 comment;
#X connect 0 0 3 0;
#X connect 3 0 4 0;
#X connect 3 1 2 0;
#X restore 96 238 pd \$0-HANDLE_SNAPSHOT;
#N canvas 973 180 909 1024 \$0-HANDLE_CONTOUR 0;
#X obj 46 29 inlet;
#X obj 128 48 print >=>CONTOUR;
#X obj 125 305 outlet;
#X obj 44 134 route master;
#N canvas 954 773 2232 1086 \$0-HANDLE-MASTER-CONTOUR 0;
#X obj 33 29 inlet;
#X obj 332 48 print ||>>>||CONTOUR|MASTER;
#X obj 31 165 s \$0|master-RF-r;
#X obj 85 207 s \$0|master-RF-l;
#X obj 33 56 route rf vr;
#X obj 391 255 s \$0|master-fader-r;
#X obj 226 256 s \$0|master-fader-l;
#X obj 248 103 route lfader rfader fader;
#X obj 31 106 route lfader rfader fader;
#X connect 0 0 4 0;
#X connect 4 0 8 0;
#X connect 4 1 7 0;
#X connect 7 0 6 0;
#X connect 7 1 5 0;
#X connect 7 2 6 0;
#X connect 7 2 5 0;
#X connect 8 0 2 0;
#X connect 8 1 3 0;
#X connect 8 2 2 0;
#X connect 8 2 3 0;
#X restore 44 191 pd \$0-HANDLE-MASTER-CONTOUR;
#X connect 0 0 3 0;
#X connect 3 0 4 0;
#X connect 3 1 2 0;
#X restore 158 178 pd \$0-HANDLE_CONTOUR;
#N canvas 882 512 1002 723 \$0-HANDLE_ETC 0;
#X obj 61 25 inlet;
#X obj 141 44 print >=>ETC;
#X obj 143 226 outlet;
#X obj 61 88 route master;
#N canvas 0 180 2204 1242 \$0-HANDLE-MASTER-ETC 0;
#X obj 46 25 inlet;
#X obj 45 137 sel 0 1;
#X msg 45 181 color 10;
#X msg 120 179 color 13;
#X msg 161 237 color 10;
#X msg 234 241 color 13;
#X msg 199 328 color 10;
#X msg 273 327 color 13;
#X obj 144 137 sel 0 1;
#X obj 42 324 s \$0|master-mute-l;
#X obj 137 427 s \$0|master-mute-r;
#X obj 233 137 sel 0 1;
#X obj 45 80 route setmute setlmute setrmute;
#X connect 0 0 12 0;
#X connect 1 0 2 0;
#X connect 1 1 3 0;
#X connect 2 0 9 0;
#X connect 2 0 10 0;
#X connect 3 0 9 0;
#X connect 3 0 10 0;
#X connect 4 0 9 0;
#X connect 5 0 9 0;
#X connect 6 0 10 0;
#X connect 7 0 10 0;
#X connect 8 0 4 0;
#X connect 8 1 5 0;
#X connect 11 0 6 0;
#X connect 11 1 7 0;
#X connect 12 0 1 0;
#X connect 12 1 8 0;
#X connect 12 2 11 0;
#X restore 61 172 pd \$0-HANDLE-MASTER-ETC;
#X connect 0 0 3 0;
#X connect 3 0 4 0;
#X connect 3 1 2 0;
#X restore 211 133 pd \$0-HANDLE_ETC;
#X obj 38 45 route request snapshot contour etc syscore;
#N canvas 315 499 1364 765 \$0-HANDLE_SYSCORE 0;
#X obj 66 26 inlet;
#N canvas 54 942 1384 981 \$0-SHOW-CONSOLE 0;
#X obj 84 34 inlet;
#X obj 84 68 sel 1 0;
#X msg 84 150 \; pd-CONSOLE vis 1;
#X msg 137 99 \; pd-CONSOLE vis 0;
#X obj 84 113 t b b;
#X obj 117 215 s \$0|REBUILD_MIXER;
#X connect 0 0 1 0;
#X connect 1 0 4 0;
#X connect 1 1 3 0;
#X connect 4 0 2 0;
#X connect 4 1 5 0;
#X restore 66 181 pd \$0-SHOW-CONSOLE;
#X obj 241 45 print >=>SYSCORE;
#X obj 136 10 r \$0|HANDLE_SYSCORE;
#X obj 243 145 s \$0|airdir_display;
#X obj 110 144 s \$0|airdir_path;
#X obj 111 110 symbol;
#X msg 242 118 label \$1;
#X obj 66 79 route SHOW AIRDIR RECHAN;
#X obj 223 240 s \$0|RECHAN;
#X connect 0 0 8 0;
#X connect 3 0 8 0;
#X connect 6 0 5 0;
#X connect 6 0 7 0;
#X connect 7 0 4 0;
#X connect 8 0 1 0;
#X connect 8 1 6 0;
#X connect 8 2 9 0;
#X restore 271 90 pd \$0-HANDLE_SYSCORE;
#X obj 8 245 outlet;
#X obj 99 405 outlet;
#X obj 164 468 outlet;
#X obj 234 529 outlet;
#X obj 33 417 outlet;
#X obj 35 303 list prepend all;
#X obj 35 350 list trim;
#X connect 0 0 7 0;
#X connect 3 0 14 0;
#X connect 3 1 9 0;
#X connect 4 0 10 0;
#X connect 5 0 11 0;
#X connect 6 0 12 0;
#X connect 7 0 3 0;
#X connect 7 1 4 0;
#X connect 7 2 5 0;
#X connect 7 3 6 0;
#X connect 7 4 8 0;
#X connect 7 5 1 0;
#X connect 14 0 15 0;
#X connect 15 0 13 0;
#X restore 449 125 pd \$0-MAIN-ROUTER;
#X obj 266 217 list split 1;
#X obj 267 307 float;
#X obj 267 390 list trim;
#X obj 267 353 list append;
#X obj 401 215 list split 1;
#X obj 402 305 float;
#X obj 402 388 list trim;
#X obj 402 351 list append;
#X obj 513 214 list split 1;
#X obj 514 304 float;
#X obj 514 387 list trim;
#X obj 514 350 list append;
#X text 276 254 this is needed due to osc-depacker type mismatch =>
re-floating so-called symbols;
#X obj 855 231 s \$0|loadbang;
#X obj 108 249 route symbol float;
#N canvas 269 180 1916 993 \$0-CATCH-ALIAS 0;
#X obj 817 371 outlet;
#X obj 89 371 outlet;
#X obj 34 10 inlet;
#X msg 34 234 all;
#X msg 427 380 all fader 0;
#X text 28 397 replace initial tracknumber float;
#X text 800 398 back to float;
#X msg 451 342 all pan 0.5;
#X msg 475 308 all fader 1;
#X obj 816 344 gpp-span;
#X text 645 161 before passing further \, dereference span declarations
, f 23;
#X msg 482 273 all fader 0.5;
#N canvas 763 180 1189 785 \$0-EO-LOOP 0;
#X obj 30 8 inlet;
#X obj 22 283 outlet;
#X obj 28 125 until;
#X obj 29 91 \$1;
#X obj 28 209 expr if ($f1 % 2 != 0 \, $f1 \, 0), f 32;
#X obj 28 244 moses 1;
#X obj 27 179 gpp-adder3 0;
#X msg 30 151 1;
#X obj 285 10 inlet;
#X obj 284 288 outlet;
#X obj 283 102 until;
#X obj 284 68 \$1;
#X obj 282 242 moses 1;
#X obj 283 171 gpp-adder3 0;
#X obj 285 42 t b b;
#X msg 284 131 1;
#X obj 282 208 expr if ($f1 % 2 == 0 \, $f1 \, 0), f 32;
#X obj 30 66 t b b;
#X connect 0 0 17 0;
#X connect 2 0 7 0;
#X connect 3 0 2 0;
#X connect 4 0 5 0;
#X connect 5 1 1 0;
#X connect 6 0 4 0;
#X connect 7 0 6 0;
#X connect 8 0 14 0;
#X connect 10 0 15 0;
#X connect 11 0 10 0;
#X connect 12 1 9 0;
#X connect 13 0 16 0;
#X connect 14 0 11 0;
#X connect 14 1 13 1;
#X connect 15 0 13 0;
#X connect 16 0 12 0;
#X connect 17 0 3 0;
#X connect 17 1 6 1;
#X restore 413 213 pd \$0-EO-LOOP;
#N canvas 699 298 1541 1282 \$0-GLOOP 0;
#X obj 145 44 inlet;
#X obj 139 366 outlet;
#X obj 143 138 until;
#X obj 144 104 \$1;
#X obj 142 192 gpp-adder3 0;
#X obj 146 79 t b b;
#X msg 145 164 1;
#X msg 142 322 \$1 pan \$2;
#X obj 143 285 pack f f;
#X obj 143 233 expr $f1 \; ($f1 - 1) / (\$1 - 1) \;;
#X connect 0 0 5 0;
#X connect 2 0 6 0;
#X connect 3 0 2 0;
#X connect 4 0 9 0;
#X connect 5 0 3 0;
#X connect 5 1 4 1;
#X connect 6 0 4 0;
#X connect 7 0 1 0;
#X connect 8 0 7 0;
#X connect 9 0 8 0;
#X connect 9 1 8 1;
#X restore 405 416 pd \$0-GLOOP;
#X obj 656 375 outlet;
#X text 635 400 enforced appender;
#X obj 423 81 t b b b b;
#X msg 531 133 pan 1;
#X msg 537 104 pan 0;
#X obj 33 176 select all panic centerpan fullout halfout stereopan
globepan even odd, f 70;
#X connect 2 0 19 0;
#X connect 3 0 1 0;
#X connect 4 0 1 0;
#X connect 7 0 1 0;
#X connect 8 0 1 0;
#X connect 9 0 0 0;
#X connect 11 0 1 0;
#X connect 12 0 1 0;
#X connect 12 1 1 0;
#X connect 13 0 1 0;
#X connect 16 0 12 1;
#X connect 16 1 17 0;
#X connect 16 2 12 0;
#X connect 16 3 18 0;
#X connect 17 0 14 0;
#X connect 18 0 14 0;
#X connect 19 0 3 0;
#X connect 19 1 4 0;
#X connect 19 2 7 0;
#X connect 19 3 8 0;
#X connect 19 4 11 0;
#X connect 19 5 16 0;
#X connect 19 6 13 0;
#X connect 19 7 12 0;
#X connect 19 8 12 1;
#X connect 19 9 9 0;
#X restore 16 289 pd \$0-CATCH-ALIAS;
#N canvas 2084 1343 1386 650 \$0-SYNC 0;
#X obj 268 46 adc~;
#X msg 390 107 set \$1;
#X obj 267 203 dac~ 1;
#X text 332 202 the only console output;
#X obj 314 17 bng 15 250 50 0 empty empty empty 17 7 0 10 -262144 -1
-1;
#X obj 391 12 r \$0|RECHAN;
#X obj 492 13 loadbang;
#X obj 584 87 bng 15 250 50 0 empty empty empty 17 7 0 10 -262144 -1
-1;
#X obj 390 81 expr (2*\$1)+4;
#X connect 0 0 2 0;
#X connect 1 0 0 0;
#X connect 4 0 8 0;
#X connect 5 0 7 0;
#X connect 5 0 8 0;
#X connect 6 0 8 0;
#X connect 8 0 1 0;
#X restore 829 49 pd \$0-SYNC;
#N canvas 827 893 2343 875 \$0-AUDIO_IN_MASTER 0;
#X obj 47 198 adc~;
#X obj 129 126 pack f f;
#X msg 129 155 set \$1 \$2;
#X obj 150 14 r \$0|RECHAN;
#X obj 246 14 loadbang;
#X obj 213 126 pack f f;
#X msg 213 160 set \$1 \$2;
#X obj 36 245 gpp-monostereo~;
#X obj 23 375 s \$0|master-vu-l;
#X obj 24 348 gpp-env~;
#X obj 148 350 gpp-env~;
#X obj 147 377 s \$0|master-vu-r;
#X obj 369 169 s \$0|inboundMASTER_L;
#X obj 544 164 s \$0|inboundMASTER_R;
#X msg 444 124 color 46;
#X msg 615 120 color 46;
#X obj 403 75 t b b;
#X obj 454 76 t b b;
#X obj 506 75 t b b;
#X obj 433 37 sel n m s;
#X msg 370 122 color 10;
#X msg 541 123 color 10;
#X obj 213 192 adc~;
#X obj 202 242 gpp-monostereo~;
#X msg 478 296 color 46;
#X msg 649 292 color 46;
#X obj 437 247 t b b;
#X obj 488 248 t b b;
#X obj 540 247 t b b;
#X obj 467 209 sel n m s;
#X msg 404 294 color 10;
#X msg 575 295 color 10;
#X obj 403 341 s \$0|inboundPRELISTEN_L;
#X obj 578 336 s \$0|inboundPRELISTEN_R;
#X text 188 265 currently \, prelisten bus is not monitored just shown
with connection led, f 24;
#X floatatom 43 134 5 0 0 0 - - -;
#X obj 96 18 bng 15 250 50 0 empty empty empty 17 7 0 10 -262144 -1
-1;
#X obj 150 52 expr (2*\$1)+1 \; (2*\$1)+2 \; (2*\$1)+3 \; (2*\$1)+4
\;;
#X connect 0 0 7 0;
#X connect 0 1 7 1;
#X connect 1 0 2 0;
#X connect 2 0 0 0;
#X connect 3 0 37 0;
#X connect 4 0 37 0;
#X connect 5 0 6 0;
#X connect 6 0 22 0;
#X connect 7 0 9 0;
#X connect 7 1 10 0;
#X connect 7 2 19 0;
#X connect 9 0 8 0;
#X connect 10 0 11 0;
#X connect 14 0 12 0;
#X connect 15 0 13 0;
#X connect 16 0 20 0;
#X connect 16 1 21 0;
#X connect 17 0 14 0;
#X connect 17 1 21 0;
#X connect 18 0 14 0;
#X connect 18 1 15 0;
#X connect 19 0 16 0;
#X connect 19 1 17 0;
#X connect 19 2 18 0;
#X connect 20 0 12 0;
#X connect 21 0 13 0;
#X connect 22 0 23 0;
#X connect 22 1 23 1;
#X connect 23 2 29 0;
#X connect 24 0 32 0;
#X connect 25 0 33 0;
#X connect 26 0 30 0;
#X connect 26 1 31 0;
#X connect 27 0 24 0;
#X connect 27 1 31 0;
#X connect 28 0 24 0;
#X connect 28 1 25 0;
#X connect 29 0 26 0;
#X connect 29 1 27 0;
#X connect 29 2 28 0;
#X connect 30 0 32 0;
#X connect 31 0 33 0;
#X connect 36 0 37 0;
#X connect 37 0 1 0;
#X connect 37 0 35 0;
#X connect 37 1 1 1;
#X connect 37 2 5 0;
#X connect 37 3 5 1;
#X restore 829 78 pd \$0-AUDIO_IN_MASTER;
#X obj 977 505 outlet;
#X obj 1048 503 outlet;
#N canvas 145 239 2612 824 \$0-LSTRACKS 0;
#X obj 39 13 bng 15 250 50 0 empty empty empty 17 7 0 10 -262144 -1
-1;
#X obj 80 347 outlet;
#X obj 107 13 loadbang;
#X obj 77 44 r \$0-lstracks;
#X obj 236 398 outlet;
#X msg 86 310 set [total \$11] @INPUT TRACKS (stereo pairs) : \$1+\$2
(CH1).. \$3+\$4 (CH\$5) | MASTER \$6+\$7 | PRELISTEN BUS \$8+\$9 |
SYNC TRACK \$10, f 129;
#X obj 48 283 pack f f f f f f f f f f f f;
#X msg 237 349 set [total 1] @OUTPUT TRACKS : \$12 (SYNC TRACK), f
48;
#X obj 176 45 expr 1 \; 2 \; (2*\$1)-1 \; (2*\$1) \; \$1 \; (2*\$1)+1
\; (2*\$1)+2 \; (2*\$1)+3 \; (2*\$1)+4 \; (2*\$1)+5 \; (2*\$1)+5 \;
1 \;;
#X connect 0 0 8 0;
#X connect 2 0 8 0;
#X connect 3 0 8 0;
#X connect 5 0 1 0;
#X connect 6 0 7 0;
#X connect 6 0 5 0;
#X connect 7 0 4 0;
#X connect 8 0 6 0;
#X connect 8 1 6 1;
#X connect 8 2 6 2;
#X connect 8 3 6 3;
#X connect 8 4 6 4;
#X connect 8 5 6 5;
#X connect 8 6 6 6;
#X connect 8 7 6 7;
#X connect 8 8 6 8;
#X connect 8 9 6 9;
#X connect 8 10 6 10;
#X connect 8 11 6 11;
#X restore 972 430 pd \$0-LSTRACKS;
#X msg 329 524 vis 4 1;
#X obj 438 513 clone -s 1 gpp-air-console-track \$1 \$1;
#X connect 0 0 1 0;
#X connect 4 0 38 4;
#X connect 5 0 4 0;
#X connect 6 0 4 0;
#X connect 6 0 29 0;
#X connect 9 0 15 0;
#X connect 10 0 4 0;
#X connect 11 0 30 0;
#X connect 11 1 14 1;
#X connect 12 0 14 0;
#X connect 13 0 38 0;
#X connect 14 0 13 0;
#X connect 15 0 11 0;
#X connect 15 1 38 0;
#X connect 15 2 16 0;
#X connect 15 3 20 0;
#X connect 15 4 24 0;
#X connect 15 5 38 4;
#X connect 16 0 17 0;
#X connect 16 1 19 1;
#X connect 17 0 19 0;
#X connect 18 0 38 1;
#X connect 19 0 18 0;
#X connect 20 0 21 0;
#X connect 20 1 23 1;
#X connect 21 0 23 0;
#X connect 22 0 38 2;
#X connect 23 0 22 0;
#X connect 24 0 25 0;
#X connect 24 1 27 1;
#X connect 25 0 27 0;
#X connect 26 0 38 3;
#X connect 27 0 26 0;
#X connect 30 0 31 0;
#X connect 30 1 12 0;
#X connect 31 0 14 0;
#X connect 31 1 14 1;
#X connect 31 2 12 0;
#X connect 36 0 34 0;
#X connect 36 1 35 0;
#X connect 37 0 38 0;
