#N canvas 1272 180 2456 1400 12;
#X obj 515 27 cnv 10 114 22 empty empty AIR 36 6 1 22 -66577 -262144
0;
#X obj 76 44 inlet~;
#X obj 82 472 outlet~;
#X obj 154 473 outlet~;
#X obj 235 474 outlet~;
#X obj 313 473 outlet~;
#X obj 395 473 outlet~;
#X obj 469 472 outlet~;
#X obj 80 399 *~;
#X obj 157 397 *~;
#X obj 234 397 *~;
#X obj 311 395 *~;
#X obj 390 393 *~;
#X obj 467 391 *~;
#X obj 265 7 inlet;
#X obj 266 116 t f f f f f f;
#X obj 107 366 line~;
#X msg 107 333 \$1 50;
#X obj 175 368 line~;
#X msg 175 335 \$1 50;
#X obj 251 368 line~;
#X msg 251 335 \$1 50;
#X obj 329 369 line~;
#X msg 329 336 \$1 50;
#X obj 408 363 line~;
#X msg 408 330 \$1 50;
#X obj 489 364 line~;
#X msg 489 331 \$1 50;
#X obj 326 77 route 1 2 3 4 5 6;
#X obj 266 35 route all;
#X text 639 30 gpp-multiswitch8~ :: channel a stream to arbitrary number
of output tracks, f 38;
#X text 514 53 Gregor Pirš 2023;
#X connect 1 0 8 0;
#X connect 1 0 9 0;
#X connect 1 0 10 0;
#X connect 1 0 11 0;
#X connect 1 0 12 0;
#X connect 1 0 13 0;
#X connect 8 0 2 0;
#X connect 9 0 3 0;
#X connect 10 0 4 0;
#X connect 11 0 5 0;
#X connect 12 0 6 0;
#X connect 13 0 7 0;
#X connect 14 0 29 0;
#X connect 15 0 17 0;
#X connect 15 1 19 0;
#X connect 15 2 21 0;
#X connect 15 3 23 0;
#X connect 15 4 25 0;
#X connect 15 5 27 0;
#X connect 16 0 8 1;
#X connect 17 0 16 0;
#X connect 18 0 9 1;
#X connect 19 0 18 0;
#X connect 20 0 10 1;
#X connect 21 0 20 0;
#X connect 22 0 11 1;
#X connect 23 0 22 0;
#X connect 24 0 12 1;
#X connect 25 0 24 0;
#X connect 26 0 13 1;
#X connect 27 0 26 0;
#X connect 28 0 17 0;
#X connect 28 1 19 0;
#X connect 28 2 21 0;
#X connect 28 3 23 0;
#X connect 28 4 25 0;
#X connect 28 5 27 0;
#X connect 29 0 15 0;
#X connect 29 1 28 0;
