#N canvas 161 360 2880 1453 12;
#X obj 65 537 readsf~;
#X obj 176 537 readsf~;
#X obj 91 794 outlet~;
#X obj 130 31 inlet;
#X obj 130 203 gpp-switch2;
#X obj 251 168 !=;
#X obj 252 144 tgl 15 0 empty empty empty 17 7 0 10 -262144 -1 -1 1
1;
#X obj 275 27 loadbang;
#X msg 275 76 1;
#X obj 66 713 *~;
#X obj 134 713 *~;
#X obj 400 28 inlet;
#X obj 400 107 s \$0-FADETIME;
#X obj 363 386 r \$0-FADETIME;
#N canvas 0 180 1070 1077 \$0-FADER-A 0;
#X obj 66 232 vline~;
#X msg 66 199 \$1 \$2;
#X obj 53 162 pack f f;
#X obj 118 66 inlet;
#X obj 47 69 inlet;
#X obj 67 278 outlet~;
#X connect 0 0 5 0;
#X connect 1 0 0 0;
#X connect 2 0 1 0;
#X connect 3 0 2 1;
#X connect 4 0 2 0;
#X restore 84 615 pd \$0-FADER-A;
#N canvas 121 733 1070 1077 \$0-FADER-B 0;
#X obj 66 232 vline~;
#X msg 66 199 \$1 \$2;
#X obj 53 162 pack f f;
#X obj 118 66 inlet;
#X obj 47 69 inlet;
#X obj 67 278 outlet~;
#X connect 0 0 5 0;
#X connect 1 0 0 0;
#X connect 2 0 1 0;
#X connect 3 0 2 1;
#X connect 4 0 2 0;
#X restore 157 679 pd \$0-FADER-B;
#X obj 131 71 t a a;
#X obj 162 110 route open;
#X obj 162 144 bang;
#X msg 85 588 0;
#X msg 152 649 0;
#X obj 594 779 outlet;
#X obj 162 171 bng 15 250 50 0 empty empty empty 17 7 0 10 -262144
-1 -1;
#X obj 215 138 bng 15 250 50 0 empty empty empty 17 7 0 10 -262144
-1 -1;
#X msg 163 385 0;
#X msg 78 387 0;
#X obj 226 255 t b b b;
#X msg 224 316 1;
#X msg 16 323 1;
#X obj 17 260 t b b b;
#X obj 16 289 t b b;
#X msg 53 323 1;
#X obj 226 287 t b b;
#X msg 259 316 1;
#X obj 17 231 route 1 0;
#X obj 228 226 route 1 0;
#X obj 86 285 t b b;
#X obj 316 266 t b b;
#X obj 530 30 cnv 10 114 22 empty empty AIR 36 6 1 22 -66577 -262144
0;
#X text 528 53 Gregor Pirš 2023;
#X text 650 24 gpp-readsfsoft~ :: a soft wersion of readsf~ regarding
repeating play commands at the same channel. Uses a double playhead
in order to enable auto-crossfading (crossfading with itself);
#X msg 360 67 50;
#X obj 78 359 delay 50;
#X obj 163 358 delay 50;
#X obj 373 773 outlet;
#X obj 373 714 gpp-junction2;
#X text 367 800 STOPBANG ACTIVE;
#X text 593 800 WHICHHEAD;
#X connect 0 0 9 0;
#X connect 0 1 45 0;
#X connect 1 0 10 0;
#X connect 1 1 45 1;
#X connect 3 0 16 0;
#X connect 4 0 34 0;
#X connect 4 1 35 0;
#X connect 5 0 4 1;
#X connect 5 0 21 0;
#X connect 5 0 45 2;
#X connect 6 0 5 0;
#X connect 7 0 8 0;
#X connect 7 0 41 0;
#X connect 8 0 6 0;
#X connect 9 0 2 0;
#X connect 10 0 2 0;
#X connect 11 0 12 0;
#X connect 13 0 14 1;
#X connect 13 0 15 1;
#X connect 13 0 43 1;
#X connect 14 0 9 1;
#X connect 15 0 10 1;
#X connect 16 0 4 0;
#X connect 16 1 17 0;
#X connect 17 0 18 0;
#X connect 17 1 23 0;
#X connect 18 0 6 0;
#X connect 18 0 22 0;
#X connect 19 0 14 0;
#X connect 20 0 15 0;
#X connect 24 0 0 0;
#X connect 25 0 1 0;
#X connect 26 0 32 0;
#X connect 26 1 19 0;
#X connect 26 2 43 0;
#X connect 27 0 1 0;
#X connect 28 0 0 0;
#X connect 29 0 30 0;
#X connect 29 1 20 0;
#X connect 29 2 42 0;
#X connect 30 0 28 0;
#X connect 30 1 31 0;
#X connect 31 0 14 0;
#X connect 32 0 27 0;
#X connect 32 1 33 0;
#X connect 33 0 15 0;
#X connect 34 0 29 0;
#X connect 34 1 36 0;
#X connect 34 2 0 0;
#X connect 35 0 26 0;
#X connect 35 1 37 0;
#X connect 35 2 1 0;
#X connect 36 0 19 0;
#X connect 36 1 43 0;
#X connect 37 0 20 0;
#X connect 37 1 42 0;
#X connect 41 0 12 0;
#X connect 42 0 25 0;
#X connect 43 0 24 0;
#X connect 45 0 44 0;
