#N canvas 1659 890 1256 785 12;
#X obj 162 122 gpp-multiswitch6~;
#X obj 161 40 osc~ 440;
#X obj 47 214 gpp-vu;
#X obj 114 216 gpp-vu;
#X obj 183 215 gpp-vu;
#X obj 251 217 gpp-vu;
#X obj 325 220 gpp-vu;
#X obj 391 221 gpp-vu;
#X obj 25 23 gpp-vu;
#X msg 277 80 all 0;
#X msg 301 53 all 1;
#X msg 244 24 3 1;
#X msg 285 22 4 1;
#X connect 0 0 2 0;
#X connect 0 1 3 0;
#X connect 0 2 4 0;
#X connect 0 3 5 0;
#X connect 0 4 6 0;
#X connect 0 5 7 0;
#X connect 1 0 0 0;
#X connect 1 0 8 0;
#X connect 9 0 0 1;
#X connect 10 0 0 1;
#X connect 11 0 0 1;
#X connect 12 0 0 1;
