#N canvas 827 180 1856 937 10;
#X obj 64 173 inlet;
#X obj 64 317 outlet;
#X obj 64 244 spigot;
#X obj 161 174 inlet;
#X obj 161 318 outlet;
#X obj 161 245 spigot;
#X obj 252 165 inlet;
#X obj 252 309 outlet;
#X obj 252 236 spigot;
#X obj 349 166 inlet;
#X obj 349 310 outlet;
#X obj 349 237 spigot;
#X obj 412 165 inlet;
#X obj 412 309 outlet;
#X obj 412 236 spigot;
#X obj 509 166 inlet;
#X obj 509 310 outlet;
#X obj 509 237 spigot;
#X obj 630 98 route 1 2 3 4 5 6;
#X obj 630 70 inlet;
#X connect 0 0 2 0;
#X connect 2 0 1 0;
#X connect 3 0 5 0;
#X connect 5 0 4 0;
#X connect 6 0 8 0;
#X connect 8 0 7 0;
#X connect 9 0 11 0;
#X connect 11 0 10 0;
#X connect 12 0 14 0;
#X connect 14 0 13 0;
#X connect 15 0 17 0;
#X connect 17 0 16 0;
#X connect 18 0 2 1;
#X connect 18 1 5 1;
#X connect 18 2 8 1;
#X connect 18 3 11 1;
#X connect 18 4 14 1;
#X connect 18 5 17 1;
#X connect 19 0 18 0;
