#N canvas 1053 472 2000 1400 10;
#X obj 343 199 mod 60;
#X obj 207 197 div 3600;
#X obj 267 157 t f f f;
#X obj 280 2 inlet;
#X obj 280 196 div 60;
#X obj 237 249 moses 10;
#X obj 411 247 moses 10;
#X msg 320 285 symbol :\$1;
#X msg 229 285 symbol :0\$1;
#X symbolatom 260 316 10 0 0 0 - - -;
#X symbolatom 441 317 10 0 0 0 - - -;
#X obj 268 122 moses 0;
#X obj 264 433 outlet;
#X obj 363 448 outlet;
#X obj 363 408 t b;
#X obj 269 77 div;
#X obj 279 220 mod 60;
#X text 509 46 ************************************* gpp time display
(Gregor Pirs 2011) in: seconds (float) out1: display string (symbol)
out2: negative number bang;
#X text 513 142 v2: non-trailing-zero version;
#X msg 411 287 symbol :0\$1;
#X msg 509 285 symbol :\$1;
#X floatatom 370 110 5 0 0 0 - - -;
#X obj 429 91 mod 1000;
#X obj 345 50 * 1000;
#X obj 230 365 pack f s s s;
#X msg 228 394 symbol \$1\$2\$3\$4;
#X symbolatom 596 315 10 0 0 0 - - -;
#X obj 281 47 t f f;
#X msg 775 283 symbol .\$1;
#X msg 601 282 symbol .00\$1;
#X msg 690 283 symbol .0\$1;
#X obj 589 202 moses 10;
#X obj 636 225 moses 100;
#X text 511 96 7-2020 :: aded milliseconds afterpoint display. NOTE:
a generic symbol box should be enlarged in order to be able to display
it;
#X connect 0 0 6 0;
#X connect 1 0 24 0;
#X connect 2 0 1 0;
#X connect 2 1 4 0;
#X connect 2 2 0 0;
#X connect 3 0 27 0;
#X connect 4 0 16 0;
#X connect 5 0 8 0;
#X connect 5 1 7 0;
#X connect 6 0 19 0;
#X connect 6 1 20 0;
#X connect 7 0 9 0;
#X connect 8 0 9 0;
#X connect 9 0 24 1;
#X connect 10 0 24 2;
#X connect 11 0 14 0;
#X connect 11 1 2 0;
#X connect 14 0 13 0;
#X connect 15 0 11 0;
#X connect 15 0 21 0;
#X connect 16 0 5 0;
#X connect 19 0 10 0;
#X connect 20 0 10 0;
#X connect 22 0 31 0;
#X connect 23 0 22 0;
#X connect 24 0 25 0;
#X connect 25 0 12 0;
#X connect 26 0 24 3;
#X connect 27 0 15 0;
#X connect 27 1 23 0;
#X connect 28 0 26 0;
#X connect 29 0 26 0;
#X connect 30 0 26 0;
#X connect 31 0 29 0;
#X connect 31 1 32 0;
#X connect 32 0 30 0;
#X connect 32 1 28 0;
#X coords 0 0 1 1 80 13 0;
