#N canvas 1103 469 1631 1350 12;
#X obj 109 136 osc~;
#X obj 92 205 dac~;
#X obj 177 211 gpp-vu;
#X msg 238 159 label mytrack;
#X msg 290 109 scale \$1;
#X obj 291 68 tgl 15 0 empty empty empty 17 7 0 10 -262144 -1 -1 1
1;
#X connect 0 0 1 0;
#X connect 0 0 2 0;
#X connect 3 0 2 1;
#X connect 4 0 2 1;
#X connect 5 0 4 0;
