#N canvas 2009 420 1718 1110 12;
#X obj 102 186 expr x\$0_wall[$f1] = $f2 \;;
#X msg 103 115 \$1 1;
#X msg 188 135 \$1 0;
#X obj 156 106 t b f;
#X obj 300 350 outlet;
#X obj 301 268 array sum x\$0_wall;
#X obj 300 307 sel 0;
#X obj 391 15 cnv 10 114 22 empty empty AIR 36 6 1 22 -66577 -262144
0;
#X text 391 40 Gregor Pirš 2022;
#X obj 100 342 outlet;
#X obj 99 303 array sum x\$0_wall;
#X obj 99 275 bang;
#X obj 387 74 array define x\$0_wall \$1;
#X obj 102 34 inlet;
#X obj 354 150 \$0;
#X msg 353 180 \; x\$1_wall const 0 \;;
#X obj 106 72 route set reset sum clear;
#X text 362 349 bangs when empty (and this state is not achieved via
clear);
#X text 525 19 gpp-bitwall :: heap bits of value \, linear;
#X connect 1 0 0 0;
#X connect 2 0 0 0;
#X connect 3 0 5 0;
#X connect 3 1 2 0;
#X connect 5 0 6 0;
#X connect 6 0 4 0;
#X connect 10 0 9 0;
#X connect 11 0 10 0;
#X connect 13 0 16 0;
#X connect 14 0 15 0;
#X connect 16 0 1 0;
#X connect 16 1 3 0;
#X connect 16 2 11 0;
#X connect 16 3 14 0;
