#N canvas 1857 603 1795 1288 12;
#X obj 150 10 inlet;
#X obj 137 253 list-abs/list-map;
#X obj 129 653 outlet;
#X obj 411 76 pdstring;
#X obj 137 282 bytes2any;
#X obj 114 321 list;
#N canvas 509 416 1222 881 \$0-fillspan 0;
#X obj 50 29 inlet;
#X obj 237 35 inlet;
#X obj 125 380 outlet;
#X text 87 349 solo num;
#X obj 162 117 f;
#X obj 115 128 f;
#X obj 106 215 until;
#X obj 114 156 t f f;
#X obj 105 299 +;
#X obj 106 268 gpp-adder3 -1;
#X obj 94 87 t b b f b;
#X msg 106 241 1;
#X obj 107 186 expr $f2 - $f1 + 1;
#X connect 0 0 10 0;
#X connect 1 0 4 1;
#X connect 4 0 12 1;
#X connect 5 0 7 0;
#X connect 6 0 11 0;
#X connect 7 0 12 0;
#X connect 7 1 8 1;
#X connect 8 0 2 0;
#X connect 9 0 8 0;
#X connect 10 0 5 0;
#X connect 10 1 4 0;
#X connect 10 2 5 1;
#X connect 10 3 9 1;
#X connect 11 0 9 0;
#X connect 12 0 6 0;
#X restore 162 531 pd \$0-fillspan;
#X obj 94 392 list length;
#X obj 135 468 list;
#X obj 140 494 unpack f f;
#X obj 87 469 list;
#X obj 86 531 list trim;
#X obj 94 424 sel 1 2;
#X obj 412 18 cnv 10 112 22 empty empty AIR 36 6 1 22 -66577 -262144
0;
#X text 412 43 Gregor Pirš 2022;
#X text 540 12 gpp-span :: number span parser :: input data in format
1\\\,3\\\,5\\\,7-11 \, 13 :: output: dripping list of all numbers encompassed
by the input span;
#X obj 272 252 expr if (($f1 == 45 || $f1 == 0) \, 32 \, $f1) \;,
f 45;
#N canvas 461 210 1377 1064 \$0-PREPROC-QUOTED 1;
#X obj 38 5 inlet;
#X obj 42 182 outlet;
#X obj 39 33 t a b;
#X obj 43 100 bytes2any 256 44;
#X obj 42 63 any2bytes 92;
#X connect 0 0 2 0;
#X connect 2 0 4 0;
#X connect 3 0 1 0;
#X connect 4 0 3 0;
#X restore 96 113 pd \$0-PREPROC-QUOTED;
#X obj 137 219 any2bytes;
#X obj 249 9 inlet;
#X obj 74 359 t b a a a;
#X obj 137 190 list trim;
#X text 220 189 <===== A PATHETIC PD VERSION BUG => pre 0.53 won't
interpret a single number-evolved-from-osc-controller as 'symbol' type.
Post 0.53 will \, so another trim is needed;
#X obj 91 156 t b b a;
#X connect 0 0 17 0;
#X connect 1 0 4 0;
#X connect 1 1 16 0;
#X connect 4 0 5 1;
#X connect 5 0 20 0;
#X connect 6 0 2 0;
#X connect 7 0 12 0;
#X connect 8 0 9 0;
#X connect 9 0 6 0;
#X connect 9 1 6 1;
#X connect 10 0 11 0;
#X connect 11 0 2 0;
#X connect 12 0 10 0;
#X connect 12 1 8 0;
#X connect 16 0 1 1;
#X connect 17 0 23 0;
#X connect 18 0 1 0;
#X connect 19 0 23 0;
#X connect 20 1 7 0;
#X connect 20 2 10 1;
#X connect 20 3 8 1;
#X connect 21 0 18 0;
#X connect 23 1 5 0;
#X connect 23 2 21 0;
