#N canvas 965 180 2512 1612 12;
#X obj 597 17 cnv 10 114 22 empty empty AIR 36 6 1 22 -66577 -262144
0;
#X text 718 8 gpp-airoscope :: various kinds of sample analysis for
the B-AIR/AIR platform, f 44;
#N canvas 985 180 2769 1845 \$0-AUTOTRIG 0;
#X obj 23 2 cnv 15 800 100 empty empty pd_call_receivers 20 12 0 8
-262130 -66577 0;
#X obj 28 28 r INFILE;
#X text 882 5 intercept global call-from-abroad : pd -send "INFILE
/some/file" which then gets processed in-all-ways by the airoscope
\, producing all metadata files and then the corresponding pd process
exits.;
#X text 880 96 the inlet triggers will remain (for better flexibility)
but in the main scenario (= one batch run per file-analisys) this will
not be needed.;
#X obj 98 28 r OUTFILE;
#X obj 92 242 symbol;
#X obj 193 241 symbol;
#X obj 173 29 r START;
#X text 880 162 also consider : to run airoscope live on-the fly \,
with each track input \, performing live analisis while people play
=> but this is deprecated \, since we would like to disperse the workload
(possibly) to another machine which performs batch operation for each
track;
#X obj 831 2 inlet;
#X obj 56 486 outlet~;
#N canvas 1685 538 1610 1165 \$0-PLAY 0;
#X obj 285 409 readsf~ 2;
#X obj 165 419 readsf~;
#X obj 165 543 outlet~;
#X obj 170 68 gpp-afparams2;
#X obj 170 98 route channels;
#X obj 168 216 sel 1 2;
#X obj 166 137 moses 3;
#X obj 323 172 print airoscope;
#X msg 323 136 exceeded max number of channels: \$1;
#X obj 170 31 t s s;
#X obj 170 6 inlet;
#X obj 246 138 t b f;
#X obj 246 170 s \$0-DNF;
#X obj 433 518 outlet;
#N canvas 1887 461 1163 1120 \$0-joinstereo 0;
#X obj 50 24 inlet~;
#X obj 133 26 inlet~;
#X obj 49 193 outlet~;
#X obj 49 81 *~ 0.5;
#X obj 133 82 *~ 0.5;
#X obj 49 129 +~;
#X connect 0 0 3 0;
#X connect 1 0 4 0;
#X connect 3 0 5 0;
#X connect 4 0 5 1;
#X connect 5 0 2 0;
#X restore 207 457 pd \$0-joinstereo;
#X obj 165 499 *~;
#X obj 208 499 *~;
#X obj 238 523 unpack f f;
#X msg 433 444 1 0;
#X msg 431 474 0 1;
#X obj 164 318 symbol;
#X obj 284 317 symbol;
#X msg 165 362 open \$1;
#X msg 285 361 open \$1;
#X obj 139 249 t b b b;
#X obj 199 246 t b b b;
#X msg 107 360 1;
#X msg 233 362 1;
#X text 327 236 player will join stereo if stereo is analysed. there's
no separate policy for multi channel file channels as there's a rule
one analysis per file.;
#X obj 107 317 t b b;
#X obj 233 318 t b b;
#X obj 347 519 outlet;
#X text 346 547 trigstart;
#X text 432 544 trigend;
#X obj 342 11 inlet;
#X msg 342 62 0;
#X obj 388 64 s \$0-DNF;
#X obj 340 36 t b b b;
#X connect 0 0 14 0;
#X connect 0 1 14 1;
#X connect 0 2 13 0;
#X connect 1 0 15 0;
#X connect 1 1 13 0;
#X connect 3 0 4 0;
#X connect 4 0 6 0;
#X connect 5 0 24 0;
#X connect 5 1 25 0;
#X connect 6 0 5 0;
#X connect 6 1 11 0;
#X connect 8 0 7 0;
#X connect 9 0 3 0;
#X connect 9 1 20 1;
#X connect 9 1 21 1;
#X connect 10 0 9 0;
#X connect 11 0 12 0;
#X connect 11 1 8 0;
#X connect 14 0 16 0;
#X connect 15 0 2 0;
#X connect 16 0 2 0;
#X connect 17 0 15 1;
#X connect 17 1 16 1;
#X connect 18 0 17 0;
#X connect 19 0 17 0;
#X connect 20 0 22 0;
#X connect 21 0 23 0;
#X connect 22 0 1 0;
#X connect 23 0 0 0;
#X connect 24 0 29 0;
#X connect 24 1 20 0;
#X connect 24 2 18 0;
#X connect 25 0 30 0;
#X connect 25 1 21 0;
#X connect 25 2 19 0;
#X connect 26 0 1 0;
#X connect 27 0 0 0;
#X connect 29 0 26 0;
#X connect 29 1 31 0;
#X connect 30 0 27 0;
#X connect 30 1 31 0;
#X connect 34 0 37 0;
#X connect 35 0 0 0;
#X connect 35 0 1 0;
#X connect 37 0 35 0;
#X connect 37 1 36 0;
#X connect 37 2 13 0;
#X restore 56 399 pd \$0-PLAY;
#X obj 193 272 s \$0-OUTFILE;
#X obj 91 342 s \$0-INFILE;
#X obj 131 205 symbol;
#X obj 233 208 symbol;
#X obj 89 431 s \$0-TRIGSTART;
#X obj 123 455 s \$0-TRIGEND;
#X obj 525 605 outlet;
#X text 577 606 the rest of commands;
#X obj 71 203 bng 15 250 50 0 empty empty empty 17 7 0 10 -262144 -1
-1;
#X obj 226 133 s \$0-STARTED;
#X obj 559 219 print *OUTFILE;
#X obj 557 258 print *INFILE;
#X text 298 5 RUN PD WITH:, f 60;
#X obj 235 29 r PARAM;
#X text 192 297 NOTE: OUTFILE IS ACTUALLY A PATH ROOT ONLY \, EACH
TOOL WILL ADD THEIR OWN EXTENSION;
#X obj 309 112 route infile outfile start stop listen;
#X msg 519 381 \; pd-\$1-listen vis \$2 \;;
#X obj 519 352 list prepend \$0;
#X obj 265 68 print >>PARAM;
#X obj 60 65 print >>OUTFILE;
#X obj 36 140 print >>INFILE;
#X obj 319 418 print >>START;
#X obj 173 107 t b b b b;
#X obj 57 301 t s s;
#X obj 402 28 r LISTEN;
#X obj 496 69 print >>LISTEN;
#X obj 402 69 s \$0-LISTEN;
#X text 5 749 pd -send "INFILE /home/gregor/audio/pd-projects/work/wavedata/air/testfile/beethoven-0.wav
\; OUTFILE /home/gregor/audio/pd-projects/work/wavedata/air/testfile/beethoven
\; PARAM temper fiforange 0 300 \; PARAM temper fifosize 5 \; PARAM
temper transition_threshold 0.8 \; START bang", f 274;
#X text 11 624 pd -send "INFILE /my/infile \; OUTFILE /my/outfile \;
PARAM temper fifosize 5 \; PARAM temper fiforange 0 300 \; PARAM temper
transition_threshold 0.8 \; START bang \; " gpp-airoscope.pd, f 177
;
#X connect 1 0 32 0;
#X connect 1 0 14 0;
#X connect 4 0 31 0;
#X connect 4 0 15 0;
#X connect 5 0 35 0;
#X connect 6 0 12 0;
#X connect 7 0 34 0;
#X connect 9 0 27 0;
#X connect 11 0 10 0;
#X connect 11 1 16 0;
#X connect 11 2 17 0;
#X connect 14 0 5 1;
#X connect 15 0 6 1;
#X connect 20 0 5 0;
#X connect 25 0 18 0;
#X connect 25 0 30 0;
#X connect 27 0 14 0;
#X connect 27 0 23 0;
#X connect 27 1 15 0;
#X connect 27 1 22 0;
#X connect 27 2 34 0;
#X connect 27 3 11 1;
#X connect 27 4 29 0;
#X connect 27 5 18 0;
#X connect 29 0 28 0;
#X connect 34 0 5 0;
#X connect 34 1 6 0;
#X connect 34 2 21 0;
#X connect 34 3 33 0;
#X connect 35 0 11 0;
#X connect 35 1 13 0;
#X connect 36 0 37 0;
#X connect 36 0 38 0;
#X restore 15 209 pd \$0-AUTOTRIG;
#X obj 20 95 inlet;
#X obj 1132 626 r \$0-DNF;
#X obj 811 740 outlet;
#X text 596 41 Gregor Pirš 2022-23;
#X obj 465 18 r \$0-TRIGSTART;
#X obj 496 49 r \$0-TRIGEND;
#N canvas 245 705 1600 1400 \$0-tools-switcher 0;
#X obj 264 -2 inlet;
#X obj 733 449 outlet;
#X text 790 447 to tools' control;
#X obj 22 126 symbol;
#X obj 303 117 symbol;
#X obj 264 50 route use drop;
#X obj 247 226 sel all;
#X obj 574 224 sel all;
#X obj 96 253 t b b b b b;
#X obj 424 264 t b b b b b;
#X obj 22 171 sel temper beater dynoz pitcher bonker;
#X obj 306 164 sel temper beater dynoz pitcher bonker;
#X msg 28 313 1 1;
#X msg 74 312 2 1;
#X msg 120 314 3 1;
#X msg 165 315 4 1;
#X msg 212 313 5 1;
#X msg 336 328 1 0;
#X msg 389 326 2 0;
#X msg 446 329 3 0;
#X msg 518 330 4 0;
#X msg 581 332 5 0;
#X obj 289 479 list;
#X obj 289 509 outlet;
#X connect 0 0 5 0;
#X connect 3 0 10 0;
#X connect 4 0 11 0;
#X connect 5 0 3 0;
#X connect 5 1 4 0;
#X connect 5 2 1 0;
#X connect 6 0 8 0;
#X connect 7 0 9 0;
#X connect 8 0 12 0;
#X connect 8 1 13 0;
#X connect 8 2 14 0;
#X connect 8 3 15 0;
#X connect 8 4 16 0;
#X connect 9 0 17 0;
#X connect 9 1 18 0;
#X connect 9 2 19 0;
#X connect 9 3 20 0;
#X connect 9 4 21 0;
#X connect 10 0 12 0;
#X connect 10 1 13 0;
#X connect 10 2 14 0;
#X connect 10 3 15 0;
#X connect 10 4 16 0;
#X connect 10 5 6 0;
#X connect 11 0 17 0;
#X connect 11 1 18 0;
#X connect 11 2 19 0;
#X connect 11 3 20 0;
#X connect 11 4 21 0;
#X connect 11 5 7 0;
#X connect 12 0 22 0;
#X connect 13 0 22 0;
#X connect 14 0 22 0;
#X connect 15 0 22 0;
#X connect 16 0 22 0;
#X connect 17 0 22 0;
#X connect 18 0 22 0;
#X connect 19 0 22 0;
#X connect 20 0 22 0;
#X connect 21 0 22 0;
#X connect 22 0 23 0;
#X restore 131 271 pd \$0-tools-switcher;
#X obj 466 53 bng 15 250 50 0 empty empty empty 17 7 0 10 -262144 -1
-1;
#X obj 495 77 bng 15 250 50 0 empty empty empty 17 7 0 10 -262144 -1
-1;
#N canvas 3058 846 781 598 \$0-listen 1;
#X obj 79 61 inlet~;
#X obj 153 143 *~;
#X obj 206 25 vsl 15 128 0 1 0 0 empty empty empty 0 -9 0 10 -203904
-1 -1 0 1;
#X obj 143 197 dac~;
#X floatatom 209 173 5 0 0 0 - - -;
#X obj 23 141 gpp-vu;
#X obj 272 65 r \$0-LISTEN;
#X obj 272 93 clip 0 1;
#X connect 0 0 1 0;
#X connect 0 0 5 0;
#X connect 1 0 3 0;
#X connect 1 0 3 1;
#X connect 2 0 1 1;
#X connect 2 0 4 0;
#X connect 6 0 7 0;
#X connect 7 0 2 0;
#X restore 94 171 pd \$0-listen;
#X obj 573 366 route all;
#X text 15 8 both: external file/trig control, f 11;
#X text 100 13 and per tool control, f 7;
#X msg 311 45 \; pd dsp 1 \;;
#X obj 311 18 loadbang;
#X obj 92 97 \$0;
#X msg 93 125 \; pd-\$1-listen vis 1 \;;
#X obj 89 70 loadbang;
#X obj 885 627 r \$0-TRIGEND;
#X obj 946 736 print AEROSCOPE_FINISHED;
#X obj 986 665 r \$0-INFILE;
#X obj 945 687 symbol;
#X obj 939 662 t b;
#X obj 786 586 r \$0-TRIGSTART;
#X msg 786 670 0;
#X msg 885 669 1;
#X obj 1135 733 outlet;
#X obj 1134 662 bang;
#X obj 1193 727 print AEROSCOPE_ABORTED;
#X obj 1230 633 r \$0-INFILE;
#X obj 1190 659 symbol;
#X obj 1189 693 list trim;
#X obj 947 712 list trim;
#X obj 889 93 tgl 40 0 empty empty LISTEN 2 7 0 5 -203904 -1 -1 0 1
;
#X msg 889 184 \; pd-\$1-listen vis \$2 \;;
#X obj 889 155 list prepend \$0;
#X obj 891 267 f \$0;
#X obj 142 239 r \$0-TOOLS;
#X obj 519 79 del 200;
#X msg 520 108 \; pd-gpp-airoscope.pd menuclose \;;
#X obj 891 237 bng 15 250 50 0 empty empty empty 17 7 0 10 -262144
-1 -1;
#X msg 892 298 \; \$1-TOOLS drop all \; \$1-TOOLS use temper \; \$1-TOOLS
use pitcher \; \$1-TOOLS use beater \;;
#X obj 268 452 gpp-multiswitch6;
#X obj 15 330 gpp-multiswitch6~;
#X obj 268 319 route temper beater dynoz pitcher bonker xxx;
#X obj 502 458 route 1 2 3 4 5 6;
#X obj 503 487 tgl 15 0 empty empty temper 17 7 0 6 -262144 -1 -1 0
1;
#X obj 522 519 tgl 15 0 empty empty beater 17 7 0 6 -262144 -1 -1 0
1;
#X obj 545 551 tgl 15 0 empty empty dynoz 17 7 0 6 -262144 -1 -1 0
1;
#X obj 566 581 tgl 15 0 empty empty pitcher 17 7 0 6 -262144 -1 -1
0 1;
#X obj 610 653 tgl 15 0 empty empty empty 17 7 0 6 -262144 -1 -1 0
1;
#X obj 587 613 tgl 15 0 empty empty bonker 17 7 0 6 -262144 -1 -1 0
1;
#N canvas 837 230 1099 760 \$0-PILOTSIG 0;
#X obj 122 45 r \$0-INFILE;
#X obj 185 84 r \$0-OUTFILE;
#X obj 291 73 r \$0-TRIGSTART;
#X obj 395 109 r \$0-TRIGEND;
#X obj 121 278 list prepend all;
#X obj 119 345 outlet;
#X obj 123 140 list prepend infile;
#X obj 177 172 list prepend outfile;
#X obj 287 211 list prepend trigstart;
#X obj 385 249 list prepend trigend;
#X obj 195 347 print |>PILOTSIG<|;
#X obj 120 308 list trim;
#X connect 0 0 6 0;
#X connect 1 0 7 0;
#X connect 2 0 8 0;
#X connect 3 0 9 0;
#X connect 4 0 11 0;
#X connect 6 0 4 0;
#X connect 7 0 4 0;
#X connect 8 0 4 0;
#X connect 9 0 4 0;
#X connect 11 0 5 0;
#X connect 11 0 10 0;
#X restore 601 324 pd \$0-PILOTSIG;
#X obj 26 516 gpp-airoscope-tool-temper aa.temper;
#X obj 48 561 gpp-airoscope-tool-beater aa.beater;
#X obj 74 609 gpp-airoscope-tool-dynoz aa.dynoz;
#X obj 96 654 gpp-airoscope-tool-pitcher aa.pitcher;
#X obj 138 700 gpp-airoscope-tool-bonker aa.bonker;
#X obj 761 49 cnv 15 100 60 empty empty V_1.0 20 12 0 12 -204800 -66577
0;
#X connect 2 0 12 0;
#X connect 2 0 46 0;
#X connect 2 1 9 0;
#X connect 3 0 2 0;
#X connect 4 0 30 0;
#X connect 7 0 10 0;
#X connect 8 0 11 0;
#X connect 8 0 41 0;
#X connect 9 0 46 1;
#X connect 9 0 45 6;
#X connect 9 0 48 0;
#X connect 9 1 47 0;
#X connect 13 0 45 0;
#X connect 13 0 45 1;
#X connect 13 0 45 2;
#X connect 13 0 45 3;
#X connect 13 0 45 4;
#X connect 13 0 45 5;
#X connect 17 0 16 0;
#X connect 18 0 19 0;
#X connect 19 0 12 0;
#X connect 20 0 18 0;
#X connect 21 0 28 0;
#X connect 21 0 25 0;
#X connect 23 0 24 1;
#X connect 24 0 35 0;
#X connect 25 0 24 0;
#X connect 26 0 27 0;
#X connect 27 0 5 0;
#X connect 28 0 5 0;
#X connect 30 0 29 0;
#X connect 30 0 33 0;
#X connect 32 0 33 1;
#X connect 33 0 34 0;
#X connect 34 0 31 0;
#X connect 35 0 22 0;
#X connect 36 0 38 0;
#X connect 38 0 37 0;
#X connect 39 0 44 0;
#X connect 40 0 9 0;
#X connect 41 0 42 0;
#X connect 43 0 39 0;
#X connect 45 0 56 1;
#X connect 45 1 57 1;
#X connect 45 2 58 1;
#X connect 45 3 59 1;
#X connect 45 4 60 1;
#X connect 46 0 56 0;
#X connect 46 1 57 0;
#X connect 46 2 58 0;
#X connect 46 3 59 0;
#X connect 46 4 60 0;
#X connect 47 0 45 0;
#X connect 47 1 45 1;
#X connect 47 2 45 2;
#X connect 47 3 45 3;
#X connect 47 4 45 4;
#X connect 47 5 45 5;
#X connect 47 6 13 0;
#X connect 48 0 49 0;
#X connect 48 1 50 0;
#X connect 48 2 51 0;
#X connect 48 3 52 0;
#X connect 48 4 54 0;
#X connect 48 5 53 0;
#X connect 55 0 13 0;
