#N canvas 551 747 3006 1353 10;
#X obj 40 196 osc~ 440;
#X obj 65 269 *~;
#X obj 65 304 dac~;
#X obj 268 308 print FADER_DONE;
#X obj 45 489 gpp-sigraph;
#X obj 463 -12 cnv 10 114 22 empty empty AIR 36 6 1 22 -66577 -262144
0;
#X text 461 11 Gregor Pirš 2022;
#X floatatom 45 602 5 0 0 0 - - -;
#X msg 360 1 \; pd dsp 1 \;;
#X obj 360 -21 loadbang;
#X obj 322 -19 bng 15 250 50 0 empty empty empty 17 7 0 10 -262144
-1 -1;
#X obj 1993 464 r \$0-ctl;
#X obj 177 223 gpp-airliner~;
#X obj 215 358 print REQUEST_FULFILLED;
#X obj 448 384 s AF;
#X obj 446 195 tgl 15 0 empty empty empty 17 7 0 10 -262144 -1 -1 1
1;
#X obj 165 291 s \$0-RF;
#X obj 679 303 r \$0-RF;
#X obj 446 261 spigot;
#X obj 486 239 tgl 15 0 empty empty empty 17 7 0 10 -262144 -1 -1 0
1;
#X msg 486 214 1;
#X obj 483 101 bng 40 250 50 0 empty empty START 2 17 0 6 -203904 -1
-1;
#X msg 565 213 clear;
#X obj 565 256 s \$0-ctl;
#X msg 525 215 1;
#X msg 444 160 1;
#N canvas 507 403 2880 1453 \$0-REST 0;
#X msg 135 501 1;
#X msg 301 156 0.3 2000;
#X msg 301 128 0.3;
#X msg 303 212 0.3 2000 4000;
#X msg 301 183 0.3 2000 endbang;
#X msg 301 271 0.3 2000 4000 endbang;
#X obj 231 528 s AF;
#X msg 178 499 clear;
#X obj 145 531 s \$0-ctl;
#X msg 74 503 0;
#X obj 136 477 t b b;
#X obj 122 410 tgl 40 0 empty empty empty 17 7 0 10 -204786 -1 -1 0
1;
#X obj 110 456 sel 0 1;
#X msg 464 380 1 2000 sin;
#X msg 468 351 0 1000 sin;
#X msg 304 308 0.3 2000 log endbang;
#X msg 303 337 0.3 2000 lin 4000;
#X msg 303 370 0.3 2000 lin 4000 endbang;
#X obj 589 522 s AF;
#X msg 598 274 0;
#X msg 625 252 1;
#X obj 671 99 tgl 40 0 empty empty DRAW 3 16 0 7 -204786 -1 -1 0 1
;
#X obj 671 192 s \$0-ctl;
#X msg 681 276 0.3 2000;
#X msg 688 313 0.3 1000 pow;
#X msg 694 344 0.97 1350 pow;
#X msg 710 401 0.1 2100 log;
#X msg 703 372 0.6 700 log;
#X msg 719 428 0.24 1700 sin;
#X msg 718 463 0.845 700 sin;
#X msg 677 243 1 2000;
#X msg 707 496 0.18 1700 hsin;
#X msg 707 531 0.466 456 hsin;
#X msg 714 152 clear;
#X obj 716 100 bng 40 250 50 0 empty empty CLEAR 2 15 0 6 -262130 -1
-1;
#X msg 301 240 0.3 2000 hsin;
#X msg 881 345 1 1000 pow 2000;
#X msg 880 370 1 1000 sin 2000;
#X msg 884 294 1 1000 pow;
#X msg 883 318 1 1000 sin;
#X msg 888 267 0.5;
#X msg 466 316 1 1000 pow;
#X msg 468 284 0 1000 pow;
#X msg 479 411 1 1000 hsin;
#X msg 475 443 0 1000 hsin;
#X msg 478 479 0 1000 log;
#X msg 474 508 1 2000 log;
#X msg 624 136 0;
#X msg 636 70 0;
#X obj 670 147 t f b;
#X msg 488 188 0.7 \, 0.2 1000 \$1;
#X msg 428 121 symbol hsin;
#X msg 536 121 symbol hsin;
#X msg 507 230 0.5 1000 \$1;
#X msg 476 153 symbol lin;
#X msg 548 146 symbol lin;
#X obj 204 125 vsl 15 128 0 1 0 0 empty empty empty 0 -9 0 10 -262144
-1 -1 0 0;
#X obj 197 398 s AF;
#X obj 154 268 float;
#X floatatom 95 274 5 0 0 0 - - -;
#X obj 116 217 metro 300;
#X msg 99 174 bang;
#X msg 151 172 stop;
#X obj 12 285 bng 15 250 50 0 empty empty empty 17 7 0 10 -262144 -1
-1;
#X obj -20 316 expr random(1 \, 7);
#X obj -20 344 sel 1 2 3 4 5 6;
#X msg -20 372 lin;
#X msg -4 398 log;
#X msg 13 426 sin;
#X msg 32 449 hsin;
#X msg 46 473 pow;
#X msg 56 412 jump;
#X obj 120 341 list;
#X msg 161 367 \$2 350 \$1;
#X obj 202 279 bng 15 250 50 0 empty empty empty 17 7 0 10 -262144
-1 -1;
#X obj 161 340 list;
#X obj 185 429 print;
#X msg 182 303 log;
#N canvas 0 180 3840 1980 \$0-REST 0;
#X restore 865 459 pd \$0-REST;
#X obj 1451 660 bng 26 250 50 0 empty empty empty 17 7 0 10 -203904
-1 -1;
#X obj 1447 702 t b b b;
#X msg 1486 724 1;
#X obj 1519 780 s \$0-ctl;
#X obj 1467 850 s AF;
#X msg 1467 756 0.7;
#X obj 1384 749 del 50;
#X obj 1678 656 bng 26 250 50 0 empty empty empty 17 7 0 10 -203904
-1 -1;
#X obj 1674 698 t b b b;
#X obj 1757 764 s \$0-ctl;
#X obj 1694 846 s AF;
#X obj 1611 745 del 50;
#X obj 652 639 tgl 15 0 empty empty empty 17 7 0 10 -262144 -1 -1 0
1;
#X obj 651 667 tgl 15 0 empty empty empty 17 7 0 10 -262144 -1 -1 0
1;
#X msg 1713 720 1;
#X obj 201 897 tgl 15 0 empty empty empty 17 7 0 10 -262144 -1 -1 0
1;
#X obj 239 879 tgl 15 0 empty empty empty 17 7 0 10 -262144 -1 -1 0
1;
#X msg 1684 754 0.1;
#X obj 312 688 bng 26 250 50 0 empty empty empty 17 7 0 10 -232576
-1 -1;
#X obj 308 730 t b b b;
#X msg 347 752 1;
#X obj 408 784 s \$0-ctl;
#X obj 329 868 s AF;
#X obj 245 777 del 50;
#X obj 97 689 bng 26 250 50 0 empty empty empty 17 7 0 10 -232576 -1
-1;
#X obj 93 731 t b b b;
#X obj 165 809 s \$0-ctl;
#X obj 114 869 s AF;
#X obj 30 778 del 50;
#X msg 132 753 1;
#X obj 786 681 bng 26 250 50 0 empty empty empty 17 7 0 10 -204800
-1 -1;
#X obj 782 723 t b b b;
#X msg 821 745 1;
#X obj 854 801 s \$0-ctl;
#X obj 803 861 s AF;
#X obj 719 770 del 50;
#X obj 571 682 bng 26 250 50 0 empty empty empty 17 7 0 10 -204800
-1 -1;
#X obj 567 724 t b b b;
#X obj 639 802 s \$0-ctl;
#X obj 588 862 s AF;
#X obj 504 771 del 50;
#X msg 606 746 1;
#X msg 577 780 0.2;
#X msg 802 777 0.7;
#X msg 1379 791 0.2 3000 halfsin endbang;
#X msg 1604 787 0.9 3000 hsin endbang;
#X msg 499 812 0.8 3000 log endbang;
#X msg 716 810 0.3 3000 log endbang;
#X obj 1224 667 bng 26 250 50 0 empty empty empty 17 7 0 10 -262130
-1 -1;
#X obj 1220 709 t b b b;
#X msg 1259 731 1;
#X obj 1292 787 s \$0-ctl;
#X obj 1241 847 s AF;
#X obj 1157 756 del 50;
#X obj 1009 668 bng 26 250 50 0 empty empty empty 17 7 0 10 -262130
-1 -1;
#X obj 1005 710 t b b b;
#X obj 1077 788 s \$0-ctl;
#X obj 1026 848 s AF;
#X obj 942 757 del 50;
#X msg 1044 732 1;
#X msg 1015 766 0.2;
#X msg 1240 763 0.7;
#X msg 937 798 0.8 3000 pow endbang;
#X msg 1154 796 0.3 3000 pow endbang;
#X msg 24 820 1 3000 sin endbang;
#X msg 103 787 0;
#X msg 328 784 1;
#X msg 243 817 0 3000 sin endbang;
#X msg 1236 104 0.3;
#X text 1310 133 ramp linear;
#X msg 1306 230 0.3 2000 linear 4000 endbang;
#X text 1265 103 jump *;
#X msg 1260 135 1 2000;
#X msg 1155 156 1;
#X msg 1190 100 0.1;
#X msg 1153 80 0.9;
#X msg 1073 195 0.4 0 endbang;
#X msg 1087 134 0 0 endbang;
#X msg 1055 253 0.4 2000 linear endbang;
#X msg 1269 167 0;
#X msg 1432 333 0.1;
#X msg 1431 363 0.9 1000 linear;
#X msg 1431 388 0.2 3000 linear endbang;
#X msg 1430 302 1;
#X obj 1233 257 s AF;
#X text 1552 255 ramp with endbang on. if multiple messages are sent
\, all the ramps will broadcast endbang, f 28;
#X text 1497 228 ramp after delay;
#X text 35 42 * jump actually means short microramp fade;
#X text 36 60 ** gradual logic: last float (4000) represents delay
\, if needed, f 62;
#X connect 0 0 8 0;
#X connect 1 0 6 0;
#X connect 2 0 6 0;
#X connect 3 0 6 0;
#X connect 4 0 6 0;
#X connect 5 0 6 0;
#X connect 7 0 8 0;
#X connect 9 0 8 0;
#X connect 10 0 0 0;
#X connect 10 1 7 0;
#X connect 11 0 12 0;
#X connect 12 0 9 0;
#X connect 12 1 10 0;
#X connect 13 0 6 0;
#X connect 14 0 6 0;
#X connect 15 0 6 0;
#X connect 16 0 6 0;
#X connect 17 0 6 0;
#X connect 19 0 18 0;
#X connect 20 0 18 0;
#X connect 21 0 49 0;
#X connect 23 0 18 0;
#X connect 24 0 18 0;
#X connect 25 0 18 0;
#X connect 26 0 18 0;
#X connect 27 0 18 0;
#X connect 28 0 18 0;
#X connect 29 0 18 0;
#X connect 30 0 18 0;
#X connect 31 0 18 0;
#X connect 32 0 18 0;
#X connect 33 0 22 0;
#X connect 34 0 33 0;
#X connect 35 0 6 0;
#X connect 36 0 18 0;
#X connect 37 0 18 0;
#X connect 38 0 18 0;
#X connect 39 0 18 0;
#X connect 40 0 18 0;
#X connect 41 0 6 0;
#X connect 42 0 6 0;
#X connect 43 0 6 0;
#X connect 44 0 6 0;
#X connect 45 0 6 0;
#X connect 46 0 6 0;
#X connect 47 0 22 0;
#X connect 48 0 6 0;
#X connect 49 0 22 0;
#X connect 49 1 48 0;
#X connect 50 0 6 0;
#X connect 51 0 50 0;
#X connect 52 0 53 0;
#X connect 53 0 6 0;
#X connect 54 0 50 0;
#X connect 55 0 53 0;
#X connect 56 0 58 1;
#X connect 58 0 59 0;
#X connect 58 0 75 1;
#X connect 60 0 58 0;
#X connect 60 0 63 0;
#X connect 61 0 60 0;
#X connect 62 0 60 0;
#X connect 63 0 64 0;
#X connect 63 0 77 0;
#X connect 64 0 65 0;
#X connect 65 0 66 0;
#X connect 65 1 67 0;
#X connect 65 2 68 0;
#X connect 65 3 69 0;
#X connect 65 4 70 0;
#X connect 65 5 71 0;
#X connect 66 0 72 0;
#X connect 67 0 72 0;
#X connect 68 0 72 0;
#X connect 69 0 72 0;
#X connect 70 0 72 0;
#X connect 71 0 72 0;
#X connect 73 0 57 0;
#X connect 73 0 76 0;
#X connect 75 0 73 0;
#X connect 77 0 75 0;
#X connect 79 0 80 0;
#X connect 80 0 85 0;
#X connect 80 1 84 0;
#X connect 80 2 81 0;
#X connect 81 0 82 0;
#X connect 84 0 83 0;
#X connect 85 0 123 0;
#X connect 86 0 87 0;
#X connect 87 0 90 0;
#X connect 87 1 96 0;
#X connect 87 2 93 0;
#X connect 90 0 124 0;
#X connect 92 0 91 0;
#X connect 93 0 88 0;
#X connect 95 0 94 0;
#X connect 96 0 89 0;
#X connect 97 0 98 0;
#X connect 98 0 102 0;
#X connect 98 1 145 0;
#X connect 98 2 99 0;
#X connect 99 0 100 0;
#X connect 102 0 146 0;
#X connect 103 0 104 0;
#X connect 104 0 107 0;
#X connect 104 1 144 0;
#X connect 104 2 108 0;
#X connect 107 0 143 0;
#X connect 108 0 105 0;
#X connect 109 0 110 0;
#X connect 110 0 114 0;
#X connect 110 1 122 0;
#X connect 110 2 111 0;
#X connect 111 0 112 0;
#X connect 114 0 126 0;
#X connect 115 0 116 0;
#X connect 116 0 119 0;
#X connect 116 1 121 0;
#X connect 116 2 120 0;
#X connect 119 0 125 0;
#X connect 120 0 117 0;
#X connect 121 0 118 0;
#X connect 122 0 113 0;
#X connect 123 0 83 0;
#X connect 124 0 89 0;
#X connect 125 0 118 0;
#X connect 126 0 113 0;
#X connect 127 0 128 0;
#X connect 128 0 132 0;
#X connect 128 1 140 0;
#X connect 128 2 129 0;
#X connect 129 0 130 0;
#X connect 132 0 142 0;
#X connect 133 0 134 0;
#X connect 134 0 137 0;
#X connect 134 1 139 0;
#X connect 134 2 138 0;
#X connect 137 0 141 0;
#X connect 138 0 135 0;
#X connect 139 0 136 0;
#X connect 140 0 131 0;
#X connect 141 0 136 0;
#X connect 142 0 131 0;
#X connect 143 0 106 0;
#X connect 144 0 106 0;
#X connect 145 0 101 0;
#X connect 146 0 101 0;
#X connect 147 0 163 0;
#X connect 149 0 163 0;
#X connect 151 0 163 0;
#X connect 152 0 163 0;
#X connect 153 0 163 0;
#X connect 154 0 163 0;
#X connect 155 0 163 0;
#X connect 156 0 163 0;
#X connect 157 0 163 0;
#X connect 158 0 163 0;
#X connect 159 0 163 0;
#X connect 160 0 163 0;
#X connect 161 0 163 0;
#X connect 162 0 163 0;
#X restore 465 40 pd \$0-REST;
#X obj 177 194 r AF;
#X text 590 -8 gpp-airliner~ :: universal liner = complex-curve renderer
for various usage scenarios \, primarily envelope or panorama rendering
in realtime;
#X obj 208 103 bng 15 250 50 0 empty empty STOP 17 7 0 10 -261234 -1
-1;
#X msg 207 125 0;
#N canvas 551 313 1600 1400 \$0-ZIGZAG 0;
#X obj 145 62 sel 1;
#X obj 134 466 s AF;
#X obj 223 463 s AF;
#X obj 318 462 s AF;
#X obj 145 106 gpp-adder3;
#X msg 145 84 1;
#X obj 133 197 sel 1 2 3 4 5 6;
#X obj 436 461 s AF;
#X obj 537 461 s AF;
#X msg 536 345 1 1000 lin;
#X msg 133 350 0.4 500 lin;
#X msg 222 347 1 700 hsin;
#X msg 317 346 0.1 1000 log;
#X msg 435 345 0.6 600 pow;
#X obj 144 19 inlet;
#X obj 195 71 r \$0-reset;
#X floatatom 268 192 5 0 0 0 - - -;
#X connect 0 0 5 0;
#X connect 4 0 6 0;
#X connect 4 0 16 0;
#X connect 5 0 4 0;
#X connect 6 0 10 0;
#X connect 6 1 11 0;
#X connect 6 2 12 0;
#X connect 6 3 13 0;
#X connect 6 4 9 0;
#X connect 9 0 8 0;
#X connect 10 0 1 0;
#X connect 11 0 2 0;
#X connect 12 0 3 0;
#X connect 13 0 7 0;
#X connect 14 0 0 0;
#X connect 15 0 4 1;
#X restore 679 363 pd \$0-ZIGZAG;
#X msg 448 331 \$1 1000 lin;
#X obj 659 390 cnv 15 100 60 empty empty MIXED_PATTERNS 20 12 0 20
-262144 -203904 0;
#X obj 685 450 cnv 15 1 140 empty empty empty 20 12 0 14 -1 -203904
0;
#X obj 748 133 gpp-airliner~;
#X obj 823 161 bng 15 250 50 0 empty empty EB_=_endbang_but_only_if_called_for
17 7 0 10 -262144 -1 -1;
#X msg 907 69 1 1000 bang;
#X obj 786 193 tgl 15 0 empty empty RF_=_request_fulfilled 17 7 0 10
-262144 -1 -1 1 1;
#X msg 705 97 0;
#X obj 553 308 s \$0-reset;
#X obj 483 176 t b b b b b;
#X obj 699 331 tgl 15 0 empty empty empty 17 7 0 10 -262144 -1 -1 1
1;
#X msg 906 91 1 bang;
#X text 794 241 NOTE: RF and EB *WILL NOT BROADCAST* IF THE FADER IS
NOT REALLY *FADING* \; TRYING TO FADE FROM 1 TO 1 \, BOTH SIGNALS REMAIN
MUTE;
#X msg 709 67 1;
#X msg 748 87 1 1000 hsin;
#X msg 708 30 1 1000;
#X obj 716 171 snapshot~;
#X floatatom 716 205 5 0 0 0 - - -;
#X obj 681 137 bang~;
#X msg 775 30 0 2000 pow bang;
#X msg 931 36 0 2000 log bang;
#X msg 773 57 0 2000 pow;
#X floatatom 225 258 5 0 0 0 - - -;
#X msg 248 178 0;
#X obj 805 449 cnv 15 1 140 empty empty empty 20 12 0 14 -1 -203904
0;
#X obj 1003 451 cnv 15 1 140 empty empty empty 20 12 0 14 -1 -203904
0;
#X obj 482 453 cnv 15 1 140 empty empty empty 20 12 0 14 -1 -203904
0;
#X obj 346 451 cnv 15 1 140 empty empty empty 20 12 0 14 -1 -203904
0;
#X obj 246 450 cnv 15 1 140 empty empty empty 20 12 0 14 -1 -203904
0;
#X msg 308 136 0.1;
#X obj 284 256 print NAILED;
#X msg 318 87 0.6 2000 pow bang;
#X obj 147 7 vsl 15 200 0 1 0 0 empty empty empty 0 -9 0 10 -262130
-1 -1 0 1;
#X obj 12 119 gpp-snapshot~ 50;
#X connect 0 0 1 0;
#X connect 1 0 2 0;
#X connect 4 0 7 0;
#X connect 9 0 8 0;
#X connect 10 0 8 0;
#X connect 11 0 4 1;
#X connect 12 0 1 1;
#X connect 12 0 4 0;
#X connect 12 0 65 0;
#X connect 12 1 13 0;
#X connect 12 1 16 0;
#X connect 12 2 54 0;
#X connect 12 3 3 0;
#X connect 12 4 62 0;
#X connect 15 0 18 0;
#X connect 17 0 42 0;
#X connect 17 0 31 0;
#X connect 18 0 32 0;
#X connect 19 0 18 1;
#X connect 20 0 19 0;
#X connect 21 0 41 0;
#X connect 22 0 23 0;
#X connect 24 0 23 0;
#X connect 25 0 15 0;
#X connect 27 0 12 0;
#X connect 29 0 30 0;
#X connect 30 0 19 0;
#X connect 30 0 12 0;
#X connect 32 0 14 0;
#X connect 35 0 48 0;
#X connect 35 1 38 0;
#X connect 35 2 36 0;
#X connect 37 0 35 0;
#X connect 39 0 35 0;
#X connect 41 0 15 0;
#X connect 41 1 20 0;
#X connect 41 2 24 0;
#X connect 41 3 22 0;
#X connect 41 4 40 0;
#X connect 43 0 35 0;
#X connect 45 0 35 0;
#X connect 46 0 35 0;
#X connect 47 0 35 0;
#X connect 48 0 49 0;
#X connect 50 0 48 0;
#X connect 51 0 35 0;
#X connect 52 0 35 0;
#X connect 53 0 35 0;
#X connect 55 0 12 0;
#X connect 61 0 12 0;
#X connect 63 0 12 0;
#X connect 65 0 64 0;
