#N canvas 1192 395 2136 1264 12;
#X obj 162 3 inlet;
#X obj 120 513 outlet;
#N canvas 827 180 1200 800 \$0-letters 0;
#X obj 149 78 inlet;
#X msg 118 156 c;
#X msg 134 177 cis;
#X msg 143 206 d;
#X msg 158 236 dis;
#X msg 172 267 e;
#X msg 186 299 f;
#X msg 203 328 fis;
#X msg 217 351 g;
#X msg 236 373 gis;
#X msg 252 399 a;
#X msg 270 426 b;
#X msg 293 456 h;
#X obj 111 549 outlet;
#X obj 136 119 sel 0 1 2 3 4 5 6 7 8 9 10 11;
#X connect 0 0 14 0;
#X connect 1 0 13 0;
#X connect 2 0 13 0;
#X connect 3 0 13 0;
#X connect 4 0 13 0;
#X connect 5 0 13 0;
#X connect 6 0 13 0;
#X connect 7 0 13 0;
#X connect 8 0 13 0;
#X connect 9 0 13 0;
#X connect 10 0 13 0;
#X connect 11 0 13 0;
#X connect 12 0 13 0;
#X connect 14 0 1 0;
#X connect 14 1 2 0;
#X connect 14 2 3 0;
#X connect 14 3 4 0;
#X connect 14 4 5 0;
#X connect 14 5 6 0;
#X connect 14 6 7 0;
#X connect 14 7 8 0;
#X connect 14 8 9 0;
#X connect 14 9 10 0;
#X connect 14 10 11 0;
#X connect 14 11 12 0;
#X restore 48 275 pd \$0-letters;
#X obj 48 302 symbol;
#X obj 170 378 float;
#X obj 117 423 pack s f;
#X text 22 580 octaves below 1 are signed 0 (minor) -1 (major) -2 (contra)
-3 (subcontra) -4 (subsubcontra);
#X text 86 545 list: name octave;
#X obj 48 211 expr $f1 % 12;
#X obj 162 133 expr int($f1 / 12);
#X obj 164 174 - 4;
#X obj 163 65 expr round($f1);
#X text 511 139 gpp-mton2 :: a simple variant of gpp-mton : convert
midi note numbers to note names (no tuning) :: BUT: it will report
the note "detune" value;
#X obj 163 35 t f f;
#X obj 319 104 expr ($f2 - $f1) * 100;
#X obj 164 98 t f f f;
#X obj 335 509 outlet;
#X text 338 537 pitch detune cents;
#X connect 0 0 13 0;
#X connect 2 0 3 0;
#X connect 3 0 5 0;
#X connect 4 0 5 1;
#X connect 5 0 1 0;
#X connect 8 0 2 0;
#X connect 9 0 10 0;
#X connect 10 0 4 0;
#X connect 11 0 15 0;
#X connect 13 0 11 0;
#X connect 13 1 14 1;
#X connect 14 0 16 0;
#X connect 15 0 8 0;
#X connect 15 1 9 0;
#X connect 15 2 14 0;
