#N canvas 335 473 2349 982 12;
#X obj 151 170 gpp-span;
#X obj 151 315 list append;
#X msg 225 286 fader 0 3000 sin;
#X obj 152 360 print;
#X obj 225 258 loadbang;
#X obj 265 28 cnv 10 114 22 empty empty AIR 36 6 1 22 -66577 -262144
0;
#X text 265 53 Gregor Pirš 2022;
#X msg 151 108 1\\\,3\\\,5\\\,7-19;
#X msg 274 191 1 \, 3 \, 5 \, 7-19;
#X text 269 131 unquoted;
#X text 147 77 quoted commas;
#X text 390 24 gpp-span :: parse number spans | in1 = number span (quoted
commas) | in2 = number span (unquoted \, in a form of pd list) | out
1 = dripping list of figures, f 39;
#X msg 94 76 3;
#X msg 283 103 4;
#X msg 555 280 123 123 34;
#X obj 705 368 print A2B;
#X obj 706 333 bytes2any;
#X obj 559 315 list tosymbol;
#X obj 558 373 print LST;
#X obj 556 343 list trim;
#X obj 895 330 list fromsymbol;
#X obj 1014 335 any2bytes;
#X msg 895 286 list adfasdf;
#X obj 1013 304 list trim;
#X obj 901 374 print LST;
#X obj 1019 377 print B2A;
#X msg 675 101 1\\\,3\\\,5\\\,7-19;
#X text 157 89 quoted commas;
#X obj 675 158 list fromsymbol;
#X obj 676 185 list tosymbol;
#X obj 676 234 print;
#X obj 674 129 symbol;
#X msg 694 73 1 \, 3 \, 5 \, 7-19;
#X obj 674 210 list trim;
#X obj 878 164 list fromsymbol;
#X obj 879 196 print;
#X msg 878 99 symbol 1 \, 2 \, 3;
#X connect 0 0 1 0;
#X connect 1 0 3 0;
#X connect 2 0 1 1;
#X connect 4 0 2 0;
#X connect 7 0 0 0;
#X connect 8 0 0 1;
#X connect 12 0 0 0;
#X connect 13 0 0 1;
#X connect 14 0 16 0;
#X connect 14 0 17 0;
#X connect 16 0 15 0;
#X connect 17 0 19 0;
#X connect 19 0 18 0;
#X connect 20 0 24 0;
#X connect 21 0 25 0;
#X connect 22 0 23 0;
#X connect 22 0 20 0;
#X connect 23 0 21 0;
#X connect 26 0 31 0;
#X connect 28 0 29 0;
#X connect 29 0 33 0;
#X connect 31 0 28 0;
#X connect 32 0 31 0;
#X connect 33 0 30 0;
#X connect 34 0 35 0;
#X connect 36 0 34 0;
