#N canvas 970 325 2758 1666 12;
#X obj 449 454 gpp-smpan~;
#X obj 442 24 cnv 10 114 22 empty empty AIR 36 6 1 22 -66577 -262144
0;
#X text 442 49 Gregor Pirš 2022;
#X text 570 18 gpp-smpan~ :: selective stereo/mono panner. will allow
user interraction (3rd inlet) if the signal is (diagnosed as) mono
\, will broadcast centerpan if stereo;
#X msg 594 232 1;
#X msg 631 231 0;
#X msg 669 231 open /home/gregor/audio/pd-projects/work/wavedata/air/testfile/bachmono.wav
, f 79;
#X obj 594 299 readsf~ 2;
#X msg 242 131 open /home/gregor/audio/pd-projects/work/wavedata/air/testfile/bach.wav
, f 79;
#X obj 654 341 bng 15 250 50 0 empty empty empty 17 7 0 10 -262144
-1 -1;
#X obj 719 669 dac~;
#X msg 90 96 open /home/gregor/audio/pd-projects/work/wavedata/air/testfile/bonepiece_48.wav
, f 79;
#X msg 395 168 open /home/gregor/audio/pd-projects/work/wavedata/air/testfile/bachsm.wav
, f 79;
#X obj 228 383 gpp-vu;
#X obj 888 386 gpp-vu;
#X floatatom 374 673 8 0 0 0 L_AMP - -;
#X obj 374 616 gpp-snapshot~ 100;
#X floatatom 112 769 5 0 0 0 IS_MONO_VALUE - -;
#X obj 112 640 gpp-snapshot~ 100;
#X obj 374 646 change;
#X obj 112 676 change;
#X floatatom 516 675 5 0 0 0 R_AMP - -;
#X obj 516 617 gpp-snapshot~ 100;
#X obj 516 649 change;
#X obj 515 348 sig~;
#X obj 414 304 hsl 128 15 0 1 0 0 empty empty USER_PAN 40 -8 0 7 -262130
-1 -1 7700 1;
#X text 1017 13 WARNING: EQUAL POWER PAN ASSUMES THAT MONO WIRE BE
CONNECTED TO LEFT AND RIGHT STEREO SIMULTANEOUSLY AND THAT IS WHAT
sin/cos COMPENSATE FOR (EQUAL POWER PAN);
#X msg 1060 118 \; pd dsp 1 \;;
#X obj 1060 88 loadbang;
#X msg 80 212 color 13;
#X msg 156 210 color 16;
#X obj 155 180 loadbang;
#X obj 132 716 sel 0 1;
#X obj 385 305 tgl 15 0 empty empty empty 17 7 0 10 -258699 -1 -1 0
1;
#X obj 705 619 *~;
#X obj 746 618 *~;
#X msg 411 275 0.5;
#X text 866 253 this is l-channel mono (actually = stereo);
#X floatatom 63 677 5 0 0 0 - - -;
#X obj 373 359 tgl 15 0 empty empty SILENT? 17 7 0 10 -262144 -1 -1
1 1;
#X connect 0 0 18 0;
#X connect 0 1 39 0;
#X connect 0 2 34 1;
#X connect 0 2 16 0;
#X connect 0 3 35 1;
#X connect 0 3 22 0;
#X connect 4 0 7 0;
#X connect 5 0 7 0;
#X connect 6 0 7 0;
#X connect 7 0 34 0;
#X connect 7 0 0 0;
#X connect 7 1 35 0;
#X connect 7 1 0 1;
#X connect 7 2 9 0;
#X connect 8 0 7 0;
#X connect 11 0 7 0;
#X connect 12 0 7 0;
#X connect 16 0 19 0;
#X connect 18 0 20 0;
#X connect 19 0 15 0;
#X connect 20 0 17 0;
#X connect 20 0 32 0;
#X connect 20 0 38 0;
#X connect 22 0 23 0;
#X connect 23 0 21 0;
#X connect 24 0 0 2;
#X connect 25 0 24 0;
#X connect 28 0 27 0;
#X connect 29 0 33 0;
#X connect 30 0 33 0;
#X connect 31 0 30 0;
#X connect 32 0 29 0;
#X connect 32 1 30 0;
#X connect 34 0 10 0;
#X connect 34 0 13 0;
#X connect 35 0 10 1;
#X connect 35 0 14 0;
#X connect 36 0 25 0;
