#N canvas 2050 474 1578 873 12;
#X obj 184 156 gpp-monostereo~;
#X obj 437 170 gpp-monostereo-choice~;
#X obj 499 70 osc~ 220;
#X obj 588 30 osc~ 440;
#X obj 381 235 gpp-vu;
#X obj 559 237 gpp-vu;
#X obj 624 238 gpp-vu;
#X obj 101 232 gpp-vu;
#X obj 194 233 gpp-vu;
#X obj 489 236 dac~;
#X obj 181 45 osc~ 330;
#X obj 286 22 osc~ 550;
#X obj 286 106 *~;
#X obj 588 122 *~;
#X obj 680 77 tgl 15 0 empty empty empty 17 7 0 10 -258113 -1 -1 1
1;
#X obj 384 74 tgl 15 0 empty empty empty 17 7 0 10 -258113 -1 -1 1
1;
#X obj 286 56 *~ 0.5;
#X obj 588 68 *~ 0.5;
#X text 112 113 mono sig;
#X text 432 67 mono sig;
#X text 351 23 2nd stereo sig;
#X text 650 28 2nd stereo sig;
#X symbolatom 288 238 10 0 0 0 - - -;
#X symbolatom 694 231 10 0 0 0 - - -;
#X obj 183 105 *~;
#X obj 221 80 tgl 15 0 empty empty empty 17 7 0 10 -262144 -1 -1 1
1;
#X obj 493 125 *~;
#X obj 531 100 tgl 15 0 empty empty empty 17 7 0 10 -262144 -1 -1 1
1;
#X text 282 259 | (s)tereo | (m)ono | (n)ull, f 10;
#X connect 0 0 7 0;
#X connect 0 0 9 0;
#X connect 0 1 8 0;
#X connect 0 1 9 1;
#X connect 0 2 22 0;
#X connect 1 0 4 0;
#X connect 1 0 9 0;
#X connect 1 1 5 0;
#X connect 1 1 9 0;
#X connect 1 2 6 0;
#X connect 1 2 9 1;
#X connect 1 3 23 0;
#X connect 2 0 26 0;
#X connect 3 0 17 0;
#X connect 10 0 24 0;
#X connect 11 0 16 0;
#X connect 12 0 0 1;
#X connect 13 0 1 1;
#X connect 14 0 13 1;
#X connect 15 0 12 1;
#X connect 16 0 12 0;
#X connect 17 0 13 0;
#X connect 24 0 0 0;
#X connect 25 0 24 1;
#X connect 26 0 1 0;
#X connect 27 0 26 1;
