#N canvas 125 400 1854 1196 12;
#X obj 153 129 inlet~;
#X obj 222 129 inlet~;
#X obj 222 468 outlet~;
#X obj 180 356 *~;
#X obj 222 357 *~;
#X obj 152 468 outlet~;
#X text 601 29 gpp-monostereo~ :: audio plug that automatically switches
between mono and stereo input.;
#X obj 481 31 cnv 10 114 22 empty empty AIR 36 6 1 22 -66577 -262144
0;
#X text 481 56 Gregor Pirš 2022;
#X text 617 96 a FANCY SWITCH option: WILL *NOT* CLICK WHEN THE 2ND
CHANNEL OF STEREO IS CONNECTED.;
#X text 617 137 CLICKING ON THE 2ND CHANNEL DISCONNECT CAN ONLY BE
PREVENTED BY FADING OUT ON THE SAME CABLE \, NOTHING CAN BE DONE HERE
IN ORDER TO SUPPORT DYNAMIC (DIS)CONNECTING;
#X obj 308 467 outlet;
#X text 312 490 monitor;
#N canvas 101 804 1865 1095 $FANCY-SWITCH 0;
#X obj 276 21 inlet~;
#X obj 272 363 outlet~;
#X obj 335 366 outlet~;
#X obj 279 78 gpp-snapshot~ 100;
#X obj 279 107 change;
#X obj 271 243 vline~;
#X obj 271 274 expr~ $v1 \; 1 - $v1 \;;
#X obj 280 178 sel 0 1;
#X obj 279 50 expr~ if ($v1 \, 1 \, 0) \;;
#X msg 274 210 1 50;
#X msg 325 213 0 50;
#X obj 58 25 inlet~;
#X obj 61 82 gpp-snapshot~ 100;
#X obj 62 115 change;
#X obj 61 54 expr~ if ($v1 \, 1 \, 0) \;;
#X text 520 24 1 1 = stereo;
#X text 523 47 1 0 = stereomono;
#X text 525 73 0 0 = nothing;
#X text 526 98 0 1 = forbidden (nothing) = just right;
#X obj 272 326 *~;
#X obj 335 327 *~;
#X text 146 167 SWITCH OFF RIGHT IF LEFT IS NOT CONNECTED, f 14;
#N canvas 0 180 1054 1012 \$0-MONITOR 0;
#X obj 97 15 inlet;
#X obj 34 20 inlet;
#X obj 86 144 pack f f f;
#X obj 99 106 t b f;
#X obj 34 96 t b f;
#X obj 86 172 unpack f f f;
#X obj 86 211 expr 0*$f1 + 2*$f2 + $f3;
#X obj 118 353 outlet;
#X msg 119 300 symbol m;
#X msg 195 302 symbol s;
#X msg 42 300 symbol n;
#X obj 86 241 sel 0 1 2 3;
#X connect 0 0 3 0;
#X connect 1 0 4 0;
#X connect 2 0 5 0;
#X connect 3 0 2 0;
#X connect 3 1 2 2;
#X connect 4 0 2 0;
#X connect 4 1 2 1;
#X connect 5 0 6 0;
#X connect 5 1 6 1;
#X connect 5 2 6 2;
#X connect 6 0 11 0;
#X connect 8 0 7 0;
#X connect 9 0 7 0;
#X connect 10 0 7 0;
#X connect 11 0 10 0;
#X connect 11 1 10 0;
#X connect 11 2 8 0;
#X connect 11 3 9 0;
#X restore 550 192 pd \$0-MONITOR;
#X obj 554 357 outlet;
#X obj 434 351 outlet;
#X msg 426 317 1;
#X msg 463 315 0;
#X text 435 378 state;
#X connect 0 0 8 0;
#X connect 3 0 4 0;
#X connect 4 0 7 0;
#X connect 4 0 22 1;
#X connect 5 0 6 0;
#X connect 6 0 19 0;
#X connect 6 1 20 0;
#X connect 7 0 9 0;
#X connect 7 0 25 0;
#X connect 7 1 10 0;
#X connect 7 1 26 0;
#X connect 8 0 3 0;
#X connect 9 0 5 0;
#X connect 10 0 5 0;
#X connect 11 0 14 0;
#X connect 12 0 13 0;
#X connect 13 0 22 0;
#X connect 14 0 12 0;
#X connect 14 0 19 1;
#X connect 14 0 20 1;
#X connect 19 0 1 0;
#X connect 20 0 2 0;
#X connect 22 0 23 0;
#X connect 25 0 24 0;
#X connect 26 0 24 0;
#X restore 195 261 pd $FANCY-SWITCH;
#X connect 0 0 3 0;
#X connect 0 0 5 0;
#X connect 0 0 13 0;
#X connect 1 0 4 0;
#X connect 1 0 13 1;
#X connect 3 0 2 0;
#X connect 4 0 2 0;
#X connect 13 0 3 1;
#X connect 13 1 4 1;
#X connect 13 3 11 0;
