#N canvas 1214 215 2168 1401 12;
#X obj 599 286 soundfiler;
#X obj 187 40 inlet;
#X obj 600 221 list prepend read;
#X obj 600 251 list trim;
#X obj 186 75 list split 1;
#X obj 528 562 outlet;
#X obj 687 332 unpack f f f f;
#X obj 670 391 f;
#X obj 732 390 f;
#X obj 764 391 f;
#X obj 677 511 list;
#X obj 581 384 f;
#X obj 764 423 * 8;
#X text 302 30 Left outlet outputs the number of samples. Right outlet
outputs info as a list: samplerate \, headersize \, num channels \,
bytespersample \, & endianness ("b" or "l"). If no array name is given
\, no samples are read but the info is provided anyway., f 68;
#X obj 700 391 f;
#X obj 271 481 f;
#X obj 290 453 expr $f1 / $f2;
#X obj 15 134 sel sr samplerate br bitrate ch channels sz size hs headersize
dur duration all, f 83;
#X connect 0 0 11 1;
#X connect 0 0 16 0;
#X connect 0 1 6 0;
#X connect 0 1 10 1;
#X connect 1 0 4 0;
#X connect 2 0 3 0;
#X connect 3 0 0 0;
#X connect 4 0 17 0;
#X connect 4 1 2 0;
#X connect 6 0 7 1;
#X connect 6 0 16 1;
#X connect 6 1 14 1;
#X connect 6 2 8 1;
#X connect 6 3 9 1;
#X connect 7 0 5 0;
#X connect 8 0 5 0;
#X connect 9 0 12 0;
#X connect 10 0 5 0;
#X connect 11 0 5 0;
#X connect 12 0 5 0;
#X connect 14 0 5 0;
#X connect 15 0 5 0;
#X connect 16 0 15 1;
#X connect 17 0 7 0;
#X connect 17 1 7 0;
#X connect 17 2 9 0;
#X connect 17 3 9 0;
#X connect 17 4 8 0;
#X connect 17 5 8 0;
#X connect 17 6 11 0;
#X connect 17 7 11 0;
#X connect 17 8 14 0;
#X connect 17 9 14 0;
#X connect 17 10 15 0;
#X connect 17 11 16 0;
#X connect 17 12 10 0;
