#N canvas 852 428 2675 1295 10;
#X obj 21 8 inlet;
#X obj 189 26 loadbang;
#X text 180 3 initstate 0;
#X obj 73 698 outlet~;
#X msg 188 60 reset;
#X obj 20 131 bang;
#N canvas 154 180 1639 1400 \$0-STOREVALUES 0;
#X obj 113 -50 inlet;
#N canvas 811 540 2812 1400 \$0-reset 0;
#X obj 251 112 \$0;
#X obj 251 28 inlet;
#X obj 140 36 r \$0-reset;
#X obj 140 61 bang;
#X obj 129 242 v v\$0_time;
#X obj 143 268 v v\$0_delay;
#X obj 161 294 v v\$0_endbang;
#X obj 271 357 v v\$0_microtime;
#X msg 155 198 0;
#X text 440 138 NOTE: v\$0_from and v\$0_to receivers are birot receivers
\, ensuring the right succession of the ramp movement (see \$0-values)
\; Even if here (during reset) this is not needed \, it's absolutely
recommendable to address v\$0_to and v\$0_from via those receivers
insted of addressing their values [value] directly, f 42;
#X msg 441 267 \; v\$1_from 0 \; v\$1_to 0 \;;
#X text 531 272 we do not initialize these two \; they are part of
a continuus sequence, f 28;
#X msg 292 168 \; \$1-type symbol linear \;;
#X obj 252 137 t b b f;
#X msg 271 314 50;
#X connect 0 0 13 0;
#X connect 1 0 0 0;
#X connect 2 0 3 0;
#X connect 3 0 0 0;
#X connect 8 0 4 0;
#X connect 8 0 5 0;
#X connect 8 0 6 0;
#X connect 13 0 8 0;
#X connect 13 1 14 0;
#X connect 13 2 12 0;
#X connect 14 0 7 0;
#X restore 142 40 pd \$0-reset;
#N canvas 603 180 1600 1400 \$0-A 0;
#X obj 378 77 inlet;
#X obj 452 581 outlet;
#X obj 378 155 list split 1;
#X obj 413 186 list split 1;
#X obj 377 222 route float;
#X obj 377 414 s v\$0_to;
#X text 361 437 a birot sender;
#X obj 414 289 v v\$0_time;
#X msg 493 403 1;
#X obj 514 458 v v\$0_endbang;
#X msg 428 116 1 bang;
#X obj 414 258 route float symbol;
#X obj 493 369 sel bang;
#X connect 0 0 2 0;
#X connect 2 0 4 0;
#X connect 2 1 3 0;
#X connect 3 0 11 0;
#X connect 3 1 1 0;
#X connect 4 0 5 0;
#X connect 8 0 9 0;
#X connect 10 0 2 0;
#X connect 11 0 7 0;
#X connect 11 1 12 0;
#X connect 12 0 8 0;
#X restore 116 82 pd \$0-A;
#N canvas 1329 655 1600 1400 \$0-B 0;
#X obj 106 122 list split 1;
#X obj 106 83 inlet;
#X obj 127 463 outlet;
#X text 72 498 trigger: fade type;
#X obj 106 172 route float symbol;
#X msg 44 353 1;
#X obj 167 412 s \$0-type;
#X text 256 357 this one has to remain a normal sender \, symbol!;
#X obj 46 245 v v\$0_delay;
#X obj 49 399 v v\$0_endbang;
#X obj 107 351 bng 15 250 50 0 empty empty empty 17 7 0 10 -262144
-1 -1;
#X obj 158 263 sel bang;
#X connect 0 0 4 0;
#X connect 0 1 2 0;
#X connect 1 0 0 0;
#X connect 4 0 8 0;
#X connect 4 1 11 0;
#X connect 5 0 9 0;
#X connect 11 0 5 0;
#X connect 11 0 10 0;
#X connect 11 1 6 0;
#X restore 116 106 pd \$0-B;
#X obj 145 380 outlet;
#N canvas 557 180 1600 1400 \$0-C 0;
#X obj 106 122 list split 1;
#X obj 106 83 inlet;
#X obj 145 480 outlet;
#X text 90 515 trigger: fade type;
#X obj 101 163 route float symbol;
#X msg 191 277 1;
#X obj 169 346 print C-ENDBANG;
#X obj 196 323 v v\$0_endbang;
#X obj 36 253 v v\$0_delay;
#X obj 192 246 sel bang;
#X connect 0 0 4 0;
#X connect 0 1 2 0;
#X connect 1 0 0 0;
#X connect 4 0 8 0;
#X connect 4 1 9 0;
#X connect 5 0 7 0;
#X connect 9 0 5 0;
#X restore 116 129 pd \$0-C;
#N canvas 772 180 1600 1400 \$0-D 0;
#X obj 105 123 list split 1;
#X obj 106 83 inlet;
#X msg 105 203 1;
#X obj 227 344 print AIRFADER;
#X msg 227 318 too many arguments;
#X obj 227 291 bang;
#X obj 110 249 v v\$0_endbang;
#X obj 105 159 select bang;
#X connect 0 0 7 0;
#X connect 0 1 5 0;
#X connect 1 0 0 0;
#X connect 2 0 6 0;
#X connect 4 0 3 0;
#X connect 5 0 4 0;
#X connect 7 0 2 0;
#X restore 116 152 pd \$0-D;
#X obj 90 44 t b a;
#X obj 143 325 symbol;
#X obj 176 292 r \$0-type;
#X obj 90 207 == 0;
#X obj 90 237 sel 1;
#X obj 43 354 s \$0-type;
#X obj 28 276 t b b;
#X msg 43 326 symbol jump;
#X obj 118 268 bang;
#N canvas 740 180 1600 1400 \$0-birot 0;
#X obj 457 143 gpp-birot;
#X floatatom 513 238 5 0 0 0 - - -;
#X floatatom 450 238 5 0 0 0 - - -;
#X text 482 238 <---;
#X msg 499 73 0;
#X obj 499 47 loadbang;
#X obj 539 186 v v\$0_from;
#X text 244 43 active case: when new to arrives \, from is automatically
refreshed, f 28;
#X text 643 44 exceptional case: set from manually, f 17;
#X obj 427 29 r v\$0_to;
#X obj 562 31 r v\$0_from;
#X obj 401 185 v v\$0_to;
#X text 415 11 v\$0_to and $v0_from birot receivers;
#X obj 427 66 clip 0 1;
#X obj 562 80 clip 0 1;
#X connect 0 0 2 0;
#X connect 0 0 11 0;
#X connect 0 1 1 0;
#X connect 0 1 6 0;
#X connect 4 0 0 1;
#X connect 5 0 4 0;
#X connect 9 0 13 0;
#X connect 10 0 14 0;
#X connect 13 0 0 0;
#X connect 14 0 0 1;
#X restore 234 41 pd \$0-birot;
#X text 311 41 birot mechanism: remember the last ramp;
#X obj 90 184 v v\$0_time;
#X floatatom 140 215 5 0 0 0 - - -;
#X obj 171 262 bng 15 250 50 0 empty empty empty 17 7 0 10 -262144
-1 -1;
#X floatatom 154 352 5 0 0 0 - - -;
#X obj 115 12 t a b;
#N canvas 1990 180 1430 864 \$0-already-there 0;
#X obj 52 30 inlet;
#X obj 52 68 expr if (v\$0_from == v\$0_to \, 1 \, 0);
#X obj 52 96 sel 1;
#X obj 53 127 s \$0-eq;
#X text 163 18 this solves the main problem with value reached : on
an airliner call will not be broadcast if not different from the previous
one :: leaving unimplemented for now to avoid confusion;
#X connect 0 0 1 0;
#X connect 1 0 2 0;
#X connect 2 0 3 0;
#X restore -17 12 pd \$0-already-there;
#X obj 16 -18 t b a;
#X connect 0 0 22 0;
#X connect 2 0 3 0;
#X connect 3 0 5 0;
#X connect 5 0 6 0;
#X connect 7 0 18 0;
#X connect 7 1 2 0;
#X connect 8 0 4 0;
#X connect 8 0 21 0;
#X connect 9 0 8 1;
#X connect 10 0 11 0;
#X connect 11 0 13 0;
#X connect 11 1 15 0;
#X connect 11 1 20 0;
#X connect 13 0 8 0;
#X connect 13 1 14 0;
#X connect 14 0 12 0;
#X connect 15 0 8 0;
#X connect 18 0 10 0;
#X connect 18 0 19 0;
#X connect 22 0 7 0;
#X connect 22 1 1 0;
#X connect 24 0 23 0;
#X restore 85 184 pd \$0-STOREVALUES;
#X msg 756 241 0.3 2000 linear 4000;
#X msg 754 60 0.3 2000;
#X msg 754 32 0.3;
#X obj 21 100 route reset;
#X msg 756 116 0.3 2000 4000;
#X msg 754 87 0.3 2000 endbang;
#X msg 755 177 0.3 2000 4000 endbang;
#X obj 930 25 cnv 10 114 22 empty empty AIR 36 6 1 22 -66577 -262144
0;
#X text 928 47 Gregor Pirš 2022;
#X symbolatom 17 223 10 0 0 0 - - -;
#X obj 20 156 s \$0-reset;
#N canvas 0 180 1600 1400 \$0-PI 0;
#X obj 131 128 expr atan (1) * 4;
#X obj 132 103 loadbang;
#X obj 131 150 value PI;
#X obj 86 97 bng 15 250 50 0 empty empty empty 17 7 0 10 -262144 -1
-1;
#X text 153 74 broadcast pi as PI global;
#X connect 0 0 2 0;
#X connect 1 0 0 0;
#X connect 3 0 0 0;
#X restore 206 185 pd \$0-PI;
#N canvas 1736 180 1600 1400 \$0-linear 0;
#X obj 53 -4 inlet;
#X obj 63 227 list split 1;
#X obj 98 424 outlet~;
#X msg 438 123 2;
#X obj 438 415 outlet;
#X obj 55 27 t b b b b b b b b;
#X obj 78 66 v v\$0_to;
#X obj 93 101 v v\$0_time;
#X obj 124 126 v v\$0_delay;
#X obj 143 157 v v\$0_from;
#X obj 62 193 pack 0 f f f f;
#X msg 98 266 \$4 \, \$1 \$2 \$3;
#X obj 98 290 vline~;
#X obj 258 342 v v\$0_endbang;
#X obj 258 367 s \$0-WITHEB;
#X obj 169 341 v v\$0_to;
#X obj 169 366 s \$0-TOSTATE;
#X text 165 385 prepare RF checker;
#X connect 0 0 5 0;
#X connect 1 1 11 0;
#X connect 3 0 4 0;
#X connect 5 0 10 0;
#X connect 5 1 13 0;
#X connect 5 2 6 0;
#X connect 5 3 7 0;
#X connect 5 4 8 0;
#X connect 5 5 9 0;
#X connect 5 6 15 0;
#X connect 5 7 3 0;
#X connect 6 0 10 1;
#X connect 7 0 10 2;
#X connect 8 0 10 3;
#X connect 9 0 10 4;
#X connect 10 0 1 0;
#X connect 11 0 12 0;
#X connect 12 0 2 0;
#X connect 13 0 14 0;
#X connect 15 0 16 0;
#X restore 92 358 pd \$0-linear;
#N canvas 582 213 1600 1419 \$0-jump 0;
#X obj 62 31 inlet;
#X obj 63 238 list split 1;
#X obj 98 424 outlet~;
#X msg 390 140 1;
#X obj 393 409 outlet;
#X text 387 120 select gate;
#X obj 90 89 v v\$0_to;
#X obj 102 119 v v\$0_microtime;
#X obj 123 145 v v\$0_delay;
#X obj 200 305 v v\$0_to;
#X obj 144 176 v v\$0_from;
#X obj 63 203 pack 0 f f f f;
#X obj 62 57 t b b b b b b b b b;
#X msg 98 266 \$4 \, \$1 \$2 \$3;
#X obj 98 291 vline~;
#X obj 288 303 v v\$0_endbang;
#X obj 288 327 s \$0-WITHEB;
#X obj 200 330 s \$0-TOSTATE;
#X text 232 350 prepare RF checker;
#X text 133 20 by default \, "jump" method is defined as a microtime
linear ramp., f 85;
#X connect 0 0 12 0;
#X connect 1 1 13 0;
#X connect 3 0 4 0;
#X connect 6 0 11 1;
#X connect 7 0 11 2;
#X connect 8 0 11 3;
#X connect 9 0 17 0;
#X connect 10 0 11 4;
#X connect 11 0 1 0;
#X connect 12 0 11 0;
#X connect 12 2 6 0;
#X connect 12 3 7 0;
#X connect 12 4 8 0;
#X connect 12 5 15 0;
#X connect 12 6 9 0;
#X connect 12 7 10 0;
#X connect 12 8 3 0;
#X connect 13 0 14 0;
#X connect 14 0 2 0;
#X connect 15 0 16 0;
#X restore 27 330 pd \$0-jump;
#X obj 73 535 gpp-select8~ ---------;
#X obj 138 244 s \$0-dump;
#N canvas 1983 376 1600 1401 \$0-dump 0;
#X obj 522 227 print -TO;
#X obj 448 41 bng 15 250 50 0 empty empty empty 17 7 0 10 -262144 -1
-1;
#X obj 506 279 print -FROM;
#X obj 471 384 print -TIME;
#X obj 438 429 print -DELAY;
#X obj 392 489 print -ENDBANG;
#X obj 360 534 print -MICROTIME;
#X obj 366 13 r \$0-dump;
#X obj 522 206 v v\$0_to;
#X obj 507 258 v v\$0_from;
#X obj 472 363 v v\$0_time;
#X obj 438 410 v v\$0_delay;
#X obj 392 470 v v\$0_endbang;
#X obj 360 515 v v\$0_microtime;
#X obj 368 66 t b s;
#X obj 435 83 t b b b b b b b b b b b;
#X obj 555 136 symbol;
#X msg 555 158 \$1;
#X obj 553 182 print -TYPE;
#X obj 570 106 print =============;
#X obj 312 566 print =============;
#X connect 1 0 15 0;
#X connect 8 0 0 0;
#X connect 9 0 2 0;
#X connect 10 0 3 0;
#X connect 11 0 4 0;
#X connect 12 0 5 0;
#X connect 13 0 6 0;
#X connect 14 0 15 0;
#X connect 14 1 16 1;
#X connect 15 1 20 0;
#X connect 15 2 13 0;
#X connect 15 3 12 0;
#X connect 15 4 11 0;
#X connect 15 5 10 0;
#X connect 15 7 9 0;
#X connect 15 8 8 0;
#X connect 15 9 16 0;
#X connect 15 10 19 0;
#X connect 16 0 17 0;
#X connect 17 0 18 0;
#X restore 267 185 pd \$0-dump;
#X obj 84 244 t s s;
#N canvas 2043 180 1600 1691 \$0-log 0;
#X obj 120 -98 inlet;
#X obj 102 95 list split 1;
#N canvas 715 515 1600 1400 \$0-DIRECTION 0;
#X obj 69 84 inlet;
#X obj 69 144 expr if (v\$0_to > v\$0_from \, 1 \, -1) \;;
#X obj 69 176 sel 1 -1;
#X obj 69 206 pack 0.001 10;
#X obj 92 234 pack 10 0.001;
#X obj 68 316 outlet;
#X obj 132 314 outlet;
#X obj 93 275 unpack f f;
#X connect 0 0 1 0;
#X connect 1 0 2 0;
#X connect 2 0 3 0;
#X connect 2 1 4 0;
#X connect 3 0 7 0;
#X connect 4 0 7 0;
#X connect 7 0 5 0;
#X connect 7 1 6 0;
#X restore 4 -3 pd \$0-DIRECTION;
#X obj 102 70 pack 0 f f f f;
#X msg 138 120 \$4 \, \$1 \$2 \$3;
#X obj 139 459 outlet~;
#X obj 697 461 outlet;
#X obj 120 -67 t b b b b b b b b;
#X obj 159 -7 v v\$0_time;
#X obj 176 17 v v\$0_delay;
#X obj 283 251 v v\$0_to;
#X msg 695 4 5;
#X text 197 141 ramp 0.001 -> 10 => -3 -> 1;
#X obj 138 164 expr~ min(v\$0_from \, v\$0_to) + (abs(v\$0_from - v\$0_to)
* (log10 ( $v1 ) + 3) / 4), f 82;
#X obj 139 143 vline~;
#X obj 375 250 v v\$0_endbang;
#X obj 375 274 s \$0-WITHEB;
#X obj 282 275 s \$0-TOSTATE;
#X text 314 295 prepare RF checker;
#X connect 0 0 7 0;
#X connect 1 1 4 0;
#X connect 2 0 3 4;
#X connect 2 1 3 1;
#X connect 3 0 1 0;
#X connect 4 0 14 0;
#X connect 7 0 3 0;
#X connect 7 1 2 0;
#X connect 7 2 15 0;
#X connect 7 3 8 0;
#X connect 7 4 9 0;
#X connect 7 6 10 0;
#X connect 7 7 11 0;
#X connect 8 0 3 2;
#X connect 9 0 3 3;
#X connect 10 0 17 0;
#X connect 11 0 6 0;
#X connect 13 0 5 0;
#X connect 14 0 13 0;
#X connect 15 0 16 0;
#X coords 0 0 0.5 0.5 0 0 0;
#X restore 244 468 pd \$0-log;
#X msg 755 213 0.3 2000 log endbang;
#X msg 756 274 0.3 2000 lin 4000 endbang;
#X text 935 217 lin | linear : linear;
#X text 937 284 log : logarhythmic log10 curve (.001 -> 10) substantial
lower body;
#X text 938 319 exp : exponential curve : eliminated lower body;
#X text 936 260 sin | fullsin : whole sinus curve (-PI/2 -> PI/2);
#X text 935 239 hsin | halfsin : upper half sinus curve (0 -> PI/2)
;
#X msg 754 144 0.3 2000 hsin;
#N canvas 49 180 1600 1691 \$0-halfsin 0;
#X obj 120 -98 inlet;
#X obj 102 95 list split 1;
#X text 244 286 ramp 0 -> PI/2 or PI/2 -> 0;
#N canvas 1151 180 1600 1400 \$0-DIRECTION 0;
#X obj 69 95 inlet;
#X obj 112 294 outlet;
#X obj 198 206 expr PI/2 \; 0 \;, f 11;
#X obj 70 205 expr 0 \; PI/2 \;, f 11;
#X obj 196 294 outlet;
#X text 127 328 set from/to;
#X obj 69 168 sel 1 -1;
#X obj 69 143 expr if (v\$0_to > v\$0_from \, 1 \, -1) \;;
#X connect 0 0 7 0;
#X connect 2 0 1 0;
#X connect 2 1 4 0;
#X connect 3 0 1 0;
#X connect 3 1 4 0;
#X connect 6 0 3 0;
#X connect 6 1 2 0;
#X connect 7 0 6 0;
#X restore 17 -3 pd \$0-DIRECTION;
#X obj 102 70 pack 0 f f f f;
#X msg 125 150 \$4 \, \$1 \$2 \$3;
#X obj 128 442 outlet~;
#X msg 594 1 3;
#X obj 596 458 outlet;
#X obj 120 -67 t b b b b b b b b;
#X obj 159 -7 v v\$0_time;
#X obj 176 17 v v\$0_delay;
#X obj 223 369 v v\$0_to;
#X obj 125 210 expr~ min(v\$0_from \, v\$0_to) + ( abs(v\$0_from -
v\$0_to) * sin ( $v1 )), f 70;
#X text 362 -72 SINHALF: SIN 0 -> PI/2;
#X text 652 -67 comment;
#X obj 125 174 vline~;
#X obj 312 373 v v\$0_endbang;
#X obj 312 397 s \$0-WITHEB;
#X obj 225 395 s \$0-TOSTATE;
#X text 194 347 prepare RF checker;
#X connect 0 0 9 0;
#X connect 1 1 5 0;
#X connect 3 0 4 4;
#X connect 3 1 4 1;
#X connect 4 0 1 0;
#X connect 5 0 16 0;
#X connect 7 0 8 0;
#X connect 9 0 4 0;
#X connect 9 1 3 0;
#X connect 9 2 17 0;
#X connect 9 3 10 0;
#X connect 9 4 11 0;
#X connect 9 6 12 0;
#X connect 9 7 7 0;
#X connect 10 0 4 2;
#X connect 11 0 4 3;
#X connect 12 0 19 0;
#X connect 13 0 6 0;
#X connect 16 0 13 0;
#X connect 17 0 18 0;
#X coords 0 0 0.5 0.5 0 0 0;
#X restore 135 388 pd \$0-halfsin;
#N canvas 276 180 1600 1691 \$0-sin 0;
#X obj 120 -98 inlet;
#X obj 102 95 list split 1;
#N canvas 440 736 1600 1400 \$0-DIRECTION 0;
#X obj 69 95 inlet;
#X obj 112 294 outlet;
#X obj 196 294 outlet;
#X text 127 328 set from/to;
#X obj 69 143 expr if (v\$0_to > v\$0_from \, 1 \, -1) \;;
#X obj 70 205 expr -($f1 * PI/2) \; $f1 * PI/2 \;;
#X connect 0 0 4 0;
#X connect 4 0 5 0;
#X connect 5 0 1 0;
#X connect 5 1 2 0;
#X restore 4 -3 pd \$0-DIRECTION;
#X obj 102 70 pack 0 f f f f;
#X msg 114 126 \$4 \, \$1 \$2 \$3;
#X obj 114 433 outlet~;
#X obj 697 461 outlet;
#X obj 120 -67 t b b b b b b b b;
#X obj 159 -7 v v\$0_time;
#X obj 176 17 v v\$0_delay;
#X obj 251 267 v v\$0_to;
#X text 365 -76 SIN: SIN -PI/2 -> PI/2;
#X text 156 153 ramp -PI/2 -> PI/2 or PI/2 -> -PI/2;
#X msg 695 4 4;
#X obj 114 177 expr~ (min(v\$0_from \, v\$0_to) + ( abs(v\$0_from -
v\$0_to) * (sin ( $v1 ) + 1) / 2)), f 82;
#X obj 114 153 vline~;
#X obj 340 266 v v\$0_endbang;
#X obj 340 290 s \$0-WITHEB;
#X obj 251 296 s \$0-TOSTATE;
#X text 283 316 prepare RF checker;
#X connect 0 0 7 0;
#X connect 1 1 4 0;
#X connect 2 0 3 4;
#X connect 2 1 3 1;
#X connect 3 0 1 0;
#X connect 4 0 15 0;
#X connect 7 0 3 0;
#X connect 7 1 2 0;
#X connect 7 2 16 0;
#X connect 7 3 8 0;
#X connect 7 4 9 0;
#X connect 7 6 10 0;
#X connect 7 7 13 0;
#X connect 8 0 3 2;
#X connect 9 0 3 3;
#X connect 10 0 18 0;
#X connect 13 0 6 0;
#X connect 14 0 5 0;
#X connect 15 0 14 0;
#X connect 16 0 17 0;
#X coords 0 0 0.5 0.5 0 0 0;
#X restore 188 425 pd \$0-sin;
#X obj 85 283 sel jump linear hsin sin log pow lin halfsin fullsin
;
#N canvas 1006 194 1600 1691 \$0-pow 0;
#X obj 120 -98 inlet;
#X obj 102 95 list split 1;
#N canvas 715 295 1600 1400 \$0-DIRECTION 0;
#X obj 69 84 inlet;
#X obj 69 144 expr if (v\$0_to > v\$0_from \, 1 \, -1) \;;
#X obj 69 176 sel 1 -1;
#X obj 68 316 outlet;
#X obj 132 314 outlet;
#X obj 93 275 unpack f f;
#X obj 69 206 pack -1 3;
#X obj 92 234 pack 3 -1;
#X connect 0 0 1 0;
#X connect 1 0 2 0;
#X connect 2 0 6 0;
#X connect 2 1 7 0;
#X connect 5 0 3 0;
#X connect 5 1 4 0;
#X connect 6 0 5 0;
#X connect 7 0 5 0;
#X restore 4 -3 pd \$0-DIRECTION;
#X obj 102 70 pack 0 f f f f;
#X msg 125 152 \$4 \, \$1 \$2 \$3;
#X obj 126 463 outlet~;
#X obj 697 461 outlet;
#X obj 120 -67 t b b b b b b b b;
#X obj 159 -7 v v\$0_time;
#X obj 176 17 v v\$0_delay;
#X obj 256 281 v v\$0_to;
#X msg 695 4 6;
#X obj 124 178 vline~;
#X text 488 268 1/1000 -> 1000;
#X obj 125 203 expr~ ( min(v\$0_from \, v\$0_to) + ( abs(v\$0_from
- v\$0_to) * round(pow(10 \, $v1) ) / 1000) ), f 90;
#X obj 341 281 v v\$0_endbang;
#X obj 341 305 s \$0-WITHEB;
#X obj 256 306 s \$0-TOSTATE;
#X text 269 331 prepare RF checker;
#X connect 0 0 7 0;
#X connect 1 1 4 0;
#X connect 2 0 3 4;
#X connect 2 1 3 1;
#X connect 3 0 1 0;
#X connect 4 0 12 0;
#X connect 7 0 3 0;
#X connect 7 1 2 0;
#X connect 7 2 15 0;
#X connect 7 3 8 0;
#X connect 7 4 9 0;
#X connect 7 6 10 0;
#X connect 7 7 11 0;
#X connect 8 0 3 2;
#X connect 9 0 3 3;
#X connect 10 0 17 0;
#X connect 11 0 6 0;
#X connect 12 0 14 0;
#X connect 14 0 5 0;
#X connect 15 0 16 0;
#X coords 0 0 0.5 0.5 0 0 0;
#X restore 282 505 pd \$0-pow;
#X text 931 78 NOTE: airliner~ operating set = (0..1);
#X text 1050 17 gpp-airliner~ :: an ultrafader-derived variant of universal
liner = complex-curve renderer for various usage scenarios \, primarily
envelope or panorama rendering in realtime;
#X text 161 631 request-fulfilled: 1 if the state equals the last-required
state \, 0 if not, f 28;
#X text 608 658 fader done bang \, but only if reqested by input params
;
#X symbolatom 205 222 10 0 0 0 - - -;
#X obj 151 585 gpp-sigeq \$1;
#X obj 220 555 r \$0-TOSTATE;
#X obj 566 628 spigot;
#X obj 566 602 sel 1;
#X text 561 677 conditional endbang if banging is on (1) \, broadcast
, f 19;
#X obj 610 601 r \$0-WITHEB;
#X obj 566 658 outlet;
#X obj 153 697 outlet;
#X obj 367 697 outlet;
#X text 376 642 gate-state;
#X text 345 661 0 if closed 1 if open (> 0);
#X floatatom 315 703 5 0 0 0 - - -;
#X obj 367 612 gpp-siggt 0;
#X obj 976 676 outlet;
#X obj 976 642 snapshot~;
#X obj 976 604 sel 1;
#X text 972 695 VR (value reached): nail final state when RF=1 (contour
snapshot), f 23;
#N canvas 891 221 601 769 \$0-FIX-ENTRY 0;
#X obj 55 18 inlet;
#X obj 54 159 outlet;
#X obj 83 100 snapshot~;
#X obj 147 21 inlet~;
#X obj 55 49 t a b;
#X connect 0 0 4 0;
#X connect 2 0 1 0;
#X connect 3 0 2 0;
#X connect 4 0 1 0;
#X connect 4 1 2 0;
#X restore 84 128 pd \$0-FIX-ENTRY;
#X obj 930 115 cnv 15 300 10 empty empty empty 20 12 0 14 -261234 -66577
0;
#X text 929 126 NOTE: (V2) THIS IS AN UPDATET \, DYNAMIC VERSION (30.12.2022)
:: if interrupted during ramping \, it will smoothly flow into the
next ramp;
#X obj 205 131 cnv 15 300 10 empty empty <---V2_addendum -20 3 0 10
-261234 -66577 0;
#X obj 976 573 change;
#X obj 1034 587 r \$0-eq;
#X text 935 196 jump: a microtime jump (100ms linear);
#X connect 0 0 10 0;
#X connect 1 0 4 0;
#X connect 4 0 10 0;
#X connect 5 0 17 0;
#X connect 6 0 16 0;
#X connect 6 0 24 0;
#X connect 10 0 5 0;
#X connect 10 1 60 0;
#X connect 19 0 21 1;
#X connect 19 1 21 8;
#X connect 20 0 21 0;
#X connect 20 1 21 8;
#X connect 21 0 3 0;
#X connect 21 0 43 0;
#X connect 21 0 55 0;
#X connect 21 0 57 0;
#X connect 21 0 60 1;
#X connect 24 0 36 0;
#X connect 24 1 22 0;
#X connect 24 1 42 0;
#X connect 25 0 21 4;
#X connect 25 1 21 8;
#X connect 34 0 21 2;
#X connect 34 1 21 8;
#X connect 35 0 21 3;
#X connect 35 1 21 8;
#X connect 36 0 20 0;
#X connect 36 1 19 0;
#X connect 36 2 34 0;
#X connect 36 3 35 0;
#X connect 36 4 25 0;
#X connect 36 5 37 0;
#X connect 36 6 19 0;
#X connect 36 7 34 0;
#X connect 36 8 35 0;
#X connect 37 0 21 5;
#X connect 37 1 21 8;
#X connect 43 0 50 0;
#X connect 43 0 46 0;
#X connect 43 0 64 0;
#X connect 44 0 43 1;
#X connect 45 0 49 0;
#X connect 46 0 45 0;
#X connect 48 0 45 1;
#X connect 55 0 54 0;
#X connect 55 0 51 0;
#X connect 57 0 56 0;
#X connect 58 0 57 0;
#X connect 60 0 6 0;
#X connect 64 0 58 0;
