#N canvas 927 364 1888 1046 12;
#X obj 50 58 inlet;
#X obj 49 197 outlet;
#X obj 137 52 inlet;
#X obj 49 127 spigot;
#X msg 137 79 1;
#X msg 223 135 0;
#X msg 197 79 1;
#X obj 196 51 loadbang;
#X obj 154 199 outlet;
#X obj 297 25 cnv 10 114 22 empty empty AIR 36 6 1 22 -66577 -262144
0;
#X text 294 49 Gregor Pirš 2023;
#X text 419 17 gpp-trap2 :: in 1: spigot line \, in2: [bang] untrap
trap | out1: spigot line \, out2: trap state, f 39;
#X obj 49 158 t a b;
#X connect 0 0 3 0;
#X connect 2 0 4 0;
#X connect 3 0 12 0;
#X connect 4 0 3 1;
#X connect 4 0 8 0;
#X connect 5 0 3 1;
#X connect 5 0 8 0;
#X connect 6 0 3 1;
#X connect 6 0 8 0;
#X connect 7 0 6 0;
#X connect 12 0 1 0;
#X connect 12 1 5 0;
