#N canvas 1101 180 2346 1431 12;
#X obj 113 50 inlet;
#X obj 110 215 outlet;
#X obj 206 88 ctlin 1 \$1;
#X obj 301 89 ctlin 2 \$1;
#X obj 432 82 ctlin 3 \$1;
#X text 222 58 fader;
#X text 314 55 pan;
#X obj 432 116 expr ($f1 / $f1);
#X text 439 52 setmute;
#X obj 587 83 ctlin 3 \$1;
#X obj 587 117 expr ($f1 / $f1);
#X text 594 53 prelisten;
#X obj 203 275 s __OSC_SENDER;
#X obj 204 236 oscformat -f f /airmix/\$1/fader;
#X obj 205 127 expr ($f1 + 1) / 128;
#X obj 300 164 expr ($f1 + 1) / 128;
#X obj 824 78 gpp-nrpn-in;
#X obj 823 106 route 1;
#X obj 823 134 route \$1;
#X obj 932 76 gpp-nrpn-in;
#X obj 931 132 route \$1;
#X obj 931 104 route 2;
#X obj 734 285 gpp-nrpn-out 1 1;
#X floatatom 720 236 5 0 0 0 - - -;
#X floatatom 826 178 5 0 0 0 - - -;
#X obj 300 201 oscformat -f f /airmix/\$1/pan;
#X floatatom 934 179 5 0 0 0 - - -;
#X connect 2 0 14 0;
#X connect 3 0 15 0;
#X connect 4 0 7 0;
#X connect 9 0 10 0;
#X connect 13 0 12 0;
#X connect 14 0 13 0;
#X connect 15 0 25 0;
#X connect 16 0 17 0;
#X connect 17 0 18 0;
#X connect 18 0 24 0;
#X connect 19 0 21 0;
#X connect 20 0 26 0;
#X connect 21 0 20 0;
#X connect 23 0 22 0;
#X connect 25 0 12 0;
