#N canvas 2219 450 1600 1400 8;
#X obj 263 346 snapshot~;
#X obj 280 317 bang~;
#X obj 262 271 expr~ if ($v1 == $f2 \, 1 \, 0);
#X obj 262 213 inlet~;
#X obj 394 214 inlet;
#X obj 460 215 loadbang;
#X obj 460 241 \$1;
#X obj 263 405 outlet;
#X obj 263 376 change;
#X text 497 93 gpp-sigeq :: vector to a scalar comparison \; output
= 1 if equal 0 if not \; only broadcasts result when state is changed
| scalar can be provided as \$1;
#X connect 0 0 8 0;
#X connect 1 0 0 0;
#X connect 2 0 0 0;
#X connect 3 0 2 0;
#X connect 4 0 2 1;
#X connect 5 0 6 0;
#X connect 6 0 2 1;
#X connect 8 0 7 0;
