#N canvas 921 180 2686 1400 12;
#X obj 129 137 list-abs/list-map;
#X obj 160 448 list prepend 0;
#X obj 83 663 outlet;
#X text 724 198 : 46=>32;
#X text 724 217 . 58=>32;
#X obj 129 18 inlet;
#X obj 532 21 cnv 10 114 22 empty empty AIR 36 6 1 22 -66577 -262144
0;
#X text 530 48 Gregor Pirš 2022;
#X obj 119 479 list prepend 0;
#X obj 78 572 unpack f f f f;
#X text 195 509 fields-padding (m:s.ms and s.ms);
#X text 731 175 'sed' . and : to blank:;
#X obj 651 174 sel 1;
#X msg 405 265 1;
#X obj 129 81 t a b;
#X msg 450 262 0;
#X obj 130 257 list append;
#X obj 385 297 float;
#X obj 128 167 t a b;
#X msg 389 386 46 48 0;
#X obj 79 512 list prepend 0;
#X obj 159 316 t a a a a;
#X obj 385 327 sel 0 1;
#X obj 262 133 expr if (($f1 == 46 || $f1 == 58 || $f1 == 0) \, 32
\, $f1) \; if ($f1 == 46 \, 1 \, 0) \;;
#X msg 409 361 0;
#X text 445 355 compensate paddin if .<ms> is missing (add dot and
zero);
#N canvas 0 180 1600 1400 \$0-CASCADE 0;
#X obj 114 566 route -1;
#X obj 113 538 route -1;
#X obj 116 596 route -1;
#X obj 113 498 inlet;
#X obj 117 632 outlet;
#X connect 0 0 2 0;
#X connect 0 1 2 0;
#X connect 1 0 0 0;
#X connect 1 1 0 0;
#X connect 2 0 4 0;
#X connect 2 1 4 0;
#X connect 3 0 1 0;
#X restore 78 541 pd \$0-CASCADE;
#N canvas 0 180 1600 1400 \$0-FIELDS 0;
#X obj 337 323 list-abs/list-len;
#X obj 548 326 list-abs/list-len;
#X obj 548 357 expr if ($f1 < 4 \, 0 \, -1) \;;
#X obj 333 363 expr if ($f1 < 3 \, 0 \, -1) \;;
#X obj 149 324 list-abs/list-len;
#X obj 145 364 expr if ($f1 < 2 \, 0 \, -1) \;;
#X obj 177 253 inlet;
#X obj 333 252 inlet;
#X obj 537 233 inlet;
#X obj 155 421 outlet;
#X obj 326 418 outlet;
#X obj 547 421 outlet;
#X connect 0 0 3 0;
#X connect 1 0 2 0;
#X connect 2 0 11 0;
#X connect 3 0 10 0;
#X connect 4 0 5 0;
#X connect 5 0 9 0;
#X connect 6 0 4 0;
#X connect 7 0 0 0;
#X connect 8 0 1 0;
#X restore 174 362 pd \$0-FIELDS;
#X obj 463 22 pdstring;
#X obj 130 110 any2bytes;
#X obj 130 283 bytes2any;
#X text 660 19 gpp-timing2ms :: change the standard timing format (symbol:
<hh>:<mm>:<ss>.ms) to miliseconds;
#X obj 78 624 expr ($f1*3600*1000 + $f2*60*1000 + $f3*1000 + $f4 )
\;;
#X obj 128 53 list trim;
#X connect 0 0 18 0;
#X connect 0 1 23 0;
#X connect 1 0 8 0;
#X connect 5 0 33 0;
#X connect 8 0 20 0;
#X connect 9 0 32 0;
#X connect 9 1 32 1;
#X connect 9 2 32 2;
#X connect 9 3 32 3;
#X connect 12 0 13 0;
#X connect 13 0 17 1;
#X connect 14 0 29 0;
#X connect 14 1 15 0;
#X connect 15 0 17 1;
#X connect 16 0 30 0;
#X connect 17 0 22 0;
#X connect 18 0 16 0;
#X connect 18 1 17 0;
#X connect 19 0 16 1;
#X connect 20 0 26 0;
#X connect 21 0 1 0;
#X connect 21 1 27 0;
#X connect 21 2 27 1;
#X connect 21 3 27 2;
#X connect 22 0 19 0;
#X connect 22 1 24 0;
#X connect 23 0 0 1;
#X connect 23 1 12 0;
#X connect 24 0 16 1;
#X connect 26 0 9 0;
#X connect 27 0 20 1;
#X connect 27 1 8 1;
#X connect 27 2 1 1;
#X connect 29 0 0 0;
#X connect 30 0 21 0;
#X connect 32 0 2 0;
#X connect 33 0 14 0;
