#N canvas 2014 739 1600 1400 8;
#X obj 160 152 gpp-mvline~ 3;
#X msg 242 122 0;
#X text 230 152 <--- stop-arg;
#X obj 316 331 snapshot~;
#X floatatom 315 360 5 0 0 0 - - -;
#X obj 319 299 metro 100;
#X obj 313 263 loadbang;
#X obj 377 262 bng 15 250 50 0 empty empty empty 17 7 0 10 -262144
-1 -1;
#X msg 228 98 3;
#X msg 75 80 0;
#X msg 129 30 3 3000;
#X msg 80 51 5;
#X obj 223 208 print target_reached;
#X msg 471 36 \; pd dsp 1 \;;
#X obj 471 15 loadbang;
#X msg 282 118 5;
#X msg 68 128 5 2000;
#X msg 83 163 0 3000;
#X text 381 93 gpp-mvline :: a vline~ with endbang at arbitrary boundary
;
#X msg 169 56 //line~ param 2;
#X msg 206 25 //vline~ param 3;
#X text 231 180 <--endbang when target-arg is reached. a SINGLE bang.
;
#X connect 0 0 3 0;
#X connect 0 1 12 0;
#X connect 1 0 0 3;
#X connect 3 0 4 0;
#X connect 5 0 3 0;
#X connect 6 0 5 0;
#X connect 7 0 5 0;
#X connect 8 0 0 3;
#X connect 9 0 0 0;
#X connect 10 0 0 0;
#X connect 11 0 0 0;
#X connect 14 0 13 0;
#X connect 15 0 0 3;
#X connect 16 0 0 0;
#X connect 17 0 0 0;
#X connect 19 0 0 1;
#X connect 20 0 0 2;
