#N canvas 621 282 1618 1524 12;
#X obj 233 166 ext13/wavinfo;
#X obj 228 63 inlet;
#X obj 220 367 list prepend samples;
#X obj 328 443 list prepend channels;
#X obj 53 367 list prepend duration;
#X obj 414 481 list prepend sample_size;
#X obj 137 240 t f f;
#X obj 50 322 expr $f1 / $f2;
#X obj 209 560 list trim;
#X obj 208 595 outlet;
#X text 396 61 gpp-afparams2 :: get audiofile parameters;
#X obj 503 516 list prepend samplerate;
#X connect 0 0 6 0;
#X connect 0 1 3 0;
#X connect 0 2 5 0;
#X connect 0 3 7 1;
#X connect 0 3 11 0;
#X connect 1 0 0 0;
#X connect 2 0 8 0;
#X connect 3 0 8 0;
#X connect 4 0 8 0;
#X connect 5 0 8 0;
#X connect 6 0 7 0;
#X connect 6 1 2 0;
#X connect 7 0 4 0;
#X connect 8 0 9 0;
#X connect 11 0 8 0;
