#N canvas 876 563 1131 743 12;
#X floatatom 137 89 5 0 0 0 - - -;
#X floatatom 137 193 5 0 0 0 - - -;
#X msg 237 98 0;
#X msg 211 76 -200;
#X obj 143 139 gpp-min2;
#X connect 0 0 4 0;
#X connect 2 0 4 1;
#X connect 3 0 4 1;
#X connect 4 0 1 0;
