#N canvas 1530 408 1940 1453 12;
#X obj 356 809 outlet;
#X obj 87 814 outlet~;
#X obj 130 31 inlet;
#X obj 130 203 gpp-switch2;
#X obj 251 168 !=;
#X obj 252 144 tgl 15 0 empty empty empty 17 7 0 10 -262144 -1 -1 1
1;
#X obj 275 27 loadbang;
#X msg 275 76 1;
#X obj 66 713 *~;
#X obj 134 713 *~;
#X obj 400 28 inlet;
#X obj 400 107 s \$0-FADETIME;
#X obj 376 379 r \$0-FADETIME;
#N canvas 0 180 1070 1077 \$0-FADER-A 0;
#X obj 66 232 vline~;
#X msg 66 199 \$1 \$2;
#X obj 53 162 pack f f;
#X obj 118 66 inlet;
#X obj 47 69 inlet;
#X obj 67 278 outlet~;
#X connect 0 0 5 0;
#X connect 1 0 0 0;
#X connect 2 0 1 0;
#X connect 3 0 2 1;
#X connect 4 0 2 0;
#X restore 84 615 pd \$0-FADER-A;
#N canvas 121 678 1070 1077 \$0-FADER-B 0;
#X obj 66 232 vline~;
#X msg 66 199 \$1 \$2;
#X obj 53 162 pack f f;
#X obj 118 66 inlet;
#X obj 47 69 inlet;
#X obj 67 278 outlet~;
#X connect 0 0 5 0;
#X connect 1 0 0 0;
#X connect 2 0 1 0;
#X connect 3 0 2 1;
#X connect 4 0 2 0;
#X restore 318 624 pd \$0-FADER-B;
#X obj 131 71 t a a;
#X obj 162 110 route open;
#X obj 162 144 bang;
#X msg 85 588 0;
#X msg 319 597 0;
#X msg 360 67 100;
#X obj 655 794 outlet;
#X obj 162 171 bng 15 250 50 0 empty empty empty 17 7 0 10 -262144
-1 -1;
#X obj 215 138 bng 15 250 50 0 empty empty empty 17 7 0 10 -262144
-1 -1;
#X obj 205 372 delay 100;
#X obj 127 373 delay 100;
#X msg 205 399 0;
#X msg 127 401 0;
#X obj 268 269 t b b b;
#X msg 266 330 1;
#X msg 58 337 1;
#X obj 59 274 t b b b;
#X obj 58 303 t b b;
#X msg 95 337 1;
#X obj 268 301 t b b;
#X msg 301 330 1;
#X obj 59 245 route 1 0;
#X obj 270 240 route 1 0;
#X obj 128 299 t b b;
#X obj 358 280 t b b;
#X obj 530 30 cnv 10 114 22 empty empty AIR 36 6 1 22 -66577 -262144
0;
#X text 528 53 Gregor Pirš 2023;
#X text 650 24 gpp-readsfsoft~ :: a soft wersion of readsf~ regarding
repeating play commands at the same channel. Uses a double playhead
in order to enable auto-crossfading (crossfading with itself) :: 2
channel version;
#X obj 65 537 readsf~ 2;
#X obj 170 535 readsf~ 2;
#X obj 192 813 outlet~;
#X obj 171 712 *~;
#X obj 239 712 *~;
#X text 83 839 LEFT;
#X text 189 840 RIGHT;
#X text 656 824 WHICHHEAD;
#X floatatom 293 193 5 0 0 0 - - -;
#X floatatom 402 429 5 0 0 0 - - -;
#X obj 356 750 gpp-junction2;
#X obj 375 782 bng 15 250 50 0 empty empty empty 17 7 0 10 -262144
-1 -1;
#X text 351 841 STOPBANG ACTIVE;
#X connect 2 0 15 0;
#X connect 3 0 36 0;
#X connect 3 1 37 0;
#X connect 4 0 3 1;
#X connect 4 0 21 0;
#X connect 4 0 51 0;
#X connect 4 0 53 2;
#X connect 5 0 4 0;
#X connect 6 0 7 0;
#X connect 6 0 20 0;
#X connect 7 0 5 0;
#X connect 8 0 1 0;
#X connect 9 0 1 0;
#X connect 10 0 11 0;
#X connect 12 0 13 1;
#X connect 12 0 14 1;
#X connect 12 0 24 1;
#X connect 12 0 52 0;
#X connect 13 0 8 1;
#X connect 13 0 46 1;
#X connect 14 0 9 1;
#X connect 14 0 47 1;
#X connect 15 0 3 0;
#X connect 15 1 16 0;
#X connect 16 0 17 0;
#X connect 16 1 23 0;
#X connect 17 0 5 0;
#X connect 17 0 22 0;
#X connect 18 0 13 0;
#X connect 19 0 14 0;
#X connect 20 0 11 0;
#X connect 24 0 26 0;
#X connect 25 0 27 0;
#X connect 26 0 43 0;
#X connect 27 0 44 0;
#X connect 28 0 34 0;
#X connect 28 1 18 0;
#X connect 28 2 24 0;
#X connect 29 0 44 0;
#X connect 30 0 43 0;
#X connect 31 0 32 0;
#X connect 31 1 19 0;
#X connect 31 2 25 0;
#X connect 32 0 30 0;
#X connect 32 1 33 0;
#X connect 33 0 13 0;
#X connect 34 0 29 0;
#X connect 34 1 35 0;
#X connect 35 0 14 0;
#X connect 36 0 31 0;
#X connect 36 1 38 0;
#X connect 36 2 43 0;
#X connect 37 0 28 0;
#X connect 37 1 39 0;
#X connect 37 2 44 0;
#X connect 38 0 18 0;
#X connect 38 1 24 0;
#X connect 39 0 19 0;
#X connect 39 1 25 0;
#X connect 43 0 8 0;
#X connect 43 1 46 0;
#X connect 43 2 53 0;
#X connect 44 0 9 0;
#X connect 44 1 47 0;
#X connect 44 2 53 1;
#X connect 46 0 45 0;
#X connect 47 0 45 0;
#X connect 53 0 0 0;
#X connect 53 0 54 0;
