#N canvas 1974 275 1608 1400 10;
#X obj 73 11 inlet;
#X obj 75 149 outlet;
#X obj 75 112 max;
#X obj 113 114 float;
#X obj 160 12 inlet;
#X connect 0 0 2 0;
#X connect 2 0 3 0;
#X connect 2 0 1 0;
#X connect 3 0 2 1;
#X connect 4 0 2 1;
