#N canvas 785 217 1912 1464 12;
#X obj 134 127 moses \$1;
#X obj 187 151 moses \$2;
#X obj 242 184 moses \$3;
#X obj 297 214 moses \$4;
#X obj 352 248 moses \$5;
#X obj 407 283 moses \$6;
#X obj 466 319 moses \$7;
#X obj 521 351 moses \$8;
#X obj 578 381 moses \$9;
#X obj 77 33 inlet;
#X obj 323 579 outlet;
#X obj 324 549 f;
#X msg 135 174 1;
#X msg 184 190 2;
#X msg 239 228 3;
#X msg 295 256 4;
#X msg 348 290 5;
#X msg 410 334 6;
#X msg 465 359 7;
#X msg 521 387 8;
#X msg 575 415 9;
#X msg 629 445 10;
#X msg 80 150 0;
#X obj 79 96 sel 0;
#X connect 0 0 12 0;
#X connect 0 1 1 0;
#X connect 1 0 13 0;
#X connect 1 1 2 0;
#X connect 2 0 14 0;
#X connect 2 1 3 0;
#X connect 3 0 15 0;
#X connect 3 1 4 0;
#X connect 4 0 16 0;
#X connect 4 1 5 0;
#X connect 5 0 17 0;
#X connect 5 1 6 0;
#X connect 6 0 18 0;
#X connect 6 1 7 0;
#X connect 7 0 19 0;
#X connect 7 1 8 0;
#X connect 8 0 20 0;
#X connect 8 1 21 0;
#X connect 9 0 23 0;
#X connect 11 0 10 0;
#X connect 12 0 11 0;
#X connect 13 0 11 0;
#X connect 14 0 11 0;
#X connect 15 0 11 0;
#X connect 16 0 11 0;
#X connect 17 0 11 0;
#X connect 18 0 11 0;
#X connect 19 0 11 0;
#X connect 20 0 11 0;
#X connect 21 0 11 0;
#X connect 22 0 11 0;
#X connect 23 0 22 0;
#X connect 23 1 0 0;
