#N canvas 719 299 2466 1740 10;
#X obj 250 341 timer;
#X obj 208 152 inlet;
#X obj 504 47 cnv 10 114 22 empty empty AIR 36 6 1 22 -66577 -262144
0;
#X text 504 72 Gregor Pirš 2022;
#X obj 277 104 inlet;
#X text 208 131 pulse;
#N canvas 875 392 1600 1400 \$0-WAITER 0;
#X msg 343 129 1;
#X obj 351 167 gpp-adder3 0;
#X obj 349 197 moses 2;
#X obj 331 99 inlet;
#X obj 450 97 inlet;
#X obj 343 237 outlet;
#X obj 399 236 outlet;
#X connect 0 0 1 0;
#X connect 1 0 2 0;
#X connect 2 0 5 0;
#X connect 2 1 6 0;
#X connect 3 0 0 0;
#X connect 4 0 1 1;
#X restore 208 184 pd \$0-WAITER;
#X obj 250 397 gpp-birot;
#X msg 301 371 0;
#X obj 277 157 bang;
#X obj 208 271 t b b b;
#X obj 277 270 bang;
#X text 627 44 gpp-tempo2 :: measure tempo of bang pulse :: in1 = bang
pulse in2 = reset to listen-at-the beginning mode :: out1 = list [
beat timecode (ms) \, beat tempo (bps)];
#X text 417 124 waitstart will wait until the beating starts, f 35
;
#X obj 250 486 expr $f1 \; $f1 - $f2 \; 1000 / ($f1 - $f2) * 60 \;
;
#X obj 250 555 pack f f f;
#X obj 250 602 outlet;
#X obj 277 130 route waitstart bang;
#X obj 250 434 sel 0;
#X text 439 487 abs time (ms) | beat time (ms) | beat tempo (bps),
f 16;
#X text 121 434 exclude "abstime=0";
#X connect 0 0 7 0;
#X connect 1 0 6 0;
#X connect 4 0 17 0;
#X connect 6 0 10 0;
#X connect 6 1 11 0;
#X connect 7 0 18 0;
#X connect 7 1 14 1;
#X connect 8 0 7 1;
#X connect 9 0 6 1;
#X connect 10 0 0 1;
#X connect 10 1 8 0;
#X connect 10 2 0 0;
#X connect 11 0 0 1;
#X connect 14 0 15 0;
#X connect 14 1 15 1;
#X connect 14 2 15 2;
#X connect 15 0 16 0;
#X connect 17 0 9 0;
#X connect 17 1 9 0;
#X connect 18 1 14 0;
#X coords 0 1740 1 1739 150 70 0;
