#N canvas 854 180 2583 1445 12;
#X obj 22 92 gpp-adder3;
#X msg 22 65 1;
#X msg 518 108 clear;
#X floatatom 22 127 5 0 0 0 - - -;
#X obj 677 96 cnv 10 114 22 empty empty AIR 36 6 1 22 -66577 -262144
0;
#X text 674 116 Gregor Pirš 2023;
#X msg 522 148 flush;
#X text 671 318 [flush( into inlet2 will output (drip = float by float)
whole contents of the fifo and the fifo itself will be cleared (start
anew);
#X text 672 281 [clear( into inlet2 will clear the fifo and start anew
(=the first value comes out after <size> delay;
#X text 674 185 gpp-fifo = this version of fifo acts as a big black
box of certain <size>. values are thrown into and after all places
are filled \, it starts outputing values in FIFO order itself \, so
no other pulse is needed. the very <size> of the fifo determines when
the output will be triggered (= after <size> delay);
#X text 671 463 ===> statistical addendum: a spectral array to evaluate
crucial values like max \, min etc ... that are refreshed dynamically
as the fifo flows;
#X obj 117 162 list-abs/list-drip;
#X msg 56 64 -1;
#X msg 162 249 3;
#X msg 220 274 2;
#X msg 211 235 5;
#X msg 172 198 0.3;
#X msg 221 195 3.2;
#X msg 25 241 11;
#X msg 44 274 12;
#X msg 44 308 20;
#X msg 117 132 13 13 2 1 13 12 4 13 1 7;
#X text 119 79 vote for 13 - will it reach 50%+ ? ~~>, f 18;
#X msg 78 233 0;
#X text 111 351 args: <fifo_len> <yrange_start> <yrange_end> <zero_value>
, f 60;
#X text 674 149 gpp-fifostat :: a genuine gpp- fifo implementation
with built-in statistical analysis (enhanced gpp-fifo);
#X text 191 463 maxcount | maxshare | maxval;
#X obj 253 483 unpack f f f;
#X floatatom 329 407 5 0 0 1 yrangesize - -;
#X text 671 371 [reduce( will reduce input resolution (added to rounding)
by a factor : round( val / reduce ) * reduce;
#X msg 512 197 reduce 2;
#X obj 163 408 print [LINE];
#X obj 193 528 print [MAXCOUNT];
#X obj 253 565 print [MAXSHARE];
#X obj 306 594 print [MAXVAL];
#X msg 138 31 1 2 3 4 5 6 7 8 9 10;
#X msg 349 52 fifosize 5;
#X msg 361 89 fifosize 50;
#X obj 164 324 gpp-fifostat 10 -20 20 1;
#X msg 364 125 fiforange -30 30;
#X msg 271 243 -13;
#X text 673 420 **** CREATION ARGUMENTS: \$1 = FIFO size | \$2 \, \$3
= y-range | | \$4= resolution reduction factor;
#X connect 0 0 3 0;
#X connect 0 0 38 0;
#X connect 1 0 0 0;
#X connect 2 0 38 1;
#X connect 6 0 38 1;
#X connect 11 0 38 0;
#X connect 12 0 0 1;
#X connect 13 0 38 0;
#X connect 14 0 38 0;
#X connect 15 0 38 0;
#X connect 16 0 38 0;
#X connect 17 0 38 0;
#X connect 18 0 38 0;
#X connect 19 0 38 0;
#X connect 20 0 38 0;
#X connect 21 0 11 0;
#X connect 23 0 38 0;
#X connect 27 0 32 0;
#X connect 27 1 33 0;
#X connect 27 2 34 0;
#X connect 30 0 38 1;
#X connect 35 0 11 0;
#X connect 36 0 38 1;
#X connect 37 0 38 1;
#X connect 38 0 31 0;
#X connect 38 1 27 0;
#X connect 38 2 28 0;
#X connect 39 0 38 1;
#X connect 40 0 38 0;
