#N canvas 1186 262 1316 1200 10;
#X obj 37 222 f;
#X msg 15 201 bang;
#X floatatom 53 200 3 50 88 0 - - -;
#X floatatom 88 222 3 0 37 0 - - -;
#X obj 37 245 pack 0 0;
#X text 115 222 y-label;
#X text 81 200 x-label;
#X obj 292 313 f;
#X msg 270 292 bang;
#X floatatom 308 291 3 -10 10 0 - - -;
#X floatatom 343 313 3 -10 10 0 - - -;
#X obj 292 336 pack 0 0;
#X obj 304 435 f;
#X msg 282 414 bang;
#X floatatom 320 413 3 20 140 0 - - -;
#X floatatom 355 435 3 150 200 0 - - -;
#X obj 304 458 pack 0 0;
#X text 336 291 x-delta;
#X text 370 313 y-delta;
#X text 348 413 x-position;
#X text 382 435 y-position;
#X obj 57 337 f;
#X msg 35 316 bang;
#X floatatom 73 315 3 0 2 0 - - -;
#X floatatom 108 337 3 8 36 0 - - -;
#X obj 57 360 pack 0 0;
#X text 101 315 font;
#X text 137 337 height;
#X text 492 106 display scale;
#X obj 279 193 f;
#X msg 257 172 bang;
#X floatatom 295 171 3 8 50 0 - - -;
#X floatatom 330 193 3 110 200 0 - - -;
#X obj 279 216 pack 0 0;
#X text 323 171 width;
#X text 357 193 height;
#X obj 52 79 f;
#X msg 29 31 bang;
#X floatatom 68 29 3 0 29 0 - - -;
#X floatatom 105 46 3 0 29 0 - - -;
#X text 96 29 background;
#X text 131 48 label-color;
#X msg 290 25 back;
#X msg 290 49 label;
#X msg 252 25 bang;
#N canvas 645 879 1200 800 RGB_____________ 0;
#X obj 97 56 inlet;
#X obj 262 53 inlet;
#X obj 339 55 inlet;
#X obj 405 56 inlet;
#X obj 97 270 bang;
#X msg 77 295 0;
#X msg 104 295 1;
#X obj 146 268 bang;
#X msg 132 295 0;
#X msg 160 295 1;
#X obj 265 313 spigot;
#X obj 312 313 spigot;
#X obj 249 385 outlet;
#X text 93 33 select;
#X text 267 28 red;
#X text 337 30 green;
#X text 409 30 blue;
#X obj 405 102 t b f;
#X obj 339 160 +;
#X obj 339 185 t b f;
#X obj 339 216 +;
#X obj 296 385 outlet;
#X obj 28 180 loadbang;
#X obj 296 361 f;
#X obj 249 361 f;
#X obj 262 79 * -65536;
#X obj 339 80 * -256;
#X obj 405 80 * -1;
#X obj 339 247 - 1;
#X obj 97 135 route back label bang;
#X obj 235 168 t b b b;
#X connect 0 0 29 0;
#X connect 1 0 25 0;
#X connect 2 0 26 0;
#X connect 3 0 27 0;
#X connect 4 0 5 0;
#X connect 4 0 6 0;
#X connect 5 0 11 1;
#X connect 6 0 10 1;
#X connect 7 0 8 0;
#X connect 7 0 9 0;
#X connect 8 0 10 1;
#X connect 9 0 11 1;
#X connect 10 0 24 1;
#X connect 11 0 23 1;
#X connect 17 0 18 0;
#X connect 17 1 18 1;
#X connect 18 0 19 0;
#X connect 19 0 20 0;
#X connect 19 1 20 1;
#X connect 20 0 28 0;
#X connect 22 0 6 0;
#X connect 23 0 21 0;
#X connect 24 0 12 0;
#X connect 25 0 20 0;
#X connect 26 0 18 0;
#X connect 27 0 17 0;
#X connect 28 0 11 0;
#X connect 28 0 10 0;
#X connect 29 0 4 0;
#X connect 29 1 7 0;
#X connect 29 2 30 0;
#X connect 30 0 24 0;
#X connect 30 1 23 0;
#X connect 30 2 28 0;
#X restore 264 77 pd RGB_____________;
#X floatatom 332 55 3 0 255 0 - - -;
#X floatatom 375 55 3 0 255 0 - - -;
#X floatatom 418 56 3 0 255 0 - - -;
#X text 39 3 preset-colors;
#X text 301 0 RGB-colors;
#X text 332 37 red;
#X text 368 36 green;
#X text 416 36 blue;
#X obj 52 104 pack 0 0;
#X msg 52 131 color \$1 \$2;
#X obj 136 527 outlet;
#X msg 37 270 label_pos \$1 \$2;
#X msg 57 386 label_font \$1 \$2;
#X msg 279 241 size \$1 \$2;
#X msg 291 360 delta \$1 \$2;
#X msg 304 483 pos \$1 \$2;
#X msg 471 132 scale \$1;
#X msg 476 216 label \$1;
#X symbolatom 476 187 10 0 0 0 - - -;
#X symbolatom 537 278 10 0 0 0 - - -;
#X obj 470 106 tgl 15 0 empty empty empty 17 7 0 10 -262144 -1 -1 0
1;
#X msg 532 304 receive \$1;
#X obj 513 20 inlet;
#X text 556 21 gp-default bang;
#X msg 171 303 0 18;
#X floatatom 263 118 10 0 0 0 - - -;
#X floatatom 347 114 5 0 0 0 - - -;
#X connect 0 0 4 0;
#X connect 1 0 0 0;
#X connect 2 0 0 1;
#X connect 3 0 4 1;
#X connect 4 0 57 0;
#X connect 7 0 11 0;
#X connect 8 0 7 0;
#X connect 9 0 7 1;
#X connect 10 0 11 1;
#X connect 11 0 60 0;
#X connect 12 0 16 0;
#X connect 13 0 12 0;
#X connect 14 0 12 1;
#X connect 15 0 16 1;
#X connect 16 0 61 0;
#X connect 21 0 25 0;
#X connect 22 0 21 0;
#X connect 23 0 21 1;
#X connect 24 0 25 1;
#X connect 25 0 58 0;
#X connect 29 0 33 0;
#X connect 30 0 29 0;
#X connect 31 0 29 1;
#X connect 32 0 33 1;
#X connect 33 0 59 0;
#X connect 36 0 54 0;
#X connect 37 0 36 0;
#X connect 38 0 36 1;
#X connect 39 0 54 1;
#X connect 42 0 45 0;
#X connect 43 0 45 0;
#X connect 44 0 45 0;
#X connect 45 0 54 0;
#X connect 45 0 71 0;
#X connect 45 1 54 1;
#X connect 45 1 72 0;
#X connect 46 0 45 1;
#X connect 47 0 45 2;
#X connect 48 0 45 3;
#X connect 54 0 55 0;
#X connect 55 0 56 0;
#X connect 57 0 56 0;
#X connect 58 0 56 0;
#X connect 60 0 56 0;
#X connect 61 0 56 0;
#X connect 62 0 56 0;
#X connect 63 0 56 0;
#X connect 64 0 63 0;
#X connect 65 0 67 0;
#X connect 66 0 62 0;
#X connect 67 0 56 0;
#X connect 68 0 70 0;
#X connect 70 0 25 0;
