#N canvas 2181 500 1600 1400 12;
#X obj 126 100 inlet;
#X obj 15 101 inlet~;
#X obj 565 28 cnv 10 114 22 empty empty AIR 36 6 1 22 -66577 -262144
0;
#X text 565 53 Gregor Pirš 2022;
#X text 684 21 gpp-airoscope :: various kinds of sample analysis for
the B-AIR/AIR platform;
#X text 14 41 source audio to analyze, f 11;
#X text 122 62 control;
#X obj 17 212 gpp-polyswitch8~;
#N canvas 1864 180 1600 1400 \$0-ctrl 0;
#X obj 264 -2 inlet;
#X obj 204 333 outlet;
#X text 278 337 to polyswitch control;
#X obj 474 338 outlet;
#X text 534 336 to tools' control;
#X obj 264 50 route use drop;
#X obj 94 174 sel temper metrix;
#X msg 87 249 on 1;
#X obj 95 129 symbol;
#X obj 272 124 symbol;
#X obj 264 169 sel temper metrix;
#X msg 265 249 off 1;
#X msg 134 252 on 2;
#X msg 318 247 off 2;
#X connect 0 0 5 0;
#X connect 5 0 8 0;
#X connect 5 1 9 0;
#X connect 5 2 3 0;
#X connect 6 0 7 0;
#X connect 6 1 12 0;
#X connect 7 0 1 0;
#X connect 8 0 6 0;
#X connect 9 0 10 0;
#X connect 10 0 11 0;
#X connect 10 1 13 0;
#X connect 11 0 1 0;
#X connect 12 0 1 0;
#X connect 13 0 1 0;
#X restore 126 168 pd \$0-ctrl;
#N canvas 72 280 3679 1705 \$0-temper 0;
#X obj 87 41 inlet~;
#X obj 35 133 gpp-vu;
#N canvas 1692 180 1828 1678 (subpatch) 0;
#X array x\$0_temperA 600 float 4;
#X coords 0 200 599 0 1200 400 1 0 0;
#X restore 736 28 graph;
#X msg 534 69 \; x\$1_temperA const 0 \;;
#X obj 534 10 loadbang;
#X obj 534 44 \$0;
#N canvas 1654 440 1600 1400 \$0-temper-args 0;
#X obj 31 43 inlet;
#X obj 34 104 bang;
#X obj 33 136 s \$0-clear;
#X obj 99 105 s \$0-endbang;
#X obj 165 139 s \$0-startbang;
#X obj 32 74 route clear eof startbang;
#X connect 0 0 5 0;
#X connect 1 0 2 0;
#X connect 5 0 1 0;
#X connect 5 1 3 0;
#X connect 5 2 4 0;
#X restore 206 70 pd \$0-temper-args;
#X obj 206 40 inlet;
#X obj 429 7 r \$0-clear;
#X obj 411 41 bng 15 250 50 0 empty empty empty 17 7 0 10 -262144 -1
-1;
#X obj 405 578 array max x\$0_temperA;
#X floatatom 404 612 5 0 0 0 prevalence_weight - -;
#X floatatom 571 610 5 0 0 0 prevailing_tempo - -;
#X obj 405 516 expr x\$0_temperA[$f1] = x\$0_temperA[$f1] + 1 \;;
#X obj 405 548 bang;
#X obj 583 762 expr x\$0_temperA[$f1];
#X msg 579 722 163;
#X floatatom 591 792 5 0 0 0 - - -;
#X msg 614 722 1;
#X floatatom 331 784 5 0 0 0 - - -;
#X floatatom 509 784 5 0 0 0 prevailing_tempo - -;
#X obj 332 700 bng 15 250 50 0 empty empty empty 17 7 0 10 -262144
-1 -1;
#X obj 331 745 array max x\$0_temperA;
#X obj 533 112 aubio/aubiotempo~-help;
#X obj 533 135 aubio;
#N canvas 0 180 1600 1400 \$0-BONK 0;
#X obj 231 266 bonk~;
#X obj 204 573 bng 30 250 50 0 empty empty empty 17 7 0 10 -262144
-1 -1;
#X obj 165 418 unpack f f f;
#X floatatom 121 452 5 0 0 0 Instrument_ - -;
#X floatatom 140 495 5 0 0 0 Loudness_0-140_db - -;
#X floatatom 228 451 5 0 0 0 - - -;
#X msg 195 155 minvel \$1;
#X floatatom 196 121 5 0 0 0 - - -;
#X obj 358 130 pack f f;
#X floatatom 354 105 5 0 0 0 - - -;
#X floatatom 423 140 5 0 0 0 - - -;
#X msg 357 162 thresh \$1 \$2;
#X msg 493 169 thresh 2.5 5;
#X msg 164 192 spew \$1;
#X msg 238 215 minvel 40;
#X obj 238 188 loadbang;
#X msg 331 211 minvel 10;
#X obj 204 538 sel 1;
#X obj 204 499 > 0;
#X connect 0 1 2 0;
#X connect 2 0 3 0;
#X connect 2 1 4 0;
#X connect 2 1 18 0;
#X connect 2 2 5 0;
#X connect 6 0 0 0;
#X connect 7 0 6 0;
#X connect 8 0 11 0;
#X connect 9 0 8 0;
#X connect 10 0 8 1;
#X connect 11 0 0 0;
#X connect 12 0 0 0;
#X connect 13 0 0 0;
#X connect 14 0 0 0;
#X connect 15 0 14 0;
#X connect 16 0 0 0;
#X connect 17 0 1 0;
#X connect 18 0 17 0;
#X restore 324 5 pd \$0-BONK;
#X text 135 231 0-10 = sensitivity;
#X obj 51 672 outlet;
#X obj 294 542 r \$0-endbang;
#X obj 403 648 pack 0 f f;
#X obj 402 674 unpack f f f;
#X obj 50 600 list prepend temper;
#X obj 57 638 list trim;
#X obj 34 456 list prepend report prevalence;
#X obj 51 500 list prepend report prevailing_tempo;
#X obj 106 411 list prepend monitor;
#X obj 62 355 list prepend pulse;
#X obj 198 209 list prepend startbang;
#X obj 277 119 r \$0-startbang;
#X obj 135 256 aubiotempo~;
#X obj 322 279 gpp-tempo2;
#X msg 455 204 resetav;
#X msg 372 207 waitstart;
#X obj 277 143 t b b;
#X obj 856 449 nbx 12 20 -1e+37 1e+37 0 0 empty \$0-TAVG AVG_tempo
-120 10 0 10 -204800 -1 -1 134.187 256;
#X obj 252 331 s \$0-TAVG;
#X obj 354 331 s \$0-TDYN;
#X obj 1147 448 nbx 12 20 -1e+37 1e+37 0 0 empty \$0-TDYN DYN_tempo
-120 10 0 10 -261234 -1 -1 122.281 256;
#X obj 436 333 s \$0-TDEV;
#X obj 1437 446 nbx 12 20 -1e+37 1e+37 0 0 empty \$0-TDEV deviation_%
-140 10 0 10 -204786 -1 -1 8.86938 256;
#X obj 1697 446 nbx 7 20 -1e+37 1e+37 0 0 empty \$0-BEATNO beat_NO
-110 10 0 10 -262130 -1 -1 298 256;
#X obj 512 330 s \$0-BEATNO;
#X obj 738 36 cnv 15 100 60 empty empty BEETHOVEN_SCHERZO_7_KARAJAN
20 12 0 14 -262144 -203904 0;
#X connect 0 0 1 0;
#X connect 0 0 39 0;
#X connect 4 0 5 0;
#X connect 5 0 3 0;
#X connect 7 0 6 0;
#X connect 8 0 5 0;
#X connect 9 0 5 0;
#X connect 10 0 11 0;
#X connect 10 0 29 1;
#X connect 10 1 12 0;
#X connect 12 0 29 2;
#X connect 13 0 14 0;
#X connect 14 0 10 0;
#X connect 15 0 17 0;
#X connect 16 0 15 0;
#X connect 18 0 15 0;
#X connect 21 0 22 0;
#X connect 22 0 19 0;
#X connect 22 1 20 0;
#X connect 28 0 29 0;
#X connect 29 0 30 0;
#X connect 30 1 33 0;
#X connect 30 2 34 0;
#X connect 31 0 32 0;
#X connect 32 0 27 0;
#X connect 33 0 31 0;
#X connect 34 0 31 0;
#X connect 35 0 31 0;
#X connect 36 0 31 0;
#X connect 37 0 31 0;
#X connect 38 0 37 0;
#X connect 38 0 43 0;
#X connect 39 0 36 0;
#X connect 39 0 40 0;
#X connect 40 0 45 0;
#X connect 40 1 35 0;
#X connect 40 1 13 0;
#X connect 40 1 46 0;
#X connect 40 2 48 0;
#X connect 40 3 51 0;
#X connect 41 0 40 1;
#X connect 42 0 40 1;
#X connect 43 0 42 0;
#X connect 43 1 41 0;
#X restore 17 327 pd \$0-temper;
#X text 202 191 separate tools' control;
#N canvas 0 180 1600 1400 \$0-metrix 0;
#X obj 87 41 inlet~;
#X obj 289 38 inlet;
#X obj 128 124 gpp-vu;
#X connect 0 0 2 0;
#X restore 129 326 pd \$0-metrix;
#X obj 16 391 outlet;
#X obj 193 213 route temper metrix eof startbang;
#X msg 191 250 eof;
#X msg 261 249 startbang;
#N canvas 0 180 1600 1400 \$0-REST 0;
#X text 100 50 currently \, we are dealing with mono sources \; this
tool is intended for monitoring separate mono tracks of the mix;
#X obj 166 107 Xgpp-polyswitch8s~ --------------------;
#X obj 249 311 Xaubiotempo~;
#X obj 247 375 Xaubioquiet~;
#X obj 247 407 Xaubiozcr~;
#X obj 247 436 Xaubiotss~;
#X obj 247 343 Xaubioonset~ 5;
#X text 89 202 a CLARITY OF TEMPO INDICATION parameter is needed ::
how many spectral peaks and if time-conditioned;
#X restore 565 90 pd \$0-REST;
#X connect 0 0 8 0;
#X connect 1 0 7 0;
#X connect 7 0 9 0;
#X connect 7 1 11 0;
#X connect 8 0 7 1;
#X connect 8 1 13 0;
#X connect 9 0 12 0;
#X connect 13 0 9 1;
#X connect 13 1 11 1;
#X connect 13 2 14 0;
#X connect 13 3 15 0;
#X connect 14 0 11 1;
#X connect 14 0 9 1;
#X connect 15 0 9 1;
#X connect 15 0 11 1;
