#N canvas 1192 285 2136 1264 12;
#X obj 162 3 inlet;
#X obj 120 513 outlet;
#X obj 48 302 symbol;
#X obj 170 378 float;
#X obj 117 423 pack s f;
#X text 22 580 octaves below 1 are signed 0 (minor) -1 (major) -2 (contra)
-3 (subcontra) -4 (subsubcontra);
#X text 86 545 list: name octave;
#X obj 48 211 expr $f1 % 12;
#X obj 162 133 expr int($f1 / 12);
#X obj 164 174 - 4;
#X obj 163 65 expr round($f1);
#X text 511 139 gpp-mton2 :: a simple variant of gpp-mton : convert
midi note numbers to note names (no tuning) :: BUT: it will report
the note "detune" value;
#X obj 163 35 t f f;
#X obj 319 104 expr ($f2 - $f1) * 100;
#X obj 164 98 t f f f;
#X obj 335 509 outlet;
#X text 338 537 pitch detune cents;
#N canvas 827 180 1836 1277 \$0-letters-international 0;
#X obj 149 78 inlet;
#X msg 82 156 c;
#X msg 134 213 d;
#X msg 175 276 e;
#X msg 205 304 f;
#X msg 272 360 g;
#X obj 111 549 outlet;
#X obj 136 119 sel 0 1 2 3 4 5 6 7 8 9 10 11;
#X msg 108 183 c#;
#X msg 154 244 d#;
#X msg 235 337 f#;
#X msg 306 391 g#;
#X msg 332 421 a;
#X msg 356 450 a#;
#X msg 387 478 b;
#X connect 0 0 7 0;
#X connect 1 0 6 0;
#X connect 2 0 6 0;
#X connect 3 0 6 0;
#X connect 4 0 6 0;
#X connect 5 0 6 0;
#X connect 7 0 1 0;
#X connect 7 1 8 0;
#X connect 7 2 2 0;
#X connect 7 3 9 0;
#X connect 7 4 3 0;
#X connect 7 5 4 0;
#X connect 7 6 10 0;
#X connect 7 7 5 0;
#X connect 7 8 11 0;
#X connect 7 9 12 0;
#X connect 7 10 13 0;
#X connect 7 11 14 0;
#X connect 8 0 6 0;
#X connect 9 0 6 0;
#X connect 10 0 6 0;
#X connect 11 0 6 0;
#X connect 12 0 6 0;
#X connect 13 0 6 0;
#X connect 14 0 6 0;
#X restore 48 275 pd \$0-letters-international;
#X connect 0 0 12 0;
#X connect 2 0 4 0;
#X connect 3 0 4 1;
#X connect 4 0 1 0;
#X connect 7 0 17 0;
#X connect 8 0 9 0;
#X connect 9 0 3 0;
#X connect 10 0 14 0;
#X connect 12 0 10 0;
#X connect 12 1 13 1;
#X connect 13 0 15 0;
#X connect 14 0 7 0;
#X connect 14 1 8 0;
#X connect 14 2 13 0;
#X connect 17 0 2 0;
