#N canvas 247 638 1952 1400 12;
#X obj 565 28 cnv 10 114 22 empty empty AIR 36 6 1 22 -66577 -262144
0;
#X text 563 51 Gregor Pirš 2022;
#X obj 181 109 gpp-polyswitch8~;
#X text 695 21 gpp-polyswitch8~ :: channel a stream to arbitrary number
of output tracks;
#X obj 180 35 osc~ 440;
#X obj 134 236 gpp-vu;
#X obj 208 238 gpp-vu;
#X obj 278 237 gpp-vu;
#X obj 345 240 gpp-vu;
#X obj 419 239 gpp-vu;
#X obj 493 241 gpp-vu;
#X obj 563 240 gpp-vu;
#X obj 630 243 gpp-vu;
#X msg 426 80 on 7;
#X msg 447 49 off all;
#X msg 489 80 off 7;
#X msg 320 10 on all;
#X msg 419 121 on 1;
#X msg 456 145 off 1;
#X obj 445 13 loadbang;
#X connect 2 0 5 0;
#X connect 2 1 6 0;
#X connect 2 2 7 0;
#X connect 2 3 8 0;
#X connect 2 4 9 0;
#X connect 2 5 10 0;
#X connect 2 6 11 0;
#X connect 2 7 12 0;
#X connect 4 0 2 0;
#X connect 13 0 2 1;
#X connect 14 0 2 1;
#X connect 15 0 2 1;
#X connect 16 0 2 1;
#X connect 17 0 2 1;
#X connect 18 0 2 1;
#X connect 19 0 14 0;
