#N canvas 571 180 2775 1736 12;
#X obj 1028 49 inlet;
#X text 1510 93 \$1 (creation arg) = number of channels (please make
sure to advance Pd- input channels settings accordingly);
#X obj 1383 44 cnv 10 114 22 empty empty AIR 36 6 1 22 -66577 -262144
0;
#X text 1381 67 Gregor Pirš 2022;
#N canvas 0 180 1600 1400 \$0-PI 0;
#X obj 131 128 expr atan (1) * 4;
#X obj 132 103 loadbang;
#X obj 131 150 value PI;
#X obj 86 97 bng 15 250 50 0 empty empty empty 17 7 0 10 -262144 -1
-1;
#X text 153 74 broadcast pi as PI global;
#X connect 0 0 2 0;
#X connect 1 0 0 0;
#X connect 3 0 0 0;
#X restore 1437 94 pd \$0-PI;
#N canvas 1545 180 2203 1951 \$0-BUILD-MIXER-STRIPE 0;
#X obj 51 10 inlet;
#X obj 50 69 \$1;
#X obj 19 44 bng 15 250 50 0 empty empty empty 17 7 0 10 -262144 -1
-1;
#X obj 50 127 expr ($f1 * 100) + 100;
#X obj 94 188 \$0, f 4;
#X obj 50 97 t f f b;
#X obj 50 41 t b b;
#X text 618 217 also initialize fader and pan RF's to 1;
#X text 617 235 \$20 = stripe background color;
#X text 619 276 \$18 = track number;
#X text 618 255 \$19 = \$0 :: track-local!;
#X msg 617 985 \$19|\$18-prelisten-level-sender;
#X obj 29 447 pack f f f f f f f f f f f f f f f f f f f f f f f f
f f f f f f f f f, f 74;
#X obj 248 -82 expr $f1+14 \; $f1+16 \; $f1+79 \; $f1+37 \; $f1+34
\; $f1+34 \; $f1+41 \; $f1+24 \; $f1+23 \; $f1+34 \; $f1+45 \; $f1+14
\; $f1+63 \; $f1+76 \; $f1+45 \; $f1+56 \; $f1+14 \; $f2 \; $f3 \;
if ($f2 % 2 != 0 \, -203904 \, -158848) \; $f1+28 \; $f1+55 \; $f1+89
\; $f1+83 \; $f1+18 \; $f1+39 \; $f1+62 \; $f1+49 \; $f1+22 \; $f1+75
\; $f1+98 \; $f1+92 \; $f1+102 \;, f 48;
#X msg 29 487 \; pd-ICONSOLE obj \$1 8 cnv 15 100 400 empty empty \$18
22 12 0 14 \$20 -83269 0 \; pd-ICONSOLE obj \$2 382 tgl 15 0 foosnd
\$19|\$18-fader-rf empty 17 7 0 10 \$20 -1 -1 1 1 \; pd-ICONSOLE obj
\$3 222 tgl 15 0 foosnd \$19|\$18-pan-rf empty 17 7 0 10 \$20 -1 -1
1 1 \; pd-ICONSOLE obj \$4 202 hsl 64 15 0 1 0 0 \$19|\$18-pan-state-sender
\$19|\$18-pan-state-sender-rec empty -2 -8 0 10 -262144 -1 -1 0 0 \;
pd-ICONSOLE floatatom \$5 382 5 0 0 0 - \$19|\$18-fader-state foosnd
\; pd-ICONSOLE floatatom \$6 221 5 0 0 0 - \$19|\$18-pan-stateN foosnd
\; pd-ICONSOLE obj \$7 255 vsl 18 120 0 1 0 0 \$19|\$18-fader-state-sender
\$19|\$18-fader-state-sender-rec empty 0 -9 0 10 -262144 -1 -1 11900
0 \; pd-ICONSOLE obj \$12 445 cnv 15 100 30 empty \$19|\$18-time-remaining
empty 12 15 0 7 \$20 -262130 0 \; pd-ICONSOLE obj \$13 255 vu 10 120
\$19|\$18-vu-l empty -1 -8 0 10 -66577 -1 0 0 \; pd-ICONSOLE obj \$14
255 vu 10 120 \$19|\$18-vu-r empty -1 -8 0 4 -66577 -1 1 0 \; pd-ICONSOLE
obj \$15 62 vu 8 80 \$19|\$18-svu-l empty -1 -8 0 4 -159808 -1 0 0
\; pd-ICONSOLE obj \$16 62 vu 8 80 \$19|\$18-svu-r empty -1 -8 0 4
-159808 -1 1 0 \; pd-ICONSOLE obj \$17 412 cnv 15 100 30 empty \$19|\$18-filename
------IN------ 2 15 0 6 \$20 -83269 0 \; \$19|\$18-fader-rf 1 \; \$19|\$18-pan-rf
1 \; \$19|\$18-time-remaining color \$20 \; pd-ICONSOLE obj \$21 160
tgl 18 0 foosnd \$19|\$18-loop-active L 4 9 0 6 38 -1 -1 0 1 \; pd-ICONSOLE
obj \$22 162 hradio 15 1 0 3 foosnd \$19|\$18-input-track IN_MP_SP
0 -6 0 5 \$20 -83269 -1 0 \; pd-ICONSOLE obj \$32 387 tgl 19 0 \$19|\$18-mute-sender
\$19|\$18-mute M 5 10 0 7 38 38 -1 0 1 \; pd-ICONSOLE obj \$23 0 tgl
20 0 \$19|\$18-prelisten-sender \$19|\$18-prelisten >) 3 9 0 6 38 38
-1 0 1 \; pd-ICONSOLE floatatom \$24 20 4 0 1 0 > \$19|\$18-prelisten-level
foosnd \; pd-ICONSOLE obj \$25 202 tgl 14 0 foosnd \$19|\$18-pan-enabled-diode
-- 1 7 0 5 90 90 -1 0 1 \; \; pd-ICONSOLE obj \$26 48 tgl 8 0 foosnd
\$19|\$18-inbound-diodes-S empty 17 7 0 8 90 90 -1 0 1 \; pd-ICONSOLE
obj \$27 48 tgl 8 0 foosnd \$19|\$18-inbound-diodes-S empty 14 5 0
8 90 90 -1 0 1 \; pd-ICONSOLE obj \$28 45 tgl 11 0 \$19|\$18-inbound-sender
\$19|\$18-inbound-diode-M empty 17 7 0 8 90 90 -1 0 1 \; pd-ICONSOLE
obj \$29 255 vsl 9 120 0 1 0 0 foosnd \$19|\$18-fader-state empty 0
-9 0 10 7 -1 -1 0 1 \; pd-ICONSOLE obj \$4 188 hsl 64 8 0 1 0 0 foosnd
\$19|\$18-pan-state empty -2 -8 0 10 7 -1 -1 0 1 \; pd-ICONSOLE obj
\$30 389 tgl 15 0 \$19|\$18-solo-sender \$19|\$18-solo S 4 8 0 5 38
38 -1 0 1 \; pd-ICONSOLE obj \$31 39 tgl 15 0 \$19|\$18-presolo-sender
\$19|\$18-presolo PS 1 8 0 5 38 38 -1 0 1 \; pd-ICONSOLE obj \$33 56
vsl 8 40 0 1 0 0 \$19|\$18-prelisten-level-sender \$19|\$18-prelisten-level-sender-rec
empty 0 -9 0 10 38 -1 -1 0 0 \; pd-ICONSOLE obj \$25 185 bng 14 250
50 0 \$19|\$18-CPAN foorec C 3 7 0 6 -257985 -262130 -13381 \;, f
144;
#X connect 0 0 6 0;
#X connect 1 0 5 0;
#X connect 2 0 1 0;
#X connect 3 0 13 0;
#X connect 4 0 13 2;
#X connect 5 0 3 0;
#X connect 5 1 13 1;
#X connect 5 2 4 0;
#X connect 6 0 1 0;
#X connect 12 0 14 0;
#X connect 13 0 12 0;
#X connect 13 1 12 1;
#X connect 13 2 12 2;
#X connect 13 3 12 3;
#X connect 13 4 12 4;
#X connect 13 5 12 5;
#X connect 13 6 12 6;
#X connect 13 7 12 7;
#X connect 13 8 12 8;
#X connect 13 9 12 9;
#X connect 13 10 12 10;
#X connect 13 11 12 11;
#X connect 13 12 12 12;
#X connect 13 13 12 13;
#X connect 13 14 12 14;
#X connect 13 15 12 15;
#X connect 13 16 12 16;
#X connect 13 17 12 17;
#X connect 13 18 12 18;
#X connect 13 19 12 19;
#X connect 13 20 12 20;
#X connect 13 21 12 21;
#X connect 13 22 12 22;
#X connect 13 23 12 23;
#X connect 13 24 12 24;
#X connect 13 25 12 25;
#X connect 13 26 12 26;
#X connect 13 27 12 27;
#X connect 13 28 12 28;
#X connect 13 29 12 29;
#X connect 13 30 12 30;
#X connect 13 31 12 31;
#X connect 13 32 12 32;
#X restore 1246 158 pd \$0-BUILD-MIXER-STRIPE;
#X obj 1084 50 inlet;
#X obj 1136 50 inlet;
#X obj 1185 52 inlet;
#N canvas 2090 681 1181 1159 \$0-TRACK-ROUTER 0;
#X obj 38 7 inlet;
#X obj 90 7 inlet;
#X obj 142 7 inlet;
#X obj 202 8 inlet;
#N canvas 939 998 736 759 \$0-HANDLE_TRACK_REQUEST 0;
#X obj 48 13 inlet;
#X obj 148 32 print ....>=>REQUEST_TRACK_\$1;
#X obj 48 150 route fader pan timer;
#N canvas 1929 646 1598 1080 \$0-handle-tracktimer 0;
#X obj 34 27 inlet;
#X text 45 82 /airmon/request/<ch>/timer/<type> [start|stop] [initial_timing_ms]
[up|down], f 92;
#X obj 179 46 print ....>=>REQUEST_TRACK_\$1_IS_VIRTUAL;
#X text 205 123 where <type> can be "play" or "record";
#X obj 35 161 route start stop;
#X obj 156 162 route start stop;
#X msg 66 343 0;
#X obj 33 212 t b f;
#N canvas 782 180 1370 1087 \$0-MONITOR-PLAYTIME-REMAINING 0;
#X obj 81 37 inlet;
#X text 74 19 start;
#X text 466 50 stop;
#X obj 80 204 metro 100;
#X text 92 228 1/10th of second resolution, f 11;
#X msg 512 120 0;
#X text 380 5 duration (whole|trim|fader);
#X msg 107 414 label \$1;
#X obj 107 376 gpp-display-seconds-tenth;
#X text 266 279 green;
#X msg 266 300 color -510465;
#X obj 107 451 s \$0|\$1-time-remaining;
#X obj 27 232 realtime;
#X obj 55 287 expr ($f2 - $f1) / 1000;
#X obj 465 246 expr if ($f1 % 2 != 0 \, -203904 \, -158848) \;, f
42;
#X obj 465 218 \$1;
#X msg 585 61 color -4.78455e+06;
#X text 590 84 dark violet / stop;
#X text 480 270 stripe background color;
#X msg 385 300 color \$1;
#X obj 81 108 t b b b b b;
#X obj 199 92 v x\$0_initial_timing_ms;
#X obj 82 65 sel 1 0;
#X msg 346 375 label;
#X obj 466 76 t b b b;
#X obj 169 63 bng 15 250 50 0 empty empty empty 17 7 0 10 -262144 -1
-1;
#X floatatom 215 135 20 0 0 0 - - -;
#X obj 200 14 inlet;
#X text 177 412 comment;
#X connect 0 0 22 0;
#X connect 3 0 12 1;
#X connect 5 0 3 0;
#X connect 7 0 11 0;
#X connect 8 0 7 0;
#X connect 10 0 11 0;
#X connect 12 0 13 0;
#X connect 13 0 8 0;
#X connect 14 0 19 0;
#X connect 15 0 14 0;
#X connect 19 0 11 0;
#X connect 20 0 3 0;
#X connect 20 1 12 0;
#X connect 20 2 21 0;
#X connect 20 4 10 0;
#X connect 21 0 26 0;
#X connect 21 0 13 1;
#X connect 22 0 20 0;
#X connect 22 1 24 0;
#X connect 23 0 11 0;
#X connect 24 0 15 0;
#X connect 24 1 23 0;
#X connect 24 2 5 0;
#X connect 25 0 21 0;
#X connect 27 0 21 0;
#X restore 23 386 pd \$0-MONITOR-PLAYTIME-REMAINING;
#N canvas 0 720 2423 1090 \$0-MONITOR-RECTIME 0;
#X msg 132 322 label \$1;
#X obj 134 288 gpp-display-seconds-tenth;
#X msg 310 234 color -1.35785e+07;
#X text 329 213 red;
#X obj 84 38 inlet;
#X text 82 18 start;
#X text 592 70 violet / stop;
#X msg 174 142 stop;
#X obj 132 404 s \$0|\$1-time-remaining;
#X msg 546 231 label;
#X obj 174 168 metro 100;
#X obj 134 194 realtime;
#X obj 134 247 / 1000;
#X obj 622 299 expr if ($f1 % 2 != 0 \, -203904 \, -158848) \;, f
42;
#X obj 622 271 \$1;
#X text 637 323 stripe background color;
#X obj 542 395 print COLOR_REC;
#X msg 542 353 color \$1 -83269;
#X obj 507 90 t b b b b;
#X obj 50 474 s \$0|\$1-player-timer-request;
#X msg 50 449 start 0;
#X obj 83 75 sel 1 0;
#X obj 84 120 t b b b b b;
#X msg 896 116 color -4.78455e+06;
#X obj 903 76 t b b;
#X connect 0 0 8 0;
#X connect 1 0 0 0;
#X connect 2 0 8 0;
#X connect 4 0 21 0;
#X connect 7 0 10 0;
#X connect 9 0 8 0;
#X connect 10 0 11 1;
#X connect 11 0 12 0;
#X connect 12 0 1 0;
#X connect 13 0 17 0;
#X connect 14 0 13 0;
#X connect 17 0 16 0;
#X connect 17 0 8 0;
#X connect 18 0 7 0;
#X connect 18 1 14 0;
#X connect 18 2 9 0;
#X connect 20 0 19 0;
#X connect 21 0 22 0;
#X connect 21 1 18 0;
#X connect 22 0 10 0;
#X connect 22 1 11 0;
#X connect 22 2 20 0;
#X connect 22 4 2 0;
#X connect 24 0 23 0;
#X restore 337 355 pd \$0-MONITOR-RECTIME;
#X msg 378 310 0;
#X msg 22 343 1;
#X msg 330 311 1;
#X obj 295 438 s \$0-STOP_RSTOP;
#X obj 294 409 bang;
#X text 292 459 to etc;
#X obj 35 124 route play record cnv;
#X text 375 174 send a message directly to the timer canvas, f 18
;
#N canvas 689 586 696 535 \$0-direct-timer-cnv 0;
#X obj 61 5 inlet;
#X obj 63 117 s \$0|\$1-time-remaining;
#X obj 60 46 route color;
#X msg 62 79 color \$1;
#X connect 0 0 2 0;
#X connect 2 0 3 0;
#X connect 3 0 1 0;
#X restore 356 224 pd \$0-direct-timer-cnv;
#X connect 0 0 2 0;
#X connect 0 0 16 0;
#X connect 4 0 7 0;
#X connect 4 1 6 0;
#X connect 4 1 14 0;
#X connect 5 0 12 0;
#X connect 5 1 10 0;
#X connect 5 1 14 0;
#X connect 6 0 8 0;
#X connect 7 0 11 0;
#X connect 7 1 8 1;
#X connect 10 0 9 0;
#X connect 11 0 8 0;
#X connect 12 0 9 0;
#X connect 14 0 13 0;
#X connect 16 0 4 0;
#X connect 16 1 5 0;
#X connect 16 2 18 0;
#X restore 144 249 pd \$0-handle-tracktimer;
#X obj 49 195 outlet;
#X obj 93 245 outlet;
#X connect 0 0 2 0;
#X connect 0 0 1 0;
#X connect 2 0 4 0;
#X connect 2 1 5 0;
#X connect 2 2 3 0;
#X restore 38 134 pd \$0-HANDLE_TRACK_REQUEST;
#N canvas 0 180 1257 648 \$0-HANDLE_TRACK_SNAPSHOT 0;
#X obj 61 25 inlet;
#X obj 119 44 print ....>=>SNAPSHOT_TRACK_\$1;
#X obj 60 80 route fader pan;
#X obj 58 130 s \$0|\$1-fader-state;
#X obj 93 165 s \$0|\$1-pan-state;
#X connect 0 0 1 0;
#X connect 0 0 2 0;
#X connect 2 0 3 0;
#X connect 2 1 4 0;
#X restore 96 238 pd \$0-HANDLE_TRACK_SNAPSHOT;
#N canvas 1384 957 2139 883 \$0-HANDLE_TRACK_CONTOUR 0;
#X obj 61 25 inlet;
#N canvas 0 180 1442 912 \$0-REQUEST_FULFILLED 0;
#X obj 36 27 inlet;
#X obj 34 70 route fader pan;
#X obj 81 105 s \$0|\$1-pan-rf;
#X obj 31 132 s \$0|\$1-fader-rf;
#X connect 0 0 1 0;
#X connect 1 0 3 0;
#X connect 1 1 2 0;
#X restore 61 140 pd \$0-REQUEST_FULFILLED;
#N canvas 1195 180 1595 874 \$0-VALUE-REACHED 0;
#X obj 54 21 inlet;
#X obj 53 69 route fader pan;
#X obj 74 110 s \$0|\$1-fader-state;
#X obj 128 143 s \$0|\$1-pan-state;
#X obj 69 286 s \$0|\$1-fader-state-sender-rec;
#X obj 140 361 s \$0|\$1-pan-state-sender-rec;
#X msg 68 255 set \$1;
#X msg 138 322 set \$1;
#X connect 0 0 1 0;
#X connect 1 0 2 0;
#X connect 1 0 6 0;
#X connect 1 1 3 0;
#X connect 1 1 7 0;
#X connect 6 0 4 0;
#X connect 7 0 5 0;
#X restore 91 178 pd \$0-VALUE-REACHED;
#N canvas 1683 417 1620 871 \$0-IS-ACTIVE 0;
#X obj 88 39 inlet;
#X obj 54 245 s \$0|\$1-loop-active;
#X obj 88 87 route loop;
#X obj 81 153 sel 0 1;
#X msg 76 214 color \$1;
#X msg 121 185 14;
#X obj 205 276 expr if (\$1 % 2 != 0 \, 1.28955e+07 \, 10011900) \;
;
#X msg 65 185 38;
#X connect 0 0 2 0;
#X connect 2 0 3 0;
#X connect 3 0 7 0;
#X connect 3 1 5 0;
#X connect 4 0 1 0;
#X connect 5 0 4 0;
#X connect 7 0 4 0;
#X restore 121 218 pd \$0-IS-ACTIVE;
#X obj 134 45 print ....>=>CONTOUR_TRACK_\$1;
#X obj 61 102 route rf vr ac rest;
#N canvas 279 413 1464 1131 \$0-VALUE-RESTORED 0;
#X obj 56 17 inlet;
#X obj 55 54 route fader pan;
#X msg 216 267 set \$1;
#X obj 172 377 s \$0|\$1-pan-state;
#X obj 191 443 s \$0|\$1-pan-stateN;
#X obj 62 196 s \$0|\$1-fader-state-sender-rec;
#X msg 59 157 set \$1;
#X obj 31 238 s \$0|\$1-fader-state;
#X obj 265 320 s \$0|\$1-pan-state-sender-rec;
#X connect 0 0 1 0;
#X connect 1 0 6 0;
#X connect 1 1 2 0;
#X connect 2 0 3 0;
#X connect 2 0 4 0;
#X connect 2 0 8 0;
#X connect 6 0 5 0;
#X connect 6 0 7 0;
#X restore 158 261 pd \$0-VALUE-RESTORED;
#X connect 0 0 4 0;
#X connect 0 0 5 0;
#X connect 5 0 1 0;
#X connect 5 1 2 0;
#X connect 5 2 3 0;
#X connect 5 3 6 0;
#X restore 168 188 pd \$0-HANDLE_TRACK_CONTOUR;
#N canvas 365 199 2625 742 \$0-HANDLE_TRACK_ETC 0;
#X obj 61 25 inlet;
#X obj 141 45 print >=>...ETC_TRACK_\$1;
#X obj 1122 15 r \$0-STOP_RSTOP;
#N canvas 0 180 944 651 \$0-LINE_IN 0;
#X obj 58 127 s \$0|\$1-filename;
#X obj 58 18 inlet;
#X msg 58 96 label ------IN------;
#X obj 225 129 s \$0|\$1-time-remaining;
#X msg 226 95 label;
#X obj 58 64 t b b;
#X text 226 61 comment;
#X connect 1 0 5 0;
#X connect 2 0 0 0;
#X connect 4 0 3 0;
#X connect 5 0 2 0;
#X connect 5 1 4 0;
#X restore 1122 61 pd \$0-LINE_IN;
#X obj 37 195 s \$0|\$1-filename;
#X obj 103 237 s \$0|\$1-input-track;
#X msg 38 157 label \$1;
#X obj 39 120 symbol;
#N canvas 358 249 1724 1476 \$0-ismono 0;
#X obj 92 15 inlet;
#X obj 241 290 s \$0|\$1-inbound-diodes-S;
#X obj 27 285 s \$0|\$1-inbound-diode-M;
#X obj 320 202 s \$0|\$1-pan-enabled-diode;
#X obj 89 87 sel 0 1;
#X obj 185 79 s \$0|\$1-ISMONO;
#X obj 61 429 s \$0|\$1-pan-state-sender-rec;
#X obj 305 434 s \$0|\$1-pan-state;
#X msg 417 392 color 7;
#X msg 505 122 label ST;
#X msg 508 151 label MO;
#X msg 307 130 color 16 16;
#X msg 281 155 color 13 13;
#X msg 21 188 color 16 16;
#X msg 47 235 color 90 90;
#X msg 300 403 color 13;
#X msg 168 390 color 90;
#X msg 59 398 color 13;
#X msg 223 257 color 90 90;
#X msg 314 260 color 16 16;
#X connect 0 0 4 0;
#X connect 0 0 5 0;
#X connect 4 0 19 0;
#X connect 4 0 14 0;
#X connect 4 0 12 0;
#X connect 4 0 17 0;
#X connect 4 0 15 0;
#X connect 4 0 9 0;
#X connect 4 1 18 0;
#X connect 4 1 13 0;
#X connect 4 1 11 0;
#X connect 4 1 16 0;
#X connect 4 1 8 0;
#X connect 4 1 10 0;
#X connect 8 0 7 0;
#X connect 9 0 3 0;
#X connect 10 0 3 0;
#X connect 11 0 3 0;
#X connect 12 0 3 0;
#X connect 13 0 2 0;
#X connect 14 0 2 0;
#X connect 15 0 7 0;
#X connect 16 0 6 0;
#X connect 17 0 6 0;
#X connect 18 0 1 0;
#X connect 19 0 1 0;
#X restore 712 145 pd \$0-ismono;
#N canvas 435 1197 3229 896 \$0-SOLO_MUTE_PROCESSOR 0;
#X obj 241 59 inlet;
#X obj 420 45 inlet;
#X obj 955 50 inlet;
#X obj 269 241 s _SOLOCOUNTER;
#X msg 242 189 set \$1;
#X obj 306 165 \$1;
#X msg 306 192 reset \$1;
#X text 231 24 setsolo;
#X text 943 17 setpresolo;
#X obj 242 126 sel 1 0;
#X obj 1067 44 inlet;
#X obj 955 154 \$1;
#X msg 955 192 set \$1;
#X obj 1015 157 \$1;
#X msg 1013 194 reset \$1;
#X obj 955 113 sel 1 0;
#X obj 956 250 s _PRESOLOCOUNTER;
#X text 408 23 setsolomute;
#X text 1054 18 setsolopremute;
#X obj 305 127 s \$0|\$1-TRACK_SOLO;
#X obj 1106 201 s \$0|\$1-PRELISTEN_TRACK_SOLO;
#X obj 39 69 inlet;
#X obj 745 48 inlet;
#X obj 38 176 s \$0|\$1-TRACK_MUTE;
#X obj 686 142 s \$0|\$1-PRELISTEN_TRACK_MUTE;
#X text 43 34 setmute;
#X text 737 17 setpremute;
#X obj 667 24 cnv 15 9 300 empty empty empty 20 12 0 14 -203904 -66577
0;
#X obj 361 81 s \$0|\$1-TRACK_SOLOMUTE;
#X obj 435 348 s \$0|\$1-mute;
#X obj 217 118 bng 15 250 50 0 empty empty empty 17 7 0 10 -262144
-1 -1;
#X obj 242 159 \$1;
#X obj 241 92 t f f;
#X obj 955 81 t f f;
#X msg 483 140 0;
#X obj 435 293 v x\$0\$1MCOL;
#X obj 434 261 bang;
#X obj 39 138 t b f;
#X obj 91 111 bng 15 250 50 0 empty empty empty 17 7 0 10 -262144 -1
-1;
#X obj 187 327 s \$0|\$1-solo;
#X obj 1100 400 s \$0|\$1-prelisten;
#X obj 1097 307 bang;
#X obj 1099 341 v x\$0\$1PMCOL;
#X floatatom 1037 364 5 0 0 0 - - -;
#X obj 1155 306 bng 15 250 50 0 empty empty empty 17 7 0 10 -262144
-1 -1;
#X obj 808 51 bng 15 250 50 0 empty empty empty 17 7 0 10 -262144 -1
-1;
#X floatatom 704 49 5 0 0 0 - - -;
#X obj 769 337 s \$0|\$1-presolo;
#X obj 1041 130 s \$0|\$1-TRACK_SOLOPREMUTE;
#X obj 1046 47 bng 15 250 50 0 empty empty empty 17 7 0 10 -262144
-1 -1;
#X text 525 -6 comment;
#X obj 740 98 t b f;
#X obj 1091 70 t b f;
#X msg 891 34 1;
#X msg 167 299 color 15 15;
#X msg 261 297 color 38 38;
#X msg 732 306 color 15 15;
#X msg 843 307 color 38 38;
#X msg 434 320 color \$1 \$1;
#X msg 1100 368 color \$1 \$1;
#X connect 0 0 32 0;
#X connect 1 0 28 0;
#X connect 1 0 36 0;
#X connect 2 0 33 0;
#X connect 4 0 3 0;
#X connect 5 0 6 0;
#X connect 6 0 3 0;
#X connect 9 0 31 0;
#X connect 9 0 54 0;
#X connect 9 1 5 0;
#X connect 9 1 55 0;
#X connect 10 0 49 0;
#X connect 10 0 52 0;
#X connect 11 0 12 0;
#X connect 12 0 16 0;
#X connect 13 0 14 0;
#X connect 14 0 16 0;
#X connect 15 0 11 0;
#X connect 15 0 56 0;
#X connect 15 1 13 0;
#X connect 15 1 57 0;
#X connect 21 0 37 0;
#X connect 21 0 38 0;
#X connect 22 0 45 0;
#X connect 22 0 46 0;
#X connect 22 0 51 0;
#X connect 30 0 31 0;
#X connect 31 0 4 0;
#X connect 32 0 9 0;
#X connect 32 1 19 0;
#X connect 33 0 15 0;
#X connect 33 1 20 0;
#X connect 35 0 58 0;
#X connect 36 0 35 0;
#X connect 37 0 36 0;
#X connect 37 1 23 0;
#X connect 41 0 42 0;
#X connect 42 0 59 0;
#X connect 42 0 43 0;
#X connect 44 0 42 0;
#X connect 51 0 41 0;
#X connect 51 1 24 0;
#X connect 52 0 41 0;
#X connect 52 1 48 0;
#X connect 53 0 33 0;
#X connect 54 0 39 0;
#X connect 55 0 39 0;
#X connect 56 0 47 0;
#X connect 57 0 47 0;
#X connect 58 0 29 0;
#X connect 59 0 40 0;
#X restore 270 216 pd \$0-SOLO_MUTE_PROCESSOR;
#N canvas 453 1667 1587 931 \$0-prelisten-level 0;
#X obj 213 144 s \$0|\$1-prelisten-level;
#X obj 215 47 inlet;
#X obj 468 137 s \$0|\$1-PRELISTEN_TRACK_LEVEL;
#X text 529 110 audio proc:;
#X msg 254 196 set \$1;
#X obj 258 244 s \$0|\$1-prelisten-level-sender-rec;
#X connect 1 0 0 0;
#X connect 1 0 2 0;
#X connect 1 0 4 0;
#X connect 4 0 5 0;
#X restore 631 188 pd \$0-prelisten-level;
#X obj 39 82 route filename input setmute setsolo setsolomute setpremute
setpresolo setsolopremute setprelevel ismono, f 107;
#X connect 0 0 1 0;
#X connect 0 0 11 0;
#X connect 2 0 3 0;
#X connect 6 0 4 0;
#X connect 7 0 6 0;
#X connect 11 0 7 0;
#X connect 11 1 5 0;
#X connect 11 2 9 0;
#X connect 11 3 9 1;
#X connect 11 4 9 2;
#X connect 11 5 9 3;
#X connect 11 6 9 4;
#X connect 11 7 9 5;
#X connect 11 8 10 0;
#X connect 11 9 8 0;
#X restore 246 135 pd \$0-HANDLE_TRACK_ETC;
#X obj 39 287 outlet;
#X obj 103 284 outlet;
#X connect 0 0 4 0;
#X connect 1 0 5 0;
#X connect 2 0 6 0;
#X connect 3 0 7 0;
#X connect 4 0 8 0;
#X connect 4 1 9 0;
#X restore 1032 152 pd \$0-TRACK-ROUTER;
#X obj 1247 53 inlet;
#X obj 1247 122 route refreshmix;
#X obj 1261 92 print >>>>EXTRA;
#X text 1510 45 gpp-air-iconsole-track :: channel (track) for gpp air
iconsole;
#X obj 713 273 gpp-airliner~;
#X obj 405 546 *~;
#X obj 857 414 gpp-airliner~;
#X obj 449 545 *~;
#X text 481 545 FADER;
#X obj 395 752 outlet~;
#X obj 455 753 outlet~;
#N canvas 1444 885 1263 1165 \$0-MUTE 0;
#X obj 81 393 outlet~;
#X obj 81 323 vline~;
#X msg 82 287 \$1 50;
#X floatatom 45 253 5 0 0 0 HEARD - -;
#X obj 83 91 r \$0|\$1-TRACK_MUTE;
#X obj 345 110 t b f;
#X obj 82 216 expr ($f1 || $f2) != 1;
#X obj 345 68 r \$0|\$1-TRACK_SOLOMUTE;
#X text 511 243 M + SM = SM;
#X text 511 259 M + 0 = M;
#X text 511 276 0 + SM = SM;
#X text 511 292 0 + 0 = 0;
#X obj 319 247 expr ($f1 && $f2) \; ($f1 == 1) && ($f2 == 0) \; ($f1
== 0) && ($f2 == 1) \; ($f1 == 0) && ($f2 == 0) \;;
#X obj 315 331 sel 1;
#X obj 376 327 sel 1;
#X obj 434 329 sel 1;
#X obj 497 328 sel 1;
#X obj 365 435 v x\$0\$1MCOL;
#X msg 393 376 13;
#X floatatom 365 471 5 0 0 0 - - -;
#X msg 366 497 color \$1;
#X obj 361 538 tgl 15 0 empty empty empty 17 7 0 10 -24198 -1 -1 0
1;
#X msg 334 378 33;
#X msg 442 378 16;
#X connect 1 0 0 0;
#X connect 2 0 1 0;
#X connect 4 0 6 0;
#X connect 4 0 12 0;
#X connect 5 0 6 0;
#X connect 5 0 12 0;
#X connect 5 1 6 1;
#X connect 5 1 12 1;
#X connect 6 0 3 0;
#X connect 6 0 2 0;
#X connect 7 0 5 0;
#X connect 12 0 13 0;
#X connect 12 1 14 0;
#X connect 12 2 15 0;
#X connect 12 3 16 0;
#X connect 13 0 22 0;
#X connect 14 0 18 0;
#X connect 15 0 22 0;
#X connect 16 0 23 0;
#X connect 17 0 19 0;
#X connect 18 0 17 0;
#X connect 19 0 20 0;
#X connect 20 0 21 0;
#X connect 22 0 17 0;
#X connect 23 0 17 0;
#X restore 435 582 pd \$0-MUTE;
#X obj 405 620 *~;
#X obj 448 622 *~;
#X text 480 629 MUTE;
#X obj 582 753 outlet~;
#X text 572 778 prelisten bus send;
#X obj 644 752 outlet~;
#X text 407 778 master send;
#X obj 246 291 gpp-smpan~;
#N canvas 455 180 1408 1553 \$0-audio-monitor-source 0;
#X obj 43 110 s \$0|\$1-svu-l;
#X obj 206 121 s \$0|\$1-svu-r;
#X obj 47 9 inlet~;
#X obj 111 10 inlet~;
#X obj 195 -3 loadbang;
#X msg 215 29 6000;
#X obj 49 57 gpp-vufeeder;
#X obj 153 60 gpp-vufeeder;
#X connect 2 0 6 0;
#X connect 3 0 7 0;
#X connect 4 0 5 0;
#X connect 5 0 6 1;
#X connect 5 0 7 1;
#X connect 6 0 0 0;
#X connect 7 0 1 0;
#X restore 207 130 pd \$0-audio-monitor-source;
#X obj 405 464 *~;
#X obj 449 466 *~;
#X obj 245 252 r \$0|\$1-ISMONO;
#N canvas 1823 180 1590 1234 \$0-AUDIO_IN_CONSOLE 0;
#X floatatom 1290 533 5 0 0 0 - - -;
#X obj 84 188 pack f f;
#X msg 83 212 set \$1 \$2;
#X obj 83 85 r \$0|RECHAN;
#X msg 228 335 1 2;
#X obj 197 81 loadbang;
#X obj 82 145 expr (2*\$1)-1 \; (2*\$1) \;;
#X obj 76 493 outlet~;
#X obj 154 497 outlet~;
#X obj 80 288 adc~ 1 2;
#X obj 228 372 list append for channel \$1;
#X obj 36 103 bng 15 250 50 0 empty empty empty 17 7 0 10 -262144 -1
-1;
#X obj 229 302 t b a;
#X obj 228 418 print @REGISTERED_ADC/IN;
#X connect 1 0 2 0;
#X connect 2 0 9 0;
#X connect 2 0 12 0;
#X connect 3 0 6 0;
#X connect 4 0 10 0;
#X connect 5 0 6 0;
#X connect 6 0 1 0;
#X connect 6 1 1 1;
#X connect 9 0 7 0;
#X connect 9 1 8 0;
#X connect 10 0 13 0;
#X connect 11 0 6 0;
#X connect 12 0 4 0;
#X connect 12 1 4 0;
#X restore 409 41 pd \$0-AUDIO_IN_CONSOLE;
#N canvas 144 486 1458 957 \$0-fpstate-monitor 0;
#X obj 239 72 inlet~;
#X obj 53 59 inlet~;
#X text 240 33 fader;
#X text 53 28 pan;
#X obj 57 304 s \$0|\$1-pan-state;
#X obj 224 314 s \$0|\$1-fader-state;
#X obj 226 239 gpp-snapshot~ 100;
#X obj 56 229 gpp-snapshot~ 100;
#X obj 56 264 change;
#X obj 226 273 change;
#X obj 61 335 s \$0|\$1-pan-stateN;
#X connect 0 0 6 0;
#X connect 1 0 7 0;
#X connect 6 0 9 0;
#X connect 7 0 8 0;
#X connect 8 0 4 0;
#X connect 8 0 10 0;
#X connect 9 0 5 0;
#X restore 713 528 pd \$0-fpstate-monitor;
#X obj 781 305 print CORE_AIRLINER_PAN_EB;
#X obj 942 456 print CORE_AIRLINER_FADER_EB;
#N canvas 0 180 1408 1553 \$0-audio-monitor-post 0;
#X obj 190 290 s \$0|\$1-vu-r;
#X obj 72 292 s \$0|\$1-vu-l;
#X obj 52 37 inlet~;
#X obj 116 38 inlet~;
#X obj 188 12 loadbang;
#X msg 208 44 6000;
#X obj 54 95 gpp-vufeeder;
#X obj 158 88 gpp-vufeeder;
#X connect 2 0 6 0;
#X connect 3 0 7 0;
#X connect 4 0 5 0;
#X connect 5 0 6 1;
#X connect 5 0 7 1;
#X connect 6 0 1 0;
#X connect 7 0 0 0;
#X restore 175 749 pd \$0-audio-monitor-post;
#N canvas 1196 341 1840 1798 \$0-PRELISTEN-BUS 0;
#X obj 143 279 vline~;
#X msg 142 239 \$1 50;
#X obj 2 40 inlet~;
#X obj 16 337 *~;
#X obj 16 381 outlet~;
#X obj 259 19 r \$0|\$1-PRELISTEN_TRACK_LEVEL;
#X obj 388 108 r \$0|\$1-PRELISTEN_TRACK_MUTE;
#X floatatom 1290 533 5 0 0 0 - - -;
#X obj 72 39 inlet~;
#X obj 86 336 *~;
#X obj 86 380 outlet~;
#X obj 258 53 t b f;
#X text 636 302 M + SM = SM;
#X text 634 319 M + 0 = M;
#X text 631 333 0 + SM = SM;
#X text 631 344 0 + 0 = 0;
#X obj 439 301 expr ($f1 && $f2) \; ($f1 == 1) && ($f2 == 0) \; ($f1
== 0) && ($f2 == 1) \; ($f1 == 0) && ($f2 == 0) \;;
#X obj 435 385 sel 1;
#X obj 496 381 sel 1;
#X obj 554 383 sel 1;
#X obj 617 382 sel 1;
#X obj 478 197 t b f;
#X obj 588 510 v x\$0\$1PMCOL;
#X floatatom 361 191 5 0 0 0 - - -;
#X floatatom 631 77 5 0 0 0 - - -;
#X obj 647 200 loadbang;
#X msg 650 239 0;
#X msg 583 429 46;
#X msg 658 433 38;
#X msg 518 429 13;
#X floatatom 587 539 5 0 0 0 - - -;
#X msg 170 16 1;
#X msg 486 512 color \$1;
#X obj 496 546 tgl 15 0 empty empty empty 17 7 0 10 -258699 -1 -1 0
1;
#X obj 544 28 r \$0|\$1-TRACK_SOLOPREMUTE;
#X msg 459 435 93;
#X obj 252 271 expr ($f1 || $f2);
#X obj 139 109 expr if ($f1 \, 0 \, $f2) \;;
#X connect 0 0 3 1;
#X connect 0 0 9 1;
#X connect 1 0 0 0;
#X connect 2 0 3 0;
#X connect 3 0 4 0;
#X connect 5 0 11 0;
#X connect 6 0 16 0;
#X connect 6 0 23 0;
#X connect 6 0 36 0;
#X connect 8 0 9 0;
#X connect 9 0 10 0;
#X connect 11 0 37 0;
#X connect 11 1 37 1;
#X connect 16 0 17 0;
#X connect 16 1 18 0;
#X connect 16 2 19 0;
#X connect 16 3 20 0;
#X connect 17 0 35 0;
#X connect 18 0 29 0;
#X connect 19 0 35 0;
#X connect 20 0 27 0;
#X connect 21 0 16 0;
#X connect 21 0 36 0;
#X connect 21 1 16 1;
#X connect 21 1 36 1;
#X connect 22 0 30 0;
#X connect 25 0 26 0;
#X connect 26 0 16 1;
#X connect 27 0 22 0;
#X connect 27 0 32 0;
#X connect 29 0 22 0;
#X connect 29 0 32 0;
#X connect 31 0 11 0;
#X connect 32 0 33 0;
#X connect 34 0 21 0;
#X connect 34 0 24 0;
#X connect 35 0 22 0;
#X connect 35 0 32 0;
#X connect 36 0 37 0;
#X connect 37 0 1 0;
#X restore 576 123 pd \$0-PRELISTEN-BUS;
#N canvas 340 864 2968 1296 \$0-GUICMD-TRACK 0;
#X obj 619 420 netsend -u -b;
#X obj 625 156 t b b;
#X obj 625 126 loadbang;
#X obj 633 222 pack s f;
#X msg 631 255 connect \$1 \$2;
#X obj 582 190 symbol \$4;
#X obj 673 188 float \$3;
#X obj 587 123 bng 15 250 50 0 empty empty empty 17 7 0 10 -262144
-1 -1;
#X floatatom 618 453 5 0 0 0 - - -;
#X msg 716 379 disconnect;
#X obj 77 70 oscformat -f f airmix \$1 fader;
#X obj 77 41 r \$0|\$1-fader-state-sender;
#X floatatom 48 141 5 0 0 0 - - -;
#X obj 321 76 oscformat -f f airmix \$1 pan;
#X obj 321 51 r \$0|\$1-pan-state-sender;
#X obj 532 8 r \$0|\$1-mute-sender;
#X obj 110 196 r \$0|\$1-solo-sender;
#X obj 790 12 r \$0|\$1-inbound-sender;
#X obj 93 321 r \$0|\$1-presolo-sender;
#X obj 907 333 r \$0|\$1-prelisten-level-sender;
#X obj 863 223 r \$0|\$1-prelisten-sender;
#X obj 532 45 oscformat -f i airmix \$1 setmute;
#X obj 112 227 oscformat -f i airmix \$1 setsolo;
#X obj 773 46 sel 0 1;
#X obj 801 181 oscformat -f i airmix \$1 stereo;
#X obj 761 121 oscformat -f i airmix \$1 mono;
#X obj 863 283 oscformat -f i airmix \$1 setpremute;
#X obj 863 254 != 1;
#X obj 859 390 oscformat -f f airmix \$1 prelevel;
#X obj 94 361 oscformat -f i airmix \$1 setpresolo;
#X floatatom 76 425 5 0 0 0 - - -;
#X obj 823 484 r \$0|\$1-CPAN;
#X obj 830 555 oscformat -f f airmix \$1 pan;
#X msg 825 527 0.5;
#X obj 843 50 tgl 15 0 empty empty empty 17 7 0 10 -262144 -1 -1 0
1;
#X text 857 504 cpan button;
#X connect 0 0 8 0;
#X connect 1 0 5 0;
#X connect 1 1 6 0;
#X connect 2 0 1 0;
#X connect 3 0 4 0;
#X connect 4 0 0 0;
#X connect 5 0 3 0;
#X connect 6 0 3 1;
#X connect 7 0 1 0;
#X connect 9 0 0 0;
#X connect 10 0 0 0;
#X connect 11 0 10 0;
#X connect 11 0 12 0;
#X connect 13 0 0 0;
#X connect 14 0 13 0;
#X connect 15 0 21 0;
#X connect 16 0 22 0;
#X connect 17 0 23 0;
#X connect 17 0 34 0;
#X connect 18 0 29 0;
#X connect 18 0 30 0;
#X connect 19 0 28 0;
#X connect 20 0 27 0;
#X connect 21 0 0 0;
#X connect 22 0 0 0;
#X connect 23 0 25 0;
#X connect 23 1 24 0;
#X connect 24 0 0 0;
#X connect 25 0 0 0;
#X connect 26 0 0 0;
#X connect 27 0 26 0;
#X connect 28 0 0 0;
#X connect 29 0 0 0;
#X connect 31 0 33 0;
#X connect 32 0 0 0;
#X connect 33 0 32 0;
#X restore 864 151 pd \$0-GUICMD-TRACK;
#X obj 1064 281 print ------AIRLINER_ICONSOLE_PAN;
#X obj 1042 305 print -------AIRLINER_ICONSOLE_FADER;
#X connect 0 0 9 0;
#X connect 6 0 9 1;
#X connect 7 0 9 2;
#X connect 8 0 9 3;
#X connect 9 0 16 0;
#X connect 9 0 42 0;
#X connect 9 1 14 0;
#X connect 9 1 41 0;
#X connect 10 0 11 0;
#X connect 11 0 5 0;
#X connect 14 0 35 0;
#X connect 14 0 29 1;
#X connect 15 0 22 0;
#X connect 16 0 15 1;
#X connect 16 0 17 1;
#X connect 16 0 35 1;
#X connect 17 0 23 0;
#X connect 21 0 22 1;
#X connect 21 0 23 1;
#X connect 22 0 19 0;
#X connect 22 0 38 0;
#X connect 23 0 20 0;
#X connect 23 0 38 1;
#X connect 29 1 31 1;
#X connect 29 2 32 1;
#X connect 31 0 15 0;
#X connect 32 0 17 0;
#X connect 33 0 29 0;
#X connect 34 0 39 0;
#X connect 34 0 31 0;
#X connect 34 0 30 0;
#X connect 34 1 39 1;
#X connect 34 1 32 0;
#X connect 34 1 30 1;
#X connect 39 0 25 0;
#X connect 39 1 27 0;
