#N canvas 2062 180 1778 1820 12;
#X obj 520 27 cnv 10 114 22 empty empty AIR 36 6 1 22 -66577 -262144
0;
#X text 517 47 Gregor Pirš 2023;
#X obj 52 60 inlet;
#X obj 51 679 outlet;
#X obj 53 640 gpp-switch2;
#X obj 364 49 inlet;
#X obj 218 62 inlet;
#X obj 125 680 outlet;
#X text 25 27 the flow;
#X text 364 22 control;
#X text 213 20 gpp-fifostat control, f 12;
#X obj 367 721 outlet;
#X text 44 706 output A;
#X text 123 699 output B;
#X obj 416 663 tgl 15 0 empty empty empty 17 7 0 10 -262144 -1 -1 0
1;
#X obj 462 574 loadbang;
#X msg 462 599 0;
#X obj 246 717 outlet;
#N canvas 893 986 1981 918 \$0-DISTRIBUTE 0;
#X obj 292 58 loadbang;
#X obj 151 31 inlet;
#X text 148 9 maxshare;
#X obj 475 43 inlet;
#X text 478 21 maxval;
#X floatatom 187 150 5 0 0 0 - - -;
#X obj 247 145 v x\$0chaosval;
#X floatatom 177 75 5 0 0 0 - - -;
#X text 243 167 one above the yrange: CHAOS value, f 14;
#X obj 152 382 outlet;
#X obj 356 195 s \$0-chaosval;
#X obj 244 75 bng 15 250 50 0 empty empty empty 17 7 0 10 -262144 -1
-1;
#X obj 443 124 s \$0-resetval;
#X text 482 103 [change] element reset val at the beginning;
#X obj 441 153 v x\$0resetval;
#X floatatom 382 142 5 0 0 0 - - -;
#X floatatom 530 70 5 0 0 0 - - -;
#X obj 292 90 expr \$3 + 1 \; \$2 - 1 \;;
#X obj 486 283 bng 15 250 50 0 empty empty empty 17 7 0 10 -262144
-1 -1;
#X floatatom 489 351 5 0 0 0 - - -;
#X obj 151 238 expr if ($f1 >= x\$0threshold \, $f2 \, x\$0chaosval)
\;;
#X floatatom 184 288 5 0 0 0 - - -;
#X obj 486 312 v x\$0threshold;
#X obj 91 282 bng 15 250 50 0 empty empty empty 17 7 0 10 -262144 -1
-1;
#X obj 44 95 v x\$0maxshare \;;
#X connect 0 0 17 0;
#X connect 1 0 7 0;
#X connect 1 0 20 0;
#X connect 1 0 24 0;
#X connect 3 0 16 0;
#X connect 3 0 20 1;
#X connect 11 0 17 0;
#X connect 17 0 5 0;
#X connect 17 0 6 0;
#X connect 17 0 10 0;
#X connect 17 1 12 0;
#X connect 17 1 14 0;
#X connect 17 1 15 0;
#X connect 18 0 22 0;
#X connect 20 0 9 0;
#X connect 20 0 21 0;
#X connect 20 0 23 0;
#X connect 22 0 19 0;
#X restore 261 403 pd \$0-DISTRIBUTE;
#X text 160 346 maxcount | maxshare | maxval;
#X text 241 736 prevalent value, f 9;
#X text 243 771 or chaos bang => when there's no prevalent value,
f 12;
#X text 367 741 to which output we are writing the flow (A or B),
f 20;
#X obj 262 434 change;
#X obj 286 588 r \$0-chaosval;
#X floatatom 285 626 5 0 0 0 - - -;
#X text 645 229 note: values 1 below and 1 above the yrange have special
significance: 1 below is considered "chaos" number (denotes chaotic
state and 1 above is considered "null" number (denotes nothing happens
\, but that is actually not perceivable by the user since it will not
be output.;
#X text 646 320 arg 1-5 = gpp-fifostat parameters;
#X msg 401 404 set \$1;
#X obj 401 372 v x\$0resetval;
#X obj 218 326 unpack f f f;
#X text 358 208 INIT should be sent at the beginning of the broadcast
trough sepachain to clear / reset the mechanism, f 34;
#X msg 269 125 clear;
#X text 643 21 gpp-sepachain :: sift a flow of floats following the
criteria of value deviation, f 33;
#X text 644 73 sets the gpp-fifostat maxshare threshold (0-1). basically
\, this determines how much of fifo should contain the number in question
in order to be considered prevalent. If the current leading number
holds this position \, no change. if a new number starts holding this
position \, sepachain will report state change to another output (A<->B).
Of none of the numbers holds this position (=the maxcount falls below
minreq) the state turns to 'zero' (0) determining that there's no prevalent
value (=the content of fifo is too chaotic to define);
#X obj 364 78 route threshold init;
#X obj 363 138 v x\$0threshold;
#X obj 426 176 t b b b b;
#X text 502 488 hold the execution of the transition if / until the
flow of the actual prevalent values persists (may be up to (1-threshold)*fifosize)
, f 46;
#X obj 529 77 loadbang;
#X msg 529 108 0.8;
#X obj 52 217 gpp-fifostat \$1 \$2 \$3 \$4;
#X obj 581 759 outlet;
#X obj 581 712 pack f f;
#X obj 192 547 t f b b;
#X text 585 786 DEBUG: threshold | maxshare;
#X obj 581 658 expr x\$0maxshare \; x\$0threshold \;;
#N canvas 729 461 2559 1688 \$0-PROCRASTINATE2 0;
#X obj 200 34 inlet;
#X obj 685 31 inlet;
#X obj 539 34 loadbang;
#X text 683 13 init;
#X obj 627 179 v x\$0chaosval;
#X obj 539 120 v x\$0resetval;
#X obj 201 335 gpp-birot;
#X floatatom 152 335 5 0 0 0 actual - -;
#X floatatom 281 332 5 0 0 1 previous - -;
#X obj 567 83 bng 15 250 50 0 empty empty empty 17 7 0 10 -262144 -1
-1;
#X obj 685 58 t b b b;
#X obj 200 84 t f f;
#X obj 201 198 gpp-switch2;
#X obj 232 143 expr if ($f1 == x\$0chaosval \, 1 \, 0);
#X floatatom 153 199 5 0 0 0 PREVAILING - -;
#X floatatom 304 196 5 0 0 1 CHAOSVAL - -;
#X obj 665 89 bng 15 250 50 0 empty empty empty 17 7 0 10 -262144 -1
-1;
#X obj 221 687 outlet;
#X text 193 12 STAT;
#X obj 218 632 f;
#X obj 266 374 sel;
#X obj 159 375 sel;
#X obj 161 519 sel 0 1;
#X obj 267 511 sel 0 1;
#X obj 201 258 t f f;
#X obj 86 35 inlet;
#X text 81 12 FLOW;
#X obj 265 630 v x\$0chaosval;
#X obj 87 66 t f f;
#X obj 161 467 gpp-spigop ==;
#X obj 267 467 gpp-spigop ==;
#X obj 183 548 t b b;
#X obj 267 541 t b b;
#X text 368 467 ACTIVE|PASSIVE|CLOSE|OPEN;
#X floatatom 351 521 5 0 0 0 - - -;
#X floatatom 89 522 5 0 0 0 - - -;
#X obj 247 494 tgl 15 0 empty empty empty 17 7 0 10 -262144 -1 -1 0
1;
#X obj 356 496 tgl 15 0 empty empty empty 17 7 0 10 -262144 -1 -1 0
1;
#X floatatom 265 83 5 0 0 0 - - -;
#X obj 178 407 t b b f;
#X connect 0 0 11 0;
#X connect 0 0 38 0;
#X connect 1 0 10 0;
#X connect 2 0 5 0;
#X connect 2 0 4 0;
#X connect 2 0 29 2;
#X connect 2 0 30 2;
#X connect 4 0 20 1;
#X connect 4 0 21 1;
#X connect 5 0 6 1;
#X connect 6 0 7 0;
#X connect 6 0 21 0;
#X connect 6 1 8 0;
#X connect 6 1 20 0;
#X connect 9 0 5 0;
#X connect 10 0 5 0;
#X connect 10 1 29 2;
#X connect 10 1 30 2;
#X connect 11 0 12 0;
#X connect 11 1 13 0;
#X connect 12 0 14 0;
#X connect 12 0 24 0;
#X connect 12 1 15 0;
#X connect 12 1 6 0;
#X connect 13 0 12 1;
#X connect 16 0 4 0;
#X connect 19 0 17 0;
#X connect 20 1 30 1;
#X connect 21 0 30 3;
#X connect 21 1 39 0;
#X connect 22 1 31 0;
#X connect 23 0 32 0;
#X connect 24 0 6 0;
#X connect 24 1 19 1;
#X connect 25 0 28 0;
#X connect 27 0 17 0;
#X connect 28 0 29 0;
#X connect 28 1 30 0;
#X connect 29 0 22 0;
#X connect 29 0 35 0;
#X connect 29 1 36 0;
#X connect 30 0 23 0;
#X connect 30 0 34 0;
#X connect 30 1 37 0;
#X connect 31 0 19 0;
#X connect 31 1 29 2;
#X connect 32 0 27 0;
#X connect 32 1 30 2;
#X connect 39 0 29 3;
#X connect 39 1 30 2;
#X connect 39 2 29 1;
#X restore 193 508 pd \$0-PROCRASTINATE2;
#X obj 454 39 bng 15 250 50 0 empty empty empty 17 7 0 10 -262144 -1
-1;
#X obj 243 623 sel;
#X obj 207 715 bng 15 250 50 0 empty empty empty 17 7 0 10 -262144
-1 -1;
#X text 230 215 HI priority flow, f 8;
#X obj 53 288 t f f b;
#X floatatom 294 682 5 0 0 0 - - -;
#X obj 270 686 bng 15 250 50 0 empty empty empty 17 7 0 10 -262144
-1 -1;
#X obj 523 451 print (((((((((((((PREPROCAST)))))))))))))))));
#X connect 2 0 41 0;
#X connect 4 0 3 0;
#X connect 4 1 7 0;
#X connect 5 0 35 0;
#X connect 6 0 41 1;
#X connect 14 0 4 1;
#X connect 14 0 11 0;
#X connect 15 0 16 0;
#X connect 16 0 14 0;
#X connect 18 0 23 0;
#X connect 23 0 47 1;
#X connect 24 0 25 0;
#X connect 24 0 49 1;
#X connect 28 0 23 0;
#X connect 29 0 28 0;
#X connect 30 1 18 0;
#X connect 30 2 18 1;
#X connect 32 0 41 1;
#X connect 35 0 36 0;
#X connect 35 1 37 0;
#X connect 37 0 29 0;
#X connect 37 1 32 0;
#X connect 37 2 47 2;
#X connect 39 0 40 0;
#X connect 40 0 36 0;
#X connect 41 0 52 0;
#X connect 41 1 30 0;
#X connect 43 0 42 0;
#X connect 44 0 49 0;
#X connect 44 1 14 0;
#X connect 46 0 43 0;
#X connect 46 1 43 1;
#X connect 47 0 44 0;
#X connect 48 0 37 0;
#X connect 49 0 17 0;
#X connect 49 0 50 0;
#X connect 49 1 17 0;
#X connect 49 1 53 0;
#X connect 49 1 54 0;
#X connect 52 0 4 0;
#X connect 52 1 47 0;
#X connect 52 2 46 0;
