#N canvas 556 1238 3053 1160 12;
#X obj 756 21 cnv 10 112 22 empty empty AIR 36 6 1 22 -66577 -262144
0;
#X obj 48 22 inlet;
#X obj 301 23 inlet;
#X obj 59 134 spigot;
#X obj 60 273 outlet;
#X text 299 -8 RMS [env~] wire;
#X obj 301 117 change;
#X obj 257 278 delay \$2;
#X obj 330 237 t b f;
#X text 65 292 output value;
#X obj 364 22 inlet;
#X obj 364 116 change;
#X obj 362 149 t b f;
#X obj 166 187 spigot;
#X msg 234 136 1;
#X msg 200 137 0;
#X obj 59 201 t f b;
#X obj 475 18 inlet;
#X obj 421 19 inlet;
#X text 752 51 Gregor Pirš 2024;
#X text 756 181 NOTE: the RMS wire will no more trigger 'blind' bangs
(repeaded same-value outputs) on each RMS-condition-reached. Output
will only be possible if left inlet gets a new value.;
#X obj 331 190 \$3;
#X text 883 19 gpp-waitforsignal-stereo :: wait for the right outlet
to rise above the RMS threshold for certain amount of time (defined
by \$2 param) \, then pass bang through the (left outlet) wire. Optional
delay can be set = for how much time (ms) should the over-threshold
state persist in order to trigger the output value. STEREO VERSION:
output bang under OR or AND condition between both channels [the operator
defined as \$3 ], f 74;
#X text 99 23 open trap;
#X obj 48 59 t b b;
#X obj 51 99 bang;
#X obj 301 87 > \$1;
#X obj 364 85 > \$1;
#X obj 300 55 - 100;
#X obj 365 51 - 100;
#X connect 1 0 24 0;
#X connect 2 0 28 0;
#X connect 3 0 16 0;
#X connect 6 0 21 0;
#X connect 7 0 13 0;
#X connect 8 0 7 0;
#X connect 8 1 3 1;
#X connect 10 0 29 0;
#X connect 11 0 12 0;
#X connect 12 0 21 0;
#X connect 12 1 21 1;
#X connect 13 0 25 0;
#X connect 14 0 13 1;
#X connect 15 0 13 1;
#X connect 16 0 4 0;
#X connect 16 1 15 0;
#X connect 17 0 7 1;
#X connect 18 0 26 1;
#X connect 18 0 27 1;
#X connect 21 0 8 0;
#X connect 24 0 25 0;
#X connect 24 1 14 0;
#X connect 25 0 3 0;
#X connect 26 0 6 0;
#X connect 27 0 11 0;
#X connect 28 0 26 0;
#X connect 29 0 27 0;
