#N canvas 1662 289 2168 1401 12;
#X obj 599 286 soundfiler;
#X obj 187 40 inlet;
#X obj 600 221 list prepend read;
#X obj 600 251 list trim;
#X obj 186 75 list split 1;
#X obj 528 562 outlet;
#X obj 687 332 unpack f f f f;
#X obj 670 391 f;
#X obj 732 390 f;
#X obj 764 391 f;
#X obj 677 511 list;
#X obj 581 384 f;
#X obj 764 423 * 8;
#X obj 700 391 f;
#X obj 272 494 f;
#X obj 299 465 expr $f1 / $f2;
#X obj 15 134 sel sr samplerate br bitrate ch channels sz size hs headersize
dur duration all, f 83;
#X text 354 30 gpp-afparams: outputs specific soundfile parameter:
samplerate \, headersize \, num channels \, bytespersample \, & endianness
("b" or "l"). if "all" is input \, the output will be the list of all
params, f 68;
#X connect 0 0 11 1;
#X connect 0 0 15 0;
#X connect 0 1 6 0;
#X connect 0 1 10 1;
#X connect 1 0 4 0;
#X connect 2 0 3 0;
#X connect 3 0 0 0;
#X connect 4 0 16 0;
#X connect 4 1 2 0;
#X connect 6 0 7 1;
#X connect 6 0 15 1;
#X connect 6 1 13 1;
#X connect 6 2 8 1;
#X connect 6 3 9 1;
#X connect 7 0 5 0;
#X connect 8 0 5 0;
#X connect 9 0 12 0;
#X connect 10 0 5 0;
#X connect 11 0 5 0;
#X connect 12 0 5 0;
#X connect 13 0 5 0;
#X connect 14 0 5 0;
#X connect 15 0 14 1;
#X connect 16 0 7 0;
#X connect 16 1 7 0;
#X connect 16 2 9 0;
#X connect 16 3 9 0;
#X connect 16 4 8 0;
#X connect 16 5 8 0;
#X connect 16 6 11 0;
#X connect 16 7 11 0;
#X connect 16 8 13 0;
#X connect 16 9 13 0;
#X connect 16 10 14 0;
#X connect 16 11 15 0;
#X connect 16 12 10 0;
