#N canvas 1887 180 1575 1175 12;
#X obj 27 70 inlet~;
#X obj 125 74 inlet~;
#X text 7 90 master;
#X obj 88 36 receive~ \$1_auxL;
#X obj 213 36 receive~ \$1_auxR;
#X msg 422 378 11 12;
#X obj 422 415 list append for channel \$1;
#X obj 423 345 t b a;
#X obj 142 364 dac~;
#X obj 104 153 -~;
#X obj 165 153 -~;
#X obj 422 461 print @REGISTERED_DAC/SUBSTRACTOR_OUT;
#X floatatom 397 262 5 0 0 0 - - -;
#X obj 583 121 loadbang;
#X msg 422 304 set \$1 \$2;
#X obj 445 263 pack f f;
#X obj 447 119 r \$0-RECHAN;
#X obj 418 107 bng 15 250 50 0 empty empty empty 17 7 0 10 -262144
-1 -1;
#X msg 1025 458 set \$1 \$2;
#X obj 1019 427 pack f f;
#X obj 1078 320 loadbang;
#X obj 1006 343 bng 15 250 50 0 empty empty empty 17 7 0 10 -262144
-1 -1;
#X obj 1019 384 expr (2*\$2)+1+(2*\$1)-1 \; (2*\$2)+1+(2*\$1) \;;
#X msg 1022 500 18 19;
#X floatatom 534 258 5 0 0 0 - - -;
#X msg 63 336 set 1 2;
#X obj 568 31 expr (2*\$1) - 1 \; 2*\$1 \;;
#X obj 399 204 expr (2*\$1) - 1 + 10 \; (2*\$1) + 10 \;;
#X connect 0 0 9 0;
#X connect 1 0 10 0;
#X connect 3 0 9 1;
#X connect 4 0 10 1;
#X connect 5 0 6 0;
#X connect 6 0 11 0;
#X connect 7 0 5 0;
#X connect 7 1 5 0;
#X connect 9 0 8 0;
#X connect 10 0 8 1;
#X connect 13 0 27 0;
#X connect 14 0 8 0;
#X connect 14 0 7 0;
#X connect 15 0 14 0;
#X connect 16 0 27 0;
#X connect 17 0 27 0;
#X connect 18 0 23 0;
#X connect 19 0 18 0;
#X connect 20 0 22 0;
#X connect 21 0 22 0;
#X connect 22 0 19 0;
#X connect 22 1 19 1;
#X connect 25 0 8 0;
#X connect 27 0 12 0;
#X connect 27 0 15 0;
#X connect 27 1 15 1;
#X connect 27 1 24 0;
