#N canvas 2045 180 1795 1288 12;
#X obj 146 6 inlet;
#X obj 135 253 list-abs/list-map;
#X obj 129 653 outlet;
#X obj 411 76 pdstring;
#X obj 136 281 bytes2any;
#X obj 91 319 list;
#X obj 160 320 pack -1 -1;
#N canvas 509 471 1222 881 \$0-fillspan 0;
#X obj 50 29 inlet;
#X obj 237 35 inlet;
#X obj 125 380 outlet;
#X text 87 349 solo num;
#X obj 162 117 f;
#X obj 115 128 f;
#X obj 106 215 until;
#X obj 114 156 t f f;
#X obj 105 299 +;
#X obj 106 268 gpp-adder3 -1;
#X obj 94 87 t b b f b;
#X msg 106 241 1;
#X obj 107 186 expr $f2 - $f1 + 1;
#X connect 0 0 10 0;
#X connect 1 0 4 1;
#X connect 4 0 12 1;
#X connect 5 0 7 0;
#X connect 6 0 11 0;
#X connect 7 0 12 0;
#X connect 7 1 8 1;
#X connect 8 0 2 0;
#X connect 9 0 8 0;
#X connect 10 0 5 0;
#X connect 10 1 4 0;
#X connect 10 2 5 1;
#X connect 10 3 9 1;
#X connect 11 0 9 0;
#X connect 12 0 6 0;
#X restore 173 535 pd \$0-fillspan;
#X msg 265 356 1;
#X obj 263 389 gpp-adder3 0;
#X floatatom 263 429 5 0 0 0 - - -;
#X obj 94 392 list length;
#X obj 135 468 list;
#X obj 140 494 unpack f f;
#X obj 87 469 list;
#X obj 86 531 list trim;
#X obj 94 424 sel 1 2;
#X obj 412 18 cnv 10 112 22 empty empty AIR 36 6 1 22 -66577 -262144
0;
#X text 412 43 Gregor Pirš 2022;
#X text 540 12 gpp-span :: number span parser :: input data in format
1\\\,3\\\,5\\\,7-11 \, 13 :: output: dripping list of all numbers encompassed
by the input span;
#X obj 268 252 expr if (($f1 == 45 || $f1 == 0) \, 32 \, $f1) \;,
f 45;
#N canvas 576 532 1377 1064 \$0-PREPROC-QUOTED 1;
#X obj 38 5 inlet;
#X obj 42 182 outlet;
#X obj 39 33 t a b;
#X obj 42 63 any2bytes 92;
#X obj 43 100 bytes2any 256 44;
#X connect 0 0 2 0;
#X connect 2 0 3 0;
#X connect 3 0 4 0;
#X connect 4 0 1 0;
#X restore 96 113 pd \$0-PREPROC-QUOTED;
#X obj 133 203 any2bytes;
#X obj 249 9 inlet;
#X obj 74 359 t b a a a;
#X obj 96 156 t b b a b;
#X connect 0 0 21 0;
#X connect 1 0 4 0;
#X connect 1 1 20 0;
#X connect 4 0 5 1;
#X connect 5 0 24 0;
#X connect 6 0 8 0;
#X connect 7 0 2 0;
#X connect 8 0 9 0;
#X connect 9 0 10 0;
#X connect 11 0 16 0;
#X connect 12 0 13 0;
#X connect 13 0 7 0;
#X connect 13 1 7 1;
#X connect 14 0 15 0;
#X connect 15 0 2 0;
#X connect 16 0 14 0;
#X connect 16 1 12 0;
#X connect 20 0 1 1;
#X connect 21 0 25 0;
#X connect 22 0 1 0;
#X connect 23 0 25 0;
#X connect 24 1 11 0;
#X connect 24 2 14 1;
#X connect 24 3 12 1;
#X connect 25 1 5 0;
#X connect 25 2 8 0;
#X connect 25 2 22 0;
#X connect 25 3 6 0;
