#N canvas 960 180 2880 1453 12;
#X obj 554 -5 inlet;
#X text 1281 25 gpp-air-coremix-track :: B-AIR AIR Platform Core Mixer
;
#X text 1281 73 \$1 (creation arg) = number of channels (please make
sure to advance Pd- input channels settings accordingly);
#X obj 1154 24 cnv 10 114 22 empty empty AIR 36 6 1 22 -66577 -262144
0;
#X text 1152 47 Gregor Pirš 2022;
#X obj 579 463 gpp-airliner~;
#N canvas 0 180 1600 1400 \$0-PI 0;
#X obj 131 128 expr atan (1) * 4;
#X obj 132 103 loadbang;
#X obj 131 150 value PI;
#X obj 86 97 bng 15 250 50 0 empty empty empty 17 7 0 10 -262144 -1
-1;
#X text 153 74 broadcast pi as PI global;
#X connect 0 0 2 0;
#X connect 1 0 0 0;
#X connect 3 0 0 0;
#X restore 1208 77 pd \$0-PI;
#X text 573 854 prepare per-track senders for potential monitoring
the fader and pan states, f 22;
#N canvas 0 180 3840 1980 \$0-monitor 0;
#X obj 71 64 inlet~;
#X obj 161 67 inlet~;
#X text 70 36 fader;
#X text 166 34 pan;
#X obj 304 66 inlet;
#X obj 387 62 inlet;
#X text 297 38 fader RF;
#X text 380 34 pan RF;
#X obj 523 59 inlet;
#X text 517 34 is player active (any);
#X obj 165 312 s \$0|\$1-pan-state;
#X obj 308 377 s \$0|\$1-fader-rf;
#X obj 437 376 s \$0|\$1-pan-rf;
#X obj 22 309 s \$0|\$1-fader-state;
#X obj 24 234 gpp-snapshot~ 100;
#X obj 164 237 gpp-snapshot~ 100;
#X obj 164 272 change;
#X obj 24 268 change;
#X obj 701 64 inlet;
#X text 698 36 path;
#X obj 700 372 s \$0|\$1-path;
#X obj 556 376 s \$0|\$1-player-ac;
#N canvas 154 406 2880 1453 \$0-OSC-FADERPAN-HB 0;
#X obj 34 7 inlet~;
#X obj 177 5 inlet~;
#X obj 33 373 s \$0|\$1-fader-state-OSC;
#X obj 177 342 s \$0|\$1-pan-state-OSC;
#X obj 33 288 change;
#X obj 177 287 change;
#X obj 62 36 r __HEARTBEAT;
#X obj 177 205 snapshot~;
#X obj 34 203 snapshot~;
#X obj 62 146 del \$1;
#X obj 252 25 loadbang;
#X obj 62 85 t b b;
#X obj 200 143 del \$1;
#X text 422 57 1 2 - 3 4 - 5 6 - 7 8, f 1;
#X text 476 89 . . . 31 32, f 1;
#X text 495 140 16 ch;
#X obj 252 74 expr (2 * x\$0_FF * \$1) \; x\$0_FF * \$1 \;;
#X connect 0 0 8 0;
#X connect 1 0 7 0;
#X connect 4 0 2 0;
#X connect 5 0 3 0;
#X connect 6 0 11 0;
#X connect 7 0 5 0;
#X connect 8 0 4 0;
#X connect 9 0 8 0;
#X connect 10 0 16 0;
#X connect 11 0 9 0;
#X connect 11 1 12 0;
#X connect 12 0 7 0;
#X connect 16 0 9 1;
#X connect 16 1 12 1;
#X restore 39 133 pd \$0-OSC-FADERPAN-HB;
#X obj 801 67 inlet;
#X obj 871 65 inlet;
#X text 857 27 fader VR;
#X text 790 17 pan VR;
#X floatatom 824 121 5 0 0 0 - - -;
#X floatatom 933 129 5 0 0 0 - - -;
#X obj 958 371 s \$0|\$1-fader-vr;
#X obj 818 371 s \$0|\$1-pan-vr;
#X obj 146 358 s \$0|\$1-pan-stateN;
#X text 153 386 separating Number and hsl here in order to enable colour
change of hsl (no error reportig for num), f 15;
#X text 929 51 VR is NOT SUITABLE for WAKEUP (persistence refresh)
since it's based on [change]. Therefore \, only when the state changes
will broadcast its value and the next time \, if it remains... not.
;
#X msg 806 434 set \$1;
#X msg 917 431 set \$1;
#X obj 809 473 s \$0|\$1-pan-state-sender-rec;
#X obj 853 516 s \$0|\$1-fader-state-sender-rec;
#X obj 739 568 s \$0|\$1-pan-state;
#X obj 904 575 s \$0|\$1-fader-state;
#X connect 0 0 14 0;
#X connect 0 0 22 0;
#X connect 1 0 15 0;
#X connect 1 0 22 1;
#X connect 4 0 11 0;
#X connect 5 0 12 0;
#X connect 8 0 21 0;
#X connect 14 0 17 0;
#X connect 15 0 16 0;
#X connect 16 0 10 0;
#X connect 16 0 31 0;
#X connect 17 0 13 0;
#X connect 18 0 20 0;
#X connect 23 0 27 0;
#X connect 23 0 30 0;
#X connect 23 0 34 0;
#X connect 24 0 28 0;
#X connect 24 0 29 0;
#X connect 24 0 35 0;
#X connect 34 0 36 0;
#X connect 34 0 38 0;
#X connect 35 0 37 0;
#X connect 35 0 39 0;
#X restore 567 831 pd \$0-monitor;
#X obj 617 527 print AIRLINER_PAN_EB;
#X obj 388 648 print AIRLINER_FADER_EB;
#X obj 229 740 *~;
#X obj 326 597 gpp-airliner~;
#X obj 273 739 *~;
#X text 305 739 FADER;
#N canvas 352 594 2854 1352 \$0-REC 0;
#X obj 453 36 inlet;
#X msg 517 239 open \$1;
#X obj 668 452 outlet;
#X text 661 476 crossfader gate;
#X msg 668 411 0;
#X msg 443 300 start;
#X msg 508 332 stop;
#X obj 168 40 inlet~;
#X text 824 156 The soundfile is 2- or 3-byte fixed point ("pcm") or
4-byte floating-point. The soundfile format is determined by the file
extent ("foo.wav" \, "foo.aiff" \, or "foo.snd").;
#X text 857 230 -wave \, -nextstep \, -aiff;
#X text 858 251 -big \, -little (nextstep only!);
#X text 858 272 -bytes <2 \, 3 \, or 4>;
#X text 858 294 -rate <sample rate>;
#X text 823 212 The "open" message may take flag-style arguments as
follows:;
#X text 827 335 (setting sample rate will affect the soundfile header
but the file will _not_ be resampled.);
#X obj 604 37 inlet;
#X obj 453 181 t b b s b b;
#X text 447 15 record;
#X text 604 13 rstop;
#N canvas 1563 267 2126 1841 \$0-SCHEDULE-RECORDING 0;
#X obj 381 49 inlet;
#X text 298 30 route 2 trimstart & trimend = IF!;
#X obj 433 354 t b f;
#X obj 591 354 t b f;
#X obj 401 203 t b a;
#X obj 433 316 gpp-timing2ms;
#X obj 591 319 gpp-timing2ms;
#X obj 382 660 outlet;
#X text 400 606 if <= 0 \, interpret as limitless;
#X obj 433 260 unpack s s s;
#X obj 251 355 symbol;
#X obj 433 396 v x\$0_recstart_ms;
#X obj 401 585 v x\$0_rec_duration_ms;
#N canvas 64 515 1600 1400 \$0-ASSEMBLE-RPATH 0;
#X obj 72 77 inlet;
#X obj 175 327 outlet;
#X obj 177 267 makefilename %s/%%s;
#X msg 177 188 set \$1/%s;
#X obj 74 105 t s b;
#X obj 177 152 text get airdir;
#X msg 177 117 0;
#X connect 0 0 4 0;
#X connect 2 0 1 0;
#X connect 3 0 2 0;
#X connect 4 0 2 0;
#X connect 4 1 6 0;
#X connect 5 0 3 0;
#X connect 6 0 5 0;
#X restore 251 397 pd \$0-ASSEMBLE-RPATH;
#X obj 518 163 float 0;
#X obj 383 146 t b a b;
#X obj 579 267 unpack s f f;
#X obj 564 217 gpp-switch2;
#X obj 653 215 tgl 15 0 empty empty empty 17 7 0 10 -262144 -1 -1 0
1;
#X obj 637 187 r __NONHUMAN;
#X obj 467 543 v x\$0_recend_ms;
#X obj 401 494 expr $f3 \; $f2 + $f3 \;;
#X obj 591 396 float;
#X text 549 504 NOW \, TIME ARG 2 = REC DURATION \, NOT END_TIME;
#X floatatom 620 551 5 0 0 0 - - -;
#X floatatom 352 541 5 0 0 0 - - -;
#X connect 0 0 15 0;
#X connect 2 0 11 0;
#X connect 2 1 11 0;
#X connect 3 0 22 0;
#X connect 3 1 22 0;
#X connect 4 0 21 0;
#X connect 4 1 17 0;
#X connect 5 0 2 0;
#X connect 6 0 3 0;
#X connect 9 0 10 1;
#X connect 9 1 5 0;
#X connect 9 2 6 0;
#X connect 10 0 13 0;
#X connect 11 0 21 1;
#X connect 13 0 7 0;
#X connect 14 0 11 0;
#X connect 14 0 22 0;
#X connect 15 0 10 0;
#X connect 15 1 4 0;
#X connect 15 2 14 0;
#X connect 16 0 10 1;
#X connect 16 1 2 0;
#X connect 16 2 3 0;
#X connect 17 0 9 0;
#X connect 17 1 16 0;
#X connect 19 0 17 1;
#X connect 19 0 18 0;
#X connect 21 0 12 0;
#X connect 21 0 25 0;
#X connect 21 1 20 0;
#X connect 21 1 24 0;
#X connect 22 0 21 2;
#X restore 451 127 pd \$0-SCHEDULE-RECORDING;
#X text 466 145 get trim boundaries if applicable and forward path
;
#N canvas 0 180 2423 1090 \$0-MONITOR-RECORDING 0;
#X msg 132 322 label \$1;
#X obj 134 288 gpp-display-seconds-tenth;
#X msg 330 116 color -1.35785e+07;
#X text 340 90 red;
#X obj 84 38 inlet;
#X text 82 18 start;
#X obj 513 27 inlet;
#X text 516 9 stop;
#X text 705 24 violet / stop;
#X msg 188 137 stop;
#X obj 330 45 inlet;
#X obj 132 404 s \$0|\$1-time-remaining;
#X msg 546 231 label;
#X obj 188 163 metro 100;
#X obj 134 194 realtime;
#X obj 134 247 / 1000;
#X obj 622 299 expr if ($f1 % 2 != 0 \, -203904 \, -158848) \;, f
42;
#X obj 622 271 \$1;
#X text 637 323 stripe background color;
#X obj 542 395 print COLOR_REC;
#X msg 190 71 color -4.78455e+06;
#X msg 542 353 color \$1 -83269;
#X text 327 19 change color to red;
#X obj 189 43 t b b;
#X obj 633 208 s \$0|\$1-recorder-ac;
#X msg 633 175 1;
#X msg 679 175 0;
#X obj 85 77 t b b b b;
#X obj 314 231 s \$0|\$1-record-timer-request;
#X msg 314 206 list start 0;
#X obj 514 54 t b b b b b;
#X msg 336 172 list stop;
#X connect 0 0 11 0;
#X connect 1 0 0 0;
#X connect 2 0 11 0;
#X connect 4 0 27 0;
#X connect 6 0 30 0;
#X connect 9 0 13 0;
#X connect 10 0 2 0;
#X connect 12 0 11 0;
#X connect 13 0 14 1;
#X connect 14 0 15 0;
#X connect 15 0 1 0;
#X connect 16 0 21 0;
#X connect 17 0 16 0;
#X connect 20 0 11 0;
#X connect 21 0 19 0;
#X connect 21 0 11 0;
#X connect 23 0 20 0;
#X connect 23 1 25 0;
#X connect 25 0 24 0;
#X connect 26 0 24 0;
#X connect 27 0 13 0;
#X connect 27 1 14 0;
#X connect 27 2 29 0;
#X connect 27 3 23 0;
#X connect 29 0 28 0;
#X connect 30 0 9 0;
#X connect 30 1 17 0;
#X connect 30 2 12 0;
#X connect 30 3 26 0;
#X connect 30 4 31 0;
#X connect 31 0 28 0;
#X restore 615 302 pd \$0-MONITOR-RECORDING;
#X obj 457 609 delay;
#X obj 457 563 spigot;
#X obj 507 533 > 0;
#X obj 460 502 t f f;
#X obj 432 239 t b b b;
#X obj 471 462 v x\$0_rec_duration_ms;
#X obj 262 483 delay;
#X obj 294 454 v x\$0_recstart_ms;
#X obj 383 398 t b b;
#X text 198 536 if recstart defined \, delay beginning, f 21;
#X text 508 559 delay for rstop \, if defined, f 11;
#X text 703 409 get back to 'line' if accidentally stuck;
#X floatatom 327 484 10 0 0 0 - - -;
#X floatatom 563 502 10 0 0 0 - - -;
#X obj 466 655 bng 15 250 50 0 empty empty empty 17 7 0 10 -262144
-1 -1;
#X obj 260 592 bng 15 250 50 0 empty empty empty 17 7 0 10 -262144
-1 -1;
#X obj 262 515 t b b b;
#X obj 498 91 s \$0-STOP;
#X obj 686 35 r \$0-RSTOP;
#X obj 403 129 list;
#X obj 452 62 t b a b;
#X obj 385 89 del 100;
#X text 312 81 wait for stopfader, f 9;
#X obj 624 185 t b b b;
#X obj 622 258 s \$0|\$1-RECSTOP;
#X obj 453 379 writesf~ 2;
#X obj 239 41 inlet~;
#X connect 0 0 42 0;
#X connect 1 0 47 0;
#X connect 4 0 2 0;
#X connect 5 0 47 0;
#X connect 6 0 47 0;
#X connect 7 0 47 0;
#X connect 15 0 45 0;
#X connect 16 0 26 0;
#X connect 16 1 30 0;
#X connect 16 2 1 0;
#X connect 16 3 6 0;
#X connect 16 4 4 0;
#X connect 19 0 16 0;
#X connect 22 0 36 0;
#X connect 22 0 45 0;
#X connect 23 0 22 0;
#X connect 24 0 23 1;
#X connect 25 0 24 0;
#X connect 25 1 22 1;
#X connect 26 0 28 0;
#X connect 26 2 21 0;
#X connect 27 0 25 0;
#X connect 27 0 35 0;
#X connect 28 0 38 0;
#X connect 29 0 28 1;
#X connect 29 0 34 0;
#X connect 30 0 29 0;
#X connect 30 1 27 0;
#X connect 38 0 5 0;
#X connect 38 0 37 0;
#X connect 38 1 21 1;
#X connect 38 2 23 0;
#X connect 40 0 45 0;
#X connect 41 0 19 0;
#X connect 42 0 43 0;
#X connect 42 1 41 1;
#X connect 42 2 39 0;
#X connect 43 0 41 0;
#X connect 45 0 46 0;
#X connect 45 1 6 0;
#X connect 45 2 21 2;
#X connect 48 0 47 1;
#X restore 779 612 pd \$0-REC;
#X obj 764 639 print RECORD_EB;
#X obj 213 946 outlet~;
#X obj 279 947 outlet~;
#N canvas 1505 862 2335 1298 \$0-PLAYER 0;
#X obj 134 56 inlet;
#X obj 549 50 inlet;
#X text 550 24 stop;
#X text 136 32 play;
#X obj 754 55 inlet;
#X obj 878 60 inlet;
#X obj 962 60 inlet;
#X text 751 27 dir;
#X text 876 28 file;
#X text 957 29 trimfader;
#N canvas 974 180 1600 1400 \$0-SET-TRIMFADER 0;
#X obj 198 73 inlet;
#X obj 360 188 symbol;
#X obj 359 224 gpp-svalue x\$0_trimfader_type;
#X obj 198 118 route time type;
#X obj 382 92 loadbang;
#X msg 441 172 symbol hsin;
#X text 20 360 NOTE: trimfader_time is symbol-data time def;
#X msg 385 127 float 100;
#X obj 121 219 v x\$0_trimfader_time_ms;
#X msg 81 131 100;
#X obj 121 169 bng 15 250 50 0 empty empty empty 17 7 0 10 -262144
-1 -1;
#X floatatom 112 260 5 0 0 0 - - -;
#X connect 0 0 3 0;
#X connect 1 0 2 0;
#X connect 3 0 8 0;
#X connect 3 1 1 0;
#X connect 4 0 7 0;
#X connect 4 0 5 0;
#X connect 5 0 2 0;
#X connect 7 0 8 0;
#X connect 8 0 11 0;
#X connect 9 0 8 0;
#X connect 10 0 8 0;
#X restore 960 93 pd \$0-SET-TRIMFADER;
#N canvas 1416 564 2252 1438 \$0-DIR-FILE-PATH 0;
#X obj 482 41 inlet;
#X obj 482 83 symbol;
#X obj 488 219 gpp-svalue x\$0_file;
#N canvas 454 329 1535 1371 \$0-ASSEMBLE-PATH 0;
#X obj 72 32 inlet;
#X obj 184 530 outlet;
#X obj 346 355 makefilename %s/%%s;
#X msg 346 302 set \$1/%s;
#X obj 202 268 gpp-svalue x\$0_file;
#X obj 346 271 text get airdir;
#X msg 346 236 0;
#X obj 72 120 gpp-route-prefix 47;
#X obj 72 96 gpp-svalue x\$0_file;
#X obj 72 64 t b;
#X obj 202 175 t b b;
#X obj 71 322 makefilename /%s;
#X obj 171 421 gpp-getfilename;
#X obj 70 353 t s s;
#X obj 338 535 outlet;
#X text 162 554 PATH;
#X text 326 565 FILENAME;
#X obj 21 425 print MAKEFILENAME;
#X connect 0 0 9 0;
#X connect 2 0 1 0;
#X connect 3 0 2 0;
#X connect 4 0 2 0;
#X connect 5 0 3 0;
#X connect 6 0 5 0;
#X connect 7 0 11 0;
#X connect 7 1 10 0;
#X connect 8 0 7 0;
#X connect 9 0 8 0;
#X connect 10 0 4 0;
#X connect 10 1 6 0;
#X connect 11 0 13 0;
#X connect 11 0 17 0;
#X connect 12 0 14 0;
#X connect 13 0 1 0;
#X connect 13 1 12 0;
#X restore 316 216 pd \$0-ASSEMBLE-PATH;
#X obj 348 296 gpp-svalue x\$0_path;
#X obj 44 382 print \$1|PATH;
#X obj 316 266 t s s;
#X obj 47 417 print \$1|DURATION;
#X floatatom 321 537 5 0 0 0 - - -;
#X obj 319 457 * 1000;
#X obj 321 499 v x\$0_file_duration_ms;
#X obj 316 176 bng 15 250 50 0 empty empty empty 17 7 0 10 -262144
-1 -1;
#X obj 421 125 t b b s s;
#X obj 746 437 outlet;
#X obj 625 262 s MON|\$0|\$1-filename;
#X obj 317 350 gpp-afparams2;
#X obj 319 414 route duration;
#X obj 182 304 print PATH;
#X obj 535 438 s \$0|\$1-filename;
#X msg 535 406 label \$1;
#X obj 419 262 print ASSEMBLE_FN;
#X connect 0 0 1 0;
#X connect 1 0 12 0;
#X connect 3 0 6 0;
#X connect 3 1 2 0;
#X connect 3 1 13 0;
#X connect 3 1 19 0;
#X connect 3 1 20 0;
#X connect 6 0 15 0;
#X connect 6 0 17 0;
#X connect 6 1 4 0;
#X connect 9 0 10 0;
#X connect 10 0 8 0;
#X connect 11 0 3 0;
#X connect 12 0 3 0;
#X connect 12 2 2 0;
#X connect 12 3 13 0;
#X connect 15 0 16 0;
#X connect 16 0 9 0;
#X connect 19 0 18 0;
#X restore 156 311 pd \$0-DIR-FILE-PATH;
#X obj 724 158 print \$1|DIR;
#X obj 879 262 print \$1|FILE;
#X text 907 206 NOTE: 'file' will now query for the actuall path,
f 20;
#X obj 149 133 list split 1;
#X obj 133 185 list;
#N canvas 0 225 450 300 \$0-SEND-FILE-PATH 0;
#X obj 52 21 inlet;
#X restore 908 185 pd \$0-SEND-FILE-PATH;
#X obj 472 48 r \$0-STOP;
#X obj 214 94 s \$0-RSTOP;
#X text 717 13 no more per-track dir;
#X obj 134 95 t b a b b;
#N canvas 1381 221 2459 1884 \$0-SCHEDULE-PLAY 0;
#X obj 381 49 inlet;
#X text 291 -12 route 2 trimstart & trimend = IF!;
#X text 480 343 first \, underlay the defaults;
#X obj 405 538 expr $f3 - $f2;
#X obj 433 372 t b f;
#X obj 570 377 t b f;
#X obj 400 120 t b a;
#X obj 487 297 float 0;
#X obj 487 371 t b f;
#X obj 619 375 t b f;
#N canvas 960 228 2880 1453 \$0-TRIG-STEREO-MONO 0;
#X obj 188 16 inlet;
#X obj 70 312 symbol;
#X obj 70 238 sel 1 2;
#X text 269 192 mono or stereo;
#X obj 260 310 symbol;
#X obj 71 513 s \$0-MPLAY;
#X obj 251 511 s \$0-SPLAY;
#X obj 188 87 gpp-svalue x\$0_path;
#X floatatom 25 253 5 0 0 0 - - -;
#X obj 188 126 t s s s;
#X obj 188 51 t b b;
#X obj 591 202 gpp-svalue x\$0_path;
#X obj 612 164 print ============PLAY=========;
#X obj 534 321 v x\$0_trimstart_ms;
#X obj 512 384 v x\$0_trimend_ms;
#X obj 592 228 print ||PATH;
#X obj 532 347 print ||TRIMSTART;
#X obj 512 410 print ||TRIMEND;
#X obj 458 529 v x\$0_play_delay_ms;
#X obj 457 560 print ||PLAYDELAY;
#X obj 482 456 v x\$0_trimmed_duration_ms;
#X obj 481 488 print ||TRIMMEDDURATION;
#X obj 428 593 v x\$0_loopswitch;
#X obj 427 621 print ||LOOPSWITCH;
#X obj 574 267 v x\$0_file_duration_ms;
#X obj 466 126 t b b b b b b b b b b;
#X obj 577 291 print ||FILEDURATION;
#X obj 791 277 v x\$0_trimfader_time_ms;
#X obj 788 319 print ||TRIMFADER_TIME;
#X obj 260 378 t s b;
#X obj 71 375 t s b;
#X obj 222 573 s __SELFCOM;
#X obj 103 410 \$1;
#X msg 105 447 \$1 mono;
#X msg 290 438 \$1 stereo;
#X obj 289 405 \$1;
#X text 223 593 activate the appropriate mode, f 15;
#X obj 69 156 gpp-afparams2;
#X obj 70 208 route channels;
#X connect 0 0 10 0;
#X connect 1 0 30 0;
#X connect 2 0 1 0;
#X connect 2 1 4 0;
#X connect 4 0 29 0;
#X connect 7 0 9 0;
#X connect 9 0 37 0;
#X connect 9 1 1 1;
#X connect 9 2 4 1;
#X connect 10 0 7 0;
#X connect 10 1 25 0;
#X connect 11 0 15 0;
#X connect 13 0 16 0;
#X connect 14 0 17 0;
#X connect 18 0 19 0;
#X connect 20 0 21 0;
#X connect 22 0 23 0;
#X connect 24 0 26 0;
#X connect 25 0 22 0;
#X connect 25 1 18 0;
#X connect 25 2 20 0;
#X connect 25 3 14 0;
#X connect 25 4 13 0;
#X connect 25 6 27 0;
#X connect 25 7 24 0;
#X connect 25 8 11 0;
#X connect 25 9 12 0;
#X connect 27 0 28 0;
#X connect 29 0 6 0;
#X connect 29 1 35 0;
#X connect 30 0 5 0;
#X connect 30 1 32 0;
#X connect 32 0 33 0;
#X connect 33 0 31 0;
#X connect 34 0 31 0;
#X connect 35 0 34 0;
#X connect 37 0 38 0;
#X connect 38 0 2 0;
#X connect 38 0 8 0;
#X restore 452 828 pd \$0-TRIG-STEREO-MONO;
#X obj 433 254 gpp-timing2ms;
#X obj 570 287 gpp-timing2ms;
#X obj 433 428 v x\$0_trimstart_ms;
#X obj 571 426 v x\$0_trimend_ms;
#X obj 619 322 v x\$0_file_duration_ms;
#X obj 484 674 v x\$0_trimmed_duration_ms;
#X obj 525 86 unpack s s s;
#X obj 381 84 t b a b b b;
#X obj 792 421 v x\$0_play_delay_ms;
#X obj 798 364 gpp-timing2ms;
#X floatatom 840 480 20 0 0 0 - - -;
#X floatatom 580 472 20 0 0 0 - - -;
#X floatatom 424 475 20 0 0 0 - - -;
#X obj 188 129 print ##SCHEDULEPLAY;
#X symbolatom 162 423 10 0 0 0 - - -;
#X symbolatom 165 448 10 0 0 0 - - -;
#X symbolatom 1022 486 10 0 0 0 - - -;
#X symbolatom 1020 459 10 0 0 0 - - -;
#X symbolatom 1020 433 10 0 0 0 - - -;
#X symbolatom 166 473 10 0 0 0 - - -;
#X obj 413 180 gpp-route-prefix 43;
#X obj 564 182 gpp-route-prefix 43;
#X obj 712 182 gpp-route-prefix 43;
#X symbolatom 583 142 10 0 0 0 - - -;
#X symbolatom 672 141 10 0 0 0 - - -;
#X msg 849 306 float 0;
#X obj 406 578 moses 0;
#X msg 406 721 NEGATIVE CLIP DEFINITION - SKIPPING;
#X obj 406 748 print (!);
#X obj 452 609 t b b f;
#X symbolatom 494 138 10 0 0 0 - - -;
#X obj 721 61 unpack f f f;
#X floatatom 717 91 5 0 0 0 - - -;
#X floatatom 753 114 5 0 0 0 - - -;
#X floatatom 806 121 5 0 0 0 - - -;
#X obj 526 30 gpp-switch2;
#X obj 615 28 tgl 15 0 empty empty empty 17 7 0 10 -262144 -1 -1 0
1;
#X text 722 38 milisec format;
#X text 537 63 HR format;
#X obj 599 0 r __NONHUMAN;
#X text 440 850 CALL THE APROPRIATE PLAYER;
#X connect 0 0 18 0;
#X connect 0 0 24 0;
#X connect 3 0 37 0;
#X connect 4 0 13 0;
#X connect 4 1 13 0;
#X connect 4 1 23 0;
#X connect 5 0 14 0;
#X connect 5 1 14 0;
#X connect 5 1 22 0;
#X connect 6 0 3 0;
#X connect 6 1 46 0;
#X connect 7 0 8 0;
#X connect 8 0 13 0;
#X connect 8 1 13 0;
#X connect 8 1 23 0;
#X connect 9 0 14 0;
#X connect 9 1 14 0;
#X connect 9 1 22 0;
#X connect 11 0 4 0;
#X connect 12 0 5 0;
#X connect 15 0 9 0;
#X connect 17 0 31 0;
#X connect 17 0 41 0;
#X connect 17 1 32 0;
#X connect 17 1 34 0;
#X connect 17 2 33 0;
#X connect 17 2 35 0;
#X connect 18 1 6 0;
#X connect 18 2 7 0;
#X connect 18 3 15 0;
#X connect 18 4 36 0;
#X connect 20 0 19 0;
#X connect 20 0 21 0;
#X connect 22 0 3 2;
#X connect 23 0 3 1;
#X connect 31 0 20 0;
#X connect 31 0 25 0;
#X connect 31 1 11 0;
#X connect 31 1 29 0;
#X connect 32 0 20 0;
#X connect 32 0 26 0;
#X connect 32 1 12 0;
#X connect 32 1 28 0;
#X connect 33 0 20 0;
#X connect 33 0 30 0;
#X connect 33 1 27 0;
#X connect 36 0 19 0;
#X connect 36 0 21 0;
#X connect 37 0 38 0;
#X connect 37 1 40 0;
#X connect 38 0 39 0;
#X connect 40 0 10 0;
#X connect 40 1 16 0;
#X connect 40 2 16 0;
#X connect 42 0 43 0;
#X connect 42 0 4 0;
#X connect 42 1 44 0;
#X connect 42 1 5 0;
#X connect 42 2 45 0;
#X connect 42 2 19 0;
#X connect 46 0 17 0;
#X connect 46 1 42 0;
#X connect 50 0 46 1;
#X connect 50 0 47 0;
#X restore 132 253 pd \$0-SCHEDULE-PLAY;
#N canvas 1673 180 1600 1400 \$0-ENDFADER-NOW 0;
#X obj 81 476 outlet;
#X obj 201 475 outlet;
#X obj 174 51 inlet;
#X obj 76 53 inlet;
#X obj 79 330 gpp-endfaderbang;
#X obj 79 197 pack 0 f f;
#X obj 155 130 v x\$0_trimfader_time_ms;
#X obj 80 227 list split 1;
#X obj 80 277 bang;
#X obj 128 93 bng 15 250 50 0 empty empty empty 17 7 0 10 -262144 -1
-1;
#X connect 2 0 6 0;
#X connect 3 0 5 0;
#X connect 4 0 0 0;
#X connect 4 1 1 0;
#X connect 5 0 7 0;
#X connect 6 0 5 2;
#X connect 6 0 5 1;
#X connect 7 0 8 0;
#X connect 7 1 4 1;
#X connect 8 0 4 0;
#X connect 9 0 6 0;
#X restore 490 150 pd \$0-ENDFADER-NOW;
#X obj 490 178 s \$0-PLAY-ENDF;
#X obj 645 208 s \$0-PLAY-STOP;
#X obj 512 335 s \$0|\$1-time-remaining;
#X msg 511 288 label;
#X obj 546 91 t b b b;
#X obj 595 52 bng 15 250 50 0 empty empty empty 17 7 0 10 -262144 -1
-1;
#X obj 613 176 t b b;
#X obj 671 387 \$1;
#X text 686 439 stripe background color;
#X msg 706 317 color -4.78455e+06;
#X obj 670 507 print COLOR_STOP;
#X obj 670 418 expr if ($f1 % 2 != 0 \, -203904 \, -158848) \;, f
42;
#X msg 670 460 color \$1;
#X obj 156 341 outlet;
#X obj 489 392 s \$0|\$1-PLAYSTOP;
#X text 629 232 this one is used in stereo player, f 19;
#X obj 215 54 bng 15 250 50 0 empty empty empty 17 7 0 10 -262144 -1
-1;
#X text 217 341 monitor path;
#X obj 488 244 t b b b b;
#X obj 415 348 bng 15 250 50 0 empty empty empty 17 7 0 10 -262144
-1 -1;
#X connect 0 0 21 0;
#X connect 1 0 28 0;
#X connect 4 0 12 0;
#X connect 5 0 17 0;
#X connect 5 0 13 0;
#X connect 6 0 10 0;
#X connect 11 0 37 0;
#X connect 15 0 11 0;
#X connect 15 1 16 1;
#X connect 16 0 22 0;
#X connect 18 0 28 0;
#X connect 21 0 16 0;
#X connect 21 1 15 0;
#X connect 21 2 19 0;
#X connect 23 0 24 0;
#X connect 23 1 30 0;
#X connect 27 0 26 0;
#X connect 28 1 23 0;
#X connect 28 2 23 1;
#X connect 29 0 28 0;
#X connect 30 0 42 0;
#X connect 30 1 25 0;
#X connect 31 0 35 0;
#X connect 35 0 36 0;
#X connect 36 0 26 0;
#X connect 40 0 19 0;
#X connect 42 0 43 0;
#X connect 42 1 38 0;
#X connect 42 2 27 0;
#X connect 42 3 31 0;
#X restore 757 484 pd \$0-PLAYER;
#N canvas 3271 538 253 1085 \$0-MONITOR 0;
#X obj 14 8 cnv 15 100 400 empty empty \$1 37 12 0 14 -203904 -83269
0;
#X obj 20 301 tgl 15 0 empty \$0|\$1-fader-rf empty 17 7 0 10 -262130
-1 -1 1 1;
#X obj 79 222 tgl 15 0 empty \$0|\$1-pan-rf empty 17 7 0 10 -203904
-1 -1 1 1;
#X obj 35 202 hsl 64 15 0 1 0 0 empty \$0|\$1-pan-state empty -2 -8
0 10 -258699 -1 -1 0 1;
#X floatatom 41 382 5 0 0 0 - - -;
#X floatatom 32 221 5 0 0 0 - - -;
#X obj 41 255 vsl 18 120 0 1 0 0 empty \$0|\$1-fader-state empty 0
-9 0 10 -262144 -1 -1 14000 1;
#X obj 24 164 tgl 18 0 foo \$0|\$1-loop-active LOOP 22 10 0 6 -233017
-233017 -1 0 1;
#X obj 23 62 vsl 8 80 0 1 0 0 empty \$0|\$1-gs-line L 0 -9 0 6 -261682
-1 -1 0 1;
#X obj 34 62 vsl 8 80 0 1 0 0 empty \$0|\$1-gs-stereo S 0 -9 0 6 -232576
-1 -1 0 1;
#X obj 45 62 vsl 8 80 0 1 0 0 empty \$0|\$1-gs-mono M 0 -9 0 6 -204800
-1 -1 0 1;
#X obj 14 445 cnv 15 100 30 empty \$0|\$1-time-remaining empty 12 15
0 7 -480 -262130 0;
#X obj 63 255 vu 10 120 \$0|\$1-vu-l empty -1 -8 0 10 -66577 -1 0 0
;
#X obj 76 255 vu 10 120 \$0|\$1-vu-r empty -1 -8 0 4 -66577 -1 1 0
;
#X obj 65 62 vu 8 80 \$0|\$1-svu-l empty -1 -8 0 4 -159808 -1 0 0;
#X obj 76 62 vu 8 80 \$0|\$1-svu-r empty -1 -8 0 4 -159808 -1 1 0;
#X obj 14 412 cnv 15 100 30 empty \$0|\$1-filename one_[1+2] 2 15 0
6 -203904 -83269 0;
#X connect 3 0 5 0;
#X connect 6 0 4 0;
#X restore 1174 102 pd \$0-MONITOR;
#N canvas 1177 180 1600 1400 \$0-OPEN-MONITOR 0;
#X obj 267 154 \$0;
#X obj 401 141 bng 15 250 50 0 empty empty empty 17 7 0 10 -262144
-1 -1;
#X obj 268 128 loadbang;
#X obj 248 194 pack f f;
#X obj 219 46 inlet;
#X msg 248 221 \; pd-\$2-MONITOR vis \$1;
#X msg 226 78 1;
#X msg 258 78 0;
#X obj 268 46 inlet;
#X obj 178 128 t f b;
#X connect 0 0 3 1;
#X connect 1 0 0 0;
#X connect 2 0 0 0;
#X connect 3 0 5 0;
#X connect 4 0 6 0;
#X connect 6 0 9 0;
#X connect 7 0 3 0;
#X connect 8 0 7 0;
#X connect 9 0 3 0;
#X restore 905 448 pd \$0-OPEN-MONITOR;
#N canvas 0 180 1408 1553 \$0-audio-monitor 0;
#X obj 151 175 s \$0|\$1-vu-r;
#X obj 33 177 s \$0|\$1-vu-l;
#X obj 37 8 inlet~;
#X obj 118 7 inlet~;
#X obj 172 46 loadbang;
#X msg 192 78 6000;
#X obj 39 107 gpp-vufeeder;
#X obj 143 110 gpp-vufeeder;
#X connect 2 0 6 0;
#X connect 3 0 7 0;
#X connect 4 0 5 0;
#X connect 5 0 6 1;
#X connect 5 0 7 1;
#X connect 6 0 1 0;
#X connect 7 0 0 0;
#X restore 18 899 pd \$0-audio-monitor;
#N canvas 949 180 2636 1388 \$0-LOOP 0;
#X obj 65 27 inlet;
#X obj 65 136 outlet;
#X obj 65 66 t a b;
#X msg 221 123 1;
#X obj 301 132 loadbang;
#X msg 301 174 0;
#X obj 325 284 s \$0-LOOPSWITCH;
#X obj 102 304 s \$0|\$1-loop-active;
#X obj 518 63 r \$0-LOOPSWITCH;
#X obj 518 100 v x\$0_loopswitch;
#X text 653 84 also store;
#X obj 278 332 s \$0|\$1-loop-active-OSC;
#X msg 145 185 color 14;
#X msg 195 224 color 10;
#X connect 0 0 2 0;
#X connect 2 0 1 0;
#X connect 2 1 3 0;
#X connect 2 1 12 0;
#X connect 3 0 6 0;
#X connect 3 0 11 0;
#X connect 4 0 5 0;
#X connect 4 0 13 0;
#X connect 5 0 6 0;
#X connect 5 0 11 0;
#X connect 8 0 9 0;
#X connect 12 0 7 0;
#X connect 13 0 7 0;
#X restore 876 286 pd \$0-LOOP;
#N canvas 0 180 1870 849 \$0-DELOOP 0;
#X obj 207 144 s \$0-LOOPSWITCH;
#X msg 82 76 0;
#X obj 137 247 s \$0|\$1-loop-active;
#X obj 82 39 inlet;
#X obj 46 332 s \$0|\$1-loop-active-OSC;
#X msg 137 217 color 10;
#X obj 137 189 bang;
#X connect 1 0 0 0;
#X connect 1 0 4 0;
#X connect 1 0 6 0;
#X connect 3 0 1 0;
#X connect 5 0 2 0;
#X connect 6 0 5 0;
#X restore 795 344 pd \$0-DELOOP;
#N canvas 1088 549 2101 965 \$0-TRACKMON-OSC 0;
#X obj 521 20 loadbang;
#X obj 518 145 netsend -u -b;
#X floatatom 519 181 5 0 0 0 - - -;
#N canvas 1190 570 2558 1333 \$0-OSC_TRACK 0;
#X obj 806 613 outlet;
#X text 792 17 forward local MIXER signals to OSC out (airmon);
#N canvas 0 180 1819 1406 \$0-HANDLE-TRACK-SNAPSHOT 0;
#X obj 332 378 outlet;
#X obj 302 210 spigot;
#X obj 356 210 spigot;
#X obj 358 38 inlet;
#X obj 355 69 t f f;
#X obj 464 41 r \$0|\$1-pan-state-OSC;
#X obj 33 38 r \$0|\$1-fader-state-OSC;
#X obj 33 69 oscformat -f f airmon snapshot \$1 fader;
#X obj 463 76 oscformat -f f airmon snapshot \$1 pan;
#X obj 459 192 cnv 15 100 60 empty empty empty 20 12 0 14 -4034 -66577
0;
#X connect 1 0 0 0;
#X connect 2 0 0 0;
#X connect 3 0 4 0;
#X connect 4 0 1 1;
#X connect 4 1 2 1;
#X connect 5 0 8 0;
#X connect 6 0 7 0;
#X connect 7 0 1 0;
#X connect 8 0 2 0;
#X restore 613 484 pd \$0-HANDLE-TRACK-SNAPSHOT;
#N canvas 486 180 2625 939 \$0-HANDLE-TRACK-REQUEST 0;
#X text 72 30 original request \, as received;
#X obj 432 332 outlet;
#X obj 422 38 inlet;
#X obj 519 275 spigot;
#X obj 517 120 spigot;
#X text 618 110 HERE \, only the two "fake" or "imposed" requests remain
\; all the rest has been handled during the early phase request sender
\, whether track or master request.;
#X obj 520 247 oscformat airmon request \$1 timer record;
#X obj 513 71 oscformat airmon request \$1 timer play;
#X obj 513 13 r \$0|\$1-play-timer-request;
#X obj 519 183 r \$0|\$1-record-timer-request;
#N canvas 908 180 2880 1453 \$0-PERSIST 0;
#X obj 380 129 inlet;
#X obj 523 129 inlet;
#X obj 396 19 r \$0-REFRESHMIX;
#X obj 988 23 r \$0-REFRESHCON;
#X text 384 270 green, f 7;
#X obj 394 490 s \$0|\$1-time-remaining;
#X msg 394 455 color \$1;
#X obj 988 495 outlet;
#X msg 380 291 -510465;
#X msg 521 283 -1.35785e+07;
#X text 529 262 red;
#X obj 988 426 float;
#X obj 988 48 bang;
#X obj 664 284 expr if ($f1 % 2 != 0 \, -203904 \, -158848) \;, f
42;
#X obj 664 253 \$1;
#X obj 664 213 loadbang;
#X text 755 247 orig background color;
#X obj 380 193 sel start stop;
#X obj 523 191 sel start stop;
#X obj 396 406 float;
#X obj 396 46 bang;
#X obj 304 341 bng 15 250 50 0 empty empty empty 17 7 0 10 -262144
-1 -1;
#X connect 0 0 17 0;
#X connect 1 0 18 0;
#X connect 2 0 20 0;
#X connect 3 0 12 0;
#X connect 6 0 5 0;
#X connect 8 0 19 1;
#X connect 8 0 11 1;
#X connect 9 0 19 1;
#X connect 9 0 11 1;
#X connect 11 0 7 0;
#X connect 12 0 11 0;
#X connect 13 0 11 1;
#X connect 13 0 19 1;
#X connect 14 0 13 0;
#X connect 15 0 14 0;
#X connect 17 0 8 0;
#X connect 17 1 14 0;
#X connect 18 0 9 0;
#X connect 18 1 14 0;
#X connect 19 0 6 0;
#X connect 20 0 19 0;
#X connect 21 0 19 0;
#X restore 112 159 pd \$0-PERSIST;
#X obj 514 41 t a a;
#X obj 518 218 t a a;
#X obj 112 205 oscformat airmon request \$1 timer cnv color;
#X text 26 68 ALL OF THIS IS SOFT PERSISTENCE \, SHOULD REMAIN;
#X obj 20 93 cnv 15 100 60 empty empty empty 20 12 0 14 -4034 -66577
0;
#X connect 2 0 4 1;
#X connect 2 0 3 1;
#X connect 3 0 1 0;
#X connect 4 0 1 0;
#X connect 6 0 3 0;
#X connect 7 0 4 0;
#X connect 8 0 11 0;
#X connect 9 0 12 0;
#X connect 10 0 13 0;
#X connect 11 0 10 0;
#X connect 11 1 7 0;
#X connect 12 0 10 1;
#X connect 12 1 6 0;
#X connect 13 0 1 0;
#X restore 381 475 pd \$0-HANDLE-TRACK-REQUEST;
#N canvas 513 180 3283 1723 \$0-HANDLE-TRACK-CONTOUR 0;
#X obj 376 4 inlet;
#X obj 574 826 outlet;
#X obj 375 41 t f f f f f f f f;
#X obj 46 61 spigot;
#X obj 111 528 oscformat -f i airmon contour \$1 rf fader;
#X obj 141 691 oscformat -f i airmon contour \$1 rf pan;
#X obj 95 377 oscformat -f f airmon contour \$1 vr pan;
#X obj 1016 453 oscformat -f i airmon contour \$1 ac player;
#X obj 1017 577 oscformat -f i airmon contour \$1 ac recorder;
#X obj 545 288 oscformat -f i airmon contour \$1 ac loop;
#X obj 1017 421 spigot;
#X obj 1017 546 spigot;
#X obj 544 233 spigot;
#X obj 545 170 r \$0|\$1-loop-active-OSC;
#X obj 1017 493 r \$0|\$1-recorder-ac;
#X obj 1017 368 r \$0|\$1-player-ac;
#X obj 46 26 r \$0|\$1-fader-vr;
#X obj 95 311 r \$0|\$1-pan-vr;
#X obj 96 343 spigot;
#X obj 109 456 r \$0|\$1-fader-rf;
#X obj 111 489 spigot;
#X obj 140 611 r \$0|\$1-pan-rf;
#X obj 140 651 spigot;
#X floatatom 327 34 5 0 0 0 - - -;
#N canvas 787 180 2697 1364 \$0-PERSIST 0;
#X obj 87 30 inlet;
#X obj 190 31 inlet;
#X obj 308 32 inlet;
#X obj 416 33 inlet;
#X obj 102 137 bang;
#X obj 423 348 outlet;
#X obj 525 351 outlet;
#X obj 633 353 outlet;
#X obj 732 352 outlet;
#X obj 336 143 bang;
#X obj 505 32 inlet;
#X obj 336 182 pack f f f f f f;
#X obj 336 218 unpack f f f f f f;
#X obj 157 186 pack f f f f f f;
#X obj 157 215 unpack f f f f f f;
#X obj 63 326 s \$0|\$1-fader-state;
#X obj 71 377 s \$0|\$1-pan-state;
#X obj 244 374 s \$0|\$1-pan-rf;
#X obj 284 504 s \$0|\$1-loop-active;
#X obj 800 354 outlet;
#X obj 224 328 s \$0|\$1-fader-rf;
#X obj 286 423 sel 0 1;
#X obj 615 37 r \$0-REFRESHMIX;
#X obj 750 37 r \$0-REFRESHCON;
#X obj 19 451 s \$0|\$1-fader-state-sender-rec;
#X obj 69 544 s \$0|\$1-pan-state-sender-rec;
#X msg 18 420 set \$1;
#X msg 67 505 set \$1;
#X msg 269 469 color 10 10;
#X msg 372 470 color 14 14;
#X obj 91 103 bng 15 250 50 0 empty empty empty 17 7 0 10 -262144 -1
-1;
#X connect 0 0 11 1;
#X connect 0 0 13 1;
#X connect 1 0 11 2;
#X connect 1 0 13 2;
#X connect 2 0 11 3;
#X connect 2 0 13 3;
#X connect 3 0 11 4;
#X connect 3 0 13 4;
#X connect 4 0 13 0;
#X connect 9 0 11 0;
#X connect 10 0 11 5;
#X connect 10 0 13 5;
#X connect 11 0 12 0;
#X connect 12 1 5 0;
#X connect 12 2 6 0;
#X connect 12 3 7 0;
#X connect 12 4 8 0;
#X connect 12 5 19 0;
#X connect 13 0 14 0;
#X connect 14 5 21 0;
#X connect 21 0 28 0;
#X connect 21 1 29 0;
#X connect 22 0 4 0;
#X connect 23 0 9 0;
#X connect 26 0 24 0;
#X connect 27 0 25 0;
#X connect 28 0 18 0;
#X connect 29 0 18 0;
#X connect 30 0 4 0;
#X restore 411 260 pd \$0-PERSIST;
#X text 1007 336 ac 0 SHOULD RESET ALL PLASYRECORD COLOURS;
#X text 626 823 TO NETSEND;
#X obj 48 123 oscformat -f f airmon contour \$1 vr fader;
#X text 531 103 here \, just loop actiove will be made soft-persistent
(surviving display restart but not app restart). loop active can not
survive app restart \, no point;
#X obj 409 294 cnv 15 100 60 empty empty empty 20 12 0 14 -4034 -66577
0;
#X obj 1266 31 r \$0-RESTORE_OSC_TRACK;
#X obj 1268 68 spigot;
#X obj 1271 111 route fader pan;
#X obj 1194 168 oscformat -f f airmon contour \$1 rest fader;
#X obj 1194 210 oscformat -f f airmon contour \$1 rest pan;
#X connect 0 0 2 0;
#X connect 0 0 23 0;
#X connect 2 0 3 1;
#X connect 2 1 18 1;
#X connect 2 2 20 1;
#X connect 2 3 22 1;
#X connect 2 4 12 1;
#X connect 2 5 10 1;
#X connect 2 6 11 1;
#X connect 2 7 31 1;
#X connect 3 0 27 0;
#X connect 4 0 1 0;
#X connect 5 0 1 0;
#X connect 6 0 1 0;
#X connect 7 0 1 0;
#X connect 8 0 1 0;
#X connect 9 0 1 0;
#X connect 10 0 7 0;
#X connect 11 0 8 0;
#X connect 12 0 9 0;
#X connect 12 0 24 4;
#X connect 13 0 12 0;
#X connect 14 0 11 0;
#X connect 15 0 10 0;
#X connect 16 0 3 0;
#X connect 17 0 18 0;
#X connect 18 0 6 0;
#X connect 19 0 20 0;
#X connect 20 0 4 0;
#X connect 21 0 22 0;
#X connect 22 0 5 0;
#X connect 24 4 9 0;
#X connect 27 0 1 0;
#X connect 30 0 31 0;
#X connect 31 0 32 0;
#X connect 32 0 33 0;
#X connect 32 1 34 0;
#X connect 33 0 1 0;
#X connect 34 0 1 0;
#X restore 837 485 pd \$0-HANDLE-TRACK-CONTOUR;
#N canvas 0 180 3840 1980 \$0-HANDLE-TRACK-ETC 0;
#X obj 955 896 outlet;
#X obj 80 397 r \$0|\$1-input-track;
#X obj 80 434 oscformat -f i airmon etc \$1 input;
#X obj 1074 166 r \$0|\$1-TRACK_MUTE;
#X obj 1074 222 oscformat -f i airmon etc \$1 setmute;
#X obj 1482 61 r \$0|\$1-PRELISTEN_TRACK_MUTE;
#X obj 1482 103 oscformat -f i airmon etc \$1 setpremute;
#X obj 1057 49 r \$0|\$1-PRELISTEN_TRACK_LEVEL;
#X obj 1068 94 oscformat -f f airmon etc \$1 setprelevel;
#N canvas 226 1218 2371 1260 \$0-PERSIST 0;
#X obj 235 18 inlet;
#X obj 345 17 inlet;
#X obj 397 17 inlet;
#X obj 451 16 inlet;
#X obj 240 127 bang;
#X obj 577 346 outlet;
#X obj 641 347 outlet;
#X obj 692 348 outlet;
#X obj 742 347 outlet;
#X obj 833 89 bang;
#X obj 505 17 inlet;
#X obj 794 349 outlet;
#X obj 6 99 r \$0-REFRESHMIX;
#X obj 64 71 r \$0-REFRESHCON;
#X obj 267 298 s \$0|\$1-filename;
#X msg 267 271 label \$1;
#X obj 269 382 s \$0|\$1-input-track;
#X obj 374 350 s \$0|\$1-prelisten-level;
#X obj 49 14 loadbang;
#X obj 50 150 symbol ------IN------;
#X obj 555 17 inlet;
#N canvas 2358 677 1353 976 \$0-prelisten 0;
#X obj 68 188 s \$0|\$1-prelisten-track;
#X msg 70 148 color 10;
#X obj 89 81 sel 1 0;
#X msg 143 147 color 14;
#X obj 92 41 inlet;
#X msg 51 54 1;
#X connect 1 0 0 0;
#X connect 2 0 1 0;
#X connect 2 1 3 0;
#X connect 3 0 0 0;
#X connect 4 0 2 0;
#X connect 5 0 2 0;
#X restore 297 441 pd \$0-prelisten;
#X obj 842 348 outlet;
#N canvas 0 180 1156 1122 \$0-mute 0;
#X obj 52 27 inlet;
#X msg 36 120 color 10;
#X obj 53 74 sel 0 1;
#X msg 105 118 color 13;
#X obj 35 173 s \$0|\$1-mute;
#X connect 0 0 2 0;
#X connect 1 0 4 0;
#X connect 2 0 1 0;
#X connect 2 1 3 0;
#X connect 3 0 4 0;
#X restore 129 299 pd \$0-mute;
#X obj 603 17 inlet;
#X obj 890 349 outlet;
#N canvas 2095 222 1439 1030 \$0-ismono 0;
#X obj 226 328 s \$0|\$1-inbound-diodes-S;
#X obj 60 408 s \$0|\$1-inbound-diode-M;
#X obj 305 240 s \$0|\$1-pan-enabled-diode;
#X msg 284 194 color 13;
#X obj 74 125 sel 0 1;
#X msg 281 293 color 16;
#X msg 121 373 color 16;
#X obj 72 62 inlet;
#X msg 45 372 color 90;
#X msg 214 294 color 90;
#X msg 293 166 color 90;
#X connect 3 0 2 0;
#X connect 4 0 5 0;
#X connect 4 0 8 0;
#X connect 4 0 3 0;
#X connect 4 1 9 0;
#X connect 4 1 6 0;
#X connect 4 1 10 0;
#X connect 5 0 0 0;
#X connect 6 0 1 0;
#X connect 7 0 4 0;
#X connect 8 0 1 0;
#X connect 9 0 0 0;
#X connect 10 0 2 0;
#X restore 377 505 pd \$0-ismono;
#X obj 648 18 inlet;
#X obj 939 349 outlet;
#N canvas 0 225 450 300 \$0-solo-presolo 0;
#X obj 36 17 inlet;
#X obj 143 17 inlet;
#X restore 424 455 pd \$0-solo-presolo;
#X obj 512 177 pack f f s f f f f f f f f;
#X obj 512 214 unpack f f s f f f f f f f f;
#X obj 311 184 pack f f s f f f f f f f f;
#X obj 311 213 unpack f f s f f f f f f f;
#X obj 693 18 inlet;
#X obj 738 18 inlet;
#X obj 990 349 outlet;
#X obj 1039 349 outlet;
#X connect 0 0 30 1;
#X connect 0 0 32 1;
#X connect 1 0 30 2;
#X connect 1 0 32 2;
#X connect 2 0 30 3;
#X connect 2 0 32 3;
#X connect 3 0 30 4;
#X connect 3 0 32 4;
#X connect 4 0 32 0;
#X connect 9 0 30 0;
#X connect 10 0 30 5;
#X connect 10 0 32 5;
#X connect 12 0 4 0;
#X connect 13 0 9 0;
#X connect 15 0 14 0;
#X connect 18 0 19 0;
#X connect 19 0 32 2;
#X connect 20 0 30 6;
#X connect 20 0 32 6;
#X connect 24 0 30 7;
#X connect 24 0 32 7;
#X connect 27 0 30 8;
#X connect 27 0 32 8;
#X connect 30 0 31 0;
#X connect 31 1 5 0;
#X connect 31 2 6 0;
#X connect 31 3 7 0;
#X connect 31 4 8 0;
#X connect 31 5 11 0;
#X connect 31 6 22 0;
#X connect 31 7 25 0;
#X connect 31 8 28 0;
#X connect 31 9 36 0;
#X connect 31 10 37 0;
#X connect 32 0 33 0;
#X connect 33 2 15 0;
#X connect 33 3 16 0;
#X connect 34 0 32 9;
#X connect 34 0 30 9;
#X connect 35 0 30 10;
#X connect 35 0 32 10;
#X restore 218 345 pd \$0-PERSIST;
#X obj 74 215 r \$0|\$1-filename;
#X obj 76 244 route label;
#X obj 75 296 oscformat -f s airmon etc \$1 filename;
#X obj 77 266 symbol;
#X obj 1514 475 r \$0|\$1-ISMONO;
#X obj 1512 530 oscformat -f i airmon etc \$1 ismono;
#X obj 1480 189 r \$0|\$1-PRELISTEN_TRACK_SOLO;
#X obj 1071 337 r \$0|\$1-TRACK_SOLO;
#X obj 1073 383 oscformat -f i airmon etc \$1 setsolo;
#X obj 1477 237 oscformat -f i airmon etc \$1 setpresolo;
#X obj 1066 477 r \$0|\$1-TRACK_SOLOMUTE;
#X obj 1066 533 oscformat -f i airmon etc \$1 setsolomute;
#X obj 1488 320 r \$0|\$1-TRACK_SOLOPREMUTE;
#X obj 1488 377 oscformat -f i airmon etc \$1 setsolopremute;
#X text 244 399 only soft-persistence left here;
#X text 247 214 we'll live filename be refreshed here. in case of more
dynamic use \, it should go to main persistence processor;
#X obj 340 329 cnv 15 100 60 empty empty empty 20 12 0 14 -4034 -66577
0;
#X obj 747 59 r \$0|\$1-name_OSC;
#X obj 747 93 oscformat -f s airmon etc \$1 chname;
#X connect 1 0 2 0;
#X connect 1 0 9 2;
#X connect 2 0 0 0;
#X connect 3 0 4 0;
#X connect 4 0 0 0;
#X connect 5 0 6 0;
#X connect 6 0 0 0;
#X connect 7 0 8 0;
#X connect 8 0 0 0;
#X connect 9 1 12 0;
#X connect 9 2 2 0;
#X connect 10 0 11 0;
#X connect 11 0 13 0;
#X connect 12 0 0 0;
#X connect 13 0 12 0;
#X connect 13 0 9 1;
#X connect 14 0 15 0;
#X connect 15 0 0 0;
#X connect 16 0 19 0;
#X connect 17 0 18 0;
#X connect 18 0 0 0;
#X connect 19 0 0 0;
#X connect 20 0 21 0;
#X connect 21 0 0 0;
#X connect 22 0 23 0;
#X connect 23 0 0 0;
#X connect 27 0 28 0;
#X connect 28 0 0 0;
#X restore 1044 483 pd \$0-HANDLE-TRACK-ETC;
#X text 1050 458 etc = unconditional;
#X obj 334 527 tgl 15 0 empty empty empty 17 7 0 10 -262144 -1 -1 1
1;
#X obj 573 602 tgl 15 0 empty empty empty 17 7 0 10 -262144 -1 -1 0
1;
#X obj 869 542 tgl 15 0 empty empty empty 17 7 0 10 -262144 -1 -1 1
1;
#X obj 382 443 r __OPENTAC|REQ;
#X obj 613 454 r __OPENTAC|SNAP;
#X obj 837 453 r __OPENTAC|CNT;
#X connect 2 0 0 0;
#X connect 3 0 0 0;
#X connect 4 0 0 0;
#X connect 5 0 0 0;
#X connect 10 0 3 0;
#X connect 10 0 7 0;
#X connect 11 0 2 0;
#X connect 11 0 8 0;
#X connect 12 0 4 0;
#X connect 12 0 9 0;
#X restore 200 60 pd \$0-OSC_TRACK;
#X obj 520 57 \$3 \$4;
#X msg 518 104 connect \$2 \$1;
#X obj 671 37 r \$0-REFRESHMIX;
#X obj 806 37 r \$0-REFRESHCON;
#X obj 760 149 s \$0-WAKEUP;
#X connect 0 0 4 0;
#X connect 1 0 2 0;
#X connect 3 0 1 0;
#X connect 4 0 5 0;
#X connect 5 0 1 0;
#X restore 1172 128 pd \$0-TRACKMON-OSC;
#N canvas 0 180 3006 1900 \$0-AIRMIX-OPTIONS 0;
#X msg 13 84 airmix/3/fader 0.2;
#X msg 13 115 airmix/3/fader 1 2000;
#X msg 15 147 airmix/3/fader 0 2000 sin;
#X msg 16 175 airmix/3/fader 0.7 2000 sin 4000;
#X msg 17 204 airmix/3/fader 0.35 2000 linear 4000;
#X msg 16 232 airmix/3/fader 0 2000 log;
#X msg 19 258 airmix/3/fader 0 2000 exp;
#X msg 20 286 airmix/3/fader 0 2000 halfsin;
#X msg 303 78 airmix/3/pan 0.2;
#X msg 304 109 airmix/3/pan 1 2000;
#X msg 305 141 airmix/3/pan 0 2000 sin;
#X msg 306 169 airmix/3/pan 0.7 2000 sin 4000;
#X msg 309 198 airmix/3/pan 0.35 2000 linear 4000;
#X msg 306 226 airmix/3/pan 0 2000 log;
#X msg 309 252 airmix/3/pan 0 2000 exp;
#X msg 310 280 airmix/3/pan 0 2000 halfsin;
#X msg 13 41 airmix/[tracknum]/[fader || pan] [airliner arguments \,
see help];
#X text 53 14 AIRMIX FADER / PAN \, BOTH;
#X restore 1387 124 pd \$0-AIRMIX-OPTIONS;
#N canvas 1703 754 1993 685 \$0-FF 0;
#X obj 216 74 float 3;
#X obj 214 43 loadbang;
#X obj 216 112 value x\$0_FF;
#X text 373 52 FF fanning factor: basic factor (ms) for continuous
controllers distribution (fader \, pan) : will delay serial OSC monitoring
bus reports in order to prevent congestion;
#X text 372 115 fader gets distributed with trackno*2*x\$0_FF gaps
\, pan with trackno*x\$0_FF gaps;
#X obj 302 17 inlet;
#X connect 0 0 2 0;
#X connect 1 0 0 0;
#X connect 5 0 2 0;
#X restore 1332 541 pd \$0-FF;
#N canvas 229 180 1264 1166 \$0-MUTE 0;
#X obj 81 393 outlet~;
#X obj 81 323 vline~;
#X msg 82 287 \$1 50;
#X floatatom 45 253 5 0 0 0 HEARD - -;
#X obj 83 91 r \$0|\$1-TRACK_MUTE;
#X obj 345 110 t b f;
#X obj 82 216 expr ($f1 || $f2) != 1;
#X obj 345 68 r \$0|\$1-TRACK_SOLOMUTE;
#X text 516 248 M + SM = SM;
#X text 514 265 M + 0 = M;
#X text 511 279 0 + SM = SM;
#X text 511 290 0 + 0 = 0;
#X obj 319 247 expr ($f1 && $f2) \; ($f1 == 1) && ($f2 == 0) \; ($f1
== 0) && ($f2 == 1) \; ($f1 == 0) && ($f2 == 0) \;;
#X obj 315 331 sel 1;
#X obj 376 327 sel 1;
#X obj 434 329 sel 1;
#X obj 497 328 sel 1;
#X obj 365 435 v x\$0\$1MCOL;
#X msg 393 376 13;
#X obj 308 414 bng 15 250 50 0 empty empty empty 17 7 0 10 -262144
-1 -1;
#X floatatom 365 471 5 0 0 0 - - -;
#X obj 243 382 bng 15 250 50 0 empty empty empty 17 7 0 10 -262144
-1 -1;
#X obj 366 521 tgl 15 0 empty empty empty 17 7 0 10 -261689 -1 -1 0
1;
#X msg 366 497 color \$1;
#X msg 559 401 90;
#X msg 524 399 13;
#X msg 465 401 93;
#X msg 334 378 33;
#X msg 428 378 16;
#X connect 1 0 0 0;
#X connect 2 0 1 0;
#X connect 4 0 6 0;
#X connect 4 0 12 0;
#X connect 5 0 6 0;
#X connect 5 0 12 0;
#X connect 5 1 6 1;
#X connect 5 1 12 1;
#X connect 6 0 3 0;
#X connect 6 0 2 0;
#X connect 7 0 5 0;
#X connect 12 0 13 0;
#X connect 12 1 14 0;
#X connect 12 2 15 0;
#X connect 12 3 16 0;
#X connect 13 0 27 0;
#X connect 14 0 18 0;
#X connect 14 0 21 0;
#X connect 15 0 27 0;
#X connect 16 0 28 0;
#X connect 17 0 20 0;
#X connect 18 0 17 0;
#X connect 19 0 17 0;
#X connect 20 0 23 0;
#X connect 23 0 22 0;
#X connect 27 0 17 0;
#X connect 28 0 17 0;
#X restore 253 772 pd \$0-MUTE;
#X obj 230 808 *~;
#X obj 272 809 *~;
#X text 304 823 MUTE;
#X obj 368 945 outlet~;
#X text 360 970 prelisten bus send;
#X obj 981 544 t b b;
#X obj 896 639 s \$0-refreshmix;
#X obj 896 614 bang;
#X obj 553 392 route fader pan record rstop play stop dir file trimfader
mon nom rec loop rebuildmix setff, f 93;
#N canvas 0 180 910 871 \$0-refreshvals 0;
#X obj 45 34 inlet;
#X obj 158 37 inlet;
#X obj 41 153 s \$0-REFRESHMIX;
#X obj 157 121 s \$0-REFRESHCON;
#X obj 41 83 bang;
#X obj 157 81 bang;
#X obj 71 123 bng 15 250 50 0 empty empty empty 17 7 0 10 -262144 -1
-1;
#X obj 296 36 inlet;
#X obj 295 80 bang;
#X obj 295 120 s \$0-WAKEUP;
#X connect 0 0 4 0;
#X connect 1 0 5 0;
#X connect 4 0 2 0;
#X connect 5 0 3 0;
#X connect 6 0 2 0;
#X connect 7 0 8 0;
#X connect 8 0 9 0;
#X restore 2034 491 pd \$0-refreshvals;
#X obj 725 424 t a b;
#X obj 772 423 t a b;
#X text 602 324 note: rstop is now virtual \, broadcast after early
processing of 'stop', f 20;
#X obj 555 105 t a b;
#X obj 555 141 list prepend play;
#X obj 601 196 list prepend record;
#X obj 659 103 t a b;
#N canvas 0 180 1733 602 \$0-preprocess-stop 0;
#X obj 170 25 inlet;
#X obj 222 25 inlet;
#X msg 177 58 0;
#X msg 224 59 1;
#X obj 109 116 gpp-switch2;
#X obj 96 26 inlet;
#X obj 116 187 outlet;
#X obj 238 186 outlet;
#X msg 109 149 stop;
#X msg 196 152 rstop;
#X connect 0 0 2 0;
#X connect 1 0 3 0;
#X connect 2 0 4 1;
#X connect 2 0 7 0;
#X connect 3 0 4 1;
#X connect 3 0 7 0;
#X connect 4 0 8 0;
#X connect 4 1 9 0;
#X connect 5 0 4 0;
#X connect 8 0 6 0;
#X connect 9 0 6 0;
#X restore 613 227 pd \$0-preprocess-stop;
#X obj 576 169 list prepend loop;
#X obj 601 104 t a b;
#X text 848 69 stop preprocessor: branches uniform 'stop' into stop
and rstop. stop controlls playing and looping and rstop controls recording.
This is neccessary due to complex play and record algos, f 21;
#X obj 513 211 list trim;
#X obj 532 247 list trim;
#X obj 559 283 list trim;
#X obj 432 944 outlet~;
#X text 231 972 master send;
#X obj 70 485 gpp-smpan~;
#N canvas 455 180 1408 1553 \$0-audio-monitor-source 0;
#X obj 39 11 inlet~;
#X obj 103 12 inlet~;
#X obj 43 110 s \$0|\$1-svu-l;
#X obj 206 121 s \$0|\$1-svu-r;
#X obj 196 -4 loadbang;
#X msg 216 28 6000;
#X obj 41 59 gpp-vufeeder;
#X obj 145 62 gpp-vufeeder;
#X connect 0 0 6 0;
#X connect 1 0 7 0;
#X connect 4 0 5 0;
#X connect 5 0 6 1;
#X connect 5 0 7 1;
#X connect 6 0 2 0;
#X connect 7 0 3 0;
#X restore 36 356 pd \$0-audio-monitor-source;
#X obj 107 285 cnv 15 300 20 empty empty PRE-FADER_LEVEL_------ 20
8 0 8 -262130 -66577 0;
#X obj 67 843 cnv 15 300 20 empty empty POST-FADER_LEVEL_------ 20
8 0 8 -261682 -66577 0;
#N canvas 1792 381 1472 1028 \$0-monitor-sm 0;
#X text 57 6 is_mono;
#X obj 66 24 inlet~;
#X obj 226 328 s \$0|\$1-inbound-diodes-S;
#X obj 60 408 s \$0|\$1-inbound-diode-M;
#X obj 305 240 s \$0|\$1-pan-enabled-diode;
#X msg 284 194 color 13;
#X msg 293 166 color 16;
#X obj 74 125 sel 0 1;
#X msg 214 294 color 10;
#X msg 281 293 color 16;
#X msg 45 372 color 10;
#X msg 121 373 color 16;
#X floatatom 194 112 5 0 0 0 - - -;
#X obj 66 68 gpp-snapshot~ 300;
#X connect 5 0 4 0;
#X connect 6 0 4 0;
#X connect 7 0 9 0;
#X connect 7 0 10 0;
#X connect 7 0 5 0;
#X connect 7 1 8 0;
#X connect 7 1 11 0;
#X connect 7 1 6 0;
#X connect 8 0 2 0;
#X connect 9 0 2 0;
#X connect 10 0 3 0;
#X connect 11 0 3 0;
#X connect 13 0 12 0;
#X restore 67 571 pd \$0-monitor-sm;
#X obj 229 658 *~;
#X obj 273 660 *~;
#N canvas 104 600 1600 1400 \$0-ERR 0;
#X obj 247 231 print air-coremix;
#X msg 247 199 unrecognized ctrl msg;
#X obj 247 148 inlet;
#X connect 1 0 0 0;
#X connect 2 0 1 0;
#X restore 2498 614 pd \$0-ERR;
#N canvas 591 180 1724 930 \$0-MONOSTEREO 0;
#X obj 41 23 inlet;
#X obj 128 23 inlet;
#X msg 128 76 0;
#X msg 41 78 1;
#X obj 83 182 s \$0|\$1-ISMONO;
#X obj 330 359 s \$0|\$1-inbound-diodes-S;
#X obj 90 381 s \$0|\$1-inbound-diode-M;
#X obj 409 271 s \$0|\$1-pan-enabled-diode;
#X obj 215 185 sel 0 1;
#X obj 150 498 s \$0|\$1-pan-state-sender-rec;
#X msg 231 460 color 90;
#X msg 138 454 color 13;
#X msg 379 448 color 13;
#X obj 394 503 s \$0|\$1-pan-state;
#X msg 462 441 color 7;
#X msg 498 217 label MO;
#X msg 441 168 label ST;
#X msg 110 257 color 16 16;
#X msg 136 304 color 90 90;
#X msg 390 196 color 16 16;
#X msg 370 224 color 13 13;
#X msg 293 324 color 90 90;
#X msg 385 324 color 16 16;
#X connect 0 0 3 0;
#X connect 1 0 2 0;
#X connect 2 0 4 0;
#X connect 2 0 8 0;
#X connect 3 0 4 0;
#X connect 3 0 8 0;
#X connect 8 0 22 0;
#X connect 8 0 18 0;
#X connect 8 0 20 0;
#X connect 8 0 11 0;
#X connect 8 0 12 0;
#X connect 8 0 16 0;
#X connect 8 1 21 0;
#X connect 8 1 17 0;
#X connect 8 1 19 0;
#X connect 8 1 10 0;
#X connect 8 1 14 0;
#X connect 8 1 15 0;
#X connect 10 0 9 0;
#X connect 11 0 9 0;
#X connect 12 0 13 0;
#X connect 14 0 13 0;
#X connect 15 0 7 0;
#X connect 16 0 7 0;
#X connect 17 0 6 0;
#X connect 18 0 6 0;
#X connect 19 0 7 0;
#X connect 20 0 7 0;
#X connect 21 0 5 0;
#X connect 22 0 5 0;
#X restore 2348 570 pd \$0-MONOSTEREO;
#X obj 70 449 r \$0|\$1-ISMONO;
#N canvas 1655 437 1737 1393 \$0-INPUTS 0;
#X obj 170 543 outlet~;
#X obj 241 544 outlet~;
#X obj 361 547 outlet;
#N canvas 1964 180 1843 1899 \$0-PLAYER-STEREO 0;
#X msg 300 336 1;
#X msg 708 326 0;
#X text 794 24 Open takes a filename \, an onset in sample frames \,
and \, as an override \, you may also supply a header size to skip
\, a number of channels \, bytes per channel \, and endianness., f
44;
#X obj 177 519 outlet~;
#X obj 175 439 readsf~ 2;
#X obj 337 523 s \$0-SPLAY-FINISHED;
#X obj 210 552 outlet~;
#X obj 295 9 r \$0-SPLAY;
#X obj 689 675 outlet;
#X text 667 692 crossfader gate;
#X msg 930 372 0;
#X text 929 350 crossfade back into input line when done or stopped
;
#X obj 295 38 list trim;
#X obj 353 484 print SPLAY_EB;
#X obj 176 350 list append;
#X obj 85 472 print OOO;
#X msg 175 383 open \$1 \$2;
#X obj 845 680 outlet;
#X text 829 658 player-active monitor;
#X text 726 438 open stereo-input-gate;
#N canvas 1608 180 1600 1400 \$0-ENDFADER-LOGIC 0;
#X obj 81 476 outlet;
#X obj 201 475 outlet;
#X obj 174 51 inlet;
#X obj 76 53 inlet;
#X obj 79 330 gpp-endfaderbang;
#X obj 79 197 pack 0 f f;
#X obj 113 141 v x\$0_trimmed_duration_ms;
#X obj 146 170 v x\$0_trimfader_time_ms;
#X obj 145 107 t b b;
#X obj 80 227 list split 1;
#X obj 80 277 bang;
#X connect 2 0 8 0;
#X connect 3 0 5 0;
#X connect 4 0 0 0;
#X connect 4 1 1 0;
#X connect 5 0 9 0;
#X connect 6 0 5 1;
#X connect 7 0 5 2;
#X connect 8 0 6 0;
#X connect 8 1 7 0;
#X connect 9 0 10 0;
#X connect 9 1 4 1;
#X connect 10 0 4 0;
#X restore 535 211 pd \$0-ENDFADER-LOGIC;
#X obj 330 189 v x\$0_trimstart_ms;
#X obj 330 218 expr $f1 / 1000 * $f2;
#X obj 559 78 loadbang;
#X obj 559 103 samplerate~;
#X obj 293 156 t b b a b b b;
#X obj 333 279 t b b b;
#N canvas 1473 180 2021 1214 \$0-MONITOR-TIME-REMAINING 0;
#X obj 81 75 inlet;
#X obj 396 77 inlet;
#X text 77 46 start;
#X text 397 49 stop;
#X obj 80 204 metro 100;
#X text 245 103 1/10th of second resolution, f 11;
#X msg 420 137 0;
#X text 171 10 duration (whole|trim|fader);
#X msg 107 414 label \$1;
#X obj 200 76 v x\$0_trimmed_duration_ms;
#X text 276 414 => SEND TO CANVAS LABEL;
#X obj 107 376 gpp-display-seconds-tenth;
#X text 225 211 green;
#X msg 225 232 color -510465;
#X obj 107 451 s \$0|\$1-time-remaining;
#X obj 27 232 realtime;
#X obj 55 287 expr ($f2 - $f1) / 1000;
#X obj 359 228 print STOP;
#X obj 465 246 expr if ($f1 % 2 != 0 \, -203904 \, -158848) \;, f
42;
#X obj 398 174 \$1;
#X msg 585 61 color -4.78455e+06;
#X text 590 84 dark violet / stop;
#X text 480 270 stripe background color;
#X obj 385 342 print COLOR;
#X msg 385 300 color \$1;
#X obj 81 108 t b b b b b;
#X obj 343 534 s \$0|\$1-play-timer-request;
#X msg 341 510 list start \$1;
#X msg 452 482 list stop;
#X obj 184 52 bng 15 250 50 0 empty empty empty 17 7 0 10 -262144 -1
-1;
#X floatatom 184 125 5 0 0 0 - - -;
#X obj 335 483 float;
#X obj 397 107 t b b b;
#X connect 0 0 25 0;
#X connect 1 0 32 0;
#X connect 4 0 15 1;
#X connect 6 0 4 0;
#X connect 8 0 14 0;
#X connect 9 0 16 1;
#X connect 9 0 30 0;
#X connect 9 0 31 1;
#X connect 11 0 8 0;
#X connect 13 0 14 0;
#X connect 15 0 16 0;
#X connect 16 0 11 0;
#X connect 18 0 24 0;
#X connect 19 0 18 0;
#X connect 24 0 14 0;
#X connect 25 0 4 0;
#X connect 25 1 15 0;
#X connect 25 2 31 0;
#X connect 25 3 9 0;
#X connect 25 4 13 0;
#X connect 27 0 26 0;
#X connect 28 0 26 0;
#X connect 29 0 9 0;
#X connect 31 0 27 0;
#X connect 32 0 19 0;
#X connect 32 1 6 0;
#X connect 32 2 28 0;
#X restore 362 663 pd \$0-MONITOR-TIME-REMAINING;
#X obj 328 398 t b b;
#X obj 235 482 t b b;
#X obj 173 652 spigot;
#X obj 212 624 r \$0-LOOPSWITCH;
#X text 164 676 loop restart;
#X obj 292 130 list;
#X obj 295 68 t b a;
#X obj 229 651 tgl 15 0 empty empty empty 17 7 0 10 -262144 -1 -1 0
1;
#X obj 76 112 print #SPLAYLIST;
#N canvas 1994 407 1350 1067 \$0-PLAY-DELAY 0;
#X obj 54 29 inlet;
#X obj 51 175 outlet;
#X obj 55 88 v x\$0_play_delay_ms;
#X obj 54 120 delay;
#X obj 55 63 bang;
#X connect 0 0 4 0;
#X connect 2 0 3 0;
#X connect 3 0 1 0;
#X connect 4 0 2 0;
#X restore 225 99 pd \$0-PLAY-DELAY;
#X msg 680 441 2;
#X obj 671 -1 r \$0-PLAY-ENDF;
#X obj 788 0 r \$0-PLAY-STOP;
#X connect 0 0 4 0;
#X connect 0 0 17 0;
#X connect 1 0 4 0;
#X connect 1 0 17 0;
#X connect 4 0 3 0;
#X connect 4 1 6 0;
#X connect 4 2 29 0;
#X connect 7 0 12 0;
#X connect 10 0 8 0;
#X connect 12 0 34 0;
#X connect 14 0 16 0;
#X connect 16 0 4 0;
#X connect 20 0 10 0;
#X connect 20 1 1 0;
#X connect 20 1 30 0;
#X connect 20 1 27 1;
#X connect 21 0 22 0;
#X connect 22 0 14 1;
#X connect 23 0 24 0;
#X connect 24 0 22 1;
#X connect 25 1 26 0;
#X connect 25 2 14 0;
#X connect 25 3 1 0;
#X connect 25 4 21 0;
#X connect 25 5 20 1;
#X connect 26 0 0 0;
#X connect 26 1 28 0;
#X connect 26 2 38 0;
#X connect 28 0 20 0;
#X connect 28 1 27 0;
#X connect 29 1 30 0;
#X connect 30 0 37 0;
#X connect 31 0 30 1;
#X connect 31 0 35 0;
#X connect 33 0 25 0;
#X connect 34 0 37 0;
#X connect 34 1 33 1;
#X connect 37 0 33 0;
#X connect 38 0 8 0;
#X connect 39 0 10 0;
#X connect 40 0 1 0;
#X connect 40 0 27 1;
#X restore 337 14 pd \$0-PLAYER-STEREO;
#X obj 228 319 *~;
#X obj 291 320 *~;
#X obj 323 320 *~;
#X obj 238 44 loadbang;
#X msg 238 72 0;
#X obj 528 296 print CROSSFADE_EB;
#N canvas 383 384 1600 1400 \$0-cf-monitor 0;
#X obj 148 53 inlet;
#X obj 276 48 inlet;
#X obj 396 46 inlet;
#X obj 55 494 s \$0|\$1-gs-line;
#X obj 321 494 s \$0|\$1-gs-mono;
#X obj 179 494 s \$0|\$1-gs-stereo;
#X obj 71 188 t b f;
#X obj 221 187 t b f;
#X obj 356 182 t b f;
#X obj 183 279 expr int($f2) + 2 * int($f3) + 3 * int($f4);
#X obj 183 336 change;
#X obj 183 304 moses 1;
#X obj 183 363 - 1;
#X obj 183 393 s \$0|\$1-input-track;
#X connect 0 0 6 0;
#X connect 1 0 7 0;
#X connect 2 0 8 0;
#X connect 6 0 9 0;
#X connect 6 1 9 1;
#X connect 7 0 9 0;
#X connect 7 1 9 2;
#X connect 8 0 9 0;
#X connect 8 1 9 3;
#X connect 9 0 11 0;
#X connect 10 0 12 0;
#X connect 11 1 10 0;
#X connect 12 0 13 0;
#X restore 375 234 pd \$0-cf-monitor;
#N canvas 2117 180 1515 991 \$0-TF 0;
#X obj 59 106 gpp-svalue x\$0_trimfader_type;
#X obj 35 78 v x\$0_trimfader_time_ms;
#X obj 13 13 inlet;
#X obj 12 50 t f b b;
#X obj 12 308 outlet;
#X obj 65 313 outlet;
#X obj 38 152 list prepend time;
#X obj 65 259 list trim;
#X obj 64 199 list prepend type;
#X connect 0 0 8 0;
#X connect 1 0 6 0;
#X connect 2 0 3 0;
#X connect 3 0 4 0;
#X connect 3 1 1 0;
#X connect 3 2 0 0;
#X connect 6 0 7 0;
#X connect 7 0 5 0;
#X connect 8 0 7 0;
#X restore 213 115 pd \$0-TF;
#X obj 213 144 gpp-crossfade3;
#N canvas 2131 180 1444 1060 \$0-MON-IN 0;
#X obj 87 210 s \$0|\$1-filename;
#X obj 60 35 sel 1;
#X obj 60 9 inlet;
#X msg 87 184 label ------IN------;
#X obj 227 144 s \$0|\$1-time-remaining;
#X msg 227 99 label;
#X obj 62 59 t b b b;
#X obj 61 247 s \$0-REFRESHNAME;
#X connect 1 0 6 0;
#X connect 2 0 1 0;
#X connect 3 0 0 0;
#X connect 5 0 4 0;
#X connect 6 0 7 0;
#X connect 6 2 5 0;
#X restore 445 510 pd \$0-MON-IN;
#N canvas 1437 180 2403 1835 \$0-PLAYER-MONO 0;
#X msg 300 336 1;
#X msg 673 324 0;
#X text 826 40 Open takes a filename \, an onset in sample frames \,
and \, as an override \, you may also supply a header size to skip
\, a number of channels \, bytes per channel \, and endianness., f
44;
#X obj 175 519 outlet~;
#X obj 608 655 outlet;
#X text 659 653 crossfader gate;
#X msg 798 539 0;
#X text 830 528 crossfade back into input line when done or stopped
;
#X obj 176 350 list append;
#X obj 85 472 print OOO;
#X msg 175 383 open \$1 \$2;
#X obj 818 654 outlet;
#X text 871 651 player-active monitor;
#X text 726 438 open stereo-input-gate;
#N canvas 1556 180 1600 1400 \$0-ENDFADER-LOGIC 0;
#X obj 81 476 outlet;
#X obj 201 475 outlet;
#X obj 174 51 inlet;
#X obj 76 53 inlet;
#X obj 79 330 gpp-endfaderbang;
#X obj 79 197 pack 0 f f;
#X obj 113 141 v x\$0_trimmed_duration_ms;
#X obj 146 170 v x\$0_trimfader_time_ms;
#X obj 145 107 t b b;
#X obj 80 227 list split 1;
#X obj 80 277 bang;
#X connect 2 0 8 0;
#X connect 3 0 5 0;
#X connect 4 0 0 0;
#X connect 4 1 1 0;
#X connect 5 0 9 0;
#X connect 6 0 5 1;
#X connect 7 0 5 2;
#X connect 8 0 6 0;
#X connect 8 1 7 0;
#X connect 9 0 10 0;
#X connect 9 1 4 1;
#X connect 10 0 4 0;
#X restore 535 211 pd \$0-ENDFADER-LOGIC;
#X obj 330 189 v x\$0_trimstart_ms;
#X obj 330 218 expr $f1 / 1000 * $f2;
#X obj 559 78 loadbang;
#X obj 559 103 samplerate~;
#X obj 293 156 t b b a b b b;
#X obj 333 279 t b b b;
#N canvas 0 910 1977 1195 \$0-MONITOR-TIME-REMAINING 0;
#X obj 81 75 inlet;
#X obj 396 77 inlet;
#X text 77 46 start;
#X text 397 49 stop;
#X obj 80 204 metro 100;
#X text 245 103 1/10th of second resolution, f 11;
#X msg 429 132 0;
#X text 171 10 duration (whole|trim|fader);
#X msg 106 455 label \$1;
#X obj 213 72 v x\$0_trimmed_duration_ms;
#X text 276 414 => SEND TO CANVAS LABEL;
#X obj 107 376 gpp-display-seconds-tenth;
#X text 224 223 green;
#X msg 226 248 color -510465;
#X obj 106 515 s \$0|\$1-time-remaining;
#X obj 27 232 realtime;
#X obj 55 287 expr ($f2 - $f1) / 1000;
#X obj 334 230 print STOP;
#X obj 449 274 expr if ($f1 % 2 != 0 \, -203904 \, -158848) \;, f
42;
#X obj 449 246 \$1;
#X text 464 298 stripe background color;
#X text 599 75 violet / stop;
#X msg 579 53 color -4.78455e+06;
#X obj 467 185 bng 15 250 50 0 empty empty empty 17 7 0 10 -262144
-1 -1;
#X msg 560 353 color -203904;
#X msg 391 354 color \$1;
#X obj 342 482 float;
#X obj 81 108 t b b b b b;
#X obj 343 534 s \$0|\$1-play-timer-request;
#X msg 343 509 list start \$1;
#X obj 397 107 t b b b;
#X msg 434 446 list stop;
#X connect 0 0 27 0;
#X connect 1 0 30 0;
#X connect 4 0 15 1;
#X connect 6 0 4 0;
#X connect 8 0 14 0;
#X connect 9 0 16 1;
#X connect 9 0 26 1;
#X connect 11 0 8 0;
#X connect 13 0 14 0;
#X connect 15 0 16 0;
#X connect 16 0 11 0;
#X connect 18 0 25 0;
#X connect 19 0 18 0;
#X connect 22 0 14 0;
#X connect 23 0 19 0;
#X connect 24 0 14 0;
#X connect 25 0 14 0;
#X connect 26 0 29 0;
#X connect 27 0 4 0;
#X connect 27 1 15 0;
#X connect 27 2 26 0;
#X connect 27 3 9 0;
#X connect 27 4 13 0;
#X connect 29 0 28 0;
#X connect 30 0 19 0;
#X connect 30 1 6 0;
#X connect 30 2 31 0;
#X connect 31 0 28 0;
#X restore 360 657 pd \$0-MONITOR-TIME-REMAINING;
#X obj 328 398 t b b;
#X obj 235 482 t b b;
#X obj 173 652 spigot;
#X obj 212 624 r \$0-LOOPSWITCH;
#X text 164 676 loop restart;
#X obj 292 130 list;
#X obj 284 61 t b a;
#X obj 229 651 tgl 15 0 empty empty empty 17 7 0 10 -262144 -1 -1 0
1;
#X obj 53 175 print #SPLAYLIST;
#N canvas 2316 395 1350 1067 \$0-PLAY-DELAY 0;
#X obj 54 29 inlet;
#X obj 51 175 outlet;
#X obj 55 88 v x\$0_play_delay_ms;
#X obj 54 120 delay;
#X obj 55 63 bang;
#X connect 0 0 4 0;
#X connect 2 0 3 0;
#X connect 3 0 1 0;
#X connect 4 0 2 0;
#X restore 225 99 pd \$0-PLAY-DELAY;
#X obj 175 439 readsf~;
#X obj 284 6 r \$0-MPLAY;
#X obj 302 551 s \$0-MPLAY-FINISHED;
#X obj 305 517 print MPLAY_EB;
#X msg 689 441 1;
#X obj 697 4 r \$0-PLAY-ENDF;
#X obj 284 34 list trim;
#X obj 843 3 r \$0-PLAY-STOP;
#X connect 0 0 11 0;
#X connect 0 0 32 0;
#X connect 1 0 11 0;
#X connect 1 0 32 0;
#X connect 6 0 4 0;
#X connect 8 0 10 0;
#X connect 10 0 32 0;
#X connect 14 0 6 0;
#X connect 14 1 1 0;
#X connect 14 1 24 0;
#X connect 14 1 21 1;
#X connect 15 0 16 0;
#X connect 16 0 8 1;
#X connect 17 0 18 0;
#X connect 18 0 16 1;
#X connect 19 1 20 0;
#X connect 19 2 8 0;
#X connect 19 3 1 0;
#X connect 19 4 15 0;
#X connect 19 5 14 1;
#X connect 20 0 0 0;
#X connect 20 1 22 0;
#X connect 20 2 36 0;
#X connect 22 0 14 0;
#X connect 22 1 21 0;
#X connect 23 0 35 0;
#X connect 23 0 34 0;
#X connect 23 1 24 0;
#X connect 24 0 31 0;
#X connect 25 0 24 1;
#X connect 25 0 29 0;
#X connect 27 0 19 0;
#X connect 28 0 31 0;
#X connect 28 1 27 1;
#X connect 31 0 27 0;
#X connect 32 0 3 0;
#X connect 32 1 23 0;
#X connect 33 0 38 0;
#X connect 36 0 4 0;
#X connect 37 0 6 0;
#X connect 38 0 28 0;
#X connect 39 0 1 0;
#X connect 39 0 21 1;
#X restore 170 15 pd \$0-PLAYER-MONO;
#N canvas 997 446 2226 1161 \$0-AUDIOIN 0;
#X msg 98 181 set \$1 \$2;
#X obj 98 154 pack f f;
#X text 239 9 through monostereo filter (if the second input is active
\, take it(stereo) \, or double the left one (mono), f 39;
#X obj 73 67 loadbang;
#X text 171 181 set actual adc~ channels;
#X obj 73 98 expr (2 * \$1) - 1 \; (2 * \$1) \;;
#X obj 98 211 adc~ 1 2;
#X obj 23 33 bng 15 250 50 0 empty empty empty 17 7 0 10 -262144 -1
-1;
#X obj 98 366 outlet~;
#X obj 164 369 outlet~;
#X obj 91 15 r \$0-RECHAN;
#X msg 361 278 1 2;
#X obj 361 315 list append for channel \$1;
#X obj 362 245 t b a;
#X obj 361 361 print @REGISTERED_ADC/IN_SRV;
#X obj 366 196 bng 15 250 50 0 empty empty empty 17 7 0 10 -262144
-1 -1;
#X connect 0 0 6 0;
#X connect 0 0 13 0;
#X connect 1 0 0 0;
#X connect 3 0 5 0;
#X connect 5 0 1 0;
#X connect 5 1 1 1;
#X connect 6 0 8 0;
#X connect 6 1 9 0;
#X connect 7 0 5 0;
#X connect 10 0 5 0;
#X connect 11 0 12 0;
#X connect 12 0 14 0;
#X connect 13 0 11 0;
#X connect 13 1 11 0;
#X connect 15 0 13 0;
#X restore 21 16 pd \$0-AUDIOIN;
#X obj 133 319 *~;
#X obj 166 320 *~;
#X obj 61 385 osc~ 440;
#X text 59 353 test;
#X obj 458 422 gpp-snapshot~ 200;
#X floatatom 458 448 5 0 0 0 - - -;
#X obj 54 439 gpp-snapshot~ 200;
#X floatatom 54 465 5 0 0 0 - - -;
#X obj 524 342 gpp-snapshot~ 200;
#X floatatom 524 368 5 0 0 0 - - -;
#X connect 3 0 5 0;
#X connect 3 1 6 0;
#X connect 3 2 11 0;
#X connect 3 3 2 0;
#X connect 4 0 0 0;
#X connect 4 0 1 0;
#X connect 5 0 0 0;
#X connect 6 0 1 0;
#X connect 7 0 8 0;
#X connect 8 0 11 0;
#X connect 11 0 12 0;
#X connect 11 1 12 1;
#X connect 12 0 17 1;
#X connect 12 0 16 1;
#X connect 12 0 22 0;
#X connect 12 1 4 1;
#X connect 12 1 20 0;
#X connect 12 2 5 1;
#X connect 12 2 6 1;
#X connect 12 2 24 0;
#X connect 12 3 10 0;
#X connect 12 3 13 0;
#X connect 12 4 10 1;
#X connect 12 5 10 2;
#X connect 14 0 4 0;
#X connect 14 1 11 0;
#X connect 14 2 2 0;
#X connect 15 0 16 0;
#X connect 15 1 17 0;
#X connect 16 0 0 0;
#X connect 17 0 1 0;
#X connect 20 0 21 0;
#X connect 22 0 23 0;
#X connect 24 0 25 0;
#X restore 229 239 pd \$0-INPUTS;
#N canvas 199 251 3454 931 \$0-SOLO_MUTE_PROCESSOR 0;
#X obj 241 59 inlet;
#X obj 420 45 inlet;
#X obj 919 61 inlet;
#X obj 242 256 s _SOLOCOUNTER;
#X msg 242 189 set \$1;
#X obj 306 165 \$1;
#X msg 306 192 reset \$1;
#X text 231 24 setsolo;
#X text 907 28 setpresolo;
#X obj 242 126 sel 1 0;
#X obj 1067 44 inlet;
#X obj 916 180 \$1;
#X msg 916 218 set \$1;
#X obj 970 184 \$1;
#X msg 968 221 reset \$1;
#X obj 919 124 sel 1 0;
#X obj 916 261 s _PRESOLOCOUNTER;
#X text 408 23 setsolomute;
#X text 1054 18 setsolopremute;
#X obj 305 127 s \$0|\$1-TRACK_SOLO;
#X obj 975 158 s \$0|\$1-PRELISTEN_TRACK_SOLO;
#X obj 39 69 inlet;
#X obj 741 58 inlet;
#X obj 22 131 s \$0|\$1-TRACK_MUTE;
#X obj 712 155 s \$0|\$1-PRELISTEN_TRACK_MUTE;
#X text 43 34 setmute;
#X text 737 17 setpremute;
#X obj 674 23 cnv 15 9 300 empty empty empty 20 12 0 14 -261234 -66577
0;
#X obj 358 73 s \$0|\$1-TRACK_SOLOMUTE;
#X obj 1007 98 s \$0|\$1-TRACK_SOLOPREMUTE;
#X obj 432 353 s \$0|\$1-mute;
#X obj 242 159 \$1;
#X obj 241 92 t f f;
#X obj 919 92 t f f;
#X obj 432 290 v x\$0\$1MCOL;
#X obj 431 266 bang;
#X obj 1089 268 bang;
#X obj 1085 385 s \$0|\$1-prelisten;
#X obj 1088 300 v x\$0\$1PMCOL;
#X obj 187 327 s \$0|\$1-solo;
#X obj 769 349 s \$0|\$1-presolo;
#X obj 742 114 t b f;
#X msg 155 299 color 15 15;
#X msg 261 297 color 38 38;
#X msg 432 319 color \$1 \$1;
#X msg 839 309 color 38 38;
#X msg 736 310 color 15 15;
#X msg 1088 330 color \$1 \$1;
#X obj 19 197 s \$0|\$1-mute-persist;
#X obj 68 247 s \$0|\$1-solo-persist;
#X obj 678 399 s \$0|\$1-premute-persist;
#X obj 940 418 s \$0|\$1-presolo-persist;
#X connect 0 0 32 0;
#X connect 0 0 49 0;
#X connect 1 0 28 0;
#X connect 1 0 35 0;
#X connect 2 0 33 0;
#X connect 4 0 3 0;
#X connect 5 0 6 0;
#X connect 6 0 3 0;
#X connect 9 0 31 0;
#X connect 9 0 42 0;
#X connect 9 1 5 0;
#X connect 9 1 43 0;
#X connect 10 0 29 0;
#X connect 10 0 36 0;
#X connect 11 0 12 0;
#X connect 12 0 16 0;
#X connect 13 0 14 0;
#X connect 14 0 16 0;
#X connect 15 0 11 0;
#X connect 15 0 46 0;
#X connect 15 1 13 0;
#X connect 15 1 45 0;
#X connect 21 0 23 0;
#X connect 21 0 35 0;
#X connect 21 0 48 0;
#X connect 22 0 41 0;
#X connect 31 0 4 0;
#X connect 32 0 9 0;
#X connect 32 1 19 0;
#X connect 33 0 15 0;
#X connect 33 0 51 0;
#X connect 33 1 20 0;
#X connect 34 0 44 0;
#X connect 35 0 34 0;
#X connect 36 0 38 0;
#X connect 38 0 47 0;
#X connect 41 0 36 0;
#X connect 41 1 24 0;
#X connect 41 1 50 0;
#X connect 42 0 39 0;
#X connect 43 0 39 0;
#X connect 44 0 30 0;
#X connect 45 0 40 0;
#X connect 46 0 40 0;
#X connect 47 0 37 0;
#X restore 1471 513 pd \$0-SOLO_MUTE_PROCESSOR;
#N canvas 1238 180 1752 1438 \$0-POSTFADER-DAC 0;
#X obj 41 22 inlet~;
#X obj 100 24 inlet~;
#X msg 233 350 22 23;
#X obj 233 387 list append for channel \$1;
#X obj 234 317 t b a;
#X obj 233 433 print @REGISTERED_DAC/POST_OUT_SRV;
#X obj 7 519 send~ \$1_auxL;
#X obj 118 520 send~ \$1_auxR;
#X text 21 474 to substractor;
#X text 41 202 postfader dac was here, f 10;
#X msg 432 174 set \$1 \$2;
#X obj 426 143 pack f f;
#X obj 485 36 loadbang;
#X msg 429 216 18 19;
#X obj 413 59 bng 15 250 50 0 empty empty empty 17 7 0 10 -262144 -1
-1;
#X obj 426 100 expr (2*\$2)+1+(2*\$1)-1 \; (2*\$2)+1+(2*\$1) \;;
#X connect 0 0 6 0;
#X connect 1 0 7 0;
#X connect 2 0 3 0;
#X connect 3 0 5 0;
#X connect 4 0 2 0;
#X connect 4 1 2 0;
#X connect 10 0 13 0;
#X connect 11 0 10 0;
#X connect 12 0 15 0;
#X connect 14 0 15 0;
#X connect 15 0 11 0;
#X connect 15 1 11 1;
#X restore 185 902 pd \$0-POSTFADER-DAC;
#N canvas 2094 180 1746 1565 \$0-PREFADER-DAC 0;
#X obj 42 30 inlet~;
#X obj 118 30 inlet~;
#X obj 226 373 list append for channel \$1;
#X obj 227 303 t b a;
#X obj 226 419 print @REGISTERED_DAC/PRE_OUT_SRV;
#X msg 216 163 set \$1 \$2;
#X obj 216 132 pack f f;
#X obj 275 25 loadbang;
#X obj 198 27 bng 15 250 50 0 empty empty empty 17 7 0 10 -262144 -1
-1;
#X obj 216 89 expr (2*\$2)+1+(2*\$1)-1 \; (2*\$2)+1+(2*\$1) \;;
#X floatatom 625 483 5 0 0 0 - - -;
#X obj 626 387 loadbang;
#X msg 650 525 set \$1 \$2;
#X obj 673 484 pack f f;
#X obj 675 340 r \$0-RECHAN;
#X obj 627 425 expr (2*\$1) - 1 \; 2*\$1 \;;
#X obj 646 328 bng 15 250 50 0 empty empty empty 17 7 0 10 -262144
-1 -1;
#X msg 228 276 18 19;
#X obj 74 343 dac~;
#X connect 0 0 18 0;
#X connect 1 0 18 1;
#X connect 2 0 4 0;
#X connect 3 1 2 0;
#X connect 5 0 17 0;
#X connect 5 0 18 0;
#X connect 6 0 5 0;
#X connect 7 0 9 0;
#X connect 8 0 9 0;
#X connect 9 0 6 0;
#X connect 9 1 6 1;
#X connect 11 0 15 0;
#X connect 13 0 12 0;
#X connect 14 0 15 0;
#X connect 15 0 10 0;
#X connect 15 0 13 0;
#X connect 15 1 13 1;
#X connect 16 0 15 0;
#X connect 17 0 3 0;
#X restore 183 412 pd \$0-PREFADER-DAC;
#N canvas 52 229 1916 829 \$0-PRELISTEN-BUS 0;
#X obj 143 279 vline~;
#X msg 142 239 \$1 50;
#X obj 2 40 inlet~;
#X obj 16 337 *~;
#X obj 16 381 outlet~;
#X obj 259 19 r \$0|\$1-PRELISTEN_TRACK_LEVEL;
#X obj 388 108 r \$0|\$1-PRELISTEN_TRACK_MUTE;
#X floatatom 1290 533 5 0 0 0 - - -;
#X obj 72 39 inlet~;
#X obj 86 336 *~;
#X obj 86 380 outlet~;
#X obj 258 53 t b f;
#X text 636 302 M + SM = SM;
#X text 634 319 M + 0 = M;
#X text 631 333 0 + SM = SM;
#X text 631 344 0 + 0 = 0;
#X obj 439 301 expr ($f1 && $f2) \; ($f1 == 1) && ($f2 == 0) \; ($f1
== 0) && ($f2 == 1) \; ($f1 == 0) && ($f2 == 0) \;;
#X obj 435 385 sel 1;
#X obj 496 381 sel 1;
#X obj 554 383 sel 1;
#X obj 617 382 sel 1;
#X obj 478 197 t b f;
#X obj 588 510 v x\$0\$1PMCOL;
#X floatatom 361 191 5 0 0 0 - - -;
#X floatatom 631 77 5 0 0 0 - - -;
#X obj 647 200 loadbang;
#X msg 650 239 0;
#X msg 583 429 46;
#X msg 658 433 38;
#X msg 518 429 13;
#X floatatom 587 539 5 0 0 0 - - -;
#X msg 170 16 1;
#X msg 486 512 color \$1;
#X obj 496 546 tgl 15 0 empty empty empty 17 7 0 10 -258699 -1 -1 0
1;
#X obj 544 28 r \$0|\$1-TRACK_SOLOPREMUTE;
#X msg 459 435 93;
#X obj 252 271 expr ($f1 || $f2);
#X obj 139 109 expr if ($f1 \, 0 \, $f2) \;;
#X connect 0 0 3 1;
#X connect 0 0 9 1;
#X connect 1 0 0 0;
#X connect 2 0 3 0;
#X connect 3 0 4 0;
#X connect 5 0 11 0;
#X connect 6 0 16 0;
#X connect 6 0 23 0;
#X connect 6 0 36 0;
#X connect 8 0 9 0;
#X connect 9 0 10 0;
#X connect 11 0 37 0;
#X connect 11 1 37 1;
#X connect 16 0 17 0;
#X connect 16 1 18 0;
#X connect 16 2 19 0;
#X connect 16 3 20 0;
#X connect 17 0 35 0;
#X connect 18 0 29 0;
#X connect 19 0 35 0;
#X connect 20 0 27 0;
#X connect 21 0 16 0;
#X connect 21 0 36 0;
#X connect 21 1 16 1;
#X connect 21 1 36 1;
#X connect 22 0 30 0;
#X connect 25 0 26 0;
#X connect 26 0 16 1;
#X connect 27 0 22 0;
#X connect 27 0 32 0;
#X connect 29 0 22 0;
#X connect 29 0 32 0;
#X connect 31 0 11 0;
#X connect 32 0 33 0;
#X connect 34 0 21 0;
#X connect 34 0 24 0;
#X connect 35 0 22 0;
#X connect 35 0 32 0;
#X connect 36 0 37 0;
#X connect 37 0 1 0;
#X restore 346 403 pd \$0-PRELISTEN-BUS;
#N canvas 0 180 3840 1980 \$0-BUILD-MIXER-STRIPE-ORIG 0;
#X obj 51 -19 inlet;
#X obj 50 40 \$1;
#X obj 19 15 bng 15 250 50 0 empty empty empty 17 7 0 10 -262144 -1
-1;
#X obj 50 98 expr ($f1 * 100) + 100;
#X obj 390 88 \$0;
#X obj 50 68 t f f b;
#X obj 50 12 t b b;
#X text 466 87 also initialize fader and pan RF's to 1;
#X text 465 105 \$20 = stripe background color;
#X text 467 146 \$18 = track number;
#X text 466 125 \$19 = \$0 :: track-local!;
#X msg 656 253 #N canvas 0 180 1535 826 12 \; #X obj 225 164 tgl 18
0 foo 1005|1-loop-active L 4 9 0 6 -262130 -1 -1 0 1 \; #X obj 255
167 hradio 15 1 0 3 bar foo L__S__M 0 -6 0 10 -203904 -1 -1 0 \;;
#X text 652 220 input track radio butt;
#X obj 43 600 pack f f f f f f f f f f f f f f f f f f f f f f f f
f f f f;
#X obj 51 129 expr $f1+14 \; $f1+20 \; $f1+79 \; $f1+37 \; $f1+41 \;
$f1+34 \; $f1+41 \; $f1+24 \; $f1+23 \; $f1+34 \; $f1+45 \; $f1+14
\; $f1+63 \; $f1+76 \; $f1+45 \; $f1+56 \; $f1+14 \; $f2 \; $f3 \;
if ($f2 % 2 != 0 \, -203904 \, -158848) \; $f1+28 \; $f1+55 \; $f1+90
\; $f1+83 \; $f1+18 \; $f1+39 \; $f1+62 \; $f1+49 \;, f 49;
#X msg 94 631 \; pd-MIXER obj \$1 8 cnv 15 100 400 empty empty \$18
37 12 0 14 \$20 -83269 0 \; pd-MIXER obj \$2 301 tgl 15 0 foosnd \$19|\$18-fader-rf
empty 17 7 0 10 \$20 -1 -1 1 1 \; pd-MIXER obj \$3 222 tgl 15 0 foosnd
\$19|\$18-pan-rf empty 17 7 0 10 \$20 -1 -1 1 1 \; pd-MIXER obj \$4
202 hsl 64 15 0 1 0 0 empty \$19|\$18-pan-state empty -2 -8 0 10 -262144
-1 -1 0 1 \; pd-MIXER floatatom \$5 382 5 0 0 0 - \$19|\$18-fader-state
foosnd \; pd-MIXER floatatom \$6 221 5 0 0 0 - \$19|\$18-pan-state
foosnd \; pd-MIXER obj \$7 255 vsl 18 120 0 1 0 0 empty \$19|\$18-fader-state
empty 0 -9 0 10 -262144 -1 -1 11900 1 \; pd-MIXER obj \$12 445 cnv
15 100 30 empty \$19|\$18-time-remaining empty 12 15 0 7 \$20 -262130
0 \; pd-MIXER obj \$13 255 vu 10 120 \$19|\$18-vu-l empty -1 -8 0 10
-66577 -1 0 0 \; pd-MIXER obj \$14 255 vu 10 120 \$19|\$18-vu-r empty
-1 -8 0 4 -66577 -1 1 0 \; pd-MIXER obj \$15 62 vu 8 80 \$19|\$18-svu-l
empty -1 -8 0 4 -159808 -1 0 0 \; pd-MIXER obj \$16 62 vu 8 80 \$19|\$18-svu-r
empty -1 -8 0 4 -159808 -1 1 0 \; pd-MIXER obj \$17 412 cnv 15 100
30 empty \$19|\$18-filename ------IN------ 2 15 0 6 \$20 -83269 0 \;
\$19|\$18-fader-rf 1 \; \$19|\$18-pan-rf 1 \; \$19|\$18-time-remaining
color \$20 \; pd-MIXER obj \$21 168 tgl 18 0 foosnd \$19|\$18-loop-active
L 4 9 0 6 10 -1 -1 0 1 \; pd-MIXER obj \$22 170 hradio 15 1 0 3 foo
\$19|\$18-input-track IN_MP_SP 0 -6 0 5 \$20 -83269 -1 0 \; pd-MIXER
obj \$23 383 tgl 19 0 foo \$19|\$18-mute M 5 10 0 7 10 -1 -1 0 1 \;
pd-MIXER obj \$23 0 tgl 20 0 foo \$19|\$18-prelisten ~ 4 9 0 8 10 -1
-1 0 1 \; pd-MIXER floatatom \$24 20 4 0 0 0 - \$19|\$18-prelisten-level
foosnd \; pd-MIXER obj \$25 202 tgl 14 0 foosnd \$19|\$18-pan-enabled-diode
P 3 7 0 6 10 -1 -1 0 1 \; pd-MIXER obj \$26 48 tgl 8 0 foosnd \$19|\$18-inbound-diodes-S
empty 17 7 0 8 10 -1 -1 0 1 \; pd-MIXER obj \$27 48 tgl 8 0 foosnd
\$19|\$18-inbound-diodes-S empty 14 5 0 8 10 -1 -1 0 1 \; pd-MIXER
obj \$28 44 tgl 11 0 foosnd \$19|\$18-inbound-diode-M empty 17 7 0
8 10 -1 -1 0 1 \;, f 110;
#X connect 0 0 6 0;
#X connect 1 0 5 0;
#X connect 2 0 1 0;
#X connect 3 0 14 0;
#X connect 4 0 14 2;
#X connect 5 0 3 0;
#X connect 5 1 14 1;
#X connect 5 2 4 0;
#X connect 6 0 1 0;
#X connect 13 0 15 0;
#X connect 14 0 13 0;
#X connect 14 1 13 1;
#X connect 14 2 13 2;
#X connect 14 3 13 3;
#X connect 14 4 13 4;
#X connect 14 5 13 5;
#X connect 14 6 13 6;
#X connect 14 7 13 7;
#X connect 14 8 13 8;
#X connect 14 9 13 9;
#X connect 14 10 13 10;
#X connect 14 11 13 11;
#X connect 14 12 13 12;
#X connect 14 13 13 13;
#X connect 14 14 13 14;
#X connect 14 15 13 15;
#X connect 14 16 13 16;
#X connect 14 17 13 17;
#X connect 14 18 13 18;
#X connect 14 19 13 19;
#X connect 14 20 13 20;
#X connect 14 21 13 21;
#X connect 14 22 13 22;
#X connect 14 23 13 23;
#X connect 14 24 13 24;
#X connect 14 25 13 25;
#X connect 14 26 13 26;
#X connect 14 27 13 27;
#X restore 1261 606 pd \$0-BUILD-MIXER-STRIPE-ORIG;
#N canvas 452 703 2880 1453 \$0-BUILD-MIXER-STRIPE-INTERACTIVE 0;
#X obj 51 10 inlet;
#X obj 50 69 \$1;
#X obj 19 44 bng 15 250 50 0 empty empty empty 17 7 0 10 -262144 -1
-1;
#X obj 50 127 expr ($f1 * 100) + 100;
#X obj 94 188 \$0, f 4;
#X obj 50 97 t f f b;
#X obj 50 41 t b b;
#X text 618 217 also initialize fader and pan RF's to 1;
#X text 617 235 \$20 = stripe background color;
#X text 619 276 \$18 = track number;
#X text 618 255 \$19 = \$0 :: track-local!;
#X msg 854 334 \$19|\$18-prelisten-level-sender;
#X obj 100 278 pack f f f f f f f f f f f f f f f f f f f f f f f f
f f f f f f f f f, f 74;
#X obj 261 -222 expr $f1+14 \; $f1+16 \; $f1+79 \; $f1+37 \; $f1+34
\; $f1+34 \; $f1+41 \; $f1+24 \; $f1+23 \; $f1+34 \; $f1+45 \; $f1+14
\; $f1+63 \; $f1+76 \; $f1+45 \; $f1+56 \; $f1+14 \; $f2 \; $f3 \;
if ($f2 % 2 != 0 \, -203904 \, -158848) \; $f1+28 \; $f1+55 \; $f1+89
\; $f1+83 \; $f1+18 \; $f1+39 \; $f1+62 \; $f1+49 \; $f1+22 \; $f1+75
\; $f1+98 \; $f1+92 \; $f1+102 \;, f 48;
#X msg 46 460 \; pd-MIXER obj \$1 8 cnv 15 100 400 empty empty \$18
22 12 0 14 \$20 -83269 0 \; pd-MIXER obj \$2 382 tgl 15 0 foosnd \$19|\$18-fader-rf
empty 17 7 0 10 \$20 -1 -1 1 1 \; pd-MIXER obj \$3 222 tgl 15 0 foosnd
\$19|\$18-pan-rf empty 17 7 0 10 \$20 -1 -1 1 1 \; pd-MIXER obj \$4
202 hsl 64 15 0 1 0 0 \$19|\$18-pan-state-sender \$19|\$18-pan-state-sender-rec
empty -2 -8 0 10 -262144 -1 -1 0 0 \; pd-MIXER floatatom \$5 382 5
0 0 0 - \$19|\$18-fader-state foosnd \; pd-MIXER floatatom \$6 221
5 0 0 0 - \$19|\$18-pan-stateN foosnd \; pd-MIXER obj \$7 255 vsl 18
120 0 1 0 0 \$19|\$18-fader-state-sender \$19|\$18-fader-state-sender-rec
empty 0 -9 0 10 -262144 -1 -1 11900 0 \; pd-MIXER obj \$12 445 cnv
15 100 30 empty \$19|\$18-time-remaining empty 12 15 0 7 \$20 -262130
0 \; pd-MIXER obj \$13 255 vu 10 120 \$19|\$18-vu-l empty -1 -8 0 10
-66577 -1 0 0 \; pd-MIXER obj \$14 255 vu 10 120 \$19|\$18-vu-r empty
-1 -8 0 4 -66577 -1 1 0 \; pd-MIXER obj \$15 62 vu 8 80 \$19|\$18-svu-l
empty -1 -8 0 4 -159808 -1 0 0 \; pd-MIXER obj \$16 62 vu 8 80 \$19|\$18-svu-r
empty -1 -8 0 4 -159808 -1 1 0 \; pd-MIXER obj \$17 412 cnv 15 100
30 empty \$19|\$18-filename ------IN------ 2 15 0 6 \$20 -83269 0 \;
\$19|\$18-fader-rf 1 \; \$19|\$18-pan-rf 1 \; \$19|\$18-time-remaining
color \$20 \; pd-MIXER obj \$21 160 tgl 18 0 foosnd \$19|\$18-loop-active
L 4 9 0 6 38 -1 -1 0 1 \; pd-MIXER obj \$22 162 hradio 15 1 0 3 foosnd
\$19|\$18-input-track IN_MP_SP 0 -6 0 5 \$20 -83269 -1 0 \; pd-MIXER
obj \$32 387 tgl 19 0 \$19|\$18-mute-sender \$19|\$18-mute M 5 10 0
7 38 38 -1 0 1 \; pd-MIXER obj \$23 0 tgl 20 0 \$19|\$18-prelisten-sender
\$19|\$18-prelisten >) 3 9 0 6 38 38 -1 0 1 \; pd-MIXER floatatom \$24
20 4 0 1 0 > \$19|\$18-prelisten-level foosnd \; pd-MIXER obj \$25
202 tgl 14 0 foosnd \$19|\$18-pan-enabled-diode -- 1 7 0 5 90 90 -1
0 1 \; pd-MIXER obj \$26 48 tgl 8 0 foosnd \$19|\$18-inbound-diodes-S
empty 17 7 0 8 90 90-1 -1 0 1 \; pd-MIXER obj \$27 48 tgl 8 0 foosnd
\$19|\$18-inbound-diodes-S empty 14 5 0 8 90 90 -1 0 1 \; pd-MIXER
obj \$28 45 tgl 11 0 \$19|\$18-inbound-sender \$19|\$18-inbound-diode-M
empty 17 7 0 8 -262144 -262144 -1 0 1 \; pd-MIXER obj \$29 255 vsl
9 120 0 1 0 0 foosnd \$19|\$18-fader-state empty 0 -9 0 10 7 -1 -1
0 1 \; pd-MIXER obj \$4 188 hsl 64 8 0 1 0 0 foosnd \$19|\$18-pan-state
empty -2 -8 0 10 7 -1 -1 0 1 \; pd-MIXER obj \$30 389 tgl 15 0 \$19|\$18-solo-sender
\$19|\$18-solo S 4 8 0 5 38 38 -1 0 1 \; pd-MIXER obj \$31 39 tgl 15
0 \$19|\$18-presolo-sender \$19|\$18-presolo PS 1 8 0 5 38 38 -1 0
1 \; pd-MIXER obj \$33 56 vsl 8 40 0 1 0 0 \$19|\$18-prelisten-level-sender
\$19|\$18-prelisten-level-sender-rec empty 0 -9 0 10 38 -1 -1 0 0 \;
pd-MIXER obj \$25 185 bng 14 250 50 0 \$19|\$18-CPAN foorec C 3 7 0
6 -257985 -262130 -13381 \;, f 144;
#X obj 76 410 spigot;
#X obj 167 354 spigot;
#X obj 114 377 != 1;
#X obj 26 308 t f f;
#X obj 33 231 r \$0-SETMFTYPE;
#X obj 51 265 tgl 15 0 empty empty empty 17 7 0 10 -262144 -1 -1 0
1;
#X obj 224 403 bng 15 250 50 0 empty empty empty 17 7 0 10 -262144
-1 -1;
#X msg 1086 460 \; pd-MIXER obj \$1 8 cnv 15 100 400 empty empty \$18
22 12 0 14 \$20 -83269 0 \; pd-MIXER obj \$2 382 tgl 15 0 foosnd \$19|\$18-fader-rf
empty 17 7 0 10 \$20 -1 -1 1 1 \; pd-MIXER obj \$3 222 tgl 15 0 foosnd
\$19|\$18-pan-rf empty 17 7 0 10 \$20 -1 -1 1 1 \; pd-MIXER obj \$4
202 hsl 64 15 0 1 0 0 \$19|\$18-pan-state-sender \$19|\$18-pan-state-sender-rec
empty -2 -8 0 10 -262144 -1 -1 0 0 \; pd-MIXER floatatom \$5 382 5
0 0 0 - \$19|\$18-fader-state foosnd \; pd-MIXER floatatom \$6 221
5 0 0 0 - \$19|\$18-pan-stateN foosnd \; pd-MIXER obj \$7 255 vsl 18
120 0.001 1 1 0 \$19|\$18-fader-state-sender \$19|\$18-fader-state-sender-rec
empty 0 -9 0 10 -262144 -1 -1 11900 0 \; pd-MIXER obj \$12 445 cnv
15 100 30 empty \$19|\$18-time-remaining empty 12 15 0 7 \$20 -262130
0 \; pd-MIXER obj \$13 255 vu 10 120 \$19|\$18-vu-l empty -1 -8 0 10
-66577 -1 0 0 \; pd-MIXER obj \$14 255 vu 10 120 \$19|\$18-vu-r empty
-1 -8 0 4 -66577 -1 1 0 \; pd-MIXER obj \$15 62 vu 8 80 \$19|\$18-svu-l
empty -1 -8 0 4 -159808 -1 0 0 \; pd-MIXER obj \$16 62 vu 8 80 \$19|\$18-svu-r
empty -1 -8 0 4 -159808 -1 1 0 \; pd-MIXER obj \$17 412 cnv 15 100
30 empty \$19|\$18-filename ------IN------ 2 15 0 6 \$20 -83269 0 \;
\$19|\$18-fader-rf 1 \; \$19|\$18-pan-rf 1 \; \$19|\$18-time-remaining
color \$20 \; pd-MIXER obj \$21 160 tgl 18 0 foosnd \$19|\$18-loop-active
L 4 9 0 6 38 -1 -1 0 1 \; pd-MIXER obj \$22 162 hradio 15 1 0 3 foosnd
\$19|\$18-input-track IN_MP_SP 0 -6 0 5 \$20 -83269 -1 0 \; pd-MIXER
obj \$32 387 tgl 19 0 \$19|\$18-mute-sender \$19|\$18-mute M 5 10 0
7 38 38 -1 0 1 \; pd-MIXER obj \$23 0 tgl 20 0 \$19|\$18-prelisten-sender
\$19|\$18-prelisten >) 3 9 0 6 38 38 -1 0 1 \; pd-MIXER floatatom \$24
20 4 0 1 0 > \$19|\$18-prelisten-level foosnd \; pd-MIXER obj \$25
202 tgl 14 0 foosnd \$19|\$18-pan-enabled-diode -- 1 7 0 5 90 90 -1
0 1 \; pd-MIXER obj \$26 48 tgl 8 0 foosnd \$19|\$18-inbound-diodes-S
empty 17 7 0 8 90 90-1 -1 0 1 \; pd-MIXER obj \$27 48 tgl 8 0 foosnd
\$19|\$18-inbound-diodes-S empty 14 5 0 8 90 90 -1 0 1 \; pd-MIXER
obj \$28 45 tgl 11 0 \$19|\$18-inbound-sender \$19|\$18-inbound-diode-M
empty 17 7 0 8 -262144 -262144 -1 0 1 \; pd-MIXER obj \$29 255 vsl
9 120 0.001 1 1 0 foosnd \$19|\$18-fader-state empty 0 -9 0 10 7 -1
-1 0 1 \; pd-MIXER obj \$4 188 hsl 64 8 0 1 0 0 foosnd \$19|\$18-pan-state
empty -2 -8 0 10 7 -1 -1 0 1 \; pd-MIXER obj \$30 389 tgl 15 0 \$19|\$18-solo-sender
\$19|\$18-solo S 4 8 0 5 38 38 -1 0 1 \; pd-MIXER obj \$31 39 tgl 15
0 \$19|\$18-presolo-sender \$19|\$18-presolo PS 1 8 0 5 38 38 -1 0
1 \; pd-MIXER obj \$33 56 vsl 8 40 0 1 0 0 \$19|\$18-prelisten-level-sender
\$19|\$18-prelisten-level-sender-rec empty 0 -9 0 10 38 -1 -1 0 0 \;
pd-MIXER obj \$25 185 bng 14 250 50 0 \$19|\$18-CPAN foorec C 3 7 0
6 -257985 -262130 -13381 \;, f 144;
#X obj 165 410 bng 15 250 50 0 empty empty empty 17 7 0 10 -262144
-1 -1;
#X msg 20 194 1;
#X connect 0 0 6 0;
#X connect 1 0 5 0;
#X connect 2 0 1 0;
#X connect 3 0 13 0;
#X connect 4 0 13 2;
#X connect 5 0 3 0;
#X connect 5 1 13 1;
#X connect 5 2 4 0;
#X connect 6 0 1 0;
#X connect 12 0 15 0;
#X connect 12 0 16 0;
#X connect 13 0 12 0;
#X connect 13 1 12 1;
#X connect 13 2 12 2;
#X connect 13 3 12 3;
#X connect 13 4 12 4;
#X connect 13 5 12 5;
#X connect 13 6 12 6;
#X connect 13 7 12 7;
#X connect 13 8 12 8;
#X connect 13 9 12 9;
#X connect 13 10 12 10;
#X connect 13 11 12 11;
#X connect 13 12 12 12;
#X connect 13 13 12 13;
#X connect 13 14 12 14;
#X connect 13 15 12 15;
#X connect 13 16 12 16;
#X connect 13 17 12 17;
#X connect 13 18 12 18;
#X connect 13 19 12 19;
#X connect 13 20 12 20;
#X connect 13 21 12 21;
#X connect 13 22 12 22;
#X connect 13 23 12 23;
#X connect 13 24 12 24;
#X connect 13 25 12 25;
#X connect 13 26 12 26;
#X connect 13 27 12 27;
#X connect 13 28 12 28;
#X connect 13 29 12 29;
#X connect 13 30 12 30;
#X connect 13 31 12 31;
#X connect 13 32 12 32;
#X connect 15 0 14 0;
#X connect 16 0 21 0;
#X connect 16 0 22 0;
#X connect 17 0 15 1;
#X connect 18 0 16 1;
#X connect 18 1 17 0;
#X connect 19 0 18 0;
#X connect 19 0 20 0;
#X connect 24 0 18 0;
#X restore 1189 657 pd \$0-BUILD-MIXER-STRIPE-INTERACTIVE;
#N canvas 597 327 2900 892 \$0-GUICMD-TRACK 0;
#X obj 42 138 r \$0|\$1-fader-state-sender;
#X obj 225 28 r \$0|\$1-pan-state-sender;
#X obj 410 26 r \$0|\$1-mute-sender;
#X obj 1149 16 r \$0|\$1-solo-sender;
#X obj 808 197 r \$0|\$1-inbound-sender;
#X obj 1153 142 r \$0|\$1-presolo-sender;
#X obj 849 38 r \$0|\$1-prelisten-level-sender;
#X obj 810 267 sel 0 1;
#X obj 626 62 != 1;
#X obj 619 420 outlet;
#X msg 796 300 mono;
#X msg 837 301 stereo;
#X obj 293 308 list prepend fader;
#X obj 222 71 list prepend pan;
#X msg 411 59 list setmute \$1;
#X obj 1149 105 s __SELFCOM;
#X obj 1151 244 s __SELFCOM;
#X obj 1149 41 pack f \$1;
#X msg 1149 67 list \$2 setsolo \$1;
#X obj 1152 174 pack f \$1;
#X msg 1150 208 list \$2 setpresolo \$1;
#X obj 626 32 r \$0|\$1-prelisten-sender;
#X obj 858 129 print ==;
#X obj 849 76 list prepend setprelevel;
#X obj 625 95 list prepend setpremute;
#X floatatom 821 227 5 0 0 0 - - -;
#X obj 995 301 r \$0|\$1-CPAN;
#X msg 986 331 pan 0.5;
#X msg 115 239 0;
#X obj 68 193 moses 0.0011;
#X connect 0 0 29 0;
#X connect 1 0 13 0;
#X connect 2 0 14 0;
#X connect 3 0 17 0;
#X connect 4 0 7 0;
#X connect 4 0 25 0;
#X connect 5 0 19 0;
#X connect 6 0 23 0;
#X connect 7 0 10 0;
#X connect 7 1 11 0;
#X connect 8 0 24 0;
#X connect 10 0 9 0;
#X connect 11 0 9 0;
#X connect 12 0 9 0;
#X connect 13 0 9 0;
#X connect 14 0 9 0;
#X connect 17 0 18 0;
#X connect 18 0 15 0;
#X connect 19 0 20 0;
#X connect 20 0 16 0;
#X connect 21 0 8 0;
#X connect 23 0 9 0;
#X connect 24 0 9 0;
#X connect 26 0 27 0;
#X connect 27 0 9 0;
#X connect 28 0 12 0;
#X connect 29 0 28 0;
#X connect 29 1 12 0;
#X restore 652 271 pd \$0-GUICMD-TRACK;
#X obj 652 297 list trim;
#N canvas 0 180 1891 976 \$0-PRELISTEN-LEVEL 0;
#X obj 213 144 s \$0|\$1-prelisten-level;
#X text 529 110 audio proc:;
#X msg 254 196 set \$1;
#X obj 258 244 s \$0|\$1-prelisten-level-sender-rec;
#X obj 209 28 inlet;
#X obj 460 137 s \$0|\$1-PRELISTEN_TRACK_LEVEL;
#X connect 2 0 3 0;
#X connect 4 0 0 0;
#X connect 4 0 2 0;
#X connect 4 0 5 0;
#X restore 1817 505 pd \$0-PRELISTEN-LEVEL;
#X obj 608 40 print ===>|@|srv_track_gate_\$1|@|;
#X obj 738 761 print ####AIRLINER_COREMIX_FADER;
#X obj 749 737 print ####AIRLINER_COREMIX_PAN;
#N canvas 457 636 3383 1417 \$0-PERSIST-TRACK 0;
#X obj 676 447 s __SELFCOM;
#N canvas 193 180 1577 1376 \$0-STB 0;
#X obj 53 56 inlet;
#X obj 174 355 outlet;
#X text 50 20 wire;
#X obj 290 57 r \$0-WAKEUP;
#X text 260 15 loadbang+refreshmix+refreshcon, f 16;
#X obj 171 291 pack f \$1;
#X msg 172 319 \$2 fader \$1;
#X obj 108 102 print <<<<<<<<<<<<storefader_\$1;
#X obj 103 162 array set __autosave;
#X obj 171 260 array get __autosave 1 1;
#X obj 173 68 loadbang;
#X obj 171 139 expr (\$1*10) + 1;
#X obj 172 230 expr (\$1*10) + 1;
#X obj 72 430 s \$0|\$1-fader-state-sender-rec;
#X msg 69 391 set \$1;
#X obj 41 472 s \$0|\$1-fader-state;
#X text 343 476 to console track, f 20;
#X obj 348 454 s \$0-RESTORE_OSC_TRACK;
#X msg 345 318 fader \$1;
#X connect 0 0 8 0;
#X connect 3 0 12 0;
#X connect 5 0 6 0;
#X connect 6 0 1 0;
#X connect 9 0 5 0;
#X connect 9 0 14 0;
#X connect 9 0 18 0;
#X connect 10 0 11 0;
#X connect 11 0 8 1;
#X connect 12 0 9 0;
#X connect 14 0 13 0;
#X connect 14 0 15 0;
#X connect 18 0 17 0;
#X restore 52 110 pd \$0-STB;
#X obj 306 501 s \$0-WAKEUP;
#X obj 305 470 bng 15 250 50 0 empty empty empty 17 7 0 10 -262144
-1 -1;
#N canvas 1469 180 1409 1224 \$0-STB 0;
#X obj 53 56 inlet;
#X obj 140 377 outlet;
#X text 50 20 wire;
#X obj 290 56 r \$0-WAKEUP;
#X text 260 15 loadbang+refreshmix+refreshcon, f 16;
#X obj 171 308 pack f \$1;
#X msg 172 336 \$2 pan \$1;
#X obj 104 113 print <<<<<<<<<<<<storepan_\$1;
#X obj 171 261 array get __autosave \$1 1;
#X obj 103 184 array set __autosave;
#X obj 323 87 loadbang;
#X obj 170 150 expr (\$1 * 10) + 2;
#X obj 172 232 expr (\$1 * 10) + 2;
#X obj 325 397 s \$0|\$1-pan-state-sender-rec;
#X msg 324 354 set \$1;
#X obj 280 464 s \$0|\$1-pan-state;
#X obj 288 500 s \$0|\$1-pan-stateN;
#X text 536 460 to console track, f 20;
#X obj 541 438 s \$0-RESTORE_OSC_TRACK;
#X msg 538 302 pan \$1;
#X connect 0 0 9 0;
#X connect 3 0 12 0;
#X connect 5 0 6 0;
#X connect 6 0 1 0;
#X connect 8 0 5 0;
#X connect 8 0 14 0;
#X connect 8 0 19 0;
#X connect 10 0 11 0;
#X connect 11 0 9 1;
#X connect 12 0 8 0;
#X connect 14 0 13 0;
#X connect 14 0 15 0;
#X connect 14 0 16 0;
#X connect 19 0 18 0;
#X restore 252 116 pd \$0-STB;
#X obj 55 197 print %%%%%%%%%%%%%RECALL_FADER;
#X obj 250 153 print %%%%%%%%%%%%%RECALL_PAN;
#X obj 57 25 r \$0|\$1-fader-state;
#X obj 260 24 r \$0|\$1-pan-state;
#N canvas 27 896 918 820 \$0-STB 0;
#X obj 53 56 inlet;
#X obj 140 360 outlet;
#X text 50 20 wire;
#X obj 290 56 r \$0-WAKEUP;
#X text 260 15 loadbang+refreshmix+refreshcon, f 16;
#X obj 171 291 pack f \$1;
#X obj 171 261 array get __autosave \$1 1;
#X obj 103 184 array set __autosave;
#X obj 323 87 loadbang;
#X msg 172 319 \$2 setmute \$1;
#X obj 169 150 expr (\$1 * 10) + 3;
#X obj 172 231 expr (\$1 * 10) + 3;
#X obj 104 113 print <<<<<<<<<<<<storemute_\$1;
#X msg 35 145 1;
#X obj 187 69 bng 15 250 50 0 empty empty empty 17 7 0 10 -262144 -1
-1;
#X floatatom 293 184 5 0 0 0 - - -;
#X connect 0 0 7 0;
#X connect 3 0 11 0;
#X connect 5 0 9 0;
#X connect 6 0 5 0;
#X connect 8 0 10 0;
#X connect 9 0 1 0;
#X connect 10 0 7 1;
#X connect 10 0 15 0;
#X connect 11 0 6 0;
#X connect 13 0 7 0;
#X connect 14 0 10 0;
#X restore 469 136 pd \$0-STB;
#X text 470 95 avoid 'set' commands;
#X obj 261 66 route set color;
#X obj 62 66 route set color;
#X obj 470 76 route set color;
#X floatatom 434 60 5 0 0 0 - - -;
#X obj 717 71 route set color;
#N canvas 1469 180 918 820 \$0-STB 0;
#X obj 53 56 inlet;
#X obj 140 360 outlet;
#X text 50 20 wire;
#X obj 290 56 r \$0-WAKEUP;
#X text 260 15 loadbang+refreshmix+refreshcon, f 16;
#X obj 171 291 pack f \$1;
#X obj 171 261 array get __autosave \$1 1;
#X obj 103 184 array set __autosave;
#X obj 323 87 loadbang;
#X obj 169 150 expr (\$1 * 10) + 4;
#X obj 172 231 expr (\$1 * 10) + 4;
#X msg 172 319 \$2 setsolo \$1;
#X obj 104 112 print <<<<<<<<<<<<storesolo_\$1;
#X connect 0 0 7 0;
#X connect 3 0 10 0;
#X connect 5 0 11 0;
#X connect 6 0 5 0;
#X connect 8 0 9 0;
#X connect 9 0 7 1;
#X connect 10 0 6 0;
#X connect 11 0 1 0;
#X restore 716 122 pd \$0-STB;
#X obj 467 177 print %%%%%%%%%%%%%RECALL_MUTE;
#X obj 735 191 print %%%%%%%%%%%%%RECALL_SOLO;
#X obj 1231 77 route set color;
#X obj 476 25 r \$0|\$1-mute-persist;
#X obj 710 27 r \$0|\$1-solo-persist;
#X obj 963 251 bng 15 250 50 0 empty empty empty 17 7 0 10 -262144
-1 -1;
#X obj 782 244 bng 15 250 50 0 empty empty empty 17 7 0 10 -262144
-1 -1;
#X obj 505 247 bng 15 250 50 0 empty empty empty 17 7 0 10 -262144
-1 -1;
#X obj 1235 28 r \$0|\$1-prelisten-level;
#X obj 878 27 r \$0|\$1-premute-persist;
#X obj 1059 26 r \$0|\$1-presolo-persist;
#X obj 1059 68 route set color;
#X obj 880 66 route set color;
#N canvas 2195 352 954 896 \$0-STB 0;
#X obj 53 56 inlet;
#X obj 140 360 outlet;
#X text 50 20 wire;
#X obj 290 56 r \$0-WAKEUP;
#X text 260 15 loadbang+refreshmix+refreshcon, f 16;
#X obj 171 291 pack f \$1;
#X obj 171 261 array get __autosave \$1 1;
#X obj 103 184 array set __autosave;
#X obj 323 87 loadbang;
#X obj 109 113 print <<<<<<<<<<<<storesolomute_\$1;
#X obj 169 150 expr (\$1 * 10) + 5;
#X obj 172 231 expr (\$1 * 10) + 5;
#X msg 170 321 \$2 setpremute \$1;
#X connect 0 0 7 0;
#X connect 3 0 11 0;
#X connect 5 0 12 0;
#X connect 6 0 5 0;
#X connect 8 0 10 0;
#X connect 10 0 7 1;
#X connect 11 0 6 0;
#X connect 12 0 1 0;
#X restore 873 107 pd \$0-STB;
#X obj 856 211 print %%%%%%%%%%%%%RECALL_PREMUTE;
#X obj 1037 287 print %%%%%%%%%%%%%RECALL_PRESOLO;
#N canvas 1043 387 954 896 \$0-STB 0;
#X obj 53 56 inlet;
#X obj 140 360 outlet;
#X text 50 20 wire;
#X obj 290 56 r \$0-WAKEUP;
#X text 260 15 loadbang+refreshmix+refreshcon, f 16;
#X obj 171 291 pack f \$1;
#X obj 171 261 array get __autosave \$1 1;
#X obj 103 184 array set __autosave;
#X obj 323 87 loadbang;
#X obj 169 150 expr (\$1 * 10) + 6;
#X obj 172 231 expr (\$1 * 10) + 6;
#X msg 170 321 \$2 setpresolo \$1;
#X obj 109 113 print <<<<<<<<<<<<storepresolo_\$1;
#X connect 0 0 7 0;
#X connect 3 0 10 0;
#X connect 5 0 11 0;
#X connect 6 0 5 0;
#X connect 8 0 9 0;
#X connect 9 0 7 1;
#X connect 10 0 6 0;
#X connect 11 0 1 0;
#X restore 1059 130 pd \$0-STB;
#X obj 1189 206 print %%%%%%%%%%%%%RECALL_PRELEVEL;
#N canvas 1043 222 954 896 \$0-STB 0;
#X obj 53 56 inlet;
#X obj 140 360 outlet;
#X text 50 20 wire;
#X obj 290 56 r \$0-WAKEUP;
#X text 260 15 loadbang+refreshmix+refreshcon, f 16;
#X obj 171 291 pack f \$1;
#X obj 171 261 array get __autosave \$1 1;
#X obj 103 184 array set __autosave;
#X obj 323 87 loadbang;
#X obj 109 113 print <<<<<<<<<<<<storeprelevel_\$1;
#X obj 169 150 expr (\$1 * 10) + 7;
#X obj 172 231 expr (\$1 * 10) + 7;
#X msg 170 321 \$2 setprelevel \$1;
#X connect 0 0 7 0;
#X connect 3 0 11 0;
#X connect 5 0 12 0;
#X connect 6 0 5 0;
#X connect 8 0 10 0;
#X connect 10 0 7 1;
#X connect 11 0 6 0;
#X connect 12 0 1 0;
#X restore 1231 125 pd \$0-STB;
#X obj 1464 79 route set color;
#N canvas 1704 679 954 896 \$0-STB 0;
#X obj 53 56 inlet;
#X obj 93 404 outlet;
#X text 50 20 wire;
#X obj 290 56 r \$0-WAKEUP;
#X text 260 15 loadbang+refreshmix+refreshcon, f 16;
#X obj 171 261 array get __autosave \$1 1;
#X obj 103 184 array set __autosave;
#X obj 323 87 loadbang;
#X obj 169 150 expr (\$1 * 10) + 8;
#X obj 172 231 expr (\$1 * 10) + 8;
#X obj 147 330 \$1;
#X obj 186 329 \$1;
#X msg 99 360 \$1 mono;
#X msg 176 366 \$1 stereo;
#X text 328 196 1=stereo;
#X obj 111 113 print <<<<<<<<<<<<storeismono_\$1;
#X obj 171 296 sel 1 0;
#X connect 0 0 6 0;
#X connect 3 0 9 0;
#X connect 5 0 16 0;
#X connect 7 0 8 0;
#X connect 8 0 6 1;
#X connect 9 0 5 0;
#X connect 10 0 12 0;
#X connect 11 0 13 0;
#X connect 12 0 1 0;
#X connect 13 0 1 0;
#X connect 16 0 10 0;
#X connect 16 1 11 0;
#X restore 1476 120 pd \$0-STB;
#X obj 1374 254 print %%%%%%%%%%%%%RECALL_INBOUND;
#X floatatom 1193 82 5 0 0 0 - - -;
#X obj 1439 4 r \$0|\$1-ISMONO;
#X obj 1424 61 tgl 15 0 empty empty empty 17 7 0 10 -262144 -1 -1 0
1;
#X connect 1 0 0 0;
#X connect 3 0 2 0;
#X connect 4 0 0 0;
#X connect 7 0 12 0;
#X connect 8 0 11 0;
#X connect 9 0 0 0;
#X connect 11 2 4 0;
#X connect 12 2 1 0;
#X connect 13 2 9 0;
#X connect 15 2 16 0;
#X connect 16 0 0 0;
#X connect 19 2 35 0;
#X connect 20 0 13 0;
#X connect 20 0 24 0;
#X connect 21 0 15 0;
#X connect 21 0 23 0;
#X connect 25 0 19 0;
#X connect 25 0 39 0;
#X connect 26 0 29 0;
#X connect 27 0 28 0;
#X connect 28 2 33 0;
#X connect 29 2 30 0;
#X connect 30 0 0 0;
#X connect 33 0 0 0;
#X connect 35 0 0 0;
#X connect 36 2 37 0;
#X connect 37 0 0 0;
#X connect 40 0 36 0;
#X connect 40 0 41 0;
#X restore 1210 254 pd \$0-PERSIST-TRACK;
#X obj 1212 222 cnv 15 100 10 empty empty empty 20 12 0 14 -260097
-66577 0;
#X obj 2378 506 route mono stereo restore;
#N canvas 1060 180 2351 1505 \$0-RESTORE 0;
#X obj 49 27 inlet;
#X obj 131 23 inlet;
#X obj 54 145 s \$0|\$1-fader-state-sender-rec;
#X msg 51 106 set \$1;
#X obj 135 258 s \$0|\$1-pan-state-sender-rec;
#X msg 134 219 set \$1;
#X connect 0 0 3 0;
#X connect 1 0 5 0;
#X connect 3 0 2 0;
#X connect 5 0 4 0;
#X restore 2309 701 pd \$0-RESTORE;
#X obj 554 75 route play loop record rec stop name;
#N canvas 1385 180 2072 901 \$0-name 0;
#X obj 292 81 expr (2 * \$1) - 1 \; 2*\$1 \;;
#X obj 269 207 s \$0|\$1-filename;
#X obj 37 12 inlet;
#X obj 223 140 pack s f f;
#X msg 269 170 label \$1_[\$2+\$3];
#X obj 216 31 symbol;
#X obj 220 59 t s b;
#X obj 28 166 s \$0|\$1-filename;
#X msg 28 133 label ------IN------;
#X obj 37 43 route clear;
#X obj 229 327 text set __chname \$1;
#X msg 229 294 list \$1_[\$2+\$3];
#X obj 577 24 r \$0-WAKEUP;
#X msg 573 333 label \$1;
#X obj 29 88 t b b;
#X obj 26 231 text delete __chname \$1;
#X obj 26 204 \$1;
#X obj 576 60 \$1;
#X obj 610 281 text get __chname;
#X obj 677 327 s \$0|\$1-name_OSC;
#X text 686 347 to etc;
#X obj 230 255 t a b;
#X obj 542 19 bng 15 250 50 0 empty empty empty 17 7 0 10 -262144 -1
-1;
#X obj 411 18 r \$0-REFRESHNAME;
#X obj 475 88 bng 15 250 50 0 empty empty empty 17 7 0 10 -262144 -1
-1;
#X text 607 60 text @ line \$1;
#X obj 791 149 text size __chname;
#X obj 572 98 t f b;
#X obj 568 217 moses 1;
#X floatatom 841 204 5 0 0 0 - - -;
#X floatatom 483 177 5 0 0 0 - - -;
#X floatatom 660 225 5 0 0 0 - - -;
#X msg 515 279 symbol ---;
#X obj 570 178 expr if($f1 < $f2 \, $f1 \, 0);
#X connect 0 0 3 1;
#X connect 0 1 3 2;
#X connect 2 0 9 0;
#X connect 3 0 4 0;
#X connect 3 0 21 0;
#X connect 4 0 1 0;
#X connect 5 0 6 0;
#X connect 6 0 3 0;
#X connect 6 1 0 0;
#X connect 8 0 7 0;
#X connect 9 0 14 0;
#X connect 9 1 5 0;
#X connect 11 0 10 0;
#X connect 12 0 17 0;
#X connect 13 0 1 0;
#X connect 14 0 8 0;
#X connect 14 1 16 0;
#X connect 16 0 15 0;
#X connect 17 0 27 0;
#X connect 18 0 13 0;
#X connect 18 0 19 0;
#X connect 21 0 11 0;
#X connect 21 1 16 0;
#X connect 22 0 17 0;
#X connect 23 0 24 0;
#X connect 23 0 17 0;
#X connect 26 0 29 0;
#X connect 26 0 33 1;
#X connect 27 0 30 0;
#X connect 27 0 33 0;
#X connect 27 1 26 0;
#X connect 28 0 32 0;
#X connect 28 1 18 0;
#X connect 32 0 13 0;
#X connect 32 0 19 0;
#X connect 33 0 28 0;
#X connect 33 0 31 0;
#X restore 762 115 pd \$0-name;
#X obj 1300 436 route setmute setsolo setsolomute setpremute setpresolo
setsolopremute setprelevel prelevel refreshmix refreshcon wakeup setfadertype
, f 144;
#N canvas 265 522 1304 695 \$0-setfadertype 0;
#X obj 67 15 inlet;
#X obj 67 72 s \$0-SETMFTYPE;
#X obj 82 124 tgl 15 0 empty empty empty 17 7 0 10 -262144 -1 -1 0
1;
#X connect 0 0 1 0;
#X connect 0 0 2 0;
#X restore 2219 501 pd \$0-setfadertype;
#X text 63 686 supermod 6DB : *2;
#X obj 344 158 print *****************;
#X text 64 703 supermod 12DB : *4;
#X text -45 731 VU linear scale fitting : *1.41;
#X obj 291 695 *~ 1;
#X obj 51 601 osc~ 440;
#X connect 0 0 75 0;
#X connect 0 0 82 0;
#X connect 5 0 8 1;
#X connect 5 0 55 1;
#X connect 5 1 8 3;
#X connect 5 4 8 6;
#X connect 11 0 29 0;
#X connect 12 0 8 0;
#X connect 12 0 90 0;
#X connect 12 1 8 2;
#X connect 12 4 8 7;
#X connect 13 0 30 0;
#X connect 19 0 8 5;
#X connect 23 0 19 0;
#X connect 28 0 29 1;
#X connect 28 0 30 1;
#X connect 29 0 17 0;
#X connect 29 0 67 0;
#X connect 29 0 15 0;
#X connect 29 0 22 0;
#X connect 30 0 18 0;
#X connect 30 0 67 1;
#X connect 30 0 15 1;
#X connect 30 0 22 1;
#X connect 34 0 71 0;
#X connect 34 1 36 0;
#X connect 36 0 35 0;
#X connect 37 0 12 0;
#X connect 37 1 5 0;
#X connect 37 2 15 2;
#X connect 37 3 15 3;
#X connect 37 4 39 0;
#X connect 37 5 40 0;
#X connect 37 7 19 3;
#X connect 37 8 19 4;
#X connect 37 9 21 0;
#X connect 37 10 21 1;
#X connect 37 11 15 2;
#X connect 37 12 23 0;
#X connect 37 13 34 0;
#X connect 37 14 27 0;
#X connect 37 15 84 0;
#X connect 39 0 19 0;
#X connect 39 1 24 0;
#X connect 40 0 19 1;
#X connect 40 1 24 0;
#X connect 42 0 43 0;
#X connect 42 1 46 1;
#X connect 43 0 50 0;
#X connect 44 0 52 0;
#X connect 45 0 44 0;
#X connect 45 1 46 2;
#X connect 46 0 37 0;
#X connect 47 0 51 0;
#X connect 48 0 47 0;
#X connect 48 1 46 1;
#X connect 50 0 37 0;
#X connect 50 0 87 0;
#X connect 51 0 37 0;
#X connect 52 0 37 0;
#X connect 55 1 60 1;
#X connect 55 2 61 1;
#X connect 60 0 11 0;
#X connect 61 0 13 0;
#X connect 64 0 55 0;
#X connect 65 0 60 0;
#X connect 65 0 56 0;
#X connect 65 0 68 0;
#X connect 65 0 69 0;
#X connect 65 1 61 0;
#X connect 65 1 56 1;
#X connect 65 1 68 1;
#X connect 65 1 69 1;
#X connect 65 2 8 4;
#X connect 69 0 32 0;
#X connect 69 1 53 0;
#X connect 72 0 73 0;
#X connect 73 0 37 0;
#X connect 80 0 63 0;
#X connect 80 1 63 1;
#X connect 80 3 62 0;
#X connect 82 0 42 0;
#X connect 82 1 48 0;
#X connect 82 2 45 0;
#X connect 82 3 45 0;
#X connect 82 4 46 0;
#X connect 82 5 83 0;
#X connect 82 6 37 0;
#X connect 84 0 66 0;
#X connect 84 1 66 1;
#X connect 84 2 66 2;
#X connect 84 3 66 3;
#X connect 84 4 66 4;
#X connect 84 5 66 5;
#X connect 84 6 74 0;
#X connect 84 7 74 0;
#X connect 84 8 38 0;
#X connect 84 9 38 1;
#X connect 84 10 38 2;
#X connect 84 11 85 0;
#X connect 84 12 80 0;
#X connect 90 0 13 1;
#X connect 90 0 11 1;
