#N canvas 1272 609 2456 1400 12;
#X obj 713 108 cnv 10 114 22 empty empty AIR 36 6 1 22 -66577 -262144
0;
#X text 713 133 Gregor Pirš 2022;
#X obj 82 164 inlet~;
#X obj 361 -12 inlet;
#X obj 82 472 outlet~;
#X obj 154 473 outlet~;
#X obj 235 474 outlet~;
#X obj 313 473 outlet~;
#X obj 395 473 outlet~;
#X obj 469 472 outlet~;
#X obj 542 477 outlet~;
#X obj 620 472 outlet~;
#X obj 81 335 *~;
#X obj 99 271 loadbang;
#X msg 100 298 0;
#X obj 158 333 *~;
#X obj 176 269 loadbang;
#X msg 177 296 0;
#X obj 235 333 *~;
#X obj 253 269 loadbang;
#X msg 254 296 0;
#X obj 312 331 *~;
#X obj 330 267 loadbang;
#X msg 331 294 0;
#X obj 391 329 *~;
#X obj 409 265 loadbang;
#X msg 410 292 0;
#X obj 468 327 *~;
#X obj 486 263 loadbang;
#X msg 487 290 0;
#X obj 540 326 *~;
#X obj 558 262 loadbang;
#X msg 559 289 0;
#X obj 617 324 *~;
#X obj 635 260 loadbang;
#X msg 636 287 0;
#X text 833 101 gpp-polyswitch8~ :: channel a stream to arbitrary number
of output tracks;
#X obj 352 32 route on off;
#X msg 114 335 1;
#X msg 191 334 1;
#X msg 271 332 1;
#X msg 343 331 1;
#X msg 425 330 1;
#X msg 498 328 1;
#X msg 572 327 1;
#X msg 649 325 1;
#X obj 152 120 select 1 2 3 4 5 6 7 8;
#X obj 497 113 select 1 2 3 4 5 6 7 8;
#X obj 290 74 route all float;
#X obj 329 122 bang;
#X obj 411 123 bang;
#X obj 413 75 route all float;
#X connect 2 0 12 0;
#X connect 2 0 15 0;
#X connect 2 0 18 0;
#X connect 2 0 21 0;
#X connect 2 0 24 0;
#X connect 2 0 27 0;
#X connect 2 0 30 0;
#X connect 2 0 33 0;
#X connect 3 0 37 0;
#X connect 12 0 4 0;
#X connect 13 0 14 0;
#X connect 14 0 12 1;
#X connect 15 0 5 0;
#X connect 16 0 17 0;
#X connect 17 0 15 1;
#X connect 18 0 6 0;
#X connect 19 0 20 0;
#X connect 20 0 18 1;
#X connect 21 0 7 0;
#X connect 22 0 23 0;
#X connect 23 0 21 1;
#X connect 24 0 8 0;
#X connect 25 0 26 0;
#X connect 26 0 24 1;
#X connect 27 0 9 0;
#X connect 28 0 29 0;
#X connect 29 0 27 1;
#X connect 30 0 10 0;
#X connect 31 0 32 0;
#X connect 32 0 30 1;
#X connect 33 0 11 0;
#X connect 34 0 35 0;
#X connect 35 0 33 1;
#X connect 37 0 48 0;
#X connect 37 1 51 0;
#X connect 38 0 12 1;
#X connect 39 0 15 1;
#X connect 40 0 18 1;
#X connect 41 0 21 1;
#X connect 42 0 24 1;
#X connect 43 0 27 1;
#X connect 44 0 30 1;
#X connect 45 0 33 1;
#X connect 46 0 38 0;
#X connect 46 1 39 0;
#X connect 46 2 40 0;
#X connect 46 3 41 0;
#X connect 46 4 42 0;
#X connect 46 5 43 0;
#X connect 46 6 44 0;
#X connect 46 7 45 0;
#X connect 47 0 14 0;
#X connect 47 1 17 0;
#X connect 47 2 20 0;
#X connect 47 3 23 0;
#X connect 47 4 26 0;
#X connect 47 5 29 0;
#X connect 47 6 32 0;
#X connect 47 7 35 0;
#X connect 48 0 49 0;
#X connect 48 1 46 0;
#X connect 49 0 38 0;
#X connect 49 0 39 0;
#X connect 49 0 40 0;
#X connect 49 0 41 0;
#X connect 49 0 42 0;
#X connect 49 0 43 0;
#X connect 49 0 44 0;
#X connect 49 0 45 0;
#X connect 50 0 14 0;
#X connect 50 0 17 0;
#X connect 50 0 20 0;
#X connect 50 0 23 0;
#X connect 50 0 26 0;
#X connect 50 0 29 0;
#X connect 50 0 32 0;
#X connect 50 0 35 0;
#X connect 51 0 50 0;
#X connect 51 1 47 0;
