#N canvas 82 180 2537 1395 12;
#X obj 159 373 gpp-airliner~;
#X obj 436 368 gpp-airliner~;
#X obj 159 455 outlet~;
#X obj 436 454 outlet~;
#X obj 381 20 inlet;
#X obj 272 23 inlet;
#X obj 631 116 symbol;
#X obj 585 22 loadbang;
#X obj 379 51 route time type;
#X obj 585 49 t b b b;
#X obj 436 316 list append;
#X obj 160 311 list append;
#X obj 163 115 t b b;
#X obj 275 113 t b b;
#X obj 445 177 pack 0 f s;
#X obj 445 207 list split 1;
#X text 687 46 Gregor Pirš 2022;
#X obj 690 22 cnv 10 114 22 empty empty AIR 36 6 1 22 -66577 -262144
0;
#X obj 980 481 outlet;
#X obj 980 455 sel 1;
#X text 973 504 ENDBANG [unconditional ! ];
#X text 824 16 gpp-crossfade3~ :: airliner~ based crossfader \, 3 channel
| in1 = channel selection (0 = left 1 = middle 2 = right) :: in2 =
control (select crossfade *time or *type) :: out 1 \, 2 \, 3 = amplitude
signal 1 \, 2 \, 3:: out4 = endbang;
#X obj 161 200 expr 1 \; 0 \; 0 \;;
#X obj 243 198 expr 0 \; 1 \; 0 \;;
#X obj 317 199 expr 0 \; 0 \; 1 \;;
#X obj 271 55 sel 0 1 2;
#X obj 295 372 gpp-airliner~;
#X obj 296 313 list append;
#X obj 365 113 t b b;
#X obj 296 456 outlet~;
#X obj 505 26 inlet;
#X msg 630 86 hsin;
#X msg 560 116 100;
#X obj 635 500 outlet;
#X obj 726 500 outlet;
#X obj 793 501 outlet;
#X text 728 532 RF monitor;
#X obj 637 441 gpp-snapshot~ 100;
#X obj 706 386 gpp-snapshot~ 100;
#X obj 741 329 gpp-snapshot~ 100;
#X obj 637 474 change;
#X obj 724 469 change;
#X obj 793 472 change;
#X connect 0 0 2 0;
#X connect 0 0 37 0;
#X connect 1 0 3 0;
#X connect 1 0 39 0;
#X connect 1 1 19 0;
#X connect 4 0 8 0;
#X connect 5 0 25 0;
#X connect 6 0 14 2;
#X connect 7 0 9 0;
#X connect 8 0 14 1;
#X connect 8 1 6 0;
#X connect 9 1 32 0;
#X connect 9 2 31 0;
#X connect 10 0 1 0;
#X connect 11 0 0 0;
#X connect 12 0 22 0;
#X connect 12 1 14 0;
#X connect 13 0 23 0;
#X connect 13 1 14 0;
#X connect 14 0 15 0;
#X connect 15 1 10 1;
#X connect 15 1 27 1;
#X connect 15 1 11 1;
#X connect 19 0 18 0;
#X connect 22 0 11 0;
#X connect 22 1 27 0;
#X connect 22 2 10 0;
#X connect 23 0 11 0;
#X connect 23 1 27 0;
#X connect 23 2 10 0;
#X connect 24 0 11 0;
#X connect 24 1 27 0;
#X connect 24 2 10 0;
#X connect 25 0 12 0;
#X connect 25 1 13 0;
#X connect 25 2 28 0;
#X connect 26 0 29 0;
#X connect 26 0 38 0;
#X connect 27 0 26 0;
#X connect 28 0 24 0;
#X connect 28 1 14 0;
#X connect 30 0 14 1;
#X connect 31 0 6 0;
#X connect 32 0 14 1;
#X connect 37 0 40 0;
#X connect 38 0 41 0;
#X connect 39 0 42 0;
#X connect 40 0 33 0;
#X connect 41 0 34 0;
#X connect 42 0 35 0;
