#N canvas 903 180 1479 1070 12;
#N canvas 1144 1198 1094 704 \$0-CON 0;
#X obj 76 138 gpp-air-iconsole-core 4 3001 3000 localhost;
#X obj 50 38 r 7390|tocore;
#X obj 70 300 s 7390|lsin;
#X obj 300 300 s 7390|lsout;
#X obj 200 200 gpp-dummy;
#X connect 0 0 2 0;
#X connect 0 1 3 0;
#X connect 1 0 0 0;
#X restore 406 389 pd \$0-CON;
#X obj 406 164 oscparse;
#X obj 403 89 \$1;
#X obj 351 15 bng 15 250 50 0 empty empty empty 17 7 0 10 -262144 -1
-1;
#X msg 403 113 listen \$1;
#X obj 579 14 loadbang;
#X obj 407 193 list split 1;
#X obj 406 251 list prepend;
#X obj 406 221 select airmon;
#X obj 406 285 list trim;
#X obj 691 15 cnv 10 114 22 empty empty AIR 36 6 1 22 -66577 -262144
0;
#X text 691 40 Gregor Pirš 2022;
#X obj 554 311 s \$0|tocore;
#X obj 406 357 cnv 8 120 12 empty empty empty 20 12 0 14 -258113 -66577
0;
#N canvas 1892 180 1896 1394 \$0-SYS-ROUTER 0;
#X obj 142 3 inlet;
#X obj 205 582 s \$0|tocore;
#X obj 142 32 route sys;
#X msg 144 139 float \$1;
#X obj 287 172 s \$0|tocore;
#X obj 65 352 s \$0|tocore;
#X text 401 152 show request still stands \, but it's internal now
=> server will broadcast only 'request/con' and 'request/noc', f 39
;
#X msg 287 145 syscore SHOW 0;
#X msg 65 319 syscore SHOW 1;
#X text 457 568 TWO MAIN RULES OF DYNAMIC PATCHING: 1) dynamically
produced patch will not receive loadbang per se and 2) will not have
'audio on' as a part of chain. create one more patch on the top or
switch off / on the whole thing.;
#X msg 236 499 \; pd-\$1-CON obj 200 200 gpp-dummy \;;
#X obj 236 461 \$0;
#X text 563 663 SaveMyButt 1;
#X text 574 528 SaveMyButt 2;
#X obj 24 56 s \$0-OUTLET;
#X text 21 82 to connect to midisender, f 12;
#X obj 144 205 t b f b;
#X obj 144 171 t f b f b;
#X msg 126 268 syscore RECHAN;
#X msg 186 626 \; pd-gpp-air-iconsole-core.pd loadbang \; pd-gpp-air-iconsole-track.pd
loadbang \;;
#X obj 260 304 pack f f f f s;
#X msg 285 351 \; pd-\$2-CON clear \; pd-\$2-CON obj 76 138 gpp-air-iconsole-core
\$1 \$3 \$4 \$5 \; pd-\$2-CON obj 50 38 r \$2|tocore \; pd-\$2-CON
obj 70 300 s \$2|lsin \; pd-\$2-CON obj 300 300 s \$2|lsout \; pd-\$2-CON
connect 1 0 0 0 \; pd-\$2-CON connect 0 0 2 0 \; pd-\$2-CON connect
0 1 3 0 \;;
#X obj 286 200 expr $f1 \; \$0 \; \$1 \; \$2 \;;
#X obj 380 282 symbol \$3;
#X obj 370 254 loadbang;
#X obj 66 198 bng 15 250 50 0 empty empty empty 17 7 0 10 -262144 -1
-1;
#N canvas 0 180 1402 1148 \$0-ALIVESIG 0;
#X obj 63 27 inlet;
#X obj 504 17 inlet;
#X obj 502 134 s \$0|ALIVESIG;
#X obj 503 53 symbol;
#X obj 62 113 s \$0|tocore;
#X text 159 107 forward to core;
#X msg 63 69 syscore SRVALIVE;
#X connect 0 0 6 0;
#X connect 1 0 3 0;
#X connect 3 0 2 0;
#X connect 6 0 4 0;
#X restore 176 92 pd \$0-ALIVESIG;
#X obj 142 59 route CHNUM ALIVE ALIVESIG;
#X connect 0 0 2 0;
#X connect 2 0 27 0;
#X connect 2 1 1 0;
#X connect 3 0 14 0;
#X connect 3 0 17 0;
#X connect 7 0 4 0;
#X connect 8 0 5 0;
#X connect 11 0 10 0;
#X connect 16 0 8 0;
#X connect 16 1 18 0;
#X connect 16 2 19 0;
#X connect 17 0 16 0;
#X connect 17 1 11 0;
#X connect 17 2 22 0;
#X connect 17 3 7 0;
#X connect 18 0 5 0;
#X connect 20 0 21 0;
#X connect 22 0 20 0;
#X connect 22 1 20 1;
#X connect 22 2 20 2;
#X connect 22 3 20 3;
#X connect 23 0 20 4;
#X connect 24 0 23 0;
#X connect 27 0 25 0;
#X connect 27 0 3 0;
#X connect 27 1 26 0;
#X connect 27 2 26 1;
#X restore 406 320 pd \$0-SYS-ROUTER;
#N canvas 552 282 1254 680 \$0-INIT 0;
#X obj 42 26 inlet;
#X text 104 20 prompt server for the init data \, such as CCH \, ADP
etc, f 30;
#X obj 102 277 netsend -u -b;
#X obj 42 75 t b b;
#X obj 44 164 oscformat airmix cinit;
#X obj 122 110 r \$0-cinitbang;
#X obj 155 141 bng 15 250 50 0 empty empty empty 17 7 0 10 -262144
-1 -1;
#X obj 99 193 \$2 \$3;
#X msg 101 242 connect \$2 \$1;
#X obj 398 133 loadbang;
#X obj 327 60 bng 15 250 50 0 empty empty empty 17 7 0 10 -262144 -1
-1;
#X obj 260 169 bng 15 250 50 0 empty empty empty 17 7 0 10 -262144
-1 -1;
#X text 278 278 periodically check upward connection to server;
#X obj 321 230 oscformat -f i airmix conalive;
#X obj 321 173 metro 5000;
#X obj 386 29 r \$0|ALIVESIG;
#X obj 389 59 sel start stop;
#X msg 384 87 1;
#X msg 417 87 0;
#X obj 493 145 tgl 15 0 empty empty empty 17 7 0 10 -262144 -1 -1 0
1;
#X symbolatom 515 62 10 0 0 0 - - -;
#X connect 0 0 3 0;
#X connect 3 0 4 0;
#X connect 3 1 7 0;
#X connect 4 0 2 0;
#X connect 5 0 4 0;
#X connect 5 0 6 0;
#X connect 7 0 8 0;
#X connect 8 0 2 0;
#X connect 9 0 14 0;
#X connect 10 0 14 0;
#X connect 13 0 2 0;
#X connect 14 0 11 0;
#X connect 14 0 13 0;
#X connect 15 0 16 0;
#X connect 15 0 20 0;
#X connect 16 0 17 0;
#X connect 16 1 18 0;
#X connect 17 0 14 0;
#X connect 17 0 19 0;
#X connect 18 0 14 0;
#X connect 18 0 19 0;
#X restore 629 120 pd \$0-INIT;
#X msg 556 282 syscore SHOW 1;
#X msg 701 274 \; pd dsp 1 \;;
#X text 329 415 DO NOT ELIMINATE dummy.pd IN THE DYNAMIC CANVAS \;
It ensures that dsp is properly switched on on the previous canvas
(gpp-air-console-core). IT'S A BUG., f 44;
#X obj 146 26 inlet;
#X obj 152 387 outlet;
#X obj 151 295 r \$0-OUTLET;
#X obj 152 343 pack f \$2;
#X obj 146 68 s \$0-cinitbang;
#X obj 735 412 outlet;
#X obj 543 20 bng 15 250 50 0 empty empty empty 17 7 0 10 -262144 -1
-1;
#X obj 839 411 outlet;
#X obj 735 379 r \$0|lsin;
#X obj 839 378 r \$0|lsout;
#X text 737 447 channel-info outlets;
#X obj 830 84 cnv 15 280 70 empty empty iConsole 20 20 0 14 -203904
-261234 0;
#X text 835 123 Interactive version of gpp-air-console;
#X obj 1143 34 inlet;
#X obj 1143 116 s \$0|tocore;
#X msg 1143 73 syscore SHOW \$1;
#X msg 746 221 \; pd dsp 0 \;;
#X obj 681 237 del 300;
#X msg 555 198 etc master setrmute 0;
#X msg 595 169 etc master setlmute 0;
#X obj 578 48 t b b b b b b b;
#N canvas 0 180 1043 667 \$0-DRYRUN 0;
#X obj 64 79 \$4;
#X msg 64 107 sys CHNUM \$1;
#X obj 67 42 inlet;
#X obj 63 148 outlet;
#X connect 0 0 1 0;
#X connect 1 0 3 0;
#X connect 2 0 0 0;
#X restore 669 82 pd \$0-DRYRUN;
#X text 827 9 gpp-air-iconsole :: remote console for gpp-air-coremixer
:: interactive version :: EU CREATIVE EUROPE 2020-23 :: https://b-air.infinity.radio
, f 43;
#X obj 406 138 netreceive -b -u \$1;
#X obj 248 320 print |~|con_gate|~|;
#X connect 1 0 6 0;
#X connect 2 0 4 0;
#X connect 3 0 2 0;
#X connect 4 0 42 0;
#X connect 5 0 39 0;
#X connect 6 0 8 0;
#X connect 6 1 7 1;
#X connect 7 0 9 0;
#X connect 8 0 7 0;
#X connect 9 0 14 0;
#X connect 9 0 43 0;
#X connect 16 0 12 0;
#X connect 19 0 23 0;
#X connect 21 0 22 0;
#X connect 22 0 20 0;
#X connect 25 0 39 0;
#X connect 27 0 24 0;
#X connect 28 0 26 0;
#X connect 32 0 34 0;
#X connect 34 0 33 0;
#X connect 36 0 17 0;
#X connect 37 0 12 0;
#X connect 38 0 12 0;
#X connect 39 0 2 0;
#X connect 39 1 16 0;
#X connect 39 2 38 0;
#X connect 39 2 37 0;
#X connect 39 3 15 0;
#X connect 39 4 36 0;
#X connect 39 5 40 0;
#X connect 39 6 35 0;
#X connect 40 0 14 0;
#X connect 42 0 1 0;
