#N canvas 847 249 1600 1400 10;
#X obj -55 48 bng 15 250 50 0 empty empty empty 17 7 0 10 -262144 -1
-1;
#X floatatom -133 144 5 0 0 0 - - -;
#X obj -132 97 gpp-adder3 10;
#X obj -179 59 bng 15 250 50 0 empty empty empty 17 7 0 10 -262144
-1 -1;
#X msg -133 12 1;
#X text -41 97 <--specify initial value;
#X text -37 47 <--reset to initial value;
#X text -295 57 output current -->;
#X text -102 13 <-- add;
#X connect 0 0 2 1;
#X connect 2 0 1 0;
#X connect 3 0 2 0;
#X connect 4 0 2 0;
