#N canvas 1307 180 2099 1400 8;
#X obj 8 218 *~;
#X obj 770 133 inlet;
#X obj 769 165 s \$0-sw;
#X obj 21 163 r \$0-sw;
#X floatatom 32 214 5 0 0 0 - - -;
#X obj 89 214 *~;
#X obj 100 163 r \$0-sw;
#X floatatom 113 215 5 0 0 0 - - -;
#X obj 196 217 *~;
#X obj 209 162 r \$0-sw;
#X floatatom 220 213 5 0 0 0 - - -;
#X obj 297 212 *~;
#X obj 310 157 r \$0-sw;
#X floatatom 332 205 5 0 0 0 - - -;
#X obj 21 183 expr $i1 == 1;
#X obj 100 183 expr $i1 == 2;
#X obj 209 181 expr $i1 == 3;
#X obj 310 176 expr $i1 == 4;
#X obj 379 207 *~;
#X obj 392 152 r \$0-sw;
#X floatatom 414 200 5 0 0 0 - - -;
#X obj 392 171 expr $i1 == 5;
#X obj 470 205 *~;
#X obj 483 150 r \$0-sw;
#X floatatom 505 198 5 0 0 0 - - -;
#X obj 483 169 expr $i1 == 6;
#X obj 556 206 *~;
#X obj 569 151 r \$0-sw;
#X floatatom 591 199 5 0 0 0 - - -;
#X obj 638 200 *~;
#X obj 651 145 r \$0-sw;
#X floatatom 673 193 5 0 0 0 - - -;
#X obj 569 170 expr $i1 == 7;
#X obj 651 164 expr $i1 == 8;
#X msg 826 119 9;
#X text 853 117 close all;
#X text 858 3 gpp-switch8~ :: 8 port line stwitch;
#X obj 742 8 cnv 10 114 22 empty empty AIR 36 6 1 22 -66577 -262144
0;
#X text 740 31 Gregor Pirš 2022;
#X obj 284 364 catch~ \$0-swout~;
#X obj 8 283 throw~ \$0-swout~;
#X obj 100 284 throw~ \$0-swout~;
#X obj 196 279 throw~ \$0-swout~;
#X obj 293 282 throw~ \$0-swout~;
#X obj 383 276 throw~ \$0-swout~;
#X obj 476 271 throw~ \$0-swout~;
#X obj 563 272 throw~ \$0-swout~;
#X obj 645 266 throw~ \$0-swout~;
#X obj 287 393 outlet~;
#X obj 9 78 inlet~;
#X obj 88 80 inlet~;
#X obj 194 83 inlet~;
#X obj 294 87 inlet~;
#X obj 381 85 inlet~;
#X obj 454 83 inlet~;
#X obj 569 76 inlet~;
#X obj 648 78 inlet~;
#X connect 0 0 40 0;
#X connect 1 0 2 0;
#X connect 3 0 14 0;
#X connect 5 0 41 0;
#X connect 6 0 15 0;
#X connect 8 0 42 0;
#X connect 9 0 16 0;
#X connect 11 0 43 0;
#X connect 12 0 17 0;
#X connect 14 0 4 0;
#X connect 14 0 0 1;
#X connect 15 0 7 0;
#X connect 15 0 5 1;
#X connect 16 0 10 0;
#X connect 16 0 8 1;
#X connect 17 0 13 0;
#X connect 17 0 11 1;
#X connect 18 0 44 0;
#X connect 19 0 21 0;
#X connect 21 0 20 0;
#X connect 21 0 18 1;
#X connect 22 0 45 0;
#X connect 23 0 25 0;
#X connect 25 0 24 0;
#X connect 25 0 22 1;
#X connect 26 0 46 0;
#X connect 27 0 32 0;
#X connect 29 0 47 0;
#X connect 30 0 33 0;
#X connect 32 0 28 0;
#X connect 32 0 26 1;
#X connect 33 0 31 0;
#X connect 33 0 29 1;
#X connect 34 0 2 0;
#X connect 39 0 48 0;
#X connect 49 0 0 0;
#X connect 50 0 5 0;
#X connect 51 0 8 0;
#X connect 52 0 11 0;
#X connect 53 0 18 0;
#X connect 54 0 22 0;
#X connect 55 0 26 0;
#X connect 56 0 29 0;
