#N canvas 973 248 1858 636 12;
#X obj 363 12 cnv 10 114 22 empty empty AIR 36 6 1 22 -66577 -262144
0;
#X text 361 32 Gregor Pirš 2023;
#X obj 237 254 print;
#X obj 71 117 list-abs/list-drip;
#X msg 71 83 -3 -2 -1 0 1 2 3 4 5 6 7 8 9 10 11 12;
#X obj 350 150 clip 1 10;
#X obj 350 113 list-abs/list-drip;
#X msg 350 79 -3 -2 -1 0 1 2 3 4 5 6 7 8 9 10 11 12;
#X obj 160 19 t b b b;
#X msg 237 221 -----------------;
#X obj 162 -4 bng 15 250 50 0 empty empty empty 17 7 0 10 -262144 -1
-1;
#X msg 236 118 10.1111;
#X msg 256 143 10;
#X msg 305 150 3;
#X obj 71 194 gpp-inbetween 1 10;
#X text 484 6 gpp-inbetween :: just like [clip] but not letting excessive
values trigger the mechanism :: boundaries will pass;
#X connect 3 0 14 0;
#X connect 4 0 3 0;
#X connect 5 0 2 0;
#X connect 6 0 5 0;
#X connect 7 0 6 0;
#X connect 8 0 4 0;
#X connect 8 1 9 0;
#X connect 8 2 7 0;
#X connect 9 0 2 0;
#X connect 10 0 8 0;
#X connect 11 0 14 0;
#X connect 12 0 14 0;
#X connect 13 0 14 0;
#X connect 14 0 2 0;
