#N canvas 1173 561 2191 1114 12;
#X obj 123 177 spigot;
#X msg 211 144 1;
#X msg 163 142 0;
#X obj 82 39 inlet;
#X obj 159 38 inlet;
#X obj 275 30 inlet;
#X obj 379 27 inlet;
#X text 267 8 closegate;
#X text 378 7 opengate;
#X text 31 16 active flow;
#X text 150 10 passive flow;
#X obj 126 251 outlet;
#X obj 126 212 \$1;
#X text 642 12 gpp-spigop :: spigot-shielded (active flow) of an arbitrary
operator | arg1 = operator;
#X text 508 33 Gregor Pirš 2023;
#X obj 510 8 cnv 10 114 22 empty empty AIR 36 6 1 22 -66577 -262144
0;
#X obj 283 249 outlet;
#X text 120 275 operator result, f 9;
#X text 277 276 spigot state;
#X connect 0 0 12 0;
#X connect 1 0 0 1;
#X connect 1 0 16 0;
#X connect 2 0 0 1;
#X connect 2 0 16 0;
#X connect 3 0 0 0;
#X connect 4 0 12 1;
#X connect 5 0 2 0;
#X connect 6 0 1 0;
#X connect 12 0 11 0;
