#N canvas 562 424 2041 1195 12;
#X msg 107 87 1;
#X obj 164 238 dac~;
#X obj 233 223 bng 15 250 50 0 empty empty endbang_(active_playhead_only)
17 7 0 10 -262144 -1 -1;
#X msg 193 9 0;
#X obj 135 42 t b b;
#X obj 136 17 bng 15 250 50 0 empty empty empty 17 7 0 10 -262144 -1
-1;
#X text 329 123 crossfade time (ms);
#X obj 157 132 gpp-readsfsoft2~;
#X obj 567 44 cnv 10 114 22 empty empty AIR 36 6 1 22 -66577 -262144
0;
#X text 564 72 Gregor Pirš 2023;
#X text 686 39 gpp-readsfsoft~ gpp-readsfsoft2~ :: a soft wersion of
readsf~ regarding repeating play commands at the same channel. Uses
a double playhead in order to enable auto-crossfading (crossfading
with itself) :: 2 channel version;
#X msg 198 45 open /home/gregor/audio/pd-projects/work/wavedata/air/testfile/pinknoise_48.wav
, f 44;
#X msg 556 158 \; pd dsp 1 \;;
#X obj 559 122 bng 15 250 50 0 empty empty empty 17 7 0 10 -262144
-1 -1;
#X obj 594 114 loadbang;
#X obj 76 421 metro 500;
#X obj 693 134 gpp-readsfsoft~;
#X msg 287 103 50;
#X msg 294 138 100;
#X obj 134 338 random 1000;
#X floatatom 235 411 5 0 0 0 - - -;
#X obj 173 275 bng 15 250 50 0 empty empty empty 17 7 0 10 -262144
-1 -1;
#X obj 134 381 + 250;
#X obj 144 308 metro 2000;
#X obj 298 175 tgl 15 0 empty empty WHICHHEAD 17 7 0 10 -262144 -1
-1 0 1;
#X msg 308 6 open /home/gregor/audio/matičič.wav;
#X msg 57 374 1;
#X connect 0 0 7 0;
#X connect 3 0 7 0;
#X connect 4 0 0 0;
#X connect 4 1 11 0;
#X connect 5 0 4 0;
#X connect 7 0 1 0;
#X connect 7 1 1 1;
#X connect 7 2 2 0;
#X connect 7 3 24 0;
#X connect 11 0 7 0;
#X connect 13 0 12 0;
#X connect 14 0 12 0;
#X connect 14 0 17 0;
#X connect 15 0 5 0;
#X connect 17 0 7 1;
#X connect 18 0 7 1;
#X connect 19 0 22 0;
#X connect 21 0 23 0;
#X connect 22 0 15 1;
#X connect 22 0 20 0;
#X connect 23 0 19 0;
#X connect 25 0 7 0;
#X connect 26 0 15 0;
