#N canvas 747 655 2105 931 12;
#X obj 66 23 inlet;
#X obj 67 145 outlet;
#X obj 486 16 cnv 10 114 22 empty empty AIR 36 6 1 22 -66577 -262144
0;
#X text 484 36 Gregor Pirš 2023;
#X obj 66 58 expr if ($f1 >= \$1 && $f1 <= \$2 \, $f1 \, \$1 - 1) \;
;
#X obj 66 103 moses \$1;
#X text 605 8 gpp-inbetween :: a variant of [clip] without letting
the excessive values trigger the boundaries, f 42;
#X connect 0 0 4 0;
#X connect 4 0 5 0;
#X connect 5 1 1 0;
