#N canvas 0 960 2880 1145 12;
#X obj 474 12 inlet;
#X text 1009 49 \$1 (creation arg) = number of channels (please make
sure to advance Pd- input channels settings accordingly);
#X obj 884 17 cnv 10 114 22 empty empty AIR 36 6 1 22 -66577 -262144
0;
#X text 882 40 Gregor Pirš 2022;
#N canvas 0 180 1600 1400 \$0-PI 0;
#X obj 131 128 expr atan (1) * 4;
#X obj 132 103 loadbang;
#X obj 131 150 value PI;
#X obj 86 97 bng 15 250 50 0 empty empty empty 17 7 0 10 -262144 -1
-1;
#X text 153 74 broadcast pi as PI global;
#X connect 0 0 2 0;
#X connect 1 0 0 0;
#X connect 3 0 0 0;
#X restore 938 67 pd \$0-PI;
#N canvas 1857 180 1850 1941 \$0-BUILD-MIXER-STRIPE 0;
#X obj 51 10 inlet;
#X obj 50 69 \$1;
#X obj 19 44 bng 15 250 50 0 empty empty empty 17 7 0 10 -262144 -1
-1;
#X obj 50 127 expr ($f1 * 100) + 100;
#X obj 383 117 \$0, f 4;
#X obj 50 97 t f f b;
#X obj 50 41 t b b;
#X text 956 729 also initialize fader and pan RF's to 1;
#X text 955 747 \$20 = stripe background color;
#X text 957 788 \$18 = track number;
#X text 956 767 \$19 = \$0 :: track-local!;
#X msg 950 867 -262130;
#X msg 955 835 -260097;
#X text 1013 834 orange;
#X obj 43 598 pack f f f f f f f f f f f f f f f f f f f f f f f f
f f f f;
#X msg 44 628 \; pd-CONSOLE obj \$1 8 cnv 15 100 400 empty empty \$18
37 12 0 14 \$20 -83269 0 \; pd-CONSOLE obj \$2 301 tgl 15 0 foosnd
\$19|\$18-fader-rf empty 17 7 0 10 \$20 -1 -1 1 1 \; pd-CONSOLE obj
\$3 222 tgl 15 0 foosnd \$19|\$18-pan-rf empty 17 7 0 10 \$20 -1 -1
1 1 \; pd-CONSOLE obj \$4 202 hsl 64 15 0 1 0 0 empty \$19|\$18-pan-state
empty -2 -8 0 10 -262144 -1 -1 0 1 \; pd-CONSOLE floatatom \$5 382
5 0 0 0 - \$19|\$18-fader-state foosnd \; pd-CONSOLE floatatom \$6
221 5 0 0 0 - \$19|\$18-pan-state foosnd \; pd-CONSOLE obj \$7 255
vsl 18 120 0 1 0 0 empty \$19|\$18-fader-state empty 0 -9 0 10 -262144
-1 -1 11900 1 \; pd-CONSOLE obj \$12 445 cnv 15 100 30 empty \$19|\$18-time-remaining
empty 12 15 0 7 \$20 -262130 0 \; pd-CONSOLE obj \$13 255 vu 10 120
\$19|\$18-vu-l empty -1 -8 0 10 -66577 -1 0 0 \; pd-CONSOLE obj \$14
255 vu 10 120 \$19|\$18-vu-r empty -1 -8 0 4 -66577 -1 1 0 \; pd-CONSOLE
obj \$15 62 vu 8 80 \$19|\$18-svu-l empty -1 -8 0 4 -159808 -1 0 0
\; pd-CONSOLE obj \$16 62 vu 8 80 \$19|\$18-svu-r empty -1 -8 0 4 -159808
-1 1 0 \; pd-CONSOLE obj \$17 412 cnv 15 100 30 empty \$19|\$18-filename
------IN------ 2 15 0 6 \$20 -83269 0 \; \$19|\$18-fader-rf 1 \; \$19|\$18-pan-rf
1 \; \$19|\$18-time-remaining color \$20 \; pd-CONSOLE obj \$21 168
tgl 18 0 foosnd \$19|\$18-loop-active L 4 9 0 6 10 -1 -1 0 1 \; pd-CONSOLE
obj \$22 170 hradio 15 1 0 3 foosnd \$19|\$18-input-track IN_MP_SP
0 -6 0 5 \$20 -83269 -1 0 \; pd-CONSOLE obj \$23 383 tgl 19 0 foosnd
\$19|\$18-mute-track M 5 10 0 7 10 -1 -1 0 1 \; pd-CONSOLE obj \$23
0 tgl 20 0 foosnd \$19|\$18-prelisten-track ~ 4 9 0 8 10 -1 -1 0 1
\; pd-CONSOLE floatatom \$24 20 4 0 0 0 - \$19|\$18-prelisten-level
foosnd \; pd-CONSOLE obj \$25 202 tgl 14 0 foosnd \$19|\$18-pan-enabled-diode
P 3 7 0 6 10 -1 -1 0 1 \; pd-CONSOLE obj \$26 48 tgl 8 0 foosnd \$19|\$18-inbound-diodes-S
empty 17 7 0 8 10 -1 -1 0 1 \; pd-CONSOLE obj \$27 48 tgl 8 0 foosnd
\$19|\$18-inbound-diodes-S empty 14 5 0 8 10 -1 -1 0 1 \; pd-CONSOLE
obj \$28 44 tgl 11 0 foosnd \$19|\$18-inbound-diode-M empty 17 7 0
8 10 -1 -1 0 1 \;, f 110;
#X obj 46 158 expr $f1+14 \; $f1+20 \; $f1+79 \; $f1+37 \; $f1+41 \;
$f1+34 \; $f1+41 \; $f1+24 \; $f1+23 \; $f1+34 \; $f1+45 \; $f1+14
\; $f1+63 \; $f1+76 \; $f1+45 \; $f1+56 \; $f1+14 \; $f2 \; $f3 \;
if ($f2 % 2 != 0 \, -203904 \, -158848) \; $f1+28 \; $f1+55 \; $f1+90
\; $f1+83 \; $f1+18 \; $f1+39 \; $f1+62 \; $f1+49 \;, f 48;
#X connect 0 0 6 0;
#X connect 1 0 5 0;
#X connect 2 0 1 0;
#X connect 3 0 16 0;
#X connect 4 0 16 2;
#X connect 5 0 3 0;
#X connect 5 1 16 1;
#X connect 5 2 4 0;
#X connect 6 0 1 0;
#X connect 14 0 15 0;
#X connect 16 0 14 0;
#X connect 16 1 14 1;
#X connect 16 2 14 2;
#X connect 16 3 14 3;
#X connect 16 4 14 4;
#X connect 16 5 14 5;
#X connect 16 6 14 6;
#X connect 16 7 14 7;
#X connect 16 8 14 8;
#X connect 16 9 14 9;
#X connect 16 10 14 10;
#X connect 16 11 14 11;
#X connect 16 12 14 12;
#X connect 16 13 14 13;
#X connect 16 14 14 14;
#X connect 16 15 14 15;
#X connect 16 16 14 16;
#X connect 16 17 14 17;
#X connect 16 18 14 18;
#X connect 16 19 14 19;
#X connect 16 20 14 20;
#X connect 16 21 14 21;
#X connect 16 22 14 22;
#X connect 16 23 14 23;
#X connect 16 24 14 24;
#X connect 16 25 14 25;
#X connect 16 26 14 26;
#X connect 16 27 14 27;
#X restore 747 131 pd \$0-BUILD-MIXER-STRIPE;
#X obj 530 13 inlet;
#X obj 582 13 inlet;
#X obj 642 13 inlet;
#N canvas 495 1080 972 625 \$0-TRACK-ROUTER 0;
#X obj 38 7 inlet;
#X obj 90 7 inlet;
#X obj 142 7 inlet;
#X obj 202 8 inlet;
#N canvas 68 1164 638 786 \$0-HANDLE_TRACK_REQUEST 0;
#X obj 48 13 inlet;
#X obj 148 32 print ....>=>REQUEST_TRACK_\$1;
#X obj 48 150 route fader pan timer;
#N canvas 1190 473 1123 1072 \$0-handle-trackfaderpan 0;
#X obj 36 25 inlet;
#X obj 182 34 inlet;
#X obj 37 90 gpp-airliner~;
#X obj 184 90 gpp-airliner~;
#X obj 37 157 change;
#X obj 184 156 change;
#X obj 184 220 s \$0|\$1-pan-state;
#X obj 37 220 s \$0|\$1-fader-state;
#X obj 37 127 gpp-snapshot~ 100;
#X obj 184 124 gpp-snapshot~ 100;
#X connect 0 0 2 0;
#X connect 1 0 3 0;
#X connect 2 0 8 0;
#X connect 3 0 9 0;
#X connect 4 0 7 0;
#X connect 5 0 6 0;
#X connect 8 0 4 0;
#X connect 9 0 5 0;
#X restore 47 195 pd \$0-handle-trackfaderpan;
#N canvas 1929 701 1598 1080 \$0-handle-tracktimer 0;
#X obj 34 27 inlet;
#X text 45 82 /airmon/request/<ch>/timer/<type> [start|stop] [initial_timing_ms]
[up|down], f 92;
#X obj 179 46 print ....>=>REQUEST_TRACK_\$1_IS_VIRTUAL;
#X text 205 123 where <type> can be "play" or "record";
#X obj 35 161 route start stop;
#X obj 156 162 route start stop;
#X msg 66 343 0;
#X obj 33 212 t b f;
#N canvas 782 191 1370 1087 \$0-MONITOR-PLAYTIME-REMAINING 0;
#X obj 81 37 inlet;
#X text 74 19 start;
#X text 466 50 stop;
#X obj 80 204 metro 100;
#X text 92 228 1/10th of second resolution, f 11;
#X msg 512 120 0;
#X text 380 5 duration (whole|trim|fader);
#X msg 107 414 label \$1;
#X obj 107 376 gpp-display-seconds-tenth;
#X text 266 279 green;
#X msg 266 300 color -510465;
#X obj 107 451 s \$0|\$1-time-remaining;
#X obj 27 232 realtime;
#X obj 55 287 expr ($f2 - $f1) / 1000;
#X obj 642 464 print STOP;
#X obj 465 246 expr if ($f1 % 2 != 0 \, -203904 \, -158848) \;, f
42;
#X obj 465 218 \$1;
#X msg 585 61 color -4.78455e+06;
#X text 590 84 dark violet / stop;
#X text 480 270 stripe background color;
#X msg 385 300 color \$1;
#X obj 81 108 t b b b b b;
#X obj 199 92 v x\$0_initial_timing_ms;
#X obj 82 65 sel 1 0;
#X msg 346 375 label;
#X obj 466 76 t b b b;
#X obj 169 63 bng 15 250 50 0 empty empty empty 17 7 0 10 -262144 -1
-1;
#X floatatom 215 135 20 0 0 0 - - -;
#X obj 200 14 inlet;
#X text 177 412 comment;
#X connect 0 0 23 0;
#X connect 3 0 12 1;
#X connect 5 0 3 0;
#X connect 7 0 11 0;
#X connect 8 0 7 0;
#X connect 10 0 11 0;
#X connect 12 0 13 0;
#X connect 13 0 8 0;
#X connect 15 0 20 0;
#X connect 16 0 15 0;
#X connect 20 0 11 0;
#X connect 21 0 3 0;
#X connect 21 1 12 0;
#X connect 21 2 22 0;
#X connect 21 4 10 0;
#X connect 22 0 27 0;
#X connect 22 0 13 1;
#X connect 23 0 21 0;
#X connect 23 1 25 0;
#X connect 24 0 11 0;
#X connect 25 0 16 0;
#X connect 25 1 24 0;
#X connect 25 2 5 0;
#X connect 26 0 22 0;
#X connect 28 0 22 0;
#X restore 23 386 pd \$0-MONITOR-PLAYTIME-REMAINING;
#N canvas 0 775 2423 1090 \$0-MONITOR-RECTIME 0;
#X msg 132 322 label \$1;
#X obj 134 288 gpp-display-seconds-tenth;
#X msg 310 234 color -1.35785e+07;
#X text 329 213 red;
#X obj 84 38 inlet;
#X text 82 18 start;
#X text 592 70 violet / stop;
#X msg 174 142 stop;
#X obj 132 404 s \$0|\$1-time-remaining;
#X msg 546 231 label;
#X obj 174 168 metro 100;
#X obj 134 194 realtime;
#X obj 134 247 / 1000;
#X obj 622 299 expr if ($f1 % 2 != 0 \, -203904 \, -158848) \;, f
42;
#X obj 622 271 \$1;
#X text 637 323 stripe background color;
#X obj 542 395 print COLOR_REC;
#X msg 542 353 color \$1 -83269;
#X obj 507 90 t b b b b;
#X obj 50 474 s \$0|\$1-player-timer-request;
#X msg 50 449 start 0;
#X obj 83 75 sel 1 0;
#X obj 84 120 t b b b b b;
#X msg 896 116 color -4.78455e+06;
#X obj 903 76 t b b;
#X connect 0 0 8 0;
#X connect 1 0 0 0;
#X connect 2 0 8 0;
#X connect 4 0 21 0;
#X connect 7 0 10 0;
#X connect 9 0 8 0;
#X connect 10 0 11 1;
#X connect 11 0 12 0;
#X connect 12 0 1 0;
#X connect 13 0 17 0;
#X connect 14 0 13 0;
#X connect 17 0 16 0;
#X connect 17 0 8 0;
#X connect 18 0 7 0;
#X connect 18 1 14 0;
#X connect 18 2 9 0;
#X connect 20 0 19 0;
#X connect 21 0 22 0;
#X connect 21 1 18 0;
#X connect 22 0 10 0;
#X connect 22 1 11 0;
#X connect 22 2 20 0;
#X connect 22 4 2 0;
#X connect 24 0 23 0;
#X restore 337 355 pd \$0-MONITOR-RECTIME;
#X msg 378 310 0;
#X msg 22 343 1;
#X msg 330 311 1;
#X obj 295 438 s \$0-STOP_RSTOP;
#X obj 294 409 bang;
#X text 292 459 to etc;
#X obj 35 124 route play record cnv;
#X text 375 174 send a message directly to the timer canvas, f 18
;
#N canvas 689 641 696 535 \$0-direct-timer-cnv 0;
#X obj 61 5 inlet;
#X obj 63 117 s \$0|\$1-time-remaining;
#X obj 60 46 route color;
#X msg 62 79 color \$1;
#X connect 0 0 2 0;
#X connect 2 0 3 0;
#X connect 3 0 1 0;
#X restore 356 224 pd \$0-direct-timer-cnv;
#X connect 0 0 2 0;
#X connect 0 0 16 0;
#X connect 4 0 7 0;
#X connect 4 1 6 0;
#X connect 4 1 14 0;
#X connect 5 0 12 0;
#X connect 5 1 10 0;
#X connect 5 1 14 0;
#X connect 6 0 8 0;
#X connect 7 0 11 0;
#X connect 7 1 8 1;
#X connect 10 0 9 0;
#X connect 11 0 8 0;
#X connect 12 0 9 0;
#X connect 14 0 13 0;
#X connect 16 0 4 0;
#X connect 16 1 5 0;
#X connect 16 2 18 0;
#X restore 144 249 pd \$0-handle-tracktimer;
#X connect 0 0 1 0;
#X connect 0 0 2 0;
#X connect 2 0 3 0;
#X connect 2 1 3 1;
#X connect 2 2 4 0;
#X restore 38 134 pd \$0-HANDLE_TRACK_REQUEST;
#N canvas 0 225 1257 648 \$0-HANDLE_TRACK_SNAPSHOT 0;
#X obj 61 25 inlet;
#X obj 119 44 print ....>=>SNAPSHOT_TRACK_\$1;
#X obj 60 80 route fader pan;
#X obj 58 130 s \$0|\$1-fader-state;
#X obj 93 165 s \$0|\$1-pan-state;
#X connect 0 0 1 0;
#X connect 0 0 2 0;
#X connect 2 0 3 0;
#X connect 2 1 4 0;
#X restore 96 238 pd \$0-HANDLE_TRACK_SNAPSHOT;
#N canvas 0 451 1216 775 \$0-HANDLE_TRACK_CONTOUR 0;
#X obj 61 25 inlet;
#X obj 134 45 print ....>=>CONTOUR_TRACK;
#X obj 61 102 route rf vr ac;
#N canvas 0 180 1442 912 \$0-REQUEST_FULFILLED 0;
#X obj 36 27 inlet;
#X obj 34 70 route fader pan;
#X obj 81 105 s \$0|\$1-pan-rf;
#X obj 31 132 s \$0|\$1-fader-rf;
#X connect 0 0 1 0;
#X connect 1 0 3 0;
#X connect 1 1 2 0;
#X restore 61 140 pd \$0-REQUEST_FULFILLED;
#N canvas 0 225 450 300 \$0-VALUE-REACHED 0;
#X obj 54 21 inlet;
#X obj 62 70 route;
#X restore 91 178 pd \$0-VALUE-REACHED;
#N canvas 1683 527 1620 871 \$0-IS-ACTIVE 0;
#X obj 88 39 inlet;
#X obj 54 245 s \$0|\$1-loop-active;
#X obj 88 87 route loop;
#X obj 81 153 sel 0 1;
#X msg 76 214 color \$1;
#X msg 121 185 14;
#X obj 205 276 expr if (\$1 % 2 != 0 \, 1.28955e+07 \, 10011900) \;
;
#X msg 65 186 10;
#X connect 0 0 2 0;
#X connect 2 0 3 0;
#X connect 3 0 7 0;
#X connect 3 1 5 0;
#X connect 4 0 1 0;
#X connect 5 0 4 0;
#X connect 7 0 4 0;
#X restore 121 218 pd \$0-IS-ACTIVE;
#X connect 0 0 1 0;
#X connect 0 0 2 0;
#X connect 2 0 3 0;
#X connect 2 1 4 0;
#X connect 2 2 5 0;
#X restore 168 188 pd \$0-HANDLE_TRACK_CONTOUR;
#N canvas 2263 1306 1399 1229 \$0-HANDLE_TRACK_ETC 0;
#X obj 61 25 inlet;
#X obj 141 45 print >=>...ETC_TRACK_\$1;
#X obj 502 43 r \$0-STOP_RSTOP;
#N canvas 0 180 944 651 \$0-LINE_IN 0;
#X obj 58 127 s \$0|\$1-filename;
#X obj 58 18 inlet;
#X msg 58 96 label ------IN------;
#X obj 225 129 s \$0|\$1-time-remaining;
#X msg 226 95 label;
#X obj 58 64 t b b;
#X text 226 61 comment;
#X connect 1 0 5 0;
#X connect 2 0 0 0;
#X connect 4 0 3 0;
#X connect 5 0 2 0;
#X connect 5 1 4 0;
#X restore 502 89 pd \$0-LINE_IN;
#X obj 54 206 s \$0|\$1-filename;
#X obj 132 341 s \$0|\$1-input-track;
#X msg 55 168 label \$1;
#X obj 231 294 s \$0|\$1-mute-track;
#X msg 201 232 color 10;
#X msg 282 230 color 13;
#X obj 198 199 sel 0 1;
#X obj 268 120 s \$0|\$1-PRELISTEN_TRACK_MUTE;
#X obj 336 158 s \$0|\$1-PRELISTEN_TRACK_LEVEL;
#X obj 56 131 symbol;
#X obj 204 158 r \$0_MUTE_SWITCH;
#N canvas 1450 366 928 864 \$0-ismono 0;
#X obj 92 15 inlet;
#X obj 241 290 s \$0|\$1-inbound-diodes-S;
#X obj 58 312 s \$0|\$1-inbound-diode-M;
#X obj 320 202 s \$0|\$1-pan-enabled-diode;
#X msg 299 156 color 13;
#X msg 308 128 color 16;
#X obj 89 87 sel 0 1;
#X msg 229 256 color 10;
#X msg 296 255 color 16;
#X msg 47 235 color 10;
#X msg 123 236 color 16;
#X connect 0 0 6 0;
#X connect 4 0 3 0;
#X connect 5 0 3 0;
#X connect 6 0 8 0;
#X connect 6 0 9 0;
#X connect 6 0 4 0;
#X connect 6 1 7 0;
#X connect 6 1 10 0;
#X connect 6 1 5 0;
#X connect 7 0 1 0;
#X connect 8 0 1 0;
#X connect 9 0 2 0;
#X connect 10 0 2 0;
#X restore 394 237 pd \$0-ismono;
#X obj 57 85 route filename input setmute setpremute setprelevel ismono
;
#X connect 0 0 1 0;
#X connect 0 0 16 0;
#X connect 2 0 3 0;
#X connect 6 0 4 0;
#X connect 8 0 7 0;
#X connect 9 0 7 0;
#X connect 10 0 8 0;
#X connect 10 1 9 0;
#X connect 13 0 6 0;
#X connect 14 0 10 0;
#X connect 16 0 13 0;
#X connect 16 1 5 0;
#X connect 16 2 10 0;
#X connect 16 3 11 0;
#X connect 16 4 12 0;
#X connect 16 5 15 0;
#X restore 261 138 pd \$0-HANDLE_TRACK_ETC;
#X connect 0 0 4 0;
#X connect 1 0 5 0;
#X connect 2 0 6 0;
#X connect 3 0 7 0;
#X restore 478 115 pd \$0-TRACK-ROUTER;
#X obj 749 20 inlet;
#X obj 748 95 route refreshmix;
#X obj 764 49 print >>>>EXTRA;
#N canvas 921 180 1590 1234 \$0-AUDIO 0;
#X obj 278 366 vline~;
#X msg 279 330 \$1 50;
#X obj 513 433 s \$0|\$1-prelisten-track;
#X msg 481 383 color 44;
#X msg 563 385 color 10;
#X obj 562 302 s \$0|\$1-prelisten-level;
#X floatatom 1290 533 5 0 0 0 - - -;
#X obj 278 276 expr if ($f1 \, 0 \, $f2) \; if ($f1 \, 0 \, 1) \;;
#X obj 476 340 sel 1 0;
#X text 199 543 NOTE: audioprocessing here is intentional \, COnsole
will cook its own prelistening bus;
#X obj 276 214 r \$0|\$1-PRELISTEN_TRACK_MUTE;
#X obj 476 255 r \$0|\$1-PRELISTEN_TRACK_LEVEL;
#X obj 82 239 adc~;
#X obj 84 188 pack f f;
#X msg 83 212 set \$1 \$2;
#X obj 85 84 r \$0|RECHAN;
#N canvas 660 211 751 706 \$0-MONITOR_AUDIO 0;
#X obj 32 19 inlet~;
#X obj 127 19 inlet~;
#X obj 128 145 gpp-env~;
#X obj 32 64 gpp-env~;
#X obj 128 178 s \$0|\$1-vu-r;
#X obj 32 98 s \$0|\$1-vu-l;
#X connect 0 0 3 0;
#X connect 1 0 2 0;
#X connect 2 0 4 0;
#X connect 3 0 5 0;
#X restore 51 545 pd \$0-MONITOR_AUDIO;
#X text 30 398 if needed \, senders to the (locally provided) prelisten
bus should be added here;
#X msg 31 273 -1 0;
#X obj 197 81 loadbang;
#X obj 82 145 expr (2*\$1)-1 \; (2*\$1) \;;
#X connect 1 0 0 0;
#X connect 3 0 2 0;
#X connect 4 0 2 0;
#X connect 7 0 1 0;
#X connect 7 1 8 0;
#X connect 8 0 3 0;
#X connect 8 1 4 0;
#X connect 10 0 7 0;
#X connect 11 0 7 1;
#X connect 11 0 5 0;
#X connect 12 0 16 0;
#X connect 12 1 16 1;
#X connect 13 0 14 0;
#X connect 14 0 12 0;
#X connect 14 0 18 0;
#X connect 15 0 20 0;
#X connect 19 0 20 0;
#X connect 20 0 13 0;
#X connect 20 1 13 1;
#X restore 919 94 pd \$0-AUDIO;
#X text 1011 18;
#X text 1009 16 gpp-air-console-track :: channel (track) for gpp air
console;
#X connect 0 0 9 0;
#X connect 6 0 9 1;
#X connect 7 0 9 2;
#X connect 8 0 9 3;
#X connect 10 0 11 0;
#X connect 10 0 12 0;
#X connect 11 0 5 0;
