#N canvas 2195 180 1358 1096 12;
#X obj 59 129 env~ 1024;
#X obj 161 111 abs~;
#X obj 161 213 snapshot~;
#X obj 161 256 rmstodb;
#X obj 161 21 inlet~;
#X obj 15 290 - 100;
#X obj 61 365 outlet;
#X obj 239 89 expr 1000 / $f1;
#X floatatom 239 117 5 0 0 0 - - -;
#X obj 161 146 slop~ 0 0 0 0 1e+09;
#X obj 239 18 inlet;
#X floatatom 239 57 5 0 0 0 - - -;
#X text 282 118 hz;
#X text 284 57 peak decay time in ms;
#X obj 59 171 t f b;
#X text 345 371 Check the help file of env~ and slop~ for more details.
, f 31;
#X text 346 196 The env~ object is dedicated to RMS analysis. Its output
is in dB (0-100 range \, pd style) but needs to be converted to dBFS
(and we do that by simply subtracting 100)., f 31;
#X text 346 289 The slop~ object is used here for peak detection. We
need to convert the output to dB with rmstodb and also subtract by
100 to convert it to dBFS., f 31;
#X text 350 160 (PD-VANILLA OBJ);
#X obj 80 327 pack -50 -20;
#X obj 243 259 - 96.99;
#X obj 164 284 - 100;
#X obj 59 227 - 100;
#X connect 0 0 14 0;
#X connect 1 0 9 0;
#X connect 2 0 3 0;
#X connect 3 0 21 0;
#X connect 4 0 0 0;
#X connect 4 0 1 0;
#X connect 5 0 19 0;
#X connect 7 0 8 0;
#X connect 8 0 9 3;
#X connect 9 0 2 0;
#X connect 10 0 11 0;
#X connect 11 0 7 0;
#X connect 14 0 22 0;
#X connect 14 1 2 0;
#X connect 19 0 6 0;
#X connect 21 0 19 1;
#X connect 22 0 19 0;
