#N canvas 1580 180 1600 1400 8;
#X text 497 93 gpp-siggt :: vector to a scalar comparison \; output
= 1 if greater than arg 0 if not \; only broadcasts result when state
is changed | scalar can be provided as \$1;
#X obj 236 95 vsl 15 128 0 127 0 0 empty empty empty 0 -9 0 10 -262144
-1 -1 0 0;
#X obj 205 322 tgl 15 0 empty empty empty 17 7 0 10 -262144 -1 -1 0
1;
#X obj 210 249 gpp-siggt 0;
#X floatatom 137 273 5 0 0 0 - - -;
#X msg 358 72 \; pd dsp 1 \;;
#X obj 362 33 bng 15 250 50 0 empty empty empty 17 7 0 10 -262144 -1
-1;
#X text 500 140 gpp-sigeq :: vector to a scalar comparison \; output
= 1 if equal 0 if not \; only broadcasts result when state is changed
| scalar can be provided as \$1;
#X connect 1 0 3 0;
#X connect 1 0 4 0;
#X connect 3 0 2 0;
#X connect 6 0 5 0;
