#N canvas 1386 515 2373 1808 12;
#X obj 150 297 gpp-airoscope;
#X obj 565 28 cnv 10 114 22 empty empty AIR 36 6 1 22 -66577 -262144
0;
#X text 565 53 Gregor Pirš 2022;
#X text 686 23 gpp-airoscope :: various kinds of sample analysis for
the B-AIR/AIR platform;
#N canvas 340 312 1600 1400 \$0-testfile 0;
#X obj 209 285 outlet~;
#X obj 409 418 outlet;
#X text 413 394 endbang;
#X msg 117 175 1;
#X obj 54 372 dac~;
#X obj 225 220 readsf~ 2;
#X obj 106 273 *~;
#X msg 259 174 0;
#X obj 43 88 sel 1 0;
#X obj 117 134 t b b;
#X obj 38 27 inlet;
#X obj 272 16 inlet;
#X obj 28 210 osc~ 440;
#X obj 179 370 metro 500;
#X obj 179 407 gpp-zenbox2;
#X obj 177 337 tgl 15 0 empty empty empty 17 7 0 10 -262144 -1 -1 0
1;
#X msg 180 443 1;
#X msg 239 441 0;
#X floatatom 248 330 5 0 0 0 - - -;
#X obj 104 388 float;
#X obj 59 243 *~;
#X floatatom 101 225 5 0 0 0 - - -;
#X msg 99 199 0;
#X msg 213 145 open /home/gregor/audio/pd-projects/work/wavedata/air/testfile/\$1.wav
, f 81;
#X msg 381 10 beethoven-0;
#X obj 254 113 symbol;
#X msg 146 19 bach;
#X msg 473 232 chlopy;
#X msg 500 87 doors;
#X msg 207 46 koral;
#X msg 159 83 zorbas;
#X text 184 20 99-102;
#X connect 3 0 5 0;
#X connect 5 0 0 0;
#X connect 5 0 6 0;
#X connect 5 2 1 0;
#X connect 6 0 4 0;
#X connect 6 0 4 1;
#X connect 6 0 0 0;
#X connect 7 0 5 0;
#X connect 8 0 9 0;
#X connect 8 1 7 0;
#X connect 9 0 3 0;
#X connect 9 1 26 0;
#X connect 10 0 8 0;
#X connect 11 0 6 1;
#X connect 11 0 19 1;
#X connect 12 0 20 0;
#X connect 13 0 14 0;
#X connect 14 0 16 0;
#X connect 14 0 19 0;
#X connect 14 1 17 0;
#X connect 15 0 13 0;
#X connect 17 0 6 1;
#X connect 18 0 13 1;
#X connect 19 0 6 1;
#X connect 20 0 6 0;
#X connect 21 0 20 1;
#X connect 22 0 21 0;
#X connect 23 0 5 0;
#X connect 24 0 25 0;
#X connect 25 0 23 0;
#X connect 26 0 25 0;
#X connect 27 0 25 0;
#X connect 28 0 25 0;
#X connect 29 0 25 0;
#X connect 30 0 25 0;
#X restore 149 132 pd \$0-testfile;
#X msg 293 125 use temper;
#X msg 316 235 drop temper;
#X obj 149 6 tgl 40 0 empty empty empty 17 7 0 10 -204786 -1 -1 1 1
;
#X obj 267 29 loadbang;
#X msg 224 48 1;
#X obj 105 174 vsl 15 128 0.01 1 0 0 empty empty empty 0 -9 0 10 -203904
-1 -1 25400 1;
#X floatatom 105 312 5 0 0 0 - - -;
#X msg 181 232 temper clear;
#X msg 313 83 \; pd dsp 1 \;;
#X obj 267 59 t b b b;
#X obj 150 395 route temper;
#X msg 291 190 endfile;
#X obj 79 464 print TEMPER;
#X floatatom 184 509 5 0 0 0 - - -;
#X text 74 491 temper final resume, f 13;
#X obj 242 530 gpp-tempo2;
#X floatatom 162 594 5 0 0 0 - - -;
#X msg 376 171 startbang;
#X obj 150 99 t f b b;
#X floatatom 263 592 5 0 0 0 - - -;
#X floatatom 213 592 5 0 0 0 - - -;
#X obj 122 426 route report monitor pulse startbang;
#X obj 467 519 expr;
#X obj 325 359 metro 500;
#X obj 325 333 tgl 15 0 empty empty empty 17 7 0 10 -262144 -1 -1 0
1;
#X obj 325 398 bng 15 250 50 0 empty empty empty 17 7 0 10 -262144
-1 -1;
#X obj 23 191 gpp-vu2;
#X obj 149 54 sel 1 0;
#X msg 231 84 0;
#X msg 149 76 1;
#X msg 389 328 480;
#X floatatom 350 643 5 0 0 0 deviation_from_avg_% - -;
#X msg 403 285 200;
#X msg 405 487 resetav;
#X msg 308 478 waitstart;
#X text 409 461 reset average = problematical;
#X connect 0 0 15 0;
#X connect 4 0 31 0;
#X connect 4 0 0 0;
#X connect 4 1 16 0;
#X connect 5 0 0 1;
#X connect 6 0 0 1;
#X connect 7 0 32 0;
#X connect 8 0 14 0;
#X connect 9 0 10 0;
#X connect 10 0 4 1;
#X connect 10 0 11 0;
#X connect 12 0 0 1;
#X connect 14 0 9 0;
#X connect 14 1 5 0;
#X connect 14 2 13 0;
#X connect 15 0 26 0;
#X connect 16 0 0 1;
#X connect 20 0 21 0;
#X connect 20 1 25 0;
#X connect 20 2 24 0;
#X connect 20 3 36 0;
#X connect 22 0 0 1;
#X connect 23 0 4 0;
#X connect 23 1 12 0;
#X connect 23 2 22 0;
#X connect 26 0 17 0;
#X connect 26 1 18 0;
#X connect 26 2 20 0;
#X connect 26 3 39 0;
#X connect 28 0 30 0;
#X connect 28 0 20 0;
#X connect 29 0 28 0;
#X connect 32 0 34 0;
#X connect 32 1 33 0;
#X connect 33 0 4 0;
#X connect 34 0 23 0;
#X connect 35 0 28 1;
#X connect 37 0 28 1;
#X connect 38 0 20 1;
#X connect 39 0 20 1;
