#N canvas 1244 445 1475 1183 12;
#X obj 29 19 inlet~;
#X obj 371 4 inlet;
#X text 431 5 ext control;
#X msg 396 163 *TRIGSTART;
#X msg 512 165 *TRIGEND;
#X obj 185 415 spigot;
#X msg 300 364 1;
#X obj 300 441 tgl 15 0 empty empty empty 17 7 0 10 -262144 -1 -1 0
1;
#X obj 182 208 s \$0-TRIGSTART;
#X obj 310 170 t b b;
#X obj 296 208 s \$0-TRIGEND;
#X obj 503 74 s \$0-INFILE;
#X obj 569 107 s \$0-OUTFILE;
#X obj 371 32 route trigstart trigend infile outfile;
#X obj 197 119 bang;
#X obj 318 115 bang;
#X obj 417 210 print DYNOZ;
#X obj 125 536 print >>>dynoz;
#N canvas 1439 662 1713 1498 \$0-BANDIFY 1;
#X obj 146 434 gpp-tempo2;
#X obj 146 401 t b a;
#X obj 146 570 list;
#X obj 422 70 loadbang;
#X obj 144 286 f;
#X text 113 209 will react on band change \, not env change (!), f
14;
#X obj 148 73 inlet;
#X obj 302 70 r \$0-TRIGSTART;
#X obj 145 615 outlet;
#X msg 299 367 waitstart;
#X obj 225 75 inlet;
#X obj 146 366 pack f s;
#X text 147 47 env;
#X text 219 47 tempo reset;
#X obj 149 154 gpp-dynamics-bands;
#X obj 145 495 list split 2;
#X connect 0 0 15 0;
#X connect 1 0 0 0;
#X connect 1 1 2 1;
#X connect 2 0 8 0;
#X connect 3 0 14 1;
#X connect 4 0 11 0;
#X connect 6 0 14 0;
#X connect 7 0 14 1;
#X connect 9 0 0 1;
#X connect 10 0 9 0;
#X connect 11 0 1 0;
#X connect 14 0 4 0;
#X connect 14 1 11 1;
#X connect 15 0 2 0;
#X restore 186 460 pd \$0-BANDIFY;
#N canvas 2251 1120 1328 1209 \$0-PROCESS 1;
#N canvas 2048 186 1770 1224 \$0-WRITE-YAML 1;
#X obj 472 61 inlet;
#X obj 682 57 inlet;
#X msg 1050 400 outfile \$1;
#X obj 1073 318 r \$0-OUTFILE;
#X obj 1181 35 r \$0-TRIGSTART;
#X obj 934 419 gpp-ywrite;
#X obj 1011 36 r \$0-TRIGEND;
#X obj 375 201 / 1000;
#X obj 309 244 gpp-display-seconds;
#X obj 346 65 inlet;
#X obj 1181 98 \$0;
#X obj 233 314 list prepend \$0;
#X obj 235 279 list append;
#X obj 1153 36 bng 15 250 50 0 empty empty empty 17 7 0 10 -262144
-1 -1;
#X text 1552 676 close previous region beats' sublist and region hash
for all regions > 1, f 18;
#X obj 1182 64 t b b b;
#X text 1768 538 [% regions=> [@ [% ... beats=> [@ [% .... %] [% ...
%];
#X text 1770 651 end: @] \, %] \, @] \;;
#X text 1768 680 recheader=> [%;
#X text 1773 717 %] %];
#X text 1769 585 trigregion: @] \, %];
#N canvas 1217 612 2568 1609 \$0-END 1;
#X obj 63 56 t b;
#X obj 63 99 f;
#X obj 63 141 list append;
#X obj 61 555 list prepend \$0;
#X obj 60 581 t b a;
#X obj 60 608 print --- END;
#X obj 63 23 inlet;
#X obj 149 40 r \$0-NUMDYNS;
#X obj 160 520 r \$0-MAXENV;
#X obj 60 522 list append;
#X obj 63 182 list append;
#X obj 158 476 r \$0-MINENV;
#X obj 60 480 list append;
#X obj 332 307 gpp-dynamics-bands;
#X obj 496 354 gpp-dynamics-bands;
#X obj 522 217 r \$0-TRIGSTART;
#X obj 685 250 r \$0-TRIGSTART;
#X obj 61 363 list append;
#X obj 61 321 list append;
#X obj 62 439 list append;
#X obj 62 397 list append;
#X obj 331 273 r \$0-MINENV;
#X obj 497 317 r \$0-MAXENV;
#X obj 137 102 r \$0-AVERAGE_DYN_OCCURENCES_DEGREE;
#X obj 166 136 r \$0-AVERAGE_DYN_OCCURENCES_SYMBOL;
#X obj 63 267 list append;
#X obj 63 225 list append;
#X obj 185 166 r \$0-AVERAGE_DYN_DURATION_DEGREE;
#X obj 208 216 r \$0-AVERAGE_DYN_DURATION_SYMBOL;
#X msg 90 660 \; \$1-YW @] \; \$1-YW header => \, [% \; \$1-YW number_of_dynamics
\$2 \, average_dynamics_occurences_degree \$3 \, average_dynamics_occurences_symbol
\$4 \, average_dynamics_duration_degree \$5 \, average_dynamics_duration_symbol
\$6 \, min_dynamics_degree \$7 \, max_dynamics_degree \$8 \, min_dynamics_symbol
\$9 \, max_dynamics_symbol \$10 \, min_env_detected \$11 \, max_env_detected
\$12 \; \$1-YW %] \, %] \;, f 150;
#X connect 0 0 1 0;
#X connect 1 0 2 0;
#X connect 2 0 10 0;
#X connect 3 0 4 0;
#X connect 4 0 5 0;
#X connect 4 1 29 0;
#X connect 6 0 0 0;
#X connect 7 0 1 1;
#X connect 8 0 9 1;
#X connect 9 0 3 0;
#X connect 10 0 26 0;
#X connect 11 0 12 1;
#X connect 12 0 9 0;
#X connect 13 0 18 1;
#X connect 13 1 20 1;
#X connect 14 0 17 1;
#X connect 14 1 19 1;
#X connect 15 0 13 2;
#X connect 16 0 14 2;
#X connect 17 0 20 0;
#X connect 18 0 17 0;
#X connect 19 0 12 0;
#X connect 20 0 19 0;
#X connect 21 0 13 0;
#X connect 22 0 14 0;
#X connect 23 0 2 1;
#X connect 24 0 10 1;
#X connect 25 0 18 0;
#X connect 26 0 25 0;
#X connect 27 0 26 1;
#X connect 28 0 25 1;
#X restore 1012 82 pd \$0-END;
#X obj 1075 463 print REGISTERED_OUTFILE;
#X obj 1045 280 r \$0-YWCONTROL;
#X obj 932 282 r \$0-YW;
#X text 233 411 (close pitch subhash);
#X text 646 9 <=======precendence;
#X obj 346 171 t f f;
#X obj 472 94 t f f;
#X obj 557 176 list prepend \$0;
#X obj 715 123 \$0;
#X msg 715 155 \; \$1-YW [% \;;
#X floatatom 473 257 5 0 0 0 - - -;
#X text 344 43 timing;
#X obj 563 332 print WOOOF-------------->>>>;
#X obj 1073 360 gpp-add-extension \$1;
#X msg 234 346 \; \$1-YW at_ms \$2 \; \$1-YW at_time \$3 \; \$1-YW
%] \;;
#X text 789 221 NOTE: detune assumes a1=440Hz tuning. No tuning, f
22;
#X obj 683 93 t s b;
#X obj 557 140 pack f s f;
#X text 462 36 dynamics_degree | dynamics symbol;
#N canvas 741 477 1612 1104 \$0-COUNT-DYN-RECORDING 1;
#X obj 131 32 inlet;
#X obj 479 148 s \$0-DYN-ID;
#X obj 28 35 inlet;
#X text 20 6 duration;
#X text 127 9 dyn_degree;
#X obj 28 326 gpp-dynamics-bands;
#X obj 349 101 gpp-adder3 0;
#X obj 465 20 r \$0-TRIGSTART;
#X obj 464 103 gpp-adder3 0;
#X obj 348 23 t f b;
#X msg 467 77 1;
#X obj 350 147 expr $f1 / $f2;
#X text 334 71 dyn_degree;
#X text 350 195 dyn_degree occurences average, f 13;
#X text 504 440 max id;
#X obj 130 64 t f f;
#X obj 28 214 gpp-adder3 0;
#X obj 174 116 r \$0-TRIGSTART;
#X obj 130 216 gpp-adder3 0;
#X obj 464 401 s \$0-NUMDYNS;
#X obj 90 297 expr $f1 / $f2;
#X obj 28 162 expr $f1 * $f2 \; $f1 \;;
#X obj 283 248 gpp-dynamics-bands;
#X obj 283 300 s \$0-AVERAGE_DYN_OCCURENCES_DEGREE;
#X obj 405 339 s \$0-AVERAGE_DYN_OCCURENCES_SYMBOL;
#X obj 29 374 s \$0-AVERAGE_DYN_DURATION_DEGREE;
#X obj 150 415 s \$0-AVERAGE_DYN_DURATION_SYMBOL;
#X floatatom 191 333 5 0 0 0 - - -;
#X floatatom 273 335 5 0 0 0 - - -;
#X floatatom 333 337 5 0 0 0 - - -;
#X floatatom 76 457 5 0 0 0 - - -;
#X floatatom 232 295 5 0 0 0 - - -;
#X symbolatom 423 278 10 0 0 0 - - -;
#X symbolatom 182 460 10 0 0 0 - - -;
#X floatatom 28 262 12 0 0 0 - - -;
#X floatatom 130 266 12 0 0 0 - - -;
#X connect 0 0 15 0;
#X connect 2 0 21 0;
#X connect 5 0 25 0;
#X connect 5 0 30 0;
#X connect 5 1 26 0;
#X connect 5 1 33 0;
#X connect 6 0 11 0;
#X connect 7 0 8 1;
#X connect 7 0 6 1;
#X connect 8 0 11 1;
#X connect 8 0 1 0;
#X connect 8 0 19 0;
#X connect 8 0 29 0;
#X connect 9 0 6 0;
#X connect 9 1 10 0;
#X connect 10 0 8 0;
#X connect 11 0 22 1;
#X connect 11 0 28 0;
#X connect 15 0 21 1;
#X connect 15 1 9 0;
#X connect 16 0 20 0;
#X connect 16 0 34 0;
#X connect 17 0 16 1;
#X connect 17 0 18 1;
#X connect 18 0 20 1;
#X connect 18 0 35 0;
#X connect 20 0 27 0;
#X connect 20 0 5 1;
#X connect 21 0 16 0;
#X connect 21 1 18 0;
#X connect 22 0 23 0;
#X connect 22 0 31 0;
#X connect 22 1 24 0;
#X connect 22 1 32 0;
#X restore 505 388 pd \$0-COUNT-DYN-RECORDING;
#X obj 565 103 r \$0-DYN-ID;
#X msg 556 212 \; \$1-YW dynamics_degree \$2 \; \$1-YW dynamics_symbol
\$3 \; \$1-YW id \$4 \;, f 31;
#X msg 1181 134 \; \$1-YWCONTROL clear \; \$1-YW [% \, dynamics =>
\, [@ \;;
#X obj 346 105 unpack f f;
#X obj 413 134 t f f;
#X obj 382 286 list prepend \$0;
#X msg 383 318 \; \$1-YW duration_ms \$2 \;;
#X floatatom 421 174 5 0 0 0 - - -;
#X floatatom 497 162 5 0 0 0 - - -;
#X connect 0 0 28 0;
#X connect 1 0 38 0;
#X connect 2 0 5 1;
#X connect 3 0 35 0;
#X connect 4 0 15 0;
#X connect 6 0 21 0;
#X connect 7 0 8 0;
#X connect 8 0 12 1;
#X connect 9 0 45 0;
#X connect 10 0 44 0;
#X connect 11 0 36 0;
#X connect 12 0 11 0;
#X connect 13 0 15 0;
#X connect 15 0 10 0;
#X connect 23 0 5 1;
#X connect 24 0 5 0;
#X connect 27 0 12 0;
#X connect 27 1 7 0;
#X connect 28 0 32 0;
#X connect 28 0 39 0;
#X connect 28 1 41 1;
#X connect 28 1 50 0;
#X connect 29 0 43 0;
#X connect 30 0 31 0;
#X connect 35 0 2 0;
#X connect 35 0 22 0;
#X connect 38 0 39 1;
#X connect 38 1 30 0;
#X connect 39 0 29 0;
#X connect 42 0 39 2;
#X connect 45 0 27 0;
#X connect 45 1 46 0;
#X connect 46 0 47 0;
#X connect 46 1 41 0;
#X connect 46 1 49 0;
#X connect 47 0 48 0;
#X restore 100 149 pd \$0-WRITE-YAML;
#X obj 111 22 inlet;
#X text 216 74 timing|dynnum|dynsymbol;
#X text 241 323 timing | dyn_int | dyn_symbol;
#X obj 134 87 unpack f s;
#X obj 107 53 list split 2;
#X obj 189 519 print =>YWDYNOZ[DYNAMICS_DEGREE];
#X obj 313 453 print =>YWDYNOZ[DYNAMICS_SYMBOL];
#X obj 42 367 print =>YWDYNOZ[TIMECODE | DURATION];
#X connect 1 0 5 0;
#X connect 4 0 0 1;
#X connect 4 0 6 0;
#X connect 4 1 0 2;
#X connect 4 1 7 0;
#X connect 5 0 0 0;
#X connect 5 0 8 0;
#X connect 5 1 4 0;
#X restore 186 501 pd \$0-PROCESS;
#X msg 331 395 0;
#X obj 183 349 env~ 16384 8192;
#X obj 200 172 t b b b b;
#X obj 72 443 s \$0-MAXENV;
#X obj 71 363 gpp-max2;
#X msg 123 301 -1;
#X obj 27 280 gpp-min2;
#X obj 46 491 s \$0-MINENV;
#X floatatom 467 424 5 0 0 0 - - -;
#X obj 525 350 vsl 15 128 0 100 0 0 empty empty empty 0 -9 0 10 -262144
-1 -1 0 1;
#X obj 424 351 rmstodb;
#X floatatom 440 383 5 0 0 0 - - -;
#X floatatom 199 381 5 0 0 0 - - -;
#X msg 78 233 1000;
#X connect 0 0 21 0;
#X connect 1 0 13 0;
#X connect 3 0 16 0;
#X connect 4 0 16 0;
#X connect 5 0 18 0;
#X connect 6 0 5 1;
#X connect 6 0 7 0;
#X connect 9 0 10 0;
#X connect 9 1 20 0;
#X connect 13 0 14 0;
#X connect 13 1 15 0;
#X connect 13 2 11 0;
#X connect 13 3 12 0;
#X connect 14 0 3 0;
#X connect 14 0 22 0;
#X connect 15 0 4 0;
#X connect 15 0 9 0;
#X connect 18 0 17 0;
#X connect 18 0 19 0;
#X connect 20 0 5 1;
#X connect 20 0 7 0;
#X connect 21 0 5 0;
#X connect 21 0 24 0;
#X connect 21 0 26 0;
#X connect 21 0 28 0;
#X connect 21 0 32 0;
#X connect 22 0 8 0;
#X connect 22 1 18 1;
#X connect 22 2 6 0;
#X connect 22 3 25 0;
#X connect 22 3 33 0;
#X connect 24 0 23 0;
#X connect 25 0 24 1;
#X connect 26 0 27 0;
#X connect 30 0 29 0;
#X connect 30 0 31 0;
#X connect 33 0 26 1;
