#N canvas 1960 180 1600 1400 12;
#X obj 98 27 inlet~;
#X obj 98 62 gpp-env~;
#X obj 172 27 inlet;
#X obj 231 96 loadbang;
#X obj 106 109 vu 15 120 empty empty -1 -8 0 5 -66577 -1 1 0;
#X msg 231 122 size 15 120;
#X msg 197 62 300;
#X obj 105 285 outlet;
#X obj 161 282 outlet;
#X obj 231 286 outlet;
#X connect 0 0 1 0;
#X connect 1 0 4 0;
#X connect 1 0 4 1;
#X connect 1 0 9 0;
#X connect 2 0 4 0;
#X connect 3 0 5 0;
#X connect 3 0 6 0;
#X connect 4 0 7 0;
#X connect 4 1 8 0;
#X connect 5 0 4 0;
#X connect 6 0 4 1;
#X coords 0 -1 1 1 60 150 2 100 100;
