#N canvas 524 708 1600 1400 12;
#X obj 89 60 inlet;
#X obj 221 27 inlet;
#X obj 153 232 outlet;
#X obj 89 173 float;
#X obj 90 88 t b f;
#X obj 153 195 + 0;
#X obj 148 60 float \$1;
#X msg 180 142 float 0;
#X obj 153 107 t b f b;
#X obj 148 27 loadbang;
#X obj 278 26 inlet;
#X text 340 21 *** gpp-adder3 - plain non-autostarting adder. Initial
value \, specified by the \$1. in1=number to add in2=reset to initial
value (reset doesn't output anything in this case) in3 = set initial
value :: out1=sum;
#X connect 0 0 4 0;
#X connect 1 0 6 0;
#X connect 3 0 5 0;
#X connect 4 0 3 0;
#X connect 4 1 5 1;
#X connect 5 0 3 1;
#X connect 5 0 2 0;
#X connect 6 0 8 0;
#X connect 7 0 5 1;
#X connect 8 1 3 1;
#X connect 8 2 7 0;
#X connect 9 0 6 0;
#X connect 10 0 6 1;
#X coords 0 0 1 1 140 30 0;
