#N canvas 838 180 2508 1793 12;
#X obj 410 20 cnv 10 112 22 empty empty AIR 36 6 1 22 -66577 -262144
0;
#X text 406 50 Gregor Pirš 2022;
#X text 538 14 gpp-ispan :: inverse number span :: input data in format
1\\\,3\\\,5\\\,7-11 \, 13 :: output: dripping list of all numbers *THAT
DO NOT BELONG TO THE INPUT SPAN* PROVIDED THE MAXIMUM SIZE OF THE FIELD
:: ARG1: SPAN MAX SIZE (MAXIMUM NUMBER);
#X obj 183 6 inlet;
#X obj 534 217 \$0;
#X obj 534 145 loadbang;
#X msg 556 303 resize \$1;
#X obj 556 268 \$1;
#X obj 557 343 array define x\$0_array \;;
#X msg 534 380 \; x\$1_array const 1 \;;
#X obj 220 490 array get x\$0_array \;;
#X obj 220 524 list-abs/list-drip;
#X obj 228 832 outlet;
#X obj 220 552 t b f;
#X msg 204 585 1;
#X obj 136 625 gpp-adder3 0;
#X obj 168 668 pack f f;
#X msg 289 457 -1;
#X obj 82 829 outlet;
#X obj 83 752 bag;
#X msg 39 712 flush;
#X msg 79 626 clear;
#X obj 238 201 t a b b;
#X obj 534 179 t b b b;
#X obj 52 6 inlet;
#X obj 231 153 t b b a b;
#X obj 11 200 print =================;
#X obj 38 34 symbol;
#X obj 168 693 t b b a a;
#X obj 35 110 t b b b;
#X obj 36 62 sel print clear;
#N canvas 0 180 1150 923 \$0-STORE 0;
#X obj 63 25 inlet;
#X obj 159 193 gpp-span;
#X obj 64 92 route even odd;
#N canvas 598 788 1681 1141 \$0-EO-LOOP 0;
#X obj 30 8 inlet;
#X obj 28 125 until;
#X obj 29 91 \$1;
#X obj 28 278 moses 1;
#X obj 27 179 gpp-adder3 0;
#X msg 30 151 1;
#X obj 285 10 inlet;
#X obj 283 102 until;
#X obj 284 68 \$1;
#X obj 281 261 moses 1;
#X obj 283 171 gpp-adder3 0;
#X obj 285 42 t b b;
#X msg 284 131 1;
#X obj 30 66 t b b;
#X obj 28 209 expr if ($f1 % 2 != 0 \, $f1 \, 0) \; if ($f1 % 2 ==
0 \, 0 \, $f1) \;;
#X obj 191 273 moses 1;
#X obj 282 208 expr if ($f1 % 2 == 0 \, $f1 \, 0) \; if ($f1 % 2 !=
0 \, 0 \, $f1) \;;
#X obj 494 260 moses 1;
#X obj 16 320 expr x\$0_array[$f1-1]=x\$0what \;;
#X obj 240 356 expr x\$0_array[$f1-1]=(x\$0what == 1) \;;
#X obj 326 288 expr x\$0_array[$f1-1]=x\$0what \;;
#X obj 541 328 expr x\$0_array[$f1-1]=(x\$0what == 1) \;;
#X connect 0 0 13 0;
#X connect 1 0 5 0;
#X connect 2 0 1 0;
#X connect 3 1 18 0;
#X connect 4 0 14 0;
#X connect 5 0 4 0;
#X connect 6 0 11 0;
#X connect 7 0 12 0;
#X connect 8 0 7 0;
#X connect 9 1 20 0;
#X connect 10 0 16 0;
#X connect 11 0 8 0;
#X connect 11 1 10 1;
#X connect 12 0 10 0;
#X connect 13 0 2 0;
#X connect 13 1 4 1;
#X connect 14 0 3 0;
#X connect 14 1 15 0;
#X connect 15 1 19 0;
#X connect 16 0 9 0;
#X connect 16 1 17 0;
#X connect 17 1 21 0;
#X restore 42 136 pd \$0-EO-LOOP;
#X obj 159 221 expr x\$0_array[$f1 - 1]=(x\$0what == 1) \;;
#X connect 0 0 2 0;
#X connect 1 0 4 0;
#X connect 2 0 3 0;
#X connect 2 1 3 1;
#X connect 2 2 1 0;
#X restore 219 290 pd \$0-STORE;
#X obj 181 72 v x\$0what;
#X obj 293 10 inlet;
#X msg 201 42 0;
#X obj 233 43 loadbang;
#X obj 405 788 outlet;
#X obj 422 473 bng 15 250 50 0 empty empty empty 17 7 0 10 -262144
-1 -1;
#X obj 422 517 array sum x\$0_array;
#X obj 230 789 spigot;
#X obj 83 793 spigot;
#X obj 424 644 != \$1;
#X text 469 541 operate when array is not full of 1s. if full \, do
not output the result rather bang the third outlet, f 22;
#X obj 401 596 t b f;
#X text 402 827 array full (solorelease to be applied);
#X connect 3 0 32 0;
#X connect 4 0 9 0;
#X connect 5 0 23 0;
#X connect 6 0 8 0;
#X connect 7 0 6 0;
#X connect 10 0 11 0;
#X connect 11 0 13 0;
#X connect 13 0 14 0;
#X connect 13 1 16 1;
#X connect 14 0 15 0;
#X connect 15 0 16 0;
#X connect 16 0 28 0;
#X connect 17 0 10 1;
#X connect 19 0 40 0;
#X connect 20 0 19 0;
#X connect 21 0 19 0;
#X connect 22 0 31 0;
#X connect 22 1 15 1;
#X connect 22 2 17 0;
#X connect 22 2 21 0;
#X connect 23 0 4 0;
#X connect 23 1 7 0;
#X connect 23 2 21 0;
#X connect 24 0 27 0;
#X connect 25 1 38 0;
#X connect 25 2 22 0;
#X connect 27 0 30 0;
#X connect 28 1 20 0;
#X connect 28 2 19 0;
#X connect 28 3 39 0;
#X connect 29 0 10 0;
#X connect 29 2 15 1;
#X connect 30 0 29 0;
#X connect 30 1 21 0;
#X connect 30 1 4 0;
#X connect 33 0 25 0;
#X connect 34 0 32 0;
#X connect 35 0 34 0;
#X connect 37 0 38 0;
#X connect 38 0 43 0;
#X connect 39 0 12 0;
#X connect 40 0 18 0;
#X connect 41 0 40 1;
#X connect 41 0 39 1;
#X connect 43 0 36 0;
#X connect 43 1 41 0;
